<svg xmlns="http://www.w3.org/2000/svg" width="31" height="23" viewBox="0 0 31 23" fill="none">
  <path d="M14.8707 1.42961C14.8707 2.57331 14.7961 2.85923 14.4976 2.85923C14.2489 2.85923 14.1245 2.59013 14.0748 1.76599L14.0001 0.655931L13.0052 1.1605C11.7367 1.78281 10.8661 2.80878 10.6671 3.91884C10.5428 4.65888 10.4184 4.79343 9.89606 4.87753C9.49809 4.9448 9.24936 5.11299 9.19961 5.33164C9.12499 5.61757 9.34885 5.78576 10.1697 6.05486C13.5276 7.21538 19.8454 7.26584 23.0291 6.15578C24.2977 5.70166 24.3225 4.89434 23.054 4.87753C22.7555 4.87753 22.6063 4.64206 22.5068 3.93566C22.3327 2.85923 21.3129 1.6819 20.0195 1.04277L19.2235 0.67275L19.0992 1.71553C18.9997 2.53967 18.8753 2.79196 18.5519 2.8256C18.154 2.87605 18.1042 2.72468 18.1042 1.44643V-1.43051e-05H16.4875H14.8707V1.42961ZM17.1093 4.37295C17.1093 4.55796 16.9601 4.70933 16.7611 4.70933C16.5372 4.70933 16.4129 4.55796 16.4377 4.37295C16.4626 4.18794 16.6118 4.03657 16.7859 4.03657C16.9601 4.03657 17.1093 4.18794 17.1093 4.37295ZM16.6118 4.77661C17.5073 4.77661 18.8256 4.70933 19.5469 4.62524C21.2631 4.44023 21.288 4.77661 19.5469 5.12981C17.2834 5.58393 12.7316 5.31482 12.4331 4.70933C12.3336 4.52432 12.5824 4.50751 13.6519 4.62524C14.3981 4.70933 15.7164 4.77661 16.6118 4.77661Z" fill="#0CB9DE"/>
  <path d="M10.1954 7.43405C9.79747 7.77044 10.1208 9.11596 10.6183 9.20006C10.8421 9.2337 11.2401 9.671 11.4888 10.1419C11.9863 11.0838 13.8269 12.463 14.5731 12.4293C14.8219 12.4293 14.8716 12.3789 14.6975 12.3284C14.5234 12.2948 14.3741 12.1602 14.3741 12.0593C14.3741 11.9416 14.001 11.6556 13.5533 11.4034C12.9812 11.1174 12.5087 10.6129 12.1356 9.92328C11.8371 9.36825 11.3645 8.83004 11.1158 8.72913C10.5437 8.5273 10.4939 7.90499 11.0411 7.90499C11.5386 7.90499 11.3894 7.33314 10.867 7.26586C10.6432 7.24904 10.3447 7.31632 10.1954 7.43405Z" fill="#0CB9DE"/>
  <path d="M22.159 7.35002C21.7113 7.46775 21.761 7.90505 22.2087 7.90505C22.8057 7.90505 22.6316 8.51053 21.96 8.81328C21.6118 8.96465 21.3382 9.1833 21.3382 9.30103C21.3382 9.82242 20.0696 11.2857 19.3732 11.5716C18.826 11.7903 18.7016 11.9416 18.8757 12.1098C19.0249 12.2948 19.0996 12.3117 19.0996 12.1435C19.0996 12.0257 19.1991 11.9584 19.3234 12.0089C19.7711 12.2107 21.0646 11.2352 21.562 10.3606C21.8356 9.85606 22.3331 9.25057 22.7062 9.01511C23.3778 8.56099 23.5021 8.09006 23.0793 7.55184C22.8057 7.23228 22.6813 7.19864 22.159 7.35002Z" fill="#0CB9DE"/>
  <path d="M20.716 13.4716C20.4921 13.9425 18.7261 14.4807 17.1342 14.5817C15.3185 14.6994 13.7266 14.3967 12.8063 13.7743L12.0601 13.2698L10.9905 13.623L9.89612 13.9594V14.9853C9.89612 15.5404 10.0205 16.1627 10.1697 16.3477C10.3687 16.5831 10.3687 16.7345 10.1697 16.8691C10.0205 16.97 9.89612 17.7268 9.89612 18.7023V20.3506L16.4875 20.317L23.0789 20.3002V17.1382V13.993L21.9596 13.5725C20.8901 13.1689 20.8652 13.1689 20.716 13.4716Z" fill="#0CB9DE"/>
  <path d="M5.66781 15.6416C2.90688 16.7685 2.38454 17.3739 1.31499 20.5696C1.11601 21.2087 0.941895 21.9319 0.941895 22.2178V22.7056H4.17541H7.40893V18.8372C7.40893 16.7012 7.38406 14.9688 7.35919 14.9688C7.30944 14.9856 6.56324 15.2716 5.66781 15.6416ZM3.42922 20.6032C3.42922 20.8723 3.27998 21.0237 3.05612 21.0237C2.83226 21.0237 2.68302 20.8723 2.68302 20.6032C2.68302 20.3341 2.83226 20.1827 3.05612 20.1827C3.27998 20.1827 3.42922 20.3341 3.42922 20.6032Z" fill="#0CB9DE"/>
  <path d="M24.1224 18.5454V22.4306H27.5052H30.9128L30.7387 21.9092C30.6641 21.6233 30.6434 21.2521 30.5895 21.1019C30.5895 20.8664 30.4054 20.5057 30.4054 20.5057L30.3578 20.3486L30.2626 20.0736L30.092 19.605C30.092 19.605 29.2712 17.6035 28.8235 17.0148C28.525 16.628 27.7788 16.1402 26.6595 15.6357C23.8737 14.391 24.1224 14.0883 24.1224 18.5454Z" fill="#0CB9DE"/>
</svg>