<svg xmlns="http://www.w3.org/2000/svg" width="18" height="18" viewBox="0 0 18 18" fill="none">
  <g clip-path="url(#clip0_0_1668)">
    <path d="M13.5944 2.74701H2.53921C2.07442 2.74701 1.68157 2.90194 1.36065 3.21179C1.03973 3.52165 0.879272 3.90897 0.879272 4.37375V15.1965C0.879272 15.6392 1.03973 16.0209 1.36065 16.3419C1.68157 16.6628 2.07442 16.8232 2.53921 16.8232H13.5944C14.0591 16.8232 14.452 16.6628 14.7729 16.3419C15.0938 16.0209 15.2543 15.6392 15.2543 15.1965V4.37375C15.2543 3.90897 15.0938 3.52165 14.7729 3.21179C14.452 2.90194 14.0591 2.74701 13.5944 2.74701ZM13.4616 10.1835C13.4616 10.6262 13.4394 11.0301 13.3952 11.3953C13.3509 11.7604 13.3288 11.943 13.3288 11.943C13.3288 11.943 13.3011 12.0869 13.2458 12.3746C13.1904 12.6623 13.0742 12.8837 12.8972 13.0386C12.698 13.2599 12.4933 13.3872 12.283 13.4204C12.0728 13.4536 11.9234 13.4812 11.8348 13.5034C11.0602 13.5476 10.2302 13.5753 9.34493 13.5864C8.45963 13.5974 8.01698 13.603 8.01698 13.603C8.01698 13.603 7.51347 13.5974 6.50644 13.5864C5.49942 13.5753 4.77458 13.5476 4.33193 13.5034C4.22127 13.4812 4.04974 13.4536 3.81735 13.4204C3.58496 13.3872 3.35811 13.2599 3.13678 13.0386C2.98185 12.8615 2.87119 12.6347 2.80479 12.358C2.7384 12.0814 2.7052 11.943 2.7052 11.943C2.7052 11.943 2.6886 11.7604 2.6554 11.3953C2.6222 11.0301 2.6056 10.6262 2.6056 10.1835V9.35354C2.6056 8.9109 2.6222 8.50698 2.6554 8.14179C2.6886 7.77661 2.7052 7.59402 2.7052 7.59402C2.7052 7.59402 2.7384 7.45569 2.80479 7.17903C2.87119 6.90238 2.98185 6.67552 3.13678 6.49846C3.35811 6.27714 3.56836 6.14987 3.76756 6.11668C3.96675 6.08348 4.12167 6.05581 4.23234 6.03368C4.98484 5.98941 5.80374 5.96175 6.68904 5.95068C7.57433 5.93962 8.01698 5.93408 8.01698 5.93408C8.01698 5.93408 8.45963 5.93962 9.34493 5.95068C10.2302 5.96175 11.0602 5.98941 11.8348 6.03368C11.9234 6.05581 12.0728 6.08348 12.283 6.11668C12.4933 6.14987 12.698 6.27714 12.8972 6.49846C13.0742 6.67552 13.1904 6.90238 13.2458 7.17903C13.3011 7.45569 13.3288 7.59402 13.3288 7.59402C13.3288 7.59402 13.3509 7.77661 13.3952 8.14179C13.4394 8.50698 13.4616 8.9109 13.4616 9.35354V10.1835ZM6.48985 12.0094L10.6397 9.71873L6.48985 7.56082V12.0094Z" fill="#0CB9DE"/>
  </g>
  <defs>
    <clipPath id="clip0_0_1668">
      <rect width="16.9977" height="16.9977" fill="white" transform="matrix(1 0 0 -1 0.87915 17.7856)"/>
    </clipPath>
  </defs>
</svg>