<svg width="162" height="158" viewBox="0 0 162 158" fill="none" xmlns="http://www.w3.org/2000/svg">
<path d="M161 79.5C161 90.9693 158.423 102.299 153.45 112.693C148.476 123.086 141.228 132.291 132.215 139.659C123.201 147.027 112.641 152.379 101.278 155.34C89.9156 158.3 78.0254 158.797 66.4446 156.794C54.8638 154.792 43.8736 150.339 34.2474 143.749C24.6211 137.159 16.5925 128.592 10.7266 118.651C4.86065 108.71 1.29979 97.6366 0.294558 86.2093C-0.710676 74.782 0.864131 63.2787 4.90818 52.5087L41.2019 65.468C39.0995 71.067 38.2808 77.0472 38.8034 82.988C39.326 88.9287 41.1772 94.6856 44.2268 99.8536C47.2763 105.022 51.4501 109.475 56.4545 112.901C61.459 116.327 67.1724 118.642 73.193 119.683C79.2135 120.724 85.3949 120.466 91.3022 118.927C97.2094 117.388 102.699 114.605 107.385 110.775C112.071 106.944 115.839 102.159 118.424 96.756C121.01 91.3527 122.35 85.4626 122.35 79.5H161Z" fill="#F7C600"/>
<path d="M80.5 158C68.7385 158 57.1199 155.487 46.4616 150.637C35.8033 145.787 26.3642 138.719 18.8084 129.93C11.2526 121.14 5.76371 110.843 2.72787 99.7622C-0.307982 88.6816 -0.817027 77.0869 1.23654 65.7938C3.29011 54.5007 7.85641 43.7836 14.6142 34.3965C21.3719 25.0094 30.157 17.1803 40.3513 11.4601C50.5455 5.73988 61.9014 2.2675 73.6198 1.28724C85.3383 0.306982 97.1346 1.84266 108.179 5.78624L94.8895 41.1783C89.1479 39.1281 83.0153 38.3298 76.9232 38.8394C70.8311 39.349 64.9275 41.1542 59.6278 44.128C54.3281 47.1017 49.761 51.1718 46.2478 56.0519C42.7346 60.932 40.3607 66.5036 39.2931 72.3745C38.2255 78.2455 38.4902 84.2733 40.0684 90.0338C41.6467 95.7943 44.5002 101.148 48.4283 105.717C52.3563 110.286 57.2634 113.961 62.8044 116.482C68.3453 119.003 74.3855 120.31 80.5 120.31V158Z" fill="#07912E"/>
<path d="M2.874 58.7743C7.96571 40.2605 19.8381 24.2034 36.2498 13.6345C52.6615 3.06563 72.4769 -1.28371 91.9548 1.40764C111.433 4.099 129.225 13.6448 141.974 28.2429C154.722 42.8409 161.544 61.4811 161.151 80.6442L122.5 79.8923C122.704 69.9299 119.157 60.2394 112.53 52.6503C105.902 45.0612 96.6524 40.0986 86.5264 38.6994C76.4004 37.3002 66.099 39.5613 57.567 45.0558C49.035 50.5503 42.8628 58.8979 40.2158 68.5227L2.874 58.7743Z" fill="#0CB9DE"/>
</svg>
