<svg xmlns="http://www.w3.org/2000/svg" width="18" height="18" viewBox="0 0 18 18" fill="none">
  <g clip-path="url(#clip0_0_1663)">
    <path d="M6.53165 18.067C6.46525 18.067 6.38779 18.067 6.29926 18.067C6.21073 18.067 6.13327 18.067 6.06687 18.067C6.06687 18.067 6.06134 18.056 6.05027 18.0338C6.0392 18.0117 6.01154 18.0006 5.96727 18.0006C5.2369 17.0047 4.56186 16.0198 3.94216 15.0459C3.32245 14.0721 2.63634 13.0983 1.88384 12.1245C1.68465 11.8367 1.43012 11.5324 1.12027 11.2115C0.810416 10.8906 0.79935 10.6526 1.08707 10.4977C1.41906 10.3207 1.84511 10.2875 2.36522 10.3981C2.88533 10.5088 3.24498 10.6969 3.44418 10.9625C3.44418 10.9625 3.65997 11.2004 4.09155 11.6763C4.52313 12.1521 4.82745 12.4896 5.00451 12.6888C5.00451 11.4715 5.00451 10.4424 5.00451 9.60136C5.00451 8.76033 5.00451 7.7201 5.00451 6.48069C5.00451 6.19296 5.05431 5.94397 5.15391 5.73372C5.2535 5.52346 5.44716 5.41833 5.73488 5.41833C6.02261 5.41833 6.2716 5.52346 6.48185 5.73372C6.69211 5.94397 6.79724 6.19296 6.79724 6.48069C6.79724 7.43238 6.82491 8.10189 6.88024 8.4892C6.93557 8.87652 6.96323 9.51283 6.96323 10.3981L10.7811 10.8297C11.0688 10.8297 11.4119 10.957 11.8102 11.2115C12.2086 11.466 12.4078 11.7371 12.4078 12.0249L11.943 16.1083C11.5668 17.3256 10.8253 17.9564 9.71872 18.0006C8.6121 18.0449 7.54974 18.067 6.53165 18.067ZM5.63529 1.99887C4.6172 1.99887 3.75403 2.35852 3.04579 3.07782C2.33755 3.79713 1.98344 4.66582 1.98344 5.68392C1.98344 6.50282 2.21583 7.21659 2.68061 7.82523C3.14539 8.43387 3.7319 8.88205 4.44014 9.16978C4.44014 9.3911 4.44014 9.59029 4.44014 9.76735C4.44014 9.94441 4.44014 10.1325 4.44014 10.3317C3.42204 10.044 2.58101 9.48516 1.91704 8.6552C1.25306 7.82523 0.921078 6.85694 0.921078 5.75031C0.921078 4.4445 1.38586 3.33235 2.31542 2.41385C3.24498 1.49535 4.35161 1.0361 5.63529 1.0361C6.9411 1.0361 8.05879 1.49535 8.98835 2.41385C9.91791 3.33235 10.3827 4.4445 10.3827 5.75031C10.3827 6.72414 10.1226 7.59837 9.60253 8.37301C9.08241 9.14764 8.39078 9.71202 7.52761 10.0661C7.52761 9.86695 7.52208 9.67882 7.51101 9.50176C7.49995 9.3247 7.47228 9.13658 7.42802 8.93739C7.95919 8.6054 8.39078 8.16828 8.72276 7.62604C9.05475 7.08379 9.22074 6.45855 9.22074 5.75031C9.26501 4.68796 8.93302 3.79713 8.22478 3.07782C7.51654 2.35852 6.65338 1.99887 5.63529 1.99887Z" fill="#333333"/>
  </g>
  <defs>
    <clipPath id="clip0_0_1663">
      <rect width="16.9977" height="16.9977" fill="white" transform="matrix(1 0 0 -1 0.87915 17.7339)"/>
    </clipPath>
  </defs>
</svg>