<svg xmlns="http://www.w3.org/2000/svg" width="19" height="19" viewBox="0 0 19 19" fill="none">
  <g clip-path="url(#clip0_0_1727)">
    <path d="M0.724117 9.09143C0.724117 10.1834 1.06612 11.1374 1.75012 11.9534C2.43412 12.7694 3.29212 13.2854 4.32412 13.5014C4.33612 13.5014 4.34212 13.4954 4.34212 13.4834V13.4474C4.34212 13.4474 4.34812 13.4414 4.36012 13.4294C4.56412 12.9254 4.81612 12.5174 5.11612 12.2054C5.41612 11.8934 5.83012 11.6714 6.35812 11.5394V10.2254C6.35812 9.28943 6.68212 8.49143 7.33012 7.83143C7.97812 7.17143 8.77612 6.84143 9.72412 6.84143C10.6721 6.84143 11.4701 7.17143 12.1181 7.83143C12.7661 8.49143 13.0961 9.28943 13.1081 10.2254V11.5394C13.6241 11.6834 14.0321 11.9114 14.3321 12.2234C14.6321 12.5354 14.8841 12.9374 15.0881 13.4294L15.1421 13.5914H15.3581C16.2821 13.5914 17.0741 13.2614 17.7341 12.6014C18.3941 11.9414 18.7241 11.1494 18.7241 10.2254V9.09143C18.7241 8.16743 18.3941 7.37543 17.7341 6.71543C17.0741 6.05543 16.2821 5.72543 15.3581 5.72543C15.3221 5.72543 15.2621 5.73143 15.1781 5.74343C15.2981 5.31143 15.3581 4.92743 15.3581 4.59143C15.3581 3.35543 14.9141 2.29943 14.0261 1.42343C13.1381 0.547431 12.0821 0.103431 10.8581 0.0914307C9.77812 0.0914307 8.83012 0.433431 8.01412 1.11743C7.19812 1.80143 6.67612 2.65343 6.44812 3.67343C6.01612 3.54143 5.60812 3.47543 5.22412 3.47543C3.98812 3.47543 2.92612 3.91343 2.03812 4.78943C1.15012 5.66543 0.712117 6.72743 0.724117 7.97543V9.09143ZM6.35812 14.6174C6.32212 14.9654 6.43012 15.2654 6.68212 15.5174L8.93212 17.7674C9.14812 17.9834 9.41212 18.0914 9.72412 18.0914C10.0361 18.0914 10.3001 17.9834 10.5161 17.7674L12.7661 15.5174C13.0181 15.2654 13.1321 14.9654 13.1081 14.6174C13.0841 14.4974 13.0541 14.3894 13.0181 14.2934C12.9341 14.0774 12.7961 13.9094 12.6041 13.7894C12.4121 13.6694 12.2021 13.6034 11.9741 13.5914H10.8581V10.2254C10.8581 9.91343 10.7441 9.64943 10.5161 9.43343C10.2881 9.21743 10.0241 9.10343 9.72412 9.09143C9.42412 9.07943 9.16012 9.19343 8.93212 9.43343C8.70412 9.67343 8.59612 9.93743 8.60812 10.2254V13.5914H7.47412C7.24612 13.5914 7.03612 13.6574 6.84412 13.7894C6.65212 13.9214 6.51412 14.0894 6.43012 14.2934C6.39412 14.4014 6.37012 14.5094 6.35812 14.6174Z" fill="#C0EEF1"/>
  </g>
  <defs>
    <clipPath id="clip0_0_1727">
      <rect width="18" height="18" fill="white" transform="translate(0.724121 0.0914307)"/>
    </clipPath>
  </defs>
</svg>