<svg xmlns="http://www.w3.org/2000/svg" width="41" height="41" viewBox="0 0 41 41" fill="none">
  <g clip-path="url(#clip0_0_1496)">
    <path d="M0.44397 0.559273H36.2655C36.1881 1.17889 36.1235 1.78559 36.0719 2.37939C36.0203 2.97319 35.9557 3.56699 35.8783 4.16079C35.6717 5.96801 35.4781 7.78813 35.2974 9.62116C35.1167 11.4542 34.923 13.2614 34.7165 15.0428C34.4325 17.0566 34.1808 19.0574 33.9613 21.0453C33.7419 23.0333 33.516 25.0212 33.2836 27.0091C33.1029 28.5582 32.9286 30.0879 32.7608 31.5982C32.593 33.1085 32.4317 34.6382 32.2768 36.1872C32.1735 37.5039 31.741 38.5237 30.9794 39.2466C30.2178 39.9694 29.1916 40.3309 27.9007 40.3309H8.73134C7.41465 40.3309 6.38196 39.9694 5.63326 39.2466C4.88455 38.5237 4.45857 37.5297 4.3553 36.2647C4.22621 35.1029 4.09712 33.9475 3.96804 32.7987C3.83895 31.6498 3.70986 30.5009 3.58078 29.3521C3.45169 28.2032 3.3226 27.0608 3.19352 25.9248C3.06443 24.7888 2.93534 23.6529 2.80626 22.5169C2.59972 20.529 2.38027 18.5346 2.14791 16.5338C1.91556 14.5329 1.69611 12.5385 1.48957 10.5506C1.36049 9.02736 1.20558 7.49123 1.02486 5.94219C0.844139 4.39315 0.663417 2.85701 0.482696 1.33379C0.482696 1.23052 0.476241 1.12725 0.463333 1.02398C0.450424 0.920715 0.44397 0.817444 0.44397 0.714176C0.44397 0.688358 0.44397 0.66254 0.44397 0.636723C0.44397 0.610905 0.44397 0.585087 0.44397 0.559273ZM5.74943 12.4482H30.9213C31.0762 11.1315 31.2182 9.81479 31.3473 8.4981C31.4764 7.18142 31.6055 5.87764 31.7346 4.58678H4.85874C4.98782 5.74856 5.11045 6.89098 5.22663 8.01403C5.34281 9.13708 5.46544 10.2666 5.59453 11.4026C5.62035 11.5833 5.64616 11.7511 5.67198 11.906C5.6978 12.0609 5.72362 12.2416 5.74943 12.4482ZM18.3741 17.5987C18.1676 17.8569 17.9739 18.0957 17.7932 18.3151C17.6125 18.5346 17.4318 18.7476 17.2511 18.9541C16.3991 20.0901 15.5794 21.239 14.792 22.4007C14.0045 23.5625 13.3655 24.8018 12.875 26.1184C12.7201 26.4541 12.6039 26.8155 12.5265 27.2028C12.449 27.59 12.4103 27.9902 12.4103 28.4033C12.4103 29.9781 12.9525 31.34 14.0368 32.4889C15.1211 33.6377 16.4378 34.2638 17.9869 34.3671H18.0256C19.9361 34.4704 21.5561 33.7862 22.8857 32.3146C24.2153 30.843 24.6477 29.1778 24.183 27.3189C23.6925 25.4601 22.8986 23.7626 21.8014 22.2265C20.7041 20.6903 19.5617 19.1478 18.3741 17.5987Z" fill="#0CB9DE"/>
  </g>
  <defs>
    <clipPath id="clip0_0_1496">
      <rect width="39.6554" height="39.6554" fill="white" transform="matrix(1 0 0 -1 0.444214 40.2141)"/>
    </clipPath>
  </defs>
</svg>