<svg xmlns="http://www.w3.org/2000/svg" width="14" height="14" viewBox="0 0 14 14" fill="none">
  <g clip-path="url(#clip0_0_1754)">
    <path d="M0.293507 3.0395C0.37951 2.66266 0.590927 2.3262 0.893134 2.08521C1.19534 1.84421 1.57042 1.71299 1.95695 1.71301H12.1935C12.5801 1.71299 12.9552 1.84421 13.2574 2.08521C13.5596 2.3262 13.771 2.66266 13.857 3.0395L7.07525 7.18447L0.293507 3.0395ZM0.250854 4.01369V10.0737L5.2011 7.0386L0.250854 4.01369ZM6.01832 7.53934L0.413787 10.9746C0.552259 11.2666 0.770811 11.5132 1.044 11.6858C1.3172 11.8584 1.6338 11.9499 1.95695 11.9496H12.1935C12.5166 11.9497 12.8331 11.858 13.1062 11.6852C13.3792 11.5125 13.5976 11.2657 13.7359 10.9737L8.13132 7.53849L7.07525 8.18424L6.01832 7.53849V7.53934ZM8.9494 7.03945L13.8996 10.0737V4.01369L8.9494 7.0386V7.03945Z" fill="#07912E"/>
  </g>
  <defs>
    <clipPath id="clip0_0_1754">
      <rect width="13.6488" height="13.6488" fill="white" transform="translate(0.251099 0.00671387)"/>
    </clipPath>
  </defs>
</svg>