<svg xmlns="http://www.w3.org/2000/svg" width="13" height="22" viewBox="0 0 13 22" fill="none">
  <path d="M7.51862 20.5637H5.4823V20.6937H7.51862V20.5637Z" fill="#D8F0F5"/>
  <path d="M7.51862 20.7088C7.51862 21.0451 7.06362 21.3203 6.50419 21.3203C5.9373 21.3203 5.4823 21.0451 5.4823 20.7088C5.4823 20.3648 5.9373 20.0896 6.50419 20.0896C7.06362 20.0896 7.51862 20.3648 7.51862 20.7088Z" fill="#D8F0F5"/>
  <path d="M7.51862 20.563C7.51862 20.8994 7.06362 21.1746 6.50419 21.1746C5.9373 21.1746 5.4823 20.8994 5.4823 20.563C5.4823 20.219 5.9373 19.9438 6.50419 19.9438C7.06362 19.9438 7.51862 20.219 7.51862 20.563Z" fill="#D8F0F5"/>
  <path d="M7.24964 20.5098C7.24964 20.7621 6.91398 20.9609 6.50373 20.9609C6.08603 20.9609 5.75037 20.7621 5.75037 20.5098C5.75037 20.2576 6.08603 20.0588 6.50373 20.0588C6.91398 20.0588 7.24964 20.2576 7.24964 20.5098Z" fill="#D8F0F5"/>
  <path d="M7.24964 20.51H5.75037V16.2827H7.24964V20.51Z" fill="#D8F0F5"/>
  <path d="M12.272 17.4136H10.2357V17.5512H12.272V17.4136Z" fill="#D8F0F5"/>
  <path d="M12.272 17.5664C12.272 17.9028 11.817 18.178 11.2576 18.178C10.6907 18.178 10.2357 17.9028 10.2357 17.5664C10.2357 17.2225 10.6907 16.9473 11.2576 16.9473C11.817 16.9473 12.272 17.2225 12.272 17.5664Z" fill="#D8F0F5"/>
  <path d="M12.272 17.4131C12.272 17.757 11.817 18.0322 11.2576 18.0322C10.6907 18.0322 10.2357 17.757 10.2357 17.4131C10.2357 17.0767 10.6907 16.8015 11.2576 16.8015C11.817 16.8015 12.272 17.0767 12.272 17.4131Z" fill="#D8F0F5"/>
  <path d="M12.0031 17.3676C12.0031 17.6122 11.6674 17.8186 11.2571 17.8186C10.8394 17.8186 10.5038 17.6122 10.5038 17.3676C10.5038 17.1153 10.8394 16.9089 11.2571 16.9089C11.6674 16.9089 12.0031 17.1153 12.0031 17.3676Z" fill="#D8F0F5"/>
  <path d="M12.0031 17.3677H10.5038V13.1404H12.0031V17.3677Z" fill="#D8F0F5"/>
  <path d="M2.96137 17.0769H0.925049V17.2145H2.96137V17.0769Z" fill="#D8F0F5"/>
  <path d="M2.96137 17.2221C2.96137 17.5661 2.50637 17.8413 1.94694 17.8413C1.38005 17.8413 0.925049 17.5661 0.925049 17.2221C0.925049 16.8858 1.38005 16.6106 1.94694 16.6106C2.50637 16.6106 2.96137 16.8858 2.96137 17.2221Z" fill="#D8F0F5"/>
  <path d="M2.96137 17.0764C2.96137 17.4127 2.50637 17.6879 1.94694 17.6879C1.38005 17.6879 0.925049 17.4127 0.925049 17.0764C0.925049 16.74 1.38005 16.4648 1.94694 16.4648C2.50637 16.4648 2.96137 16.74 2.96137 17.0764Z" fill="#D8F0F5"/>
  <path d="M2.69238 17.0233C2.69238 17.2755 2.35673 17.4819 1.94648 17.4819C1.52877 17.4819 1.19312 17.2755 1.19312 17.0233C1.19312 16.7787 1.52877 16.5723 1.94648 16.5723C2.35673 16.5723 2.69238 16.7787 2.69238 17.0233Z" fill="#D8F0F5"/>
  <path d="M2.69238 17.0233H1.19312V12.8037H2.69238V17.0233Z" fill="#D8F0F5"/>
  <path d="M8.26874 13.9355H6.23242V14.0731H8.26874V13.9355Z" fill="#D8F0F5"/>
  <path d="M8.26874 14.0808C8.26874 14.4171 7.81374 14.6923 7.24686 14.6923C6.68743 14.6923 6.23242 14.4171 6.23242 14.0808C6.23242 13.7444 6.68743 13.4692 7.24686 13.4692C7.81374 13.4692 8.26874 13.7444 8.26874 14.0808Z" fill="#D8F0F5"/>
  <path d="M8.26874 13.9361C8.26874 14.2724 7.81374 14.5476 7.24686 14.5476C6.68743 14.5476 6.23242 14.2724 6.23242 13.9361C6.23242 13.5921 6.68743 13.3169 7.24686 13.3169C7.81374 13.3169 8.26874 13.5921 8.26874 13.9361Z" fill="#D8F0F5"/>
  <path d="M7.99976 13.8819C7.99976 14.1342 7.6641 14.3329 7.24639 14.3329C6.83615 14.3329 6.50049 14.1342 6.50049 13.8819C6.50049 13.6297 6.83615 13.4309 7.24639 13.4309C7.6641 13.4309 7.99976 13.6297 7.99976 13.8819Z" fill="#D8F0F5"/>
  <path d="M7.99976 13.882H6.50049V9.66235H7.99976V13.882Z" fill="#D8F0F5"/>
  <path d="M12.2722 13.7514C12.2722 15.6701 9.69136 17.2296 6.50634 17.2296C3.31387 17.2296 0.733032 15.6701 0.733032 13.7514C0.733032 11.8251 3.31387 10.2656 6.50634 10.2656C9.69136 10.2656 12.2722 11.8251 12.2722 13.7514Z" fill="#B7F2FF"/>
  <path d="M12.8752 12.6507C12.8752 14.7758 10.0184 16.4958 6.50518 16.4958C2.9845 16.4958 0.127686 14.7758 0.127686 12.6507C0.127686 10.5256 2.9845 8.80566 6.50518 8.80566C10.0184 8.80566 12.8752 10.5256 12.8752 12.6507Z" fill="#D8F0F5"/>
  <path d="M0.127686 4.7854V12.6514H12.8752V4.7854H0.127686Z" fill="#D8F0F5"/>
  <path d="M12.8752 4.78525C12.8752 6.91036 10.0184 8.63032 6.50518 8.63032C2.9845 8.63032 0.127686 6.91036 0.127686 4.78525C0.127686 2.66015 2.9845 0.940186 6.50518 0.940186C10.0184 0.940186 12.8752 2.66015 12.8752 4.78525Z" fill="#F6F6F6"/>
  <path d="M11.6607 4.08973C11.6607 5.80205 9.34842 7.20095 6.50652 7.20095C3.65716 7.20095 1.34485 5.80205 1.34485 4.08973C1.34485 2.36977 3.65716 0.978516 6.50652 0.978516C9.34842 0.978516 11.6607 2.36977 11.6607 4.08973Z" fill="#B7F2FF"/>
  <path d="M10.8823 3.7613C10.8823 5.22135 8.92058 6.40621 6.50385 6.40621C4.07965 6.40621 2.11792 5.22135 2.11792 3.7613C2.11792 2.30124 4.07965 1.12402 6.50385 1.12402C8.92058 1.12402 10.8823 2.30124 10.8823 3.7613Z" fill="#D8F0F5"/>
  <path d="M2.16939 8.5607V8.56834C2.29619 8.4919 2.46029 8.49955 2.6393 8.60657C3.03463 8.83589 3.34791 9.46273 3.34791 9.99782C3.34791 10.3189 3.24349 10.5329 3.06447 10.6094L3.07193 10.617L1.77406 11.3814L0.841675 9.34806L2.16939 8.5607Z" fill="#D4DFE2"/>
  <path d="M0.580078 9.94459C0.580078 10.4873 0.900817 11.1065 1.28869 11.3435C1.68402 11.5728 2.00476 11.3282 2.00476 10.7931C2.00476 10.2504 1.68402 9.62353 1.28869 9.3942C0.900817 9.15723 0.580078 9.40949 0.580078 9.94459Z" fill="#40D3F4"/>
  <path d="M0.421143 9.85246C0.421143 10.5022 0.801554 11.259 1.27893 11.5418C1.75631 11.8247 2.14418 11.5189 2.14418 10.8691C2.14418 10.2194 1.75631 9.4626 1.27893 9.17976C0.801554 8.90457 0.421143 9.2027 0.421143 9.85246Z" fill="#2BBCE7"/>
  <path d="M0.608966 9.40874C0.608966 9.40109 0.564209 9.21763 0.564209 9.21763L0.71339 9.13354L0.884947 9.24057L0.608966 9.40874Z" fill="#2BBCE7"/>
  <path d="M1.63831 11.7021L1.84716 11.5875L1.86953 11.4346L1.68306 11.4651L1.63831 11.7021Z" fill="#2BBCE7"/>
  <path d="M0.332275 9.94445C0.332275 10.5942 0.712687 11.351 1.19007 11.6262C1.66745 11.909 2.05532 11.6109 2.05532 10.9611C2.05532 10.3114 1.66745 9.55459 1.19007 9.27176C0.712687 8.98892 0.332275 9.28704 0.332275 9.94445Z" fill="#40D3F4"/>
  <path d="M1.215 10.3805C1.1777 10.3805 1.13295 10.3728 1.09566 10.3499L0.685408 10.1053C0.648113 10.0824 0.625732 10.0518 0.625732 10.0136C0.625732 9.98299 0.640653 9.96006 0.670489 9.94477L0.767456 9.88361C0.782374 9.87597 0.80475 9.88361 0.812209 9.8989C0.819668 9.91419 0.812212 9.93712 0.797294 9.94477L0.707785 10.0059C0.697839 10.011 0.692866 10.0136 0.692866 10.0136C0.692866 10.0212 0.700324 10.0289 0.715242 10.0441L1.13295 10.2888C1.17025 10.3117 1.23738 10.3193 1.27467 10.2964L1.36418 10.2429C1.3791 10.2353 1.40147 10.2353 1.40893 10.2582C1.42385 10.2735 1.41639 10.2964 1.40148 10.304L1.30451 10.3576C1.28213 10.3728 1.24484 10.3805 1.215 10.3805Z" fill="#D4DFE2"/>
  <path d="M1.215 11.0684C1.17025 11.0684 1.13295 11.0607 1.09566 11.0378L0.685408 10.7932C0.648113 10.7702 0.625732 10.7397 0.625732 10.7091C0.625732 10.6785 0.640653 10.6479 0.670489 10.6326L0.767456 10.5791C0.782374 10.5638 0.80475 10.5715 0.812209 10.5868C0.819668 10.6097 0.812212 10.625 0.797294 10.6403L0.707785 10.6938C0.697839 10.6989 0.692866 10.704 0.692866 10.7091C0.692866 10.7091 0.700324 10.7244 0.715242 10.732L1.13295 10.9766C1.17025 11.0072 1.23738 11.0072 1.27467 10.9843L1.36418 10.9308C1.3791 10.9231 1.40147 10.9308 1.40893 10.9461C1.42385 10.9613 1.41639 10.9843 1.40148 10.9919L1.30451 11.0454C1.28213 11.0607 1.24484 11.0684 1.215 11.0684Z" fill="#D4DFE2"/>
  <path d="M2.06631 11.7565L2.07377 11.7642C2.20803 11.6801 2.38705 11.6877 2.58098 11.8024C3.00615 12.0547 3.34926 12.735 3.34926 13.3236C3.34926 13.6676 3.22992 13.8969 3.04344 13.981L3.0509 13.9887L1.64114 14.8142L0.626709 12.6127L2.06631 11.7565Z" fill="#D4DFE2"/>
  <path d="M0.34375 13.262C0.34375 13.843 0.686868 14.5233 1.11949 14.7756C1.54466 15.0278 1.89523 14.7603 1.89523 14.1793C1.89523 13.5907 1.54466 12.9104 1.11949 12.6581C0.686868 12.4058 0.34375 12.6734 0.34375 13.262Z" fill="#40D3F4"/>
  <path d="M0.171021 13.1558C0.171021 13.8668 0.588728 14.6847 1.1034 14.9905C1.62554 15.2962 2.04324 14.9752 2.04324 14.2643C2.04324 13.561 1.62554 12.7354 1.1034 12.4296C0.588728 12.1239 0.171021 12.4526 0.171021 13.1558Z" fill="#2BBCE7"/>
  <path d="M0.379485 12.6745C0.379485 12.6669 0.327271 12.4758 0.327271 12.4758L0.491371 12.384L0.677847 12.4987L0.379485 12.6745Z" fill="#2BBCE7"/>
  <path d="M1.49023 15.1662L1.72146 15.0439L1.74384 14.8757L1.54245 14.9063L1.49023 15.1662Z" fill="#2BBCE7"/>
  <path d="M0 13.2555C0 13.9587 0.417705 14.7843 0.939839 15.0901C1.45451 15.3959 1.87222 15.0671 1.87222 14.3639C1.87222 13.653 1.45451 12.835 0.939839 12.5293C0.417705 12.2235 0 12.5522 0 13.2555Z" fill="#40D3F4"/>
  <path d="M1.02868 13.7295C0.98393 13.7295 0.939177 13.7219 0.909341 13.6989L0.454336 13.4314C0.417041 13.4084 0.387207 13.3779 0.387207 13.3396C0.387207 13.3014 0.409581 13.2785 0.439417 13.2556L0.543845 13.1944C0.558763 13.1868 0.581142 13.1944 0.59606 13.2097C0.603519 13.225 0.596059 13.2556 0.581141 13.2632L0.476712 13.3244C0.471739 13.3295 0.46677 13.3346 0.461798 13.3396C0.461798 13.3396 0.469254 13.3549 0.491631 13.3702L0.946636 13.6301C0.983931 13.6607 1.05852 13.6607 1.09582 13.6454L1.19278 13.5843C1.21516 13.569 1.23754 13.5766 1.245 13.5996C1.25992 13.6148 1.25246 13.6378 1.23008 13.6454L1.13311 13.7066C1.10328 13.7219 1.06598 13.7295 1.02868 13.7295Z" fill="#D4DFE2"/>
  <path d="M1.02868 14.4788C0.98393 14.4788 0.939177 14.4711 0.909341 14.4482L0.454336 14.1806C0.417041 14.1577 0.387207 14.1271 0.387207 14.0889C0.387207 14.0507 0.409581 14.0278 0.439417 14.0048L0.543845 13.9437C0.558763 13.936 0.581142 13.9437 0.59606 13.959C0.603519 13.9742 0.596059 14.0048 0.581141 14.0125L0.476712 14.0736C0.471739 14.0787 0.46677 14.0838 0.461798 14.0889C0.461798 14.0889 0.469254 14.1042 0.491631 14.1195L0.946636 14.387C0.983931 14.41 1.05852 14.41 1.09582 14.3947L1.19278 14.3335C1.21516 14.3182 1.23754 14.3259 1.245 14.3488C1.25992 14.3641 1.25246 14.387 1.23008 14.3947L1.13311 14.4558C1.10328 14.4711 1.06598 14.4788 1.02868 14.4788Z" fill="#D4DFE2"/>
</svg>