<svg xmlns="http://www.w3.org/2000/svg" width="37" height="15" viewBox="0 0 37 15" fill="none">
  <path d="M27.093 0.96592C27.093 1.08061 27.1398 1.17073 27.1867 1.17073C27.2429 1.17073 27.2804 1.30181 27.2804 1.45746V1.74419H22.6401C18.5998 1.74419 17.9904 1.72781 17.9435 1.62131C17.8686 1.46565 17.6529 1.46565 17.5592 1.62131C17.503 1.70323 17.3061 1.74419 16.9686 1.75239C16.3405 1.76877 15.9843 1.91623 15.7968 2.23573C15.6093 2.54704 15.2718 3.71036 15.2812 4.01347C15.2906 4.13636 15.2437 4.61151 15.1875 5.06209C15.0094 6.36467 15.3093 8.72407 15.7406 9.445C15.8343 9.60065 16.0687 9.81365 16.2749 9.91196L16.6405 10.1004H15.2625H13.8751V6.45479V2.80101L13.6407 2.60439L13.4157 2.39958H10.8284H8.24105L8.01607 2.5962C7.75359 2.82558 6.54429 4.89825 6.62866 4.97198C6.66616 4.99655 6.64741 5.02113 6.59116 5.02113C6.53492 5.02113 6.29118 5.36521 6.04745 5.79121L5.59748 6.56129L4.83815 6.73333C2.48518 7.28222 0.319694 7.9376 0.141581 8.16699C-0.0177838 8.35541 -0.0552813 9.1173 0.0947089 9.1173C0.141581 9.1173 0.22595 9.19103 0.282197 9.28115C0.357192 9.40403 0.338443 9.47777 0.188453 9.60884C0.0384626 9.73992 0.000965016 9.87919 0.000965016 10.2642V10.7558H0.797788H1.59461L1.30401 11.1408C1.03215 11.5259 0.750916 12.1976 0.750916 12.4925C0.750916 12.6154 0.825911 12.64 1.16339 12.64H1.56649L1.63211 13.0332C1.69773 13.4838 2.10083 14.0901 2.49455 14.3358C2.83203 14.5488 3.57261 14.77 3.92883 14.77C4.36943 14.77 5.03501 14.557 5.42874 14.2867C5.85996 13.9917 6.28181 13.3036 6.28181 12.9104V12.64H10.1066H13.9313L14.3438 12.2714C14.6906 11.9682 14.8125 11.9027 15.1125 11.9027H15.4593L15.4875 11.4357L15.5156 10.9606H15.9843H16.453L16.4811 11.9273C16.4999 12.6482 16.5374 12.8858 16.6218 12.8612C16.6968 12.8366 16.7343 12.5581 16.7343 11.8945V10.9606H17.9529H19.1716V11.8945C19.1716 12.5581 19.2091 12.8366 19.2841 12.8612C19.3685 12.8858 19.406 12.6482 19.4247 11.9273L19.4528 10.9606H19.9215H20.3903L20.4184 11.4275L20.4465 11.9027H21.0371H21.6277L21.5808 12.5335C21.5433 13.1152 21.5714 13.2135 21.8152 13.6231C22.2839 14.4096 23.2682 14.8601 24.2244 14.7373C24.8431 14.6553 25.5837 14.2211 25.9212 13.7542C26.1743 13.3855 26.2024 13.2872 26.2024 12.6236V11.9027H26.6242H27.0555L27.018 12.4844C26.9711 13.2135 27.1679 13.6886 27.7117 14.1638C28.9397 15.2452 31.0302 14.7536 31.5927 13.2626C31.6677 13.0578 31.6864 12.7547 31.6583 12.4188L31.602 11.9027H32.6707C33.6832 11.9027 33.7488 11.9109 33.7488 12.0665C33.7488 12.173 33.8144 12.2304 33.9363 12.2304C34.0581 12.2304 34.1237 12.173 34.1237 12.0747C34.1237 11.9928 34.2081 11.9027 34.3112 11.8781C34.4612 11.8454 34.4987 11.7634 34.4987 11.4685C34.4987 11.1736 34.4612 11.0917 34.3112 11.0589C34.2081 11.0343 34.1237 10.9606 34.1237 10.8868C34.1237 10.8131 34.0488 10.7558 33.9363 10.7558C33.8331 10.7558 33.7488 10.8131 33.7488 10.8787C33.7488 10.9688 33.6363 11.0015 33.2801 11.0015H32.8113V10.5592V10.125L33.2332 9.98569C33.6738 9.83823 33.9738 9.5515 34.0769 9.17465C34.1425 8.96984 34.1612 8.98623 34.4144 9.4368C34.6675 9.871 35.1924 10.3462 35.4174 10.3462C35.4737 10.3462 35.558 10.2397 35.6049 10.1086C35.6893 9.89558 35.6705 9.85461 35.4174 9.69077C34.9862 9.41223 34.7518 8.87153 34.7987 8.25711C34.8268 7.82291 34.9018 7.65087 35.2768 7.10199C35.9611 6.10252 36.3923 5.29148 36.4392 4.91463C36.4861 4.48044 36.2611 4.07082 35.8111 3.80866C35.483 3.61205 35.4362 3.61205 34.5456 3.72674C34.3956 3.75132 34.3487 3.67759 34.2644 3.31712C34.2175 3.07135 34.1331 2.90751 34.0956 2.94028C34.0581 2.98124 34.0488 2.94847 34.0769 2.86654C34.1706 2.66174 33.7675 2.00635 33.4582 1.86708C33.3176 1.80154 32.9707 1.74419 32.6895 1.74419C32.3145 1.74419 32.1645 1.71142 32.1176 1.62131C32.052 1.45746 31.8176 1.46565 31.7427 1.62131C31.6958 1.72781 31.5552 1.74419 31.0208 1.72781L30.3459 1.70323L30.3177 1.43288C30.2896 1.24446 30.3177 1.17073 30.4209 1.17073C30.5052 1.17073 30.5615 1.08881 30.5615 0.96592V0.761112H28.8272H27.093V0.96592ZM30.7958 2.64535V2.85016L24.8525 2.87474C18.6185 2.89112 18.6373 2.89112 18.8529 2.54704C18.9372 2.40777 19.2278 2.39958 24.8712 2.41597L30.7958 2.44054V2.64535ZM12.6751 3.35808C12.8251 3.47278 12.8439 3.63662 12.8439 4.90644C12.8439 6.27456 12.8345 6.32371 12.6376 6.4466C12.4595 6.56129 12.0471 6.57768 10.0597 6.57768H7.68797V5.81579C7.68797 5.08667 7.70671 5.03752 8.11919 4.28382C8.35355 3.85782 8.61603 3.44001 8.69102 3.35808C8.82227 3.2352 9.04725 3.21881 10.669 3.21881C12.2439 3.21881 12.5252 3.2352 12.6751 3.35808ZM35.5955 4.38213C35.7361 4.49682 35.8111 4.65248 35.8111 4.82451C35.8111 5.08667 35.3705 5.9059 34.8175 6.67598L34.5456 7.06102L34.5268 5.77483C34.5081 4.54597 34.5175 4.48044 34.7143 4.34936C34.9956 4.15274 35.333 4.16913 35.5955 4.38213ZM22.2745 4.61971C23.1651 5.15221 23.2776 6.18444 22.537 6.89718C22.1152 7.31499 21.7777 7.42149 21.1027 7.38053C20.0903 7.31499 19.4341 6.62683 19.5184 5.70929C19.6309 4.52959 21.1402 3.93155 22.2745 4.61971ZM24.4213 5.40617C24.4681 5.48809 24.4962 5.64375 24.4869 5.75844C24.4869 5.87313 24.5244 5.8076 24.5806 5.61098C24.665 5.33244 24.7212 5.2669 24.89 5.2669C25.0587 5.2669 25.115 5.33244 25.1712 5.57002L25.2462 5.88133L25.3306 5.59459C25.4431 5.24232 25.4431 5.24232 25.6868 5.30786C25.8274 5.34882 25.8555 5.38979 25.7899 5.45533C25.743 5.51267 25.6399 5.75844 25.5743 6.00421C25.3962 6.60225 25.1806 6.65141 25.0118 6.1271L24.8806 5.75844L24.7681 6.1271C24.6087 6.64321 24.4119 6.61045 24.2338 6.0206C24.1494 5.76663 24.065 5.51267 24.0463 5.45533C23.9619 5.23413 24.3181 5.19317 24.4213 5.40617ZM26.643 5.81579C26.8023 6.18444 26.8586 6.39744 26.793 6.45479C26.7274 6.51214 26.6524 6.47118 26.5586 6.34829C26.3805 6.11891 26.0055 6.11071 25.9399 6.33191C25.9118 6.42202 25.818 6.49575 25.7337 6.49575C25.5556 6.49575 25.5743 6.39744 25.893 5.6929C26.1555 5.10305 26.3336 5.12763 26.643 5.81579ZM28.8741 5.43075C28.8741 5.54544 28.8178 5.57002 28.6679 5.54544L28.4522 5.50448L28.6679 5.64375C28.9772 5.84856 28.9303 6.00421 28.546 6.00421C28.321 6.00421 28.2179 6.04517 28.2179 6.1271C28.2179 6.21721 28.321 6.24998 28.6022 6.24998C29.1741 6.24998 29.0241 6.4466 28.4241 6.47937L27.9554 6.50394L27.8898 6.05337C27.8429 5.71748 27.7867 5.61917 27.6929 5.65194C27.6179 5.67652 27.5523 5.64375 27.5429 5.5864C27.5336 5.52086 27.5054 5.6929 27.4773 5.96325C27.4398 6.32371 27.3836 6.45479 27.2804 6.45479C27.1773 6.45479 27.1305 6.33191 27.093 6.00421C27.0555 5.67652 27.0086 5.55363 26.9055 5.55363C26.8305 5.55363 26.7555 5.48809 26.7367 5.41436C26.7086 5.28329 26.8117 5.27509 27.7867 5.27509C28.7803 5.27509 28.8741 5.29148 28.8741 5.43075ZM29.999 5.33244C30.1678 5.39798 30.2146 5.56183 30.1396 5.81579C30.1115 5.93867 30.0459 5.98783 29.9803 5.95506C29.924 5.92229 29.9428 5.97964 30.0271 6.09433C30.374 6.52033 30.0834 6.66779 29.7272 6.24179C29.4928 5.97144 29.4178 5.97964 29.3991 6.26637C29.3897 6.37287 29.3334 6.45479 29.2491 6.45479C29.1366 6.45479 29.0991 6.32371 29.0803 5.85675L29.0522 5.2669L29.4553 5.27509C29.6803 5.27509 29.924 5.29967 29.999 5.33244ZM12.3752 11.534C12.3752 11.6405 12.1221 11.6569 10.6878 11.6569C9.25349 11.6569 9.00038 11.6405 9.00038 11.534C9.00038 11.4275 9.25349 11.4112 10.6878 11.4112C12.1221 11.4112 12.3752 11.4275 12.3752 11.534ZM4.4913 11.8617C4.75378 11.9764 5.06314 12.4188 5.06314 12.681C5.06314 12.9349 4.7819 13.3446 4.51005 13.4838C4.07882 13.705 3.61948 13.6641 3.2445 13.3773C2.86015 13.0824 2.75704 12.7547 2.90703 12.3451C3.10389 11.8208 3.88196 11.5832 4.4913 11.8617ZM24.4587 11.8617C24.6087 11.9273 24.7962 12.1157 24.89 12.2795C25.3399 13.1152 24.2525 13.959 23.3338 13.4838C23.0713 13.3446 22.7807 12.9349 22.7807 12.6974C22.7807 11.9846 23.7088 11.5177 24.4587 11.8617ZM29.9521 11.9191C30.5521 12.3287 30.5615 12.9923 29.9896 13.4183C29.4272 13.8279 28.5179 13.5903 28.3022 12.9759C28.1616 12.5663 28.246 12.2714 28.5929 11.9764C28.9397 11.6733 29.5584 11.6487 29.9521 11.9191ZM12.3752 12.1075C12.3752 12.214 12.1221 12.2304 10.6878 12.2304C9.25349 12.2304 9.00038 12.214 9.00038 12.1075C9.00038 12.001 9.25349 11.9846 10.6878 11.9846C12.1221 11.9846 12.3752 12.001 12.3752 12.1075Z" fill="#D8F0F5"/>
  <path d="M20.5406 4.66914C19.8188 4.98045 19.5094 5.84884 19.8938 6.49603C20.4656 7.46273 21.853 7.50369 22.5655 6.58615C22.828 6.24207 22.8655 5.52114 22.6311 5.31634C22.5561 5.2426 22.5186 5.18526 22.5561 5.18526C22.5936 5.18526 22.528 5.08695 22.3968 4.97226C21.9374 4.53806 21.15 4.40699 20.5406 4.66914ZM21.4125 4.8248C21.4406 4.89033 21.5062 4.9231 21.5624 4.89853C21.6093 4.87395 21.6281 4.89853 21.5999 4.96406C21.5718 5.0296 21.5906 5.11153 21.6468 5.1443C21.8249 5.23441 22.1249 5.90618 22.1249 6.2093C22.1249 6.87288 21.2343 7.22515 20.6531 6.79096C20.4281 6.61892 20.3906 6.53699 20.4 6.18472C20.4 5.95534 20.4563 5.70957 20.5219 5.64403C20.5875 5.57849 20.6156 5.48018 20.5781 5.43103C20.55 5.39007 20.5594 5.34911 20.6063 5.34911C20.6531 5.34911 20.8125 5.20164 20.9531 5.02141C21.2343 4.66095 21.3281 4.62818 21.4125 4.8248Z" fill="#D8F0F5"/>
  <path d="M29.437 5.6359C29.437 5.70144 29.5214 5.75879 29.6245 5.75879C29.7276 5.75879 29.812 5.72602 29.812 5.67687C29.812 5.6359 29.7464 5.62771 29.6526 5.65229C29.5495 5.68506 29.5214 5.67687 29.5683 5.61133C29.6058 5.55398 29.587 5.51302 29.5401 5.51302C29.4839 5.51302 29.437 5.57037 29.437 5.6359Z" fill="#D8F0F5"/>
  <path d="M3.65654 12.427C3.39406 12.7137 3.75966 13.1889 4.10651 13.0005C4.43461 12.8202 4.31275 12.3123 3.93777 12.3123C3.84403 12.3123 3.72216 12.3697 3.65654 12.427ZM4.12526 12.5171C4.28462 12.681 4.17213 12.8858 3.93777 12.8858C3.83465 12.8858 3.72216 12.8284 3.69404 12.7629C3.63779 12.64 3.79716 12.3942 3.93777 12.3942C3.97527 12.3942 4.05964 12.4516 4.12526 12.5171Z" fill="#D8F0F5"/>
  <path d="M23.6249 12.427C23.3624 12.7137 23.728 13.1889 24.0749 13.0005C24.403 12.8202 24.2811 12.3123 23.9062 12.3123C23.8124 12.3123 23.6905 12.3697 23.6249 12.427ZM24.0936 12.5171C24.253 12.681 24.1405 12.8858 23.9062 12.8858C23.803 12.8858 23.6905 12.8284 23.6624 12.7629C23.6062 12.64 23.7655 12.3942 23.9062 12.3942C23.9437 12.3942 24.028 12.4516 24.0936 12.5171Z" fill="#D8F0F5"/>
  <path d="M29.0984 12.3777C28.9015 12.4924 28.8828 12.7136 29.0515 12.902C29.2015 13.0659 29.2578 13.0741 29.4734 12.9839C29.6327 12.9184 29.7171 12.8283 29.7171 12.6972C29.7171 12.3859 29.3796 12.2057 29.0984 12.3777ZM29.6046 12.7054C29.5671 12.8856 29.1734 12.9348 29.0984 12.7709C29.0609 12.6972 29.089 12.5825 29.1547 12.517C29.3046 12.3613 29.6515 12.5088 29.6046 12.7054Z" fill="#D8F0F5"/>
</svg>