<svg xmlns="http://www.w3.org/2000/svg" width="44" height="15" viewBox="0 0 44 15" fill="none">
  <path d="M0.455268 1.46288L0.48778 2.73074L2.57935 2.74859L4.66009 2.7605V2.08193C4.66009 1.45693 4.63841 1.37955 4.35665 1.08788C3.80395 0.498594 2.74191 0.200975 1.22471 0.200975H0.433594L0.455268 1.46288Z" fill="#D8F0F5"/>
  <path d="M5.30859 1.68703V2.27632L5.85045 2.47274C6.19724 2.59774 7.55189 3.37751 9.58927 4.62155C11.3449 5.69298 12.7862 6.59179 12.7862 6.6156C12.7862 6.64536 12.732 6.69298 12.667 6.72869C12.5912 6.77036 13.0897 7.10965 14.3251 7.85369C15.3005 8.43703 16.2433 9.00845 16.4275 9.12155L16.7635 9.32988L15.9724 9.64536C15.2571 9.92512 15.1054 9.96083 14.6286 9.96083H14.0867V11.3001V12.6394H14.8778H15.6581L15.6798 12.2644C15.7123 11.687 16.0591 11.2465 16.8393 10.818C17.327 10.5501 17.6738 10.4192 18.1506 10.3239C20.6974 9.80012 23.4825 10.7942 23.5042 12.2346L23.515 12.6394H25.0322H26.5494L26.5278 10.8656L26.4952 9.09774L25.9859 9.07988L25.4657 9.06203V7.24655V5.43703H24.0894H22.7022L21.2934 6.97274C20.1338 8.23464 19.8737 8.56203 19.8304 8.82988L19.7762 9.15726L19.2235 9.17512L18.6708 9.19298L17.5979 8.55012C17.0127 8.19893 16.5034 7.89536 16.4709 7.8775C16.4275 7.85369 15.7014 7.41322 13.9566 6.3656C13.7182 6.21679 13.6424 6.19893 13.5015 6.26441C13.3714 6.32393 13.2739 6.30012 12.9271 6.08584C9.88188 4.2406 8.47305 3.38346 8.49472 3.3656C8.51639 3.35965 11.139 4.20489 14.3251 5.2525C17.5112 6.30012 20.1772 7.16322 20.253 7.17512C20.3289 7.18703 20.6757 6.8775 21.0767 6.44893C21.456 6.04417 21.7594 5.70488 21.7486 5.69893C21.7377 5.69298 19.191 4.97274 16.0916 4.09774C12.9921 3.22274 9.32918 2.18703 7.95286 1.80013C6.5657 1.41322 5.41697 1.09179 5.37362 1.09179C5.34111 1.09179 5.30859 1.35965 5.30859 1.68703Z" fill="#D8F0F5"/>
  <path d="M1.08398 4.18721V5.37769H2.38444H3.6849V4.18721V2.99673H2.38444H1.08398V4.18721Z" fill="#D8F0F5"/>
  <path d="M30.127 7.49022V9.78189H30.8856H31.6442V9.36522V8.94856H31.9693H32.2944V9.36522V9.78784L33.4106 9.76998L34.516 9.75213L34.5485 8.93665C34.5702 8.1807 34.5594 8.10927 34.3534 7.99618C34.0392 7.82356 32.8254 7.82356 32.5111 7.99618C32.3919 8.06165 32.2944 8.13903 32.2944 8.17475C32.2944 8.20451 32.1535 8.23427 31.9693 8.23427C31.655 8.23427 31.6442 8.22237 31.6442 7.96641V7.69856H32.186H32.7279V6.72832V5.75808L32.2077 5.47832L31.6875 5.19856H30.9072H30.127V7.49022Z" fill="#D8F0F5"/>
  <path d="M1.73395 6.20591V6.73567L1.24627 6.89638C0.682741 7.07496 0 7.39043 0 7.46781C0 7.53329 0.552695 7.53924 0.888647 7.46781C1.02953 7.444 1.26795 7.40234 1.44134 7.37853L1.73395 7.34281V7.77138L1.72311 8.20591L1.01869 8.444C0.140883 8.74162 -0.0866973 8.86662 0.0866973 8.96186C0.184232 9.01543 0.390138 9.00353 0.975345 8.90829L1.74478 8.78924L1.71227 9.23567L1.67976 9.68805L1.1379 9.86067C0.57437 10.0392 0 10.3071 0 10.3904C0 10.4678 0.693578 10.444 1.19209 10.3488C1.44134 10.3011 1.66892 10.2595 1.6906 10.2595C1.71227 10.2595 1.73395 10.4559 1.73395 10.7V11.1404L1.17041 11.319C0.162557 11.6285 -0.249255 11.9261 0.314278 11.9261C0.422649 11.9261 0.780276 11.8785 1.11623 11.813L1.73395 11.7059V12.1583V12.6107L1.26795 12.7476C0.715253 12.9083 0 13.2178 0 13.3011C0 13.3845 0.758601 13.3607 1.24627 13.2654C1.48469 13.2178 1.6906 13.1761 1.71227 13.1761C1.72311 13.1761 1.73395 13.2833 1.73395 13.4202C1.73395 13.5928 1.83148 13.7357 2.0699 13.9321L2.40585 14.2L2.72013 13.938C2.99106 13.7178 3.03441 13.6226 3.03441 13.2654V12.8488L3.5004 12.7119C4.12896 12.5273 4.76835 12.2357 4.76835 12.1285C4.76835 12.0154 4.48659 12.0214 3.69547 12.1583L3.03441 12.2714V11.8369V11.4083L3.70631 11.1821C4.41073 10.938 4.76835 10.7714 4.76835 10.6761C4.76835 10.5869 4.23733 10.6047 3.61961 10.7059C3.32701 10.7535 3.07775 10.7952 3.06692 10.7952C3.04524 10.7952 3.03441 10.5988 3.03441 10.3607V9.92019L3.57626 9.75948C5.12598 9.29519 5.16933 8.95591 3.65212 9.24162L3.03441 9.36067V8.89638V8.43805L3.51124 8.31305C3.99891 8.1821 4.76835 7.84281 4.76835 7.75948C4.76835 7.64043 4.23733 7.66424 3.28366 7.84281C3.03441 7.88448 3.03441 7.87853 3.03441 7.43805V6.98567L3.44622 6.87257C4.08561 6.68805 4.76835 6.39638 4.76835 6.30115C4.76835 6.18805 4.41073 6.18805 3.72798 6.30115C3.43538 6.34877 3.16445 6.39043 3.1211 6.39043C3.06692 6.39043 3.03441 6.22972 3.03441 6.03329V5.67615H2.38418H1.73395V6.20591Z" fill="#D8F0F5"/>
  <path d="M35.2222 8.1156V9.96083H32.3504H29.4785V11.3001V12.6394H31.7977H34.1168L34.1277 12.2585C34.1493 10.7406 37.1187 9.7406 39.7088 10.3715C40.3915 10.5382 41.1935 10.9668 41.5728 11.3715C41.822 11.6454 41.8979 11.812 41.9304 12.1751L41.9629 12.6394H42.9816H44.0003V12.0144V11.3894H43.5668H43.1333V10.6811C43.1333 10.0442 43.0683 9.79417 42.4831 8.2525C42.1255 7.31203 41.8112 6.47869 41.7787 6.40131L41.7245 6.27036H38.4734H35.2222V8.1156ZM41.757 8.10369C42.1146 8.94298 42.4181 9.69298 42.4506 9.76441C42.5048 9.89536 42.4831 9.90131 41.692 9.90131H40.8792L40.4782 9.60369L40.0773 9.30607H38.2458H36.4143V7.93703V6.56798H38.7768H41.1285L41.757 8.10369Z" fill="#D8F0F5"/>
  <path d="M11.5957 11.1229V13.0574H12.4627H13.3188L13.3513 11.1229L13.3838 9.18833H12.4952H11.5957V11.1229Z" fill="#D8F0F5"/>
  <path d="M27.0938 11.1229V13.0574H27.9607H28.8277V11.1229V9.18833H27.9607H27.0938V11.1229Z" fill="#D8F0F5"/>
  <path d="M18.153 10.6639C17.3944 10.8663 16.8742 11.1639 16.4949 11.6163C16.2673 11.8961 16.2348 11.9972 16.2782 12.4258C16.354 13.1937 16.9501 13.6937 18.153 14.0091C19.7894 14.4377 21.7184 14.0984 22.5962 13.2294C22.8888 12.9377 22.9214 12.8603 22.9214 12.3425C22.9214 11.8722 22.878 11.7353 22.6721 11.527C22.3145 11.152 21.8593 10.8961 21.2199 10.7056C20.7431 10.5627 20.4938 10.527 19.7244 10.5091C18.8899 10.4913 18.749 10.5032 18.153 10.6639ZM20.3855 11.6758C20.7973 11.8008 21.0249 12.0508 21.0249 12.3722C21.0249 12.6222 20.9707 12.6818 20.6022 12.8841C20.2337 13.0865 20.1254 13.1163 19.6702 13.1163C18.7707 13.1163 18.2072 12.8187 18.2072 12.3425C18.2072 11.6877 19.3234 11.3425 20.3855 11.6758Z" fill="#D8F0F5"/>
  <path d="M36.5422 10.6768C35.8378 10.8732 35.361 11.1292 34.9817 11.528C34.7758 11.7363 34.7324 11.8732 34.7324 12.3435C34.7324 12.8613 34.7649 12.9387 35.0575 13.2304C36.3472 14.5101 39.75 14.5101 41.018 13.2304C41.2672 12.9685 41.3431 12.8197 41.3756 12.4268C41.419 12.0042 41.3864 11.897 41.1589 11.6173C40.7796 11.1708 40.3027 10.8911 39.5333 10.6768C38.9698 10.522 38.753 10.4982 38.0378 10.4982C37.3225 10.4982 37.1058 10.522 36.5422 10.6768ZM38.818 11.6708C39.2082 11.772 39.4466 12.0339 39.4466 12.3435C39.4466 12.8197 38.8831 13.1173 37.9836 13.1173C37.5284 13.1173 37.42 13.0875 37.0516 12.8851C36.6831 12.6827 36.6289 12.6232 36.6289 12.3792C36.6289 11.6827 37.6693 11.3494 38.818 11.6708Z" fill="#D8F0F5"/>
  <path d="M12.0293 13.414C12.0293 13.5866 12.051 13.5925 12.517 13.5925C12.983 13.5925 13.0046 13.5866 13.0046 13.414C13.0046 13.2413 12.983 13.2354 12.517 13.2354C12.051 13.2354 12.0293 13.2413 12.0293 13.414Z" fill="#D8F0F5"/>
  <path d="M27.5255 13.414C27.5255 13.5866 27.5472 13.5925 28.0132 13.5925C28.4792 13.5925 28.5009 13.5866 28.5009 13.414C28.5009 13.2413 28.4792 13.2354 28.0132 13.2354C27.5472 13.2354 27.5255 13.2413 27.5255 13.414Z" fill="#D8F0F5"/>
  <path d="M10.6211 13.9501V14.1882H12.4634H14.3057V13.9501V13.712H12.4634H10.6211V13.9501Z" fill="#D8F0F5"/>
  <path d="M26.1172 13.9501V14.1882H27.9595H29.8018V13.9501V13.712H27.9595H26.1172V13.9501Z" fill="#D8F0F5"/>
</svg>