<svg xmlns="http://www.w3.org/2000/svg" width="16" height="21" viewBox="0 0 16 21" fill="none">
  <path d="M15.3517 12.6459C15.3517 17.2114 11.9167 20.9202 7.67908 20.9202C3.43504 20.9202 0 17.2114 0 12.6459C0 8.08034 3.43504 4.3833 7.67908 4.3833C11.9167 4.3833 15.3517 8.08034 15.3517 12.6459Z" fill="#D1C5BA"/>
  <path d="M15.3517 9.89917H0V12.7629H15.3517V9.89917Z" fill="#D1C5BA"/>
  <path d="M15.3517 9.89907C15.3517 14.4646 11.9167 18.1617 7.67908 18.1617C3.43504 18.1617 0 14.4646 0 9.89907C0 5.33352 3.43504 1.63647 7.67908 1.63647C11.9167 1.63647 15.3517 5.33352 15.3517 9.89907Z" fill="#EFE8E1"/>
  <path d="M15.0118 9.72366C15.0118 13.9019 11.7309 17.2821 7.67946 17.2821C3.63446 17.2821 0.353516 13.9019 0.353516 9.72366C0.353516 5.55715 3.63446 2.177 7.67946 2.177C11.7309 2.177 15.0118 5.55715 15.0118 9.72366Z" fill="#D1C5BA"/>
  <path d="M7.68035 3.30374C11.6098 3.30374 14.8265 6.43742 15.109 10.4044C15.1219 10.2166 15.1283 10.0288 15.1283 9.84104C15.1283 5.59238 11.796 2.16528 7.68035 2.16528C3.57115 2.16528 0.232422 5.59238 0.232422 9.84104C0.232422 10.0288 0.245263 10.2166 0.258104 10.4044C0.540612 6.43742 3.75735 3.30374 7.68035 3.30374Z" fill="#D1C5BA"/>
  <path d="M7.67811 17.5173C11.6075 17.5173 14.8243 14.3836 15.1068 10.4049C14.8243 6.43788 11.6075 3.3042 7.67811 3.3042C3.7551 3.3042 0.538367 6.43788 0.255859 10.4049C0.538367 14.3836 3.7551 17.5173 7.67811 17.5173Z" fill="#2BBCE7"/>
  <path d="M14.4144 10.24C14.4144 13.8666 11.3967 16.8008 7.67916 16.8008C3.9552 16.8008 0.9375 13.8666 0.9375 10.24C0.9375 6.61336 3.9552 3.6792 7.67916 3.6792C11.3967 3.6792 14.4144 6.61336 14.4144 10.24Z" fill="#D1C5BA"/>
  <path d="M14.4144 9.55933H0.9375V10.5452H14.4144V9.55933Z" fill="#D1C5BA"/>
  <path d="M14.4144 9.55931C14.4144 13.1859 11.3967 16.1201 7.67916 16.1201C3.9552 16.1201 0.9375 13.1859 0.9375 9.55931C0.9375 5.93269 3.9552 2.99854 7.67916 2.99854C11.3967 2.99854 14.4144 5.93269 14.4144 9.55931Z" fill="#EFE8E1"/>
  <path d="M14.2086 9.55909C14.2086 12.9275 11.2808 15.6504 7.67878 15.6504C4.07038 15.6504 1.14258 12.9275 1.14258 9.55909C1.14258 6.20241 4.07038 3.46777 7.67878 3.46777C11.2808 3.46777 14.2086 6.20241 14.2086 9.55909Z" fill="#D1C5BA"/>
  <path d="M7.67878 4.23041C11.1459 4.23041 13.9838 6.75379 14.1957 9.94615C14.2043 9.82096 14.2086 9.69186 14.2086 9.55884C14.2086 6.20216 11.2872 3.46753 7.67878 3.46753C4.07038 3.46753 1.14258 6.20216 1.14258 9.55884C1.14258 9.69186 1.14686 9.82096 1.15542 9.94615C1.3673 6.75379 4.20522 4.23041 7.67878 4.23041Z" fill="#D1C5BA"/>
  <path d="M7.67961 15.6505C11.1468 15.6505 13.9847 13.1271 14.1966 9.94645C13.9847 6.75409 11.1468 4.23071 7.67961 4.23071C4.20605 4.23071 1.36813 6.75409 1.15625 9.94645C1.36813 13.1271 4.20605 15.6505 7.67961 15.6505Z" fill="#2BBCE7"/>
  <g opacity="0.5">
    <path d="M4.80963 13.8076C4.74543 13.5846 4.60417 13.4438 4.46934 13.4086C4.32166 13.3616 4.18683 13.479 4.052 13.5729C3.91716 13.6785 3.78875 13.7607 3.6475 13.749C3.51267 13.7372 3.37783 13.6785 3.25584 13.5846C3.00544 13.4203 2.78071 13.1504 2.53031 12.9743C2.41474 12.9039 2.29917 12.8452 2.18359 12.857C2.81924 13.7724 3.71812 14.5236 4.78395 15.0165C4.861 14.6292 4.9252 14.1715 4.80963 13.8076Z" fill="#40D3F4"/>
    <path d="M9.40676 14.23C9.00868 13.8896 8.59134 13.6314 8.2061 13.2676C8.03275 13.1033 7.87223 12.9038 7.70529 12.7277C7.53194 12.5399 7.365 12.3991 7.16596 12.3287C6.97976 12.27 6.79357 12.2348 6.60737 12.1409C6.43401 12.047 6.28633 11.8944 6.14508 11.6949C5.83047 11.2489 5.56722 10.6503 5.20767 10.3452C4.85453 10.04 4.43719 9.91092 4.13542 9.41799C3.6603 8.6551 3.60251 7.35234 3.12738 6.58946C3.04178 6.45644 2.95403 6.32734 2.86414 6.20215C2.71004 6.36646 2.56237 6.53469 2.42112 6.70682C2.54953 6.89461 2.67152 7.1176 2.76783 7.32886C2.90908 7.61054 3.03535 7.91179 3.14665 8.23259C3.24938 8.526 3.32 8.85463 3.41631 9.14804C3.45484 9.27715 3.48694 9.40625 3.46768 9.55883C3.44842 9.72314 3.37779 9.88745 3.30716 9.98134C3.15307 10.1809 2.95403 10.1457 2.78709 10.087C2.60089 10.0166 2.42754 9.88745 2.24134 9.8053C1.97809 9.67619 1.70843 9.59404 1.43876 9.5823C1.35743 9.57448 1.2761 9.57448 1.19477 9.5823C1.17765 9.69967 1.16481 9.82094 1.15625 9.94613C1.17765 10.2435 1.22046 10.533 1.28466 10.8146C1.38097 10.8381 1.4837 10.8851 1.56717 10.9085C1.67632 10.9555 1.77905 10.9907 1.8882 11.0142C2.0102 11.0494 2.13861 11.0259 2.2606 11.0142C2.72931 10.9555 3.19801 10.756 3.66672 10.9085C3.89786 10.979 4.10332 11.1667 4.30878 11.3663C4.51424 11.5658 4.71328 11.7888 4.91874 12C5.13704 12.2113 5.36176 12.4226 5.59933 12.5517C5.84331 12.6808 6.0873 12.7629 6.3377 12.8451C6.82567 13.0094 7.31364 13.1737 7.76308 13.5728C7.8016 13.608 7.80802 13.7019 7.78876 13.7605C7.68603 14.0892 7.53194 14.3004 7.34574 14.4413C7.00545 14.6877 6.62021 14.6525 6.29275 14.9459C6.16434 15.0516 6.08088 15.2511 5.99741 15.4506C6.16434 15.4897 6.33556 15.5249 6.51106 15.5562C6.65873 15.2511 6.90271 15.2394 7.12744 15.2159C7.28153 15.2041 7.42279 15.1572 7.56404 15.0516C7.71172 14.9577 7.84655 14.8286 7.99422 14.7229C8.25105 14.5469 8.51429 14.4413 8.79038 14.4647C9.04721 14.4882 9.30403 14.5938 9.52875 14.8168C9.65075 14.9342 9.78558 15.0985 9.88831 15.298C10.0124 15.2511 10.1344 15.2041 10.2543 15.1572C9.99104 14.7934 9.70211 14.4882 9.40676 14.23Z" fill="#40D3F4"/>
    <path d="M7.92987 5.1227C8.13533 5.36917 8.36005 5.46306 8.60403 5.46306C8.88012 5.45132 9.14337 5.42785 9.40661 5.62737C9.6506 5.80342 9.8689 6.09684 10.1129 6.29636C10.5752 6.70714 11.076 6.85972 11.5896 6.82451C11.9813 6.80104 12.3601 6.57804 12.7453 6.48415C11.5447 5.11096 9.72122 4.23071 7.67946 4.23071C7.64094 4.23071 7.60456 4.23071 7.57031 4.23071C7.57673 4.2894 7.58957 4.33634 7.59599 4.38329C7.66662 4.68844 7.78219 4.94665 7.92987 5.1227Z" fill="#40D3F4"/>
    <path d="M13.7866 8.17452C13.5297 8.15104 13.2729 8.15104 13.0097 8.17452C12.5217 8.2332 12.0337 8.38577 11.5522 8.56182C11.3168 8.64007 11.0813 8.72222 10.8459 8.80829C10.6276 8.87871 10.4157 8.96087 10.191 8.92566C9.76725 8.86698 9.36917 8.57356 8.98394 8.24493C8.61154 7.91631 8.23272 7.49379 7.82822 7.28253C7.43014 7.08301 7.0128 7.08301 6.6083 6.89522C6.37716 6.80133 6.03687 6.62528 5.95982 6.14408C5.90845 5.78024 6.0176 5.40467 6.10749 5.09952C6.17812 4.85305 6.26159 4.61831 6.32579 4.36011C6.10107 4.40705 5.88277 4.46574 5.66447 4.52442C5.59384 4.82957 5.52964 5.13473 5.50395 5.43988C5.47185 5.94455 5.47185 6.84827 5.13156 7.02432C4.91968 7.12995 4.84905 6.64875 4.82979 6.36707C4.78484 5.8624 4.79768 5.35772 4.81694 4.84131C4.63717 4.92738 4.46381 5.01736 4.29688 5.11125C4.29688 5.1269 4.29688 5.14255 4.29688 5.1582C4.32898 5.49856 4.34182 5.83892 4.36108 6.16755C4.38034 6.48444 4.3996 6.80133 4.45097 7.09474C4.49591 7.35295 4.57296 7.6581 4.68853 7.83415C4.8041 8.03367 4.97104 8.03367 5.11871 8.03367C5.38838 8.02194 5.65805 7.97499 5.92771 7.93978C6.19738 7.89284 6.46705 7.8811 6.73029 7.95152C6.99354 8.03367 7.25036 8.18625 7.50077 8.35056C7.98874 8.67919 8.45744 9.11345 8.95825 9.40686C9.20224 9.5477 9.45906 9.66507 9.71589 9.70028C9.98555 9.74722 10.2552 9.70028 10.5249 9.62986C11.0899 9.47728 11.6357 9.1956 12.2007 9.00781C12.4768 8.90219 12.7657 8.83177 13.0482 8.79656C13.2858 8.77308 13.5233 8.77308 13.7673 8.76135C13.8401 8.75352 13.915 8.74961 13.992 8.74961C13.9321 8.554 13.8636 8.3623 13.7866 8.17452Z" fill="#40D3F4"/>
    <path d="M11.4106 13.7959C11.2373 13.5846 11.0639 13.3733 10.897 13.1386C10.775 12.9743 10.6402 12.7982 10.5439 12.5752C10.4732 12.4109 10.4347 12.2349 10.5246 12.0588C10.6723 11.7771 10.9548 11.7889 11.1538 11.8006C11.4363 11.8124 11.7124 11.8358 11.9949 11.7419C12.1747 11.6833 12.348 11.5894 12.5278 11.5189C12.6862 11.4642 12.8467 11.4329 13.0094 11.4251C13.2919 11.4016 13.568 11.4603 13.8441 11.5659C13.9553 11.2764 14.041 10.9791 14.1009 10.6739C14.0324 10.627 13.9639 10.5839 13.8954 10.5448C13.7092 10.4509 13.523 10.3805 13.3304 10.404C13.0928 10.4157 12.8617 10.5331 12.637 10.6504C12.2261 10.8734 11.8151 11.0847 11.3914 11.1668C10.9933 11.2607 10.5952 11.2607 10.1971 11.2725C9.98526 11.2725 9.76696 11.2725 9.55507 11.3077C9.45234 11.3312 9.31109 11.3546 9.22762 11.472C9.10563 11.6598 9.34319 12.0001 9.41382 12.094C9.8761 12.7865 10.4475 13.1738 10.9548 13.7254C11.1089 13.9015 11.2565 14.101 11.3914 14.3357C11.4256 14.3905 11.4577 14.4492 11.4877 14.5118C11.5904 14.4414 11.6931 14.367 11.7959 14.2888C11.6717 14.1245 11.5433 13.9602 11.4106 13.7959Z" fill="#40D3F4"/>
  </g>
  <path d="M5.07891 12.118C4.56526 11.5781 4.62946 10.6157 5.22658 9.98197L12.5333 2.271L15.1593 3.46813L7.10783 11.9655C6.51071 12.5992 5.59898 12.6697 5.07891 12.118Z" fill="#183344"/>
  <path d="M5.18829 10.4741L4.73242 10.7558V11.2722L5.25249 11.4248L5.18829 10.4741Z" fill="#183344"/>
  <path d="M15.1574 3.05713V3.46791L14.0852 4.38337L13.9824 3.94911L15.1574 3.05713Z" fill="#183344"/>
  <path d="M5.07891 11.7069C4.56526 11.1553 4.62946 10.2046 5.22658 9.57081L13.278 1.07349L15.1593 3.05698L7.10783 11.5543C6.51071 12.1881 5.59898 12.2585 5.07891 11.7069Z" fill="#234156"/>
  <path d="M5.98216 10.8383C5.68039 10.8383 5.39146 10.7327 5.17958 10.5097C4.9677 10.275 4.8457 9.96983 4.8457 9.61773C4.8457 9.20695 5.01906 8.79617 5.30799 8.49102L12.4477 0.932622C12.4606 0.909149 12.4863 0.920885 12.4927 0.956095C12.4991 0.979569 12.4991 1.01478 12.4798 1.02651L5.34009 8.58491C5.07043 8.87832 4.90991 9.2539 4.90991 9.61773C4.90991 9.92288 5.01906 10.2046 5.21168 10.4041C5.66754 10.8853 6.4637 10.8266 6.9902 10.2632L14.0721 2.72833C14.0914 2.71659 14.1107 2.71659 14.1171 2.7518C14.1299 2.77527 14.1235 2.81048 14.1107 2.83396L7.0223 10.3689C6.72695 10.6858 6.34813 10.8383 5.98216 10.8383Z" fill="#EFE8E1"/>
  <path d="M6.70203 11.6133C6.68276 11.6133 6.66992 11.5898 6.66992 11.5546V10.5687C6.66992 10.5335 6.68276 10.51 6.70203 10.51C6.72129 10.51 6.73413 10.5335 6.73413 10.5687V11.5546C6.73413 11.5898 6.72129 11.6133 6.70203 11.6133Z" fill="#EFE8E1"/>
  <path d="M7.22156 11.1789C7.20229 11.1789 7.18945 11.1437 7.18945 11.1203V10.1226C7.18945 10.0874 7.20229 10.064 7.22156 10.064C7.24082 10.064 7.25366 10.0874 7.25366 10.1226V11.1203C7.25366 11.1437 7.24082 11.1789 7.22156 11.1789Z" fill="#EFE8E1"/>
  <path d="M7.66492 10.6745C7.64565 10.6745 7.63281 10.6511 7.63281 10.6158V9.62997C7.63281 9.59476 7.64565 9.57129 7.66492 9.57129C7.67776 9.57129 7.69702 9.59476 7.69702 9.62997V10.6158C7.69702 10.6511 7.67776 10.6745 7.66492 10.6745Z" fill="#EFE8E1"/>
  <path d="M8.12585 10.1941C8.10659 10.1941 8.09375 10.1706 8.09375 10.1354V9.1495C8.09375 9.11429 8.10659 9.09082 8.12585 9.09082C8.13869 9.09082 8.15796 9.11429 8.15796 9.1495V10.1354C8.15796 10.1706 8.13869 10.1941 8.12585 10.1941Z" fill="#EFE8E1"/>
  <path d="M8.63562 9.69042C8.61636 9.69042 8.60352 9.65521 8.60352 9.63174V8.63412C8.60352 8.61065 8.61636 8.57544 8.63562 8.57544C8.64846 8.57544 8.66772 8.61065 8.66772 8.63412V9.63174C8.66772 9.65521 8.64846 9.69042 8.63562 9.69042Z" fill="#EFE8E1"/>
  <path d="M9.12781 9.114C9.10854 9.114 9.0957 9.09053 9.0957 9.05532V8.05771C9.0957 8.03423 9.10854 7.99902 9.12781 7.99902C9.14707 7.99902 9.15991 8.03423 9.15991 8.05771V9.05532C9.15991 9.09053 9.14707 9.114 9.12781 9.114Z" fill="#EFE8E1"/>
  <path d="M9.63562 8.59812C9.61636 8.59812 9.60352 8.57464 9.60352 8.53943V7.55356C9.60352 7.51835 9.61636 7.49487 9.63562 7.49487C9.65488 7.49487 9.66772 7.51835 9.66772 7.55356V8.53943C9.66772 8.57464 9.65488 8.59812 9.63562 8.59812Z" fill="#EFE8E1"/>
  <path d="M10.1044 8.04636C10.0851 8.04636 10.0723 8.02288 10.0723 7.98768V7.0018C10.0723 6.96659 10.0851 6.94312 10.1044 6.94312C10.1236 6.94312 10.1365 6.96659 10.1365 7.0018V7.98768C10.1365 8.02288 10.1236 8.04636 10.1044 8.04636Z" fill="#EFE8E1"/>
  <path d="M10.6102 7.54174C10.591 7.54174 10.5781 7.51826 10.5781 7.48305V6.48544C10.5781 6.46197 10.591 6.42676 10.6102 6.42676C10.6295 6.42676 10.6423 6.46197 10.6423 6.48544V7.48305C10.6423 7.51826 10.6295 7.54174 10.6102 7.54174Z" fill="#EFE8E1"/>
  <path d="M11.1063 6.97824C11.0871 6.97824 11.0742 6.95477 11.0742 6.91956V5.93368C11.0742 5.89847 11.0871 5.875 11.1063 5.875C11.1256 5.875 11.1384 5.89847 11.1384 5.93368V6.91956C11.1384 6.95477 11.1256 6.97824 11.1063 6.97824Z" fill="#EFE8E1"/>
  <path d="M11.6141 6.4724C11.5949 6.4724 11.582 6.44893 11.582 6.41372V5.41611C11.582 5.39263 11.5949 5.35742 11.6141 5.35742C11.6334 5.35742 11.6462 5.39263 11.6462 5.41611V6.41372C11.6462 6.44893 11.6334 6.4724 11.6141 6.4724Z" fill="#EFE8E1"/>
  <path d="M12.1141 5.95651C12.0949 5.95651 12.082 5.93304 12.082 5.89783V4.91195C12.082 4.87674 12.0949 4.85327 12.1141 4.85327C12.1334 4.85327 12.1462 4.87674 12.1462 4.91195V5.89783C12.1462 5.93304 12.1334 5.95651 12.1141 5.95651Z" fill="#EFE8E1"/>
  <path d="M12.6063 5.42748C12.5871 5.42748 12.5742 5.40401 12.5742 5.3688V4.37118C12.5742 4.34771 12.5871 4.3125 12.6063 4.3125C12.6192 4.3125 12.6384 4.34771 12.6384 4.37118V5.3688C12.6384 5.40401 12.6192 5.42748 12.6063 5.42748Z" fill="#EFE8E1"/>
  <path d="M13.118 4.8884C13.0988 4.8884 13.0859 4.86493 13.0859 4.82972V3.84384C13.0859 3.80863 13.0988 3.78516 13.118 3.78516C13.1309 3.78516 13.1501 3.80863 13.1501 3.84384V4.82972C13.1501 4.86493 13.1309 4.8884 13.118 4.8884Z" fill="#EFE8E1"/>
  <path d="M13.6102 4.34838C13.591 4.34838 13.5781 4.31317 13.5781 4.2897V3.29208C13.5781 3.25687 13.591 3.2334 13.6102 3.2334C13.6295 3.2334 13.6423 3.25687 13.6423 3.29208V4.2897C13.6423 4.31317 13.6295 4.34838 13.6102 4.34838Z" fill="#EFE8E1"/>
  <path d="M14.079 3.84543C14.0597 3.84543 14.0469 3.82196 14.0469 3.78675V2.80087C14.0469 2.76566 14.0597 2.74219 14.079 2.74219C14.0982 2.74219 14.1111 2.76566 14.1111 2.80087V3.78675C14.1111 3.82196 14.0982 3.84543 14.079 3.84543Z" fill="#EFE8E1"/>
  <path d="M5.97351 8.95066C5.96067 8.95066 5.94141 8.92718 5.94141 8.89197V7.9061C5.94141 7.87089 5.96067 7.84741 5.97351 7.84741C5.99277 7.84741 6.00561 7.87089 6.00561 7.9061V8.89197C6.00561 8.92718 5.99277 8.95066 5.97351 8.95066Z" fill="#EFE8E1"/>
  <path d="M6.44226 8.46897C6.423 8.46897 6.41016 8.44549 6.41016 8.41028V7.42441C6.41016 7.3892 6.423 7.36572 6.44226 7.36572C6.4551 7.36572 6.47436 7.3892 6.47436 7.42441V8.41028C6.47436 8.44549 6.4551 8.46897 6.44226 8.46897Z" fill="#EFE8E1"/>
  <path d="M6.95007 7.96435C6.93081 7.96435 6.91797 7.92914 6.91797 7.90566V6.90805C6.91797 6.87284 6.93081 6.84937 6.95007 6.84937C6.96291 6.84937 6.98218 6.87284 6.98218 6.90805V7.90566C6.98218 7.92914 6.96291 7.96435 6.95007 7.96435Z" fill="#EFE8E1"/>
  <path d="M7.44031 7.38866C7.42104 7.38866 7.4082 7.35345 7.4082 7.32998V6.33236C7.4082 6.29715 7.42104 6.27368 7.44031 6.27368C7.45957 6.27368 7.47241 6.29715 7.47241 6.33236V7.32998C7.47241 7.35345 7.45957 7.38866 7.44031 7.38866Z" fill="#EFE8E1"/>
  <path d="M7.94812 6.87229C7.92886 6.87229 7.91602 6.84881 7.91602 6.8136V5.82773C7.91602 5.79252 7.92886 5.76904 7.94812 5.76904C7.96738 5.76904 7.98022 5.79252 7.98022 5.82773V6.8136C7.98022 6.84881 7.96738 6.87229 7.94812 6.87229Z" fill="#EFE8E1"/>
  <path d="M8.41882 6.32028C8.39956 6.32028 8.38672 6.29681 8.38672 6.2616V5.27572C8.38672 5.24051 8.39956 5.21704 8.41882 5.21704C8.43808 5.21704 8.45093 5.24051 8.45093 5.27572V6.2616C8.45093 6.29681 8.43808 6.32028 8.41882 6.32028Z" fill="#EFE8E1"/>
  <path d="M8.92663 5.81444C8.90737 5.81444 8.89453 5.77923 8.89453 5.75576V4.75815C8.89453 4.72294 8.90737 4.69946 8.92663 4.69946C8.9459 4.69946 8.95874 4.72294 8.95874 4.75815V5.75576C8.95874 5.77923 8.9459 5.81444 8.92663 5.81444Z" fill="#EFE8E1"/>
  <path d="M9.41687 5.2529C9.39761 5.2529 9.38477 5.22943 9.38477 5.19422V4.20834C9.38477 4.17313 9.39761 4.14966 9.41687 4.14966C9.42971 4.14966 9.44897 4.17313 9.44897 4.20834V5.19422C9.44897 5.22943 9.42971 5.2529 9.41687 5.2529Z" fill="#EFE8E1"/>
  <path d="M9.92859 4.74706C9.90933 4.74706 9.89648 4.71185 9.89648 4.68838V3.69076C9.89648 3.65555 9.90933 3.63208 9.92859 3.63208C9.94143 3.63208 9.96069 3.65555 9.96069 3.69076V4.68838C9.96069 4.71185 9.94143 4.74706 9.92859 4.74706Z" fill="#EFE8E1"/>
  <path d="M10.4286 4.23095C10.4093 4.23095 10.3965 4.20747 10.3965 4.17226V3.17465C10.3965 3.15118 10.4093 3.11597 10.4286 3.11597C10.4478 3.11597 10.4607 3.15118 10.4607 3.17465V4.17226C10.4607 4.20747 10.4478 4.23095 10.4286 4.23095Z" fill="#EFE8E1"/>
  <path d="M10.9208 3.70385C10.9015 3.70385 10.8887 3.68037 10.8887 3.64516V2.64755C10.8887 2.62408 10.9015 2.58887 10.9208 2.58887C10.9336 2.58887 10.9529 2.62408 10.9529 2.64755V3.64516C10.9529 3.68037 10.9336 3.70385 10.9208 3.70385Z" fill="#EFE8E1"/>
  <path d="M11.4286 3.16308C11.4093 3.16308 11.3965 3.1396 11.3965 3.10439V2.10678C11.3965 2.08331 11.4093 2.0481 11.4286 2.0481C11.4414 2.0481 11.4607 2.08331 11.4607 2.10678V3.10439C11.4607 3.1396 11.4414 3.16308 11.4286 3.16308Z" fill="#EFE8E1"/>
  <path d="M11.9247 2.62475C11.9054 2.62475 11.8926 2.58954 11.8926 2.56606V1.56845C11.8926 1.53324 11.9054 1.50977 11.9247 1.50977C11.9439 1.50977 11.9568 1.53324 11.9568 1.56845V2.56606C11.9568 2.58954 11.9439 2.62475 11.9247 2.62475Z" fill="#EFE8E1"/>
  <path d="M12.3934 2.11936C12.3742 2.11936 12.3613 2.09588 12.3613 2.06067V1.0748C12.3613 1.03959 12.3742 1.01611 12.3934 1.01611C12.4127 1.01611 12.4255 1.03959 12.4255 1.0748V2.06067C12.4255 2.09588 12.4127 2.11936 12.3934 2.11936Z" fill="#EFE8E1"/>
  <path d="M6.15906 11.8364C6.13979 11.8364 6.12695 11.8012 6.12695 11.7777V10.7801C6.12695 10.7449 6.13979 10.7214 6.15906 10.7214C6.1719 10.7214 6.19116 10.7449 6.19116 10.7801V11.7777C6.19116 11.8012 6.1719 11.8364 6.15906 11.8364Z" fill="#EFE8E1"/>
  <path d="M5.57898 11.7888C5.55972 11.7888 5.54688 11.7653 5.54688 11.7301V10.7442C5.54688 10.709 5.55972 10.6855 5.57898 10.6855C5.59824 10.6855 5.61108 10.709 5.61108 10.7442V11.7301C5.61108 11.7653 5.59824 11.7888 5.57898 11.7888Z" fill="#EFE8E1"/>
  <path d="M5.13757 9.87693C5.12473 9.87693 5.10547 9.85345 5.10547 9.81824V8.83236C5.10547 8.79715 5.12473 8.77368 5.13757 8.77368C5.15683 8.77368 5.16968 8.79715 5.16968 8.83236V9.81824C5.16968 9.85345 5.15683 9.87693 5.13757 9.87693Z" fill="#EFE8E1"/>
  <path d="M5.54578 9.38327C5.52651 9.38327 5.51367 9.3598 5.51367 9.32459V8.33871C5.51367 8.3035 5.52651 8.28003 5.54578 8.28003C5.56504 8.28003 5.57788 8.3035 5.57788 8.33871V9.32459C5.57788 9.3598 5.56504 9.38327 5.54578 9.38327Z" fill="#EFE8E1"/>
  <path d="M5.10632 11.426C5.09348 11.426 5.07422 11.4025 5.07422 11.3673V10.3814C5.07422 10.3462 5.09348 10.3228 5.10632 10.3228C5.12558 10.3228 5.13843 10.3462 5.13843 10.3814V11.3673C5.13843 11.4025 5.12558 11.426 5.10632 11.426Z" fill="#EFE8E1"/>
  <path d="M4.87781 10.6155C4.86497 10.6155 4.8457 10.592 4.8457 10.5568V9.57089C4.8457 9.53568 4.86497 9.51221 4.87781 9.51221C4.89707 9.51221 4.90991 9.53568 4.90991 9.57089V10.5568C4.90991 10.592 4.89707 10.6155 4.87781 10.6155Z" fill="#EFE8E1"/>
  <path d="M15.9665 6.50809L14.9905 3.44482L14.9199 3.53872L15.8188 6.34377L15.9665 6.50809Z" fill="#EFE8E1"/>
  <path d="M15.2616 3.72479L14.5875 4.42899L14.3242 4.15905L14.9984 3.44312L15.2616 3.72479Z" fill="#234156"/>
  <path d="M15.2621 3.72583V3.78451L14.5879 4.50045V4.43003L15.2621 3.72583Z" fill="#183344"/>
  <path d="M14.3242 4.15942V4.22984L14.5875 4.49979V4.42937L14.3242 4.15942Z" fill="#122935"/>
  <path d="M15.4491 4.32562L14.775 5.02982L14.5117 4.75988L15.1859 4.04395L15.4491 4.32562Z" fill="#234156"/>
  <path d="M15.4496 4.32544V4.38412L14.7754 5.10006V5.02964L15.4496 4.32544Z" fill="#183344"/>
  <path d="M14.5117 4.75903V4.81772L14.775 5.0994V5.02898L14.5117 4.75903Z" fill="#122935"/>
  <path d="M15.6263 4.92255L14.9521 5.62675L14.6953 5.3568L15.3695 4.64087L15.6263 4.92255Z" fill="#234156"/>
  <path d="M15.6273 4.92358V4.98227L14.9531 5.6982V5.62778L15.6273 4.92358Z" fill="#183344"/>
  <path d="M14.6953 5.35669V5.41537L14.9521 5.69705V5.62663L14.6953 5.35669Z" fill="#122935"/>
  <path d="M15.8144 5.52143L15.1402 6.22562L14.877 5.95568L15.5511 5.23975L15.8144 5.52143Z" fill="#234156"/>
  <path d="M15.8148 5.52173V5.58041L15.1406 6.29635V6.22593L15.8148 5.52173Z" fill="#183344"/>
  <path d="M14.877 5.95483V6.01352L15.1402 6.2952V6.22478L14.877 5.95483Z" fill="#122935"/>
  <path d="M15.9999 6.10905L15.3257 6.82499L15.0625 6.55505L15.7367 5.83911L15.9999 6.10905Z" fill="#234156"/>
  <path d="M16.0003 6.10864V6.17906L15.3262 6.895V6.82458L16.0003 6.10864Z" fill="#183344"/>
  <path d="M15.0625 6.55469V6.61337L15.3257 6.89505V6.82463L15.0625 6.55469Z" fill="#122935"/>
  <path d="M15.2034 6.4615C15.197 6.4615 15.1842 6.44977 15.1777 6.42629L14.067 2.81141C14.0606 2.7762 14.067 2.74099 14.0798 2.72925C14.0991 2.70578 14.1183 2.71752 14.1248 2.75273L15.2355 6.36761C15.2419 6.40282 15.2355 6.43803 15.2227 6.44977C15.2184 6.45759 15.212 6.4615 15.2034 6.4615Z" fill="#EFE8E1"/>
  <path d="M15.3005 7.21266L14.3245 4.16113L14.2539 4.24329L15.1528 7.04835L15.3005 7.21266Z" fill="#EFE8E1"/>
  <path d="M15.1091 6.81289C15.0963 6.81289 15.0898 6.80116 15.0898 6.78942V6.1087C15.0898 6.08522 15.0963 6.07349 15.1091 6.07349C15.1155 6.07349 15.1219 6.08522 15.1219 6.1087V6.78942C15.1219 6.80116 15.1155 6.81289 15.1091 6.81289Z" fill="#EFE8E1"/>
  <path d="M14.5251 4.86416C14.5123 4.86416 14.5059 4.85243 14.5059 4.84069V4.15997C14.5059 4.13649 14.5123 4.12476 14.5251 4.12476C14.5315 4.12476 14.538 4.13649 14.538 4.15997V4.84069C14.538 4.85243 14.5315 4.86416 14.5251 4.86416Z" fill="#EFE8E1"/>
  <path d="M14.3253 4.24256C14.3189 4.24256 14.3125 4.23083 14.3125 4.21909V3.53837C14.3125 3.52663 14.3189 3.51489 14.3253 3.51489C14.3382 3.51489 14.3446 3.52663 14.3446 3.53837V4.21909C14.3446 4.23083 14.3382 4.24256 14.3253 4.24256Z" fill="#EFE8E1"/>
  <path d="M14.9015 6.13223C14.8951 6.13223 14.8887 6.12049 14.8887 6.10876V5.42803C14.8887 5.41629 14.8951 5.39282 14.9015 5.39282C14.9079 5.39282 14.9208 5.41629 14.9208 5.42803V6.10876C14.9208 6.12049 14.9079 6.13223 14.9015 6.13223Z" fill="#EFE8E1"/>
  <path d="M14.7165 5.46329C14.7037 5.46329 14.6973 5.45155 14.6973 5.43981V4.75909C14.6973 4.74735 14.7037 4.72388 14.7165 4.72388C14.7229 4.72388 14.7294 4.74735 14.7294 4.75909V5.43981C14.7294 5.45155 14.7229 5.46329 14.7165 5.46329Z" fill="#EFE8E1"/>
</svg>