<svg xmlns="http://www.w3.org/2000/svg" width="30" height="23" viewBox="0 0 30 23" fill="none">
  <path d="M13.9288 1.42961C13.9288 2.57331 13.8542 2.85923 13.5557 2.85923C13.307 2.85923 13.1826 2.59013 13.1329 1.76599L13.0583 0.655931L12.0633 1.1605C10.7948 1.78281 9.92423 2.80878 9.72524 3.91884C9.60087 4.65888 9.47651 4.79343 8.95417 4.87753C8.5562 4.9448 8.30747 5.11299 8.25772 5.33164C8.1831 5.61757 8.40696 5.78576 9.22778 6.05486C12.5857 7.21538 18.9035 7.26584 22.0872 6.15578C23.3558 5.70166 23.3806 4.89434 22.1121 4.87753C21.8136 4.87753 21.6644 4.64206 21.5649 3.93566C21.3908 2.85923 20.371 1.6819 19.0776 1.04277L18.2816 0.67275L18.1573 1.71553C18.0578 2.53967 17.9334 2.79196 17.6101 2.8256C17.2121 2.87605 17.1623 2.72468 17.1623 1.44643V-1.43051e-05H15.5456H13.9288V1.42961ZM16.1674 4.37295C16.1674 4.55796 16.0182 4.70933 15.8192 4.70933C15.5953 4.70933 15.471 4.55796 15.4958 4.37295C15.5207 4.18794 15.6699 4.03657 15.8441 4.03657C16.0182 4.03657 16.1674 4.18794 16.1674 4.37295ZM15.6699 4.77661C16.5654 4.77661 17.8837 4.70933 18.605 4.62524C20.3212 4.44023 20.3461 4.77661 18.605 5.12981C16.3415 5.58393 11.7897 5.31482 11.4912 4.70933C11.3917 4.52432 11.6405 4.50751 12.71 4.62524C13.4562 4.70933 14.7745 4.77661 15.6699 4.77661Z" fill="#4EC040"/>
  <path d="M9.25355 7.43405C8.85557 7.77044 9.17893 9.11596 9.67639 9.20006C9.90025 9.2337 10.2982 9.671 10.547 10.1419C11.0444 11.0838 12.885 12.463 13.6312 12.4293C13.88 12.4293 13.9297 12.3789 13.7556 12.3284C13.5815 12.2948 13.4322 12.1602 13.4322 12.0593C13.4322 11.9416 13.0591 11.6556 12.6114 11.4034C12.0393 11.1174 11.5668 10.6129 11.1937 9.92328C10.8952 9.36825 10.4226 8.83004 10.1739 8.72913C9.60177 8.5273 9.55203 7.90499 10.0992 7.90499C10.5967 7.90499 10.4475 7.33314 9.92512 7.26586C9.70126 7.24904 9.40279 7.31632 9.25355 7.43405Z" fill="#4EC040"/>
  <path d="M21.2171 7.35002C20.7694 7.46775 20.8191 7.90505 21.2668 7.90505C21.8638 7.90505 21.6897 8.51053 21.0181 8.81328C20.6699 8.96465 20.3963 9.1833 20.3963 9.30103C20.3963 9.82242 19.1277 11.2857 18.4313 11.5716C17.8841 11.7903 17.7597 11.9416 17.9338 12.1098C18.0831 12.2948 18.1577 12.3117 18.1577 12.1435C18.1577 12.0257 18.2572 11.9584 18.3815 12.0089C18.8292 12.2107 20.1227 11.2352 20.6201 10.3606C20.8937 9.85606 21.3912 9.25057 21.7643 9.01511C22.4359 8.56099 22.5602 8.09006 22.1374 7.55184C21.8638 7.23228 21.7394 7.19864 21.2171 7.35002Z" fill="#4EC040"/>
  <path d="M19.7741 13.4716C19.5502 13.9425 17.7842 14.4807 16.1923 14.5817C14.3766 14.6994 12.7847 14.3967 11.8644 13.7743L11.1182 13.2698L10.0486 13.623L8.95422 13.9594V14.9853C8.95422 15.5404 9.07859 16.1627 9.22783 16.3477C9.42682 16.5831 9.42682 16.7345 9.22783 16.8691C9.07859 16.97 8.95422 17.7268 8.95422 18.7023V20.3506L15.5456 20.317L22.137 20.3002V17.1382V13.993L21.0177 13.5725C19.9482 13.1689 19.9233 13.1689 19.7741 13.4716Z" fill="#4EC040"/>
  <path d="M4.72591 15.6416C1.96499 16.7685 1.44265 17.3739 0.373098 20.5696C0.174113 21.2087 0 21.9319 0 22.2178V22.7056H3.23352H6.46704V18.8372C6.46704 16.7012 6.44217 14.9688 6.41729 14.9688C6.36755 14.9856 5.62135 15.2716 4.72591 15.6416ZM2.48732 20.6032C2.48732 20.8723 2.33808 21.0237 2.11422 21.0237C1.89037 21.0237 1.74113 20.8723 1.74113 20.6032C1.74113 20.3341 1.89037 20.1827 2.11422 20.1827C2.33808 20.1827 2.48732 20.3341 2.48732 20.6032Z" fill="#4EC040"/>
  <path d="M23.1805 18.5454V22.4306H26.5633H29.9709L29.7968 21.9092C29.7222 21.6233 29.7015 21.2521 29.6476 21.1019C29.6476 20.8664 29.4635 20.5057 29.4635 20.5057L29.4159 20.3486L29.3208 20.0736L29.1501 19.605C29.1501 19.605 28.3293 17.6035 27.8816 17.0148C27.5831 16.628 26.8369 16.1402 25.7176 15.6357C22.9318 14.391 23.1805 14.0883 23.1805 18.5454Z" fill="#4EC040"/>
</svg>