<svg xmlns="http://www.w3.org/2000/svg" width="22" height="23" viewBox="0 0 22 23" fill="none">
  <path d="M16.0703 2.94165H2.10547C1.53255 2.94165 1.03841 3.14217 0.623047 3.54321C0.207682 3.94425 0 4.43123 0 5.00415V19.0549C0 19.6278 0.207682 20.122 0.623047 20.5374C1.03841 20.9527 1.53255 21.1604 2.10547 21.1604H16.1133C16.7148 21.1604 17.2161 20.9527 17.6172 20.5374C18.0182 20.122 18.2188 19.6278 18.2188 19.0549V5.00415C18.2188 4.43123 18.0039 3.94425 17.5742 3.54321C17.1445 3.14217 16.6432 2.94165 16.0703 2.94165ZM9.15234 8.57056C10.1263 8.57056 10.9499 8.91431 11.623 9.60181C12.2962 10.2893 12.6328 11.12 12.6328 12.094C12.6328 13.0393 12.2962 13.8557 11.623 14.5432C10.9499 15.2307 10.1263 15.5745 9.15234 15.5745C8.17839 15.5745 7.35482 15.2307 6.68164 14.5432C6.00846 13.8557 5.67188 13.0393 5.67188 12.094C5.67188 11.12 6.00846 10.2893 6.68164 9.60181C7.35482 8.91431 8.17839 8.57056 9.15234 8.57056ZM16.0703 18.3674C16.0703 18.568 15.9987 18.7327 15.8555 18.8616C15.7122 18.9905 15.5404 19.0549 15.3398 19.0549H2.70703C2.50651 19.0549 2.3418 18.9905 2.21289 18.8616C2.08398 18.7327 2.01953 18.568 2.01953 18.3674V10.5901H3.65234C3.6237 10.8479 3.58789 11.0914 3.54492 11.3206C3.50195 11.5497 3.48047 11.8075 3.48047 12.094C3.48047 13.6409 4.02474 14.9586 5.11328 16.0471C6.20182 17.1357 7.51953 17.6799 9.06641 17.6799C10.6133 17.6799 11.931 17.1357 13.0195 16.0471C14.1081 14.9586 14.6523 13.6409 14.6523 12.094C14.6523 11.8648 14.638 11.6285 14.6094 11.385C14.5807 11.1415 14.5521 10.8765 14.5234 10.5901H16.0703V18.3674ZM16.0703 7.79712C16.0703 7.99764 15.9987 8.16951 15.8555 8.31274C15.7122 8.45597 15.5404 8.52759 15.3398 8.52759H13.2773C13.0768 8.52759 12.9049 8.45597 12.7617 8.31274C12.6185 8.16951 12.5469 7.99764 12.5469 7.79712V5.73462C12.5469 5.5341 12.6185 5.36222 12.7617 5.21899C12.9049 5.07577 13.0768 5.00415 13.2773 5.00415H15.3398C15.5404 5.00415 15.7122 5.07577 15.8555 5.21899C15.9987 5.36222 16.0703 5.5341 16.0703 5.73462V7.79712Z" fill="#F5F5F5"/>
</svg>