<svg xmlns="http://www.w3.org/2000/svg" width="38" height="38" viewBox="0 0 38 38" fill="none">
  <g opacity="0.85">
    <path fill-rule="evenodd" clip-rule="evenodd" d="M19.8523 29.9729L19.8901 30.0005C19.8938 30.0032 19.8975 30.0058 19.9012 30.0085L19.8523 29.9729C19.8987 30.0069 19.9455 30.0405 19.9926 30.0736C19.998 30.0774 20.0035 30.0812 20.0089 30.085C20.0388 30.1059 20.0688 30.1265 20.099 30.147C20.1028 30.1496 20.1068 30.1523 20.1107 30.155C20.1374 30.173 20.1641 30.1909 20.191 30.2086C20.198 30.2132 20.2049 30.2178 20.2119 30.2223C20.2413 30.2416 20.2707 30.2606 20.3003 30.2795C20.3076 30.2841 20.3149 30.2887 20.3221 30.2933C20.3498 30.3108 20.3775 30.3281 20.4054 30.3453C20.4158 30.3517 20.4264 30.3582 20.437 30.3646C20.4617 30.3797 20.4865 30.3947 20.5114 30.4095C20.517 30.4128 20.5226 30.4161 20.5282 30.4195C20.5587 30.4376 20.5894 30.4555 20.6202 30.4732C20.6279 30.4776 20.6356 30.482 20.6433 30.4864C20.675 30.5045 20.7068 30.5224 20.7388 30.5401C20.742 30.5419 20.7453 30.5437 20.7485 30.5455C20.7789 30.5623 20.8094 30.5789 20.8401 30.5953C20.8459 30.5984 20.8518 30.6016 20.8576 30.6047C20.8894 30.6216 20.9213 30.6384 20.9534 30.6549C20.9603 30.6585 20.9672 30.662 20.9742 30.6656C21.0047 30.6812 21.0353 30.6967 21.0661 30.712C21.076 30.7169 21.0861 30.7219 21.0961 30.7268C21.1227 30.7399 21.1494 30.7529 21.1762 30.7657C21.1827 30.7688 21.1891 30.7719 21.1956 30.775C21.2275 30.7902 21.2597 30.8052 21.292 30.8201C21.2999 30.8237 21.3078 30.8274 21.3158 30.831C21.347 30.8452 21.3785 30.8594 21.41 30.8733C21.4196 30.8775 21.4291 30.8817 21.4386 30.8859C21.4692 30.8992 21.4999 30.9124 21.5307 30.9254L21.5363 30.9278L21.5502 30.9337C21.5818 30.9469 21.6134 30.96 21.6452 30.9728C21.6513 30.9753 21.6575 30.9778 21.6636 30.9803C21.7337 31.0085 21.8043 31.0359 21.8753 31.0623C21.8834 31.0653 21.8915 31.0682 21.8995 31.0712C21.9331 31.0836 21.9669 31.0958 22.0008 31.1078C22.0088 31.1106 22.0167 31.1134 22.0247 31.1162C22.0579 31.1278 22.0913 31.1392 22.1247 31.1505C22.1342 31.1537 22.1438 31.1569 22.1535 31.1601C22.182 31.1696 22.2106 31.1789 22.2393 31.1881C22.2466 31.1904 22.2539 31.1928 22.2612 31.1951C22.2976 31.2066 22.334 31.2179 22.3706 31.229C22.376 31.2306 22.3813 31.2322 22.3866 31.2338C22.4605 31.256 22.5348 31.2772 22.6096 31.2974C22.6184 31.2998 22.6271 31.3022 22.6359 31.3045C22.6693 31.3134 22.7028 31.3222 22.7364 31.3307C22.7451 31.3329 22.7538 31.3351 22.7626 31.3373C22.7979 31.3462 22.8333 31.3548 22.8688 31.3632C22.8784 31.3655 22.888 31.3677 22.8976 31.37C22.9266 31.3767 22.9557 31.3834 22.9848 31.3898C22.9945 31.392 23.0042 31.3941 23.0139 31.3962C23.052 31.4046 23.0902 31.4126 23.1285 31.4204C23.1314 31.421 23.1345 31.4217 23.1375 31.4223C23.1765 31.4302 23.2156 31.4378 23.2547 31.4452C23.2612 31.4464 23.2677 31.4476 23.2743 31.4489C23.3082 31.4552 23.3422 31.4613 23.3762 31.4672C23.383 31.4684 23.3898 31.4695 23.3966 31.4707C23.4331 31.4769 23.4698 31.483 23.5065 31.4887C23.5155 31.4902 23.5245 31.4916 23.5335 31.4929C23.5675 31.4982 23.6015 31.5032 23.6355 31.5081L21.125 37.1602L17.3418 35.6254L19.8523 29.9729ZM29.8556 29.9726L32.3662 35.6253L28.5829 37.1601L26.0725 31.5079C26.1082 31.5028 26.1437 31.4976 26.1792 31.4921C26.1852 31.4911 26.1911 31.4902 26.1971 31.4893C26.2345 31.4834 26.2719 31.4773 26.3091 31.4709C26.3174 31.4695 26.3257 31.4681 26.334 31.4666C26.3674 31.4608 26.4006 31.4548 26.4338 31.4487C26.4397 31.4476 26.4457 31.4465 26.4516 31.4453C26.4892 31.4383 26.5268 31.4309 26.5643 31.4233C26.5716 31.4219 26.5791 31.4203 26.5865 31.4188C26.623 31.4113 26.6595 31.4036 26.6958 31.3956C26.7022 31.3942 26.7086 31.3928 26.715 31.3914C26.7496 31.3838 26.7841 31.3759 26.8186 31.3678C26.8239 31.3666 26.8292 31.3653 26.8346 31.3641C26.8707 31.3555 26.9068 31.3468 26.9427 31.3378C26.9511 31.3357 26.9594 31.3336 26.9678 31.3314C27.0019 31.3228 27.0359 31.3139 27.0698 31.3049C27.0799 31.3022 27.0899 31.2995 27.0999 31.2968C27.1325 31.288 27.1651 31.2789 27.1975 31.2697C27.2013 31.2687 27.2051 31.2676 27.2089 31.2665C27.246 31.2559 27.283 31.2451 27.3199 31.234C27.3254 31.2323 27.3309 31.2307 27.3363 31.2291C27.3731 31.2179 27.4098 31.2066 27.4464 31.1949C27.4528 31.1929 27.4592 31.1909 27.4656 31.1888C27.495 31.1794 27.5243 31.1699 27.5535 31.1602C27.564 31.1567 27.5745 31.1532 27.585 31.1496C27.6174 31.1388 27.6496 31.1277 27.6818 31.1164C27.6902 31.1135 27.6986 31.1105 27.707 31.1075C27.7421 31.0951 27.777 31.0825 27.8118 31.0697C27.8158 31.0682 27.8197 31.0668 27.8236 31.0653C27.8973 31.038 27.9705 31.0097 28.0432 30.9805C28.0496 30.9779 28.0561 30.9753 28.0626 30.9726C28.0965 30.9589 28.1302 30.945 28.1638 30.9308C28.1711 30.9278 28.1783 30.9247 28.1855 30.9217C28.2168 30.9084 28.2481 30.8949 28.2793 30.8812C28.2831 30.8795 28.287 30.8778 28.2908 30.8761C28.3258 30.8607 28.3607 30.8451 28.3954 30.8292C28.4008 30.8267 28.4062 30.8243 28.4116 30.8218C28.4464 30.8058 28.4811 30.7895 28.5157 30.7731C28.518 30.772 28.5203 30.7709 28.5227 30.7697C28.5555 30.7541 28.5881 30.7383 28.6205 30.7222C28.6257 30.7197 28.6309 30.7171 28.6361 30.7146C28.6703 30.6976 28.7045 30.6803 28.7385 30.6629C28.7423 30.6609 28.7461 30.659 28.7499 30.657C28.7843 30.6393 28.8184 30.6214 28.8524 30.6032C28.8556 30.6016 28.8588 30.5999 28.862 30.5982C28.9299 30.5619 28.9971 30.5247 29.0638 30.4866C29.0709 30.4826 29.078 30.4785 29.0851 30.4744C29.1152 30.4571 29.1451 30.4396 29.175 30.422C29.1828 30.4173 29.1906 30.4127 29.1984 30.408C29.2247 30.3924 29.2508 30.3766 29.2769 30.3607L29.2911 30.352L29.298 30.3477C29.3276 30.3295 29.357 30.3112 29.3864 30.2926C29.3927 30.2886 29.3991 30.2846 29.4054 30.2805C29.4365 30.2607 29.4675 30.2407 29.4983 30.2205C29.5026 30.2177 29.5069 30.2149 29.5112 30.212C29.5392 30.1936 29.567 30.175 29.5947 30.1563C29.5996 30.153 29.6046 30.1497 29.6095 30.1463C29.6405 30.1253 29.6713 30.104 29.702 30.0826C29.7059 30.0799 29.7098 30.0771 29.7137 30.0744C29.7429 30.0539 29.772 30.0332 29.8009 30.0123C29.8081 30.0072 29.8152 30.002 29.8224 29.9968L29.8556 29.9726ZM24.8535 17.8459C28.2591 17.8459 31.0189 20.4837 31.0189 23.7377C31.0189 26.992 28.259 29.6297 24.8535 29.6297C21.4486 29.6297 18.6888 26.992 18.6888 23.7377C18.6888 20.4837 21.4485 17.8459 24.8535 17.8459ZM37.1838 0.170181V27.6657L31.9743 27.6657C31.9935 27.6339 32.0125 27.602 32.0313 27.5699C32.034 27.5654 32.0366 27.5609 32.0392 27.5564C32.0573 27.5254 32.0752 27.4942 32.0929 27.4628C32.096 27.4574 32.099 27.4521 32.102 27.4467C32.12 27.4147 32.1378 27.3824 32.1553 27.3501C32.1575 27.346 32.1597 27.342 32.1619 27.338C32.1977 27.2717 32.2326 27.2047 32.2666 27.1372C32.2692 27.132 32.2719 27.1267 32.2745 27.1213C32.3081 27.0542 32.3407 26.9866 32.3723 26.9184C32.3746 26.9135 32.3769 26.9085 32.3792 26.9035C32.3943 26.8709 32.4091 26.838 32.4238 26.8051C32.4265 26.7989 32.4292 26.7928 32.4319 26.7867C32.446 26.7547 32.4599 26.7225 32.4736 26.6903C32.4764 26.6836 32.4792 26.6771 32.482 26.6705C32.5096 26.605 32.5363 26.539 32.5621 26.4726C32.5665 26.4614 32.5708 26.4503 32.5751 26.4391C32.587 26.4079 32.5987 26.3766 32.6103 26.3453C32.6129 26.3382 32.6154 26.3312 32.618 26.3242C32.6579 26.2149 32.6953 26.1043 32.7302 25.9928C32.7319 25.9874 32.7336 25.982 32.7353 25.9766C32.7461 25.9416 32.7567 25.9066 32.7671 25.8714C32.7689 25.8652 32.7708 25.8589 32.7726 25.8527C32.7817 25.8214 32.7906 25.7901 32.7993 25.7587C32.801 25.7527 32.8026 25.7468 32.8043 25.7408C32.8138 25.7062 32.8231 25.6715 32.8321 25.6366C32.8339 25.6297 32.8357 25.6228 32.8375 25.6159C32.8467 25.58 32.8557 25.544 32.8644 25.5078C32.8656 25.5027 32.8668 25.4976 32.868 25.4925C32.8857 25.4184 32.9023 25.344 32.9178 25.2692C32.9188 25.264 32.9199 25.2587 32.921 25.2535C32.9285 25.2168 32.9357 25.1801 32.9427 25.1434C32.9438 25.1373 32.9449 25.1314 32.946 25.1254C32.9602 25.0495 32.9732 24.9732 32.9851 24.8966C32.9858 24.8917 32.9866 24.8868 32.9873 24.8819C32.993 24.8448 32.9984 24.8076 33.0035 24.7704C33.0043 24.7642 33.0052 24.7581 33.006 24.752C33.016 24.6776 33.0249 24.6029 33.0328 24.528L33.0347 24.5092L33.0361 24.4952C33.0395 24.4612 33.0427 24.4273 33.0456 24.3932C33.0462 24.3868 33.0468 24.3803 33.0473 24.3737C33.0575 24.2517 33.0648 24.1289 33.0692 24.0054C33.0694 23.9999 33.0695 23.9946 33.0697 23.9892C33.0725 23.9057 33.0739 23.8218 33.0739 23.7377V4.09812H4.30385V23.7378H16.6338L16.635 23.8676C16.6356 23.9069 16.6366 23.9461 16.6379 23.9852C16.6381 23.9921 16.6383 23.999 16.6385 24.0058C16.6428 24.1271 16.6499 24.2477 16.6599 24.3675C16.6605 24.3755 16.6612 24.3835 16.6619 24.3914C16.6649 24.4257 16.668 24.4599 16.6715 24.4941C16.6725 24.5048 16.6736 24.5154 16.6747 24.5261C16.6784 24.5613 16.6823 24.5964 16.6864 24.6314C16.687 24.6357 16.6875 24.64 16.688 24.6443C16.6973 24.722 16.7079 24.7994 16.7195 24.8764C16.7207 24.8839 16.7219 24.8915 16.723 24.899C16.7411 25.0158 16.7619 25.1318 16.7854 25.2469C16.787 25.2548 16.7886 25.2626 16.7902 25.2703C16.7975 25.3057 16.8051 25.341 16.8129 25.3763C16.814 25.3815 16.8152 25.3867 16.8164 25.3919C16.8427 25.5092 16.8717 25.6254 16.9034 25.7407C16.9046 25.7453 16.9059 25.75 16.9072 25.7546C16.9265 25.824 16.9466 25.893 16.9678 25.9616C16.9717 25.9744 16.9757 25.9872 16.9797 26C16.9887 26.0284 16.9978 26.0568 17.007 26.0851C17.0108 26.0966 17.0145 26.108 17.0183 26.1195C17.0411 26.1878 17.0647 26.2557 17.0893 26.3232C17.0919 26.3304 17.0946 26.3376 17.0972 26.3448C17.1091 26.3771 17.1212 26.4094 17.1336 26.4415C17.137 26.4506 17.1405 26.4596 17.144 26.4686C17.1561 26.4998 17.1684 26.5309 17.1809 26.5619C17.1839 26.5693 17.1869 26.5767 17.1899 26.5841C17.2002 26.6094 17.2106 26.6346 17.2211 26.6597L17.2307 26.6825L17.2354 26.6934C17.2475 26.7219 17.2598 26.7503 17.2722 26.7787C17.2764 26.7883 17.2807 26.7979 17.2849 26.8074C17.3153 26.8756 17.3465 26.9433 17.3788 27.0104C17.3808 27.0146 17.3828 27.0188 17.3848 27.023C17.401 27.0566 17.4174 27.09 17.4341 27.1234C17.4362 27.1275 17.4382 27.1315 17.4403 27.1356C17.4569 27.1686 17.4737 27.2016 17.4908 27.2344C17.4931 27.2387 17.4953 27.2429 17.4975 27.2472C17.5323 27.3137 17.568 27.3796 17.6047 27.445C17.6081 27.451 17.6115 27.4571 17.6149 27.4632C17.6326 27.4944 17.6504 27.5255 17.6685 27.5565C17.6712 27.5612 17.674 27.5659 17.6767 27.5706C17.6954 27.6025 17.7143 27.6342 17.7334 27.6657L0.193848 27.6657V0.170181H37.1838ZM24.8537 21.7738C23.7187 21.7738 22.7988 22.6531 22.7988 23.7378C22.7988 24.8225 23.7188 25.7018 24.8537 25.7018C25.9889 25.7018 26.9088 24.8225 26.9088 23.7378C26.9088 22.6531 25.9889 21.7738 24.8537 21.7738ZM8.41385 8.02606H28.9638V11.954H8.41385V8.02606ZM8.41385 15.8819H16.6339V19.8099H8.41385V15.8819Z" fill="#1C6373"/>
  </g>
</svg>