<svg xmlns="http://www.w3.org/2000/svg" width="22" height="23" viewBox="0 0 22 23" fill="none">
  <path d="M4.25391 4.73535C4.25391 5.33691 4.04622 5.84538 3.63086 6.26074C3.21549 6.67611 2.70703 6.88379 2.10547 6.88379C1.53255 6.88379 1.03841 6.67611 0.623047 6.26074C0.207682 5.84538 0 5.33691 0 4.73535C0 4.16243 0.207682 3.66113 0.623047 3.23145C1.03841 2.80176 1.53255 2.58691 2.10547 2.58691C2.70703 2.58691 3.21549 2.80176 3.63086 3.23145C4.04622 3.66113 4.25391 4.16243 4.25391 4.73535ZM0.34375 8.43066H3.91016V19.9893H0.34375V8.43066ZM13.1055 8.08691C12.2461 8.08691 11.5228 8.28027 10.9355 8.66699C10.3483 9.05371 9.95443 9.49056 9.75391 9.97754V8.34473H6.14453V19.9033H9.75391V14.1885C9.75391 13.4437 9.87565 12.7705 10.1191 12.1689C10.3626 11.5674 10.957 11.2666 11.9023 11.2666C12.8477 11.2666 13.3991 11.6104 13.5566 12.2979C13.7142 12.9854 13.793 13.6729 13.793 14.3604V19.9893H17.3594V13.6729C17.3594 12.126 17.0944 10.8083 16.5645 9.71973C16.0345 8.63118 14.8815 8.08691 13.1055 8.08691Z" fill="#F5F5F5"/>
</svg>