<svg xmlns="http://www.w3.org/2000/svg" width="14" height="14" viewBox="0 0 14 14" fill="none">
  <path d="M11.6667 5.59999C11.6667 3.26666 10.7334 2.33333 8.40004 2.33333H5.60004C3.26671 2.33333 2.33337 3.26666 2.33337 5.59999V8.39999C2.33337 10.7333 3.26671 11.6667 5.60004 11.6667" stroke="white" stroke-linecap="round" stroke-linejoin="round"/>
  <path d="M9.53754 4.66666C9.21671 4.25833 8.68004 4.08333 7.87504 4.08333H6.12504C4.66671 4.08333 4.08337 4.66666 4.08337 6.125V7.875C4.08337 8.68 4.25837 9.21666 4.66087 9.5375" stroke="white" stroke-linecap="round" stroke-linejoin="round"/>
  <path d="M4.67249 2.33334V1.16667" stroke="white" stroke-linecap="round" stroke-linejoin="round"/>
  <path d="M7 2.33334V1.16667" stroke="white" stroke-linecap="round" stroke-linejoin="round"/>
  <path d="M9.33337 2.33334V1.16667" stroke="white" stroke-linecap="round" stroke-linejoin="round"/>
  <path d="M11.6666 4.66667H12.8333" stroke="white" stroke-linecap="round" stroke-linejoin="round"/>
  <path d="M4.67249 11.6667V12.8333" stroke="white" stroke-linecap="round" stroke-linejoin="round"/>
  <path d="M1.16663 4.66667H2.33329" stroke="white" stroke-linecap="round" stroke-linejoin="round"/>
  <path d="M1.16663 7H2.33329" stroke="white" stroke-linecap="round" stroke-linejoin="round"/>
  <path d="M1.16663 9.33333H2.33329" stroke="white" stroke-linecap="round" stroke-linejoin="round"/>
  <path d="M9.74745 10.8442C10.2597 10.8442 10.6749 10.4289 10.6749 9.91667C10.6749 9.40442 10.2597 8.98917 9.74745 8.98917C9.2352 8.98917 8.81995 9.40442 8.81995 9.91667C8.81995 10.4289 9.2352 10.8442 9.74745 10.8442Z" stroke="white" stroke-miterlimit="10" stroke-linecap="round" stroke-linejoin="round"/>
  <path d="M6.65588 10.185V9.6425C6.65588 9.32167 6.91838 9.05917 7.23922 9.05917C7.79922 9.05917 8.02672 8.6625 7.74672 8.17833C7.58338 7.89833 7.68255 7.53667 7.96255 7.37917L8.49338 7.07C8.73838 6.92417 9.05338 7.01167 9.19922 7.25667L9.23422 7.315C9.51422 7.79917 9.96922 7.79917 10.2492 7.315L10.2842 7.25667C10.43 7.01167 10.7451 6.93 10.9901 7.07L11.5209 7.37917C11.8009 7.5425 11.9001 7.89833 11.7367 8.17833C11.4567 8.6625 11.6842 9.05917 12.2442 9.05917C12.5651 9.05917 12.8276 9.32167 12.8276 9.6425V10.185C12.8276 10.5058 12.5651 10.7683 12.2442 10.7683C11.6842 10.7683 11.4567 11.165 11.7367 11.6492C11.9001 11.9292 11.8009 12.2908 11.5209 12.4483L10.9901 12.7575C10.7451 12.9033 10.43 12.8158 10.2842 12.5708L10.2492 12.5125C9.96922 12.0283 9.51422 12.0283 9.23422 12.5125L9.19922 12.5708C9.05338 12.8158 8.73838 12.8975 8.49338 12.7575L7.96255 12.4483C7.68255 12.285 7.58338 11.9292 7.74672 11.6492C8.02672 11.165 7.79922 10.7683 7.23922 10.7683C6.91838 10.7742 6.65588 10.5117 6.65588 10.185Z" stroke="white" stroke-miterlimit="10" stroke-linecap="round" stroke-linejoin="round"/>
</svg>