<svg xmlns="http://www.w3.org/2000/svg" width="41" height="41" viewBox="0 0 41 41" fill="none">
  <g clip-path="url(#clip0_0_1512)">
    <path d="M9.28454 27.636C10.3689 27.7392 11.4145 27.8038 12.4213 27.8296C13.4282 27.8554 14.3189 27.8941 15.0934 27.9458C13.7509 26.5516 12.4343 24.383 11.1434 21.4398C9.85252 18.4966 10.1107 14.9338 11.9179 10.7514C10.7303 11.939 9.63307 13.0492 8.6262 14.0818C7.61932 15.1145 6.9868 15.7342 6.72862 15.9407C5.38612 18.4708 5.29576 20.9234 6.45754 23.2986C7.61932 25.6738 8.56166 27.1196 9.28454 27.636ZM4.55997 17.7221L0.919721 21.3623C0.24847 22.9114 0.261378 24.2926 0.958447 25.506C1.65551 26.7194 2.00405 27.3261 2.00405 27.3261L6.72862 27.636C4.7665 25.0542 3.91453 22.7565 4.17271 20.7427C4.43088 18.729 4.55997 17.7221 4.55997 17.7221ZM15.2483 30.8115C15.2483 30.7082 15.2613 30.592 15.2871 30.463C15.3129 30.3339 15.1967 30.2435 14.9385 30.1919C14.9385 30.1919 14.6675 30.179 14.1253 30.1531C13.5831 30.1273 12.7957 30.0886 11.763 30.037C10.7303 30.037 9.86543 30.0111 9.16836 29.9595C8.47129 29.9079 8.07113 29.9337 7.96786 30.037C7.96786 30.0886 8.00658 30.179 8.08403 30.308C8.16149 30.4371 8.25185 30.5533 8.35512 30.6566C8.66492 31.1213 9.09091 31.8313 9.63307 32.7865C10.1752 33.7418 10.7819 35.0972 11.4532 36.8527C12.4859 39.5377 13.041 41.3191 13.1184 42.1969C13.1959 43.0747 14.0091 43.4362 15.5582 43.2813C17.1588 43.0747 17.4557 41.7709 16.4489 39.3699C15.442 36.9689 15.0418 34.1161 15.2483 30.8115ZM28.4152 4.09054C26.4014 2.28332 24.6459 1.71534 23.1485 2.38659C21.651 3.05784 20.6442 3.57419 20.1278 3.93563C19.1468 4.76179 18.3852 5.3814 17.843 5.79448C17.3008 6.20756 16.5908 6.85299 15.7131 7.73078C14.4738 9.33146 13.467 11.939 12.6924 15.5534C11.9179 19.1679 13.5186 23.2986 17.4945 27.9458C19.7664 28.2039 21.9738 28.4363 24.1166 28.6428C26.2594 28.8494 28.157 28.9526 29.8093 28.9526C30.4289 28.9526 31.2938 28.6428 32.404 28.0232C33.5141 27.4036 34.2241 26.0611 34.5339 23.9957C35.1019 20.6911 34.8437 17.1412 33.7594 13.3461C32.6751 9.5509 30.8937 6.46573 28.4152 4.09054ZM30.274 26.8614C28.8283 27.2745 27.2792 26.5387 25.6269 24.6541C23.9746 22.7694 22.6837 20.2522 21.7543 17.1025C20.8249 13.9011 20.528 11.0483 20.8636 8.54403C21.1992 6.03975 22.0641 4.55525 23.4583 4.09054C24.904 3.7291 26.4531 4.4907 28.1054 6.37537C29.7577 8.26004 31.0486 10.7772 31.978 13.9269C32.8558 17.0767 33.1527 19.9037 32.8687 22.4079C32.5847 24.9122 31.7198 26.3967 30.274 26.8614ZM27.6407 15.3211C28.0537 16.6119 28.1828 17.7866 28.0279 18.8451C27.873 19.9037 27.5116 20.5104 26.9436 20.6653C26.3756 20.8202 25.7431 20.5104 25.046 19.7358C24.349 18.9613 23.7939 17.9286 23.3808 16.6378C23.0194 15.3469 22.9032 14.1722 23.0323 13.1137C23.1614 12.0552 23.5099 11.4485 24.0779 11.2936C24.6975 11.1387 25.3429 11.4485 26.0142 12.223C26.6854 12.9975 27.2276 14.0302 27.6407 15.3211Z" fill="#0CB9DE"/>
  </g>
  <defs>
    <clipPath id="clip0_0_1512">
      <rect width="39.6554" height="39.6554" fill="white" transform="matrix(1 0 0 -1 0.426025 40.4929)"/>
    </clipPath>
  </defs>
</svg>