<svg xmlns="http://www.w3.org/2000/svg" width="38" height="38" viewBox="0 0 38 38" fill="none">
  <path d="M30.0882 7.41313L22.1139 0.392326C21.945 0.252635 21.723 0.173507 21.4914 0.170421C21.3761 0.167845 21.2614 0.18606 21.1544 0.223949C21.0474 0.261838 20.9503 0.318602 20.869 0.390756C20.7878 0.46291 20.7242 0.548931 20.682 0.643539C20.6399 0.738147 20.6202 0.839345 20.624 0.940921V6.53784C20.624 7.0904 20.8731 7.62033 21.3165 8.01105C21.7599 8.40177 22.3613 8.62127 22.9883 8.62127H29.3398C29.4554 8.62381 29.5703 8.60561 29.6777 8.56779C29.7851 8.52997 29.8827 8.47331 29.9644 8.40125C30.0462 8.32919 30.1105 8.24323 30.1534 8.1486C30.1964 8.05397 30.217 7.95265 30.2141 7.85077C30.333 7.73982 30.333 7.63503 30.0882 7.41313ZM30.333 13.01C30.3331 12.8639 30.3 12.7191 30.2357 12.5844C30.1713 12.4496 30.0771 12.3276 29.9585 12.2254C29.8399 12.1231 29.6993 12.0429 29.545 11.9892C29.3907 11.9355 29.2258 11.9096 29.0599 11.9128H20.624C19.6661 11.9129 18.7473 11.5779 18.0693 10.9816C17.3913 10.3853 17.0095 9.57634 17.0076 8.73222V1.26761C17.0076 0.977685 16.8774 0.699539 16.6454 0.493952C16.4134 0.288365 16.0985 0.17205 15.7695 0.170421H3.68216C2.72546 0.17205 1.80846 0.507674 1.13197 1.1038C0.455472 1.69993 0.0746026 2.50799 0.0727539 3.35105V28.9255C0.0746026 29.7686 0.455472 30.5766 1.13197 31.1727C1.80846 31.7689 2.72546 32.1045 3.68216 32.1061H16.0143C17.0076 32.1061 17.2594 31.5575 17.1335 30.5713C17.0076 29.585 16.7628 25.7387 19.7496 22.669C22.7365 19.5994 27.7239 19.3775 28.4654 19.3775C29.2068 19.3775 30.4589 19.3775 30.333 18.3851V13.01ZM4.30472 6.84604L7.29857 6.51934C7.33196 6.51934 7.36399 6.50766 7.3876 6.48685C7.41121 6.46604 7.42448 6.43782 7.42448 6.40839L8.82347 3.9921C8.8934 3.93875 8.9828 3.90939 9.07529 3.90939C9.16779 3.90939 9.25718 3.93875 9.32711 3.9921L10.6911 6.40839L10.817 6.51934L13.8109 6.84604C13.8474 6.85603 13.8806 6.87362 13.9077 6.89731C13.9348 6.921 13.9551 6.9501 13.9667 6.98215C13.9784 7.01419 13.9811 7.04824 13.9747 7.08141C13.9683 7.11459 13.9529 7.14591 13.9298 7.17273L11.6914 9.15137V9.41643L12.1881 12.0485C12.1881 12.1594 12.0621 12.3751 11.8173 12.2642L9.2012 11.0622H8.91441L6.29829 12.2642C6.17238 12.3751 5.92755 12.2642 5.92755 12.0485L6.29829 9.41643V9.16987L4.05989 7.32067C4.08769 7.15041 4.173 6.99147 4.30472 6.86453V6.84604ZM15.2658 24.7217C15.2658 25.0126 15.1347 25.2917 14.9012 25.4975C14.6677 25.7032 14.351 25.8188 14.0207 25.8188H6.17238C6.00887 25.8188 5.84696 25.7905 5.69589 25.7353C5.54483 25.6802 5.40757 25.5994 5.29195 25.4975C5.17633 25.3956 5.08462 25.2746 5.02205 25.1415C4.95948 25.0084 4.92727 24.8657 4.92727 24.7217V23.6553C4.92911 23.3648 5.06088 23.0866 5.29398 22.8812C5.52709 22.6758 5.84272 22.5597 6.17238 22.5581H14.0207C14.351 22.5581 14.6677 22.6737 14.9012 22.8794C15.1347 23.0852 15.2658 23.3643 15.2658 23.6553V24.7217ZM21.8691 18.2494C21.8691 18.5404 21.7379 18.8195 21.5044 19.0253C21.2709 19.231 20.9542 19.3466 20.624 19.3466H6.17238C6.00887 19.3466 5.84696 19.3183 5.69589 19.2631C5.54483 19.208 5.40757 19.1272 5.29195 19.0253C5.17633 18.9234 5.08462 18.8024 5.02205 18.6693C4.95948 18.5362 4.92727 18.3935 4.92727 18.2494V17.1831C4.92911 16.8926 5.06088 16.6144 5.29398 16.409C5.52709 16.2036 5.84272 16.0875 6.17238 16.0859H20.7499C20.9134 16.0859 21.0753 16.1143 21.2264 16.1694C21.3775 16.2245 21.5147 16.3054 21.6303 16.4072C21.746 16.5091 21.8377 16.6301 21.9002 16.7632C21.9628 16.8963 21.995 17.039 21.995 17.1831V18.2803L21.8691 18.2494Z" fill="#0CB9DE"/>
  <path d="M28.4677 27.1689C28.1235 27.1701 27.7874 27.2611 27.5019 27.4305C27.2164 27.5999 26.9943 27.84 26.8635 28.1206C26.7327 28.4012 26.6992 28.7096 26.7672 29.0069C26.8352 29.3042 27.0017 29.5771 27.2455 29.7912C27.4894 30.0052 27.7998 30.1508 28.1374 30.2095C28.4751 30.2682 28.8249 30.2374 29.1428 30.1211C29.4607 30.0048 29.7323 29.808 29.9233 29.5558C30.1144 29.3035 30.2164 29.007 30.2164 28.7037C30.1852 28.3047 29.9907 27.9292 29.6691 27.6469C29.3475 27.3646 28.9206 27.1948 28.4677 27.1689Z" fill="#0CB9DE"/>
  <path d="M28.4665 22.0091C26.7662 22.0091 25.1041 22.4534 23.6903 23.2858C22.2766 24.1182 21.1747 25.3013 20.524 26.6856C19.8734 28.0698 19.7031 29.593 20.0348 31.0625C20.3665 32.5321 21.1853 33.8819 22.3876 34.9413C23.5899 36.0008 25.1217 36.7223 26.7893 37.0146C28.4569 37.3069 30.1855 37.1569 31.7563 36.5835C33.3272 36.0101 34.6698 35.0392 35.6145 33.7934C36.5591 32.5476 37.0633 31.0829 37.0633 29.5846C37.0596 27.5765 36.1527 25.6515 34.5413 24.2315C32.9298 22.8115 30.7453 22.0123 28.4665 22.0091ZM28.7183 34.072C28.6502 34.1262 28.5617 34.1561 28.47 34.1561C28.3782 34.1561 28.2898 34.1262 28.2216 34.072C27.3473 33.4186 24.3604 31.2242 24.3604 28.697C24.4042 27.7624 24.8563 26.8789 25.6222 26.2313C26.3881 25.5836 27.4085 25.222 28.47 25.222C29.5314 25.222 30.5518 25.5836 31.3177 26.2313C32.0836 26.8789 32.5357 27.7624 32.5795 28.697C32.4536 31.2304 29.5927 33.4556 28.7183 34.072Z" fill="#0CB9DE"/>
</svg>