<svg xmlns="http://www.w3.org/2000/svg" width="14" height="15" viewBox="0 0 14 15" fill="none">
  <g clip-path="url(#clip0_0_1760)">
    <path fill-rule="evenodd" clip-rule="evenodd" d="M1.85925 1.0447C2.00852 0.89566 2.18775 0.780046 2.38507 0.705517C2.58239 0.630987 2.7933 0.599244 3.00382 0.612392C3.21434 0.625539 3.41966 0.683276 3.60618 0.781777C3.7927 0.880279 3.95615 1.01729 4.08571 1.18374L5.61693 3.15088C5.89759 3.51172 5.99654 3.98175 5.88565 4.42533L5.41903 6.29351C5.3949 6.39027 5.39621 6.49162 5.42281 6.58773C5.44942 6.68384 5.50042 6.77144 5.57087 6.84202L7.66681 8.93796C7.73748 9.00855 7.82522 9.05964 7.92149 9.08625C8.01776 9.11286 8.11929 9.11409 8.21618 9.0898L10.0835 8.62319C10.3024 8.56845 10.5309 8.5642 10.7517 8.61075C10.9725 8.65731 11.1798 8.75344 11.358 8.8919L13.3251 10.4223C14.0323 10.9725 14.0971 12.0175 13.4641 12.6496L12.5821 13.5316C11.9508 14.1629 11.0074 14.4401 10.1279 14.1305C7.87682 13.3384 5.83299 12.0497 4.14798 10.36C2.45834 8.67523 1.16966 6.63171 0.377507 4.38097C0.0687037 3.50233 0.345945 2.55801 0.977201 1.92675L1.85925 1.0447Z" fill="#07912E"/>
  </g>
  <defs>
    <clipPath id="clip0_0_1760">
      <rect width="13.6488" height="13.6488" fill="white" transform="translate(0.251099 0.608765)"/>
    </clipPath>
  </defs>
</svg>