<svg xmlns="http://www.w3.org/2000/svg" width="41" height="41" viewBox="0 0 41 41" fill="none">
  <g clip-path="url(#clip0_0_1492)">
    <path d="M17.6341 13.3086C22.178 12.121 25.289 10.8431 26.9671 9.47475C28.6452 8.10643 29.665 7.0092 30.0264 6.18304C28.529 5.15035 26.8767 4.31128 25.0695 3.66585C23.2623 3.02042 21.3776 2.6977 19.4155 2.6977C16.8854 2.6977 14.4973 3.20114 12.2512 4.20802C10.0051 5.21489 8.04298 6.5703 6.36485 8.27425C4.68672 9.97819 3.37004 11.9661 2.4148 14.2381C1.45955 16.51 0.981934 18.9368 0.981934 21.5185C0.981934 24.6166 1.66609 27.4694 3.03441 30.077C4.40273 32.6845 6.22285 34.8661 8.49478 36.6217C7.66863 34.8661 7.0361 32.8524 6.59721 30.5804C6.15831 28.3085 6.18413 26.0624 6.67466 23.8421C7.16519 21.6218 8.26242 19.5564 9.96637 17.6459C11.6703 15.7355 14.2262 14.2897 17.6341 13.3086ZM30.6461 6.64775C31.7304 12.8955 31.4206 17.6588 29.7166 20.9377C28.0127 24.2165 25.9344 26.5658 23.4817 27.9858C21.0291 29.4057 18.6797 30.1932 16.4336 30.3481C14.1875 30.503 13.0644 30.5804 13.0644 30.5804C12.2383 29.3412 12.277 27.9342 13.1806 26.3593C14.0842 24.7844 15.2589 23.287 16.7047 21.8671C18.1505 20.4471 19.5446 19.2466 20.8871 18.2656C22.2296 17.2845 22.9009 16.794 22.9009 16.794C17.9439 18.8077 14.4844 20.9377 12.5223 23.1838C10.5602 25.4299 9.45002 27.5856 9.19185 29.651C8.93367 31.7164 9.20476 33.5623 10.0051 35.1888C10.8054 36.8153 11.5154 38.0158 12.135 38.7903C13.271 39.2034 14.4457 39.552 15.6591 39.8359C16.8725 40.1199 18.1246 40.2619 19.4155 40.2619C21.9456 40.2619 24.3337 39.7714 26.5798 38.7903C28.8259 37.8093 30.7881 36.4668 32.4662 34.7628C34.1443 33.0589 35.461 31.071 36.4162 28.799C37.3715 26.5271 37.8491 24.1003 37.8491 21.5185C37.8491 18.4721 37.1908 15.6709 35.8741 13.115C34.5574 10.5591 32.8147 8.40333 30.6461 6.64775Z" fill="#0CB9DE"/>
  </g>
  <defs>
    <clipPath id="clip0_0_1492">
      <rect width="39.6554" height="39.6554" fill="white" transform="matrix(1 0 0 -1 0.981689 40.4929)"/>
    </clipPath>
  </defs>
</svg>