<svg xmlns="http://www.w3.org/2000/svg" width="40" height="41" viewBox="0 0 40 41" fill="none">
  <g clip-path="url(#clip0_0_1508)">
    <path d="M26.5078 27.6364C28.3666 27.6364 29.9673 26.9651 31.3098 25.6226C32.6523 24.2801 33.2977 22.6278 33.2461 20.6657L26.895 8.04103L26.5078 7.34396C26.4045 7.24069 26.2883 7.18906 26.1592 7.18906C26.0301 7.18906 25.914 7.18906 25.8107 7.18906L17.7557 8.04103V6.72435C18.1171 6.51781 18.4269 6.22091 18.6851 5.83365C18.9433 5.44639 19.0724 5.04622 19.0724 4.63314C19.0724 3.96189 18.8142 3.36809 18.2978 2.85175C17.7815 2.3354 17.1877 2.07722 16.5165 2.07722C15.7936 2.07722 15.1869 2.3354 14.6963 2.85175C14.2058 3.36809 13.9605 3.96189 13.9605 4.63314C13.9605 5.04622 14.0896 5.47221 14.3478 5.9111C14.606 6.34999 14.9158 6.62108 15.2772 6.72435V8.58319L7.53202 9.43517C7.42875 9.43517 7.32548 9.46099 7.22221 9.51262C7.11894 9.56425 7.04149 9.66752 6.98985 9.82243L6.68005 10.5195L0.328979 23.1442C0.432249 25.003 1.15513 26.5908 2.49764 27.9075C3.84014 29.2242 5.46663 29.8825 7.37711 29.8825C9.2876 29.8825 10.9141 29.2371 12.2566 27.9462C13.5991 26.6553 14.322 25.0547 14.4252 23.1442L8.07418 10.5195V10.2871L15.6645 9.43517V34.5296H9.62322C9.36505 34.5296 9.15851 34.62 9.00361 34.8007C8.8487 34.9814 8.77125 35.1751 8.77125 35.3816C8.77125 35.4849 8.77125 35.5494 8.77125 35.5752C8.77125 35.601 8.77125 35.6914 8.77125 35.8463H6.68005C6.42187 35.8463 6.1637 35.9625 5.90553 36.1948C5.64735 36.4272 5.51827 36.7241 5.51827 37.0855V37.7826C5.51827 38.144 5.64735 38.4409 5.90553 38.6733C6.1637 38.9057 6.42187 39.0218 6.68005 39.0218H27.2048C27.463 39.0218 27.7083 38.9057 27.9406 38.6733C28.173 38.4409 28.2892 38.144 28.2892 37.7826V37.0855C28.2892 36.7241 28.173 36.4272 27.9406 36.1948C27.7083 35.9625 27.463 35.8463 27.2048 35.8463H25.0362C25.0362 35.743 25.0362 35.6785 25.0362 35.6527C25.0362 35.6269 25.0362 35.5365 25.0362 35.3816C25.0362 35.1234 24.9587 34.9169 24.8038 34.762C24.6489 34.6071 24.4682 34.5296 24.2617 34.5296H18.2204V8.97046L25.8107 8.11848L19.6145 20.8206C19.6145 22.6795 20.2858 24.2801 21.6283 25.6226C22.9708 26.9651 24.5973 27.6364 26.5078 27.6364ZM12.8762 22.9118H1.87802L7.22221 10.5195L12.8762 22.9118ZM26.198 8.27339L31.7745 20.8981H20.8538L26.198 8.27339Z" fill="#0CB9DE"/>
  </g>
  <defs>
    <clipPath id="clip0_0_1508">
      <rect width="39.6554" height="39.6554" fill="white" transform="matrix(1 0 0 -1 0.329102 40.4929)"/>
    </clipPath>
  </defs>
</svg>