<svg xmlns="http://www.w3.org/2000/svg" width="41" height="41" viewBox="0 0 41 41" fill="none">
  <g clip-path="url(#clip0_0_1504)">
    <path d="M34.4593 31.9737L33.22 30.9668H33.2975L29.5798 27.9462L24.3131 23.6089C24.8294 22.6794 25.2296 21.6855 25.5136 20.627C25.7975 19.5685 25.9395 18.497 25.9395 17.4127C25.9395 15.812 25.6297 14.2372 25.0101 12.6881C24.3905 11.1391 23.4611 9.74496 22.2218 8.50573C20.9826 7.26649 19.5885 6.34998 18.0394 5.75618C16.4904 5.16238 14.8897 4.86548 13.2374 4.86548C9.88116 4.86548 6.95089 6.11762 4.44661 8.6219C1.94233 11.1262 0.690186 14.0565 0.690186 17.4127C0.690186 20.8722 1.91651 23.8412 4.36916 26.3197C6.8218 28.7982 9.77789 30.0374 13.2374 30.0374C14.4766 30.0374 15.7159 29.8567 16.9551 29.4952C18.1943 29.1338 19.3561 28.5658 20.4405 27.7913L25.8621 32.2835L29.5798 35.2267L30.819 36.311C31.1288 36.5692 31.4903 36.6724 31.9033 36.6208C32.3164 36.5692 32.6262 36.3885 32.8328 36.0786L34.6142 33.9874C34.8723 33.6776 34.9885 33.3291 34.9627 32.9418C34.9369 32.5546 34.7691 32.2319 34.4593 31.9737ZM18.814 22.9118C18.0394 23.6863 17.1746 24.2543 16.2193 24.6157C15.2641 24.9772 14.2701 25.1579 13.2374 25.1579C11.172 25.1579 9.37772 24.3963 7.8545 22.8731C6.33127 21.3499 5.56966 19.5297 5.56966 17.4127C5.56966 15.3473 6.33127 13.553 7.8545 12.0298C9.37772 10.5066 11.172 9.74496 13.2374 9.74496C15.4061 9.74496 17.252 10.5066 18.7752 12.0298C20.2985 13.553 21.0601 15.3473 21.0601 17.4127C21.0601 18.3938 20.8664 19.3619 20.4792 20.3172C20.0919 21.2724 19.5368 22.1373 18.814 22.9118Z" fill="#0CB9DE"/>
  </g>
  <defs>
    <clipPath id="clip0_0_1504">
      <rect width="39.6554" height="39.6554" fill="white" transform="matrix(1 0 0 -1 0.690063 40.4929)"/>
    </clipPath>
  </defs>
</svg>