<svg xmlns="http://www.w3.org/2000/svg" width="14" height="15" viewBox="0 0 14 15" fill="none">
  <path d="M13.7217 1.03153C13.7527 0.954024 13.7603 0.869115 13.7436 0.787332C13.7268 0.705549 13.6864 0.630487 13.6273 0.571454C13.5683 0.51242 13.4932 0.47201 13.4115 0.455233C13.3297 0.438457 13.2448 0.446052 13.1673 0.477076L0.758535 5.44074H0.757682L0.372122 5.59428C0.299096 5.62341 0.235543 5.67215 0.188483 5.73513C0.141422 5.79812 0.112686 5.87288 0.105449 5.95117C0.0982114 6.02945 0.112754 6.10822 0.147471 6.17876C0.182188 6.2493 0.235727 6.30887 0.302175 6.3509L0.651909 6.57268L0.652762 6.57438L4.91354 9.28525L7.6244 13.546L7.62611 13.5477L7.84789 13.8975C7.89005 13.9637 7.94966 14.0169 8.02014 14.0514C8.09063 14.0859 8.16927 14.1003 8.24741 14.093C8.32554 14.0857 8.40015 14.0569 8.463 14.0099C8.52586 13.963 8.57453 13.8995 8.60366 13.8267L13.7217 1.03153ZM12.1581 2.64372L5.7657 9.03617L5.5823 8.74785C5.5487 8.69494 5.50385 8.65009 5.45094 8.61649L5.16262 8.43309L11.5551 2.04064L12.5599 1.63887L12.159 2.64372H12.1581Z" fill="#EEEEEE"/>
</svg>