<svg xmlns="http://www.w3.org/2000/svg" width="30" height="30" viewBox="0 0 30 30" fill="none">
  <path d="M18.9258 15.1491C18.8297 14.8609 18.7256 14.5726 18.6135 14.2844C18.5015 13.9962 18.3654 13.724 18.2052 13.4678L19.5983 10.5857C19.3421 10.2655 19.0699 9.96129 18.7817 9.67308C18.4935 9.38487 18.1892 9.11267 17.869 8.85649L14.9869 10.2015C14.7307 10.0734 14.4585 9.94528 14.1703 9.81719C13.8821 9.68909 13.5939 9.59302 13.3057 9.52898L12.2009 6.50278C12.0087 6.47075 11.8086 6.45474 11.6004 6.45474C11.3923 6.45474 11.1921 6.45474 11 6.45474C10.8079 6.45474 10.6077 6.45474 10.3996 6.45474C10.1914 6.45474 9.99127 6.47075 9.79913 6.50278L8.74236 9.52898C8.42213 9.59302 8.1179 9.68909 7.82969 9.81719C7.54148 9.94528 7.26929 10.0734 7.0131 10.2015L4.131 8.85649C3.81077 9.11267 3.50655 9.38487 3.21834 9.67308C2.93013 9.96129 2.65793 10.2655 2.40175 10.5857L3.79476 13.4678C3.63464 13.724 3.49854 13.9962 3.38646 14.2844C3.27438 14.5726 3.17031 14.8609 3.07424 15.1491L0.0480349 16.2058C0.0480349 16.43 0.0400291 16.6381 0.0240175 16.8303C0.00800582 17.0224 0 17.2306 0 17.4547C0 17.6469 0.00800582 17.847 0.0240175 18.0552C0.0400291 18.2633 0.0480349 18.4635 0.0480349 18.6556L3.07424 19.7124C3.17031 20.0326 3.27438 20.3288 3.38646 20.601C3.49854 20.8732 3.63464 21.1534 3.79476 21.4416L2.40175 24.3237C2.65793 24.644 2.93013 24.9402 3.21834 25.2124C3.50655 25.4846 3.81077 25.7488 4.131 26.005L7.0131 24.66C7.26929 24.8201 7.54148 24.9562 7.82969 25.0683C8.1179 25.1804 8.40611 25.2844 8.69432 25.3805L9.79913 28.3587C9.99127 28.3907 10.1914 28.4147 10.3996 28.4307C10.6077 28.4467 10.8079 28.4547 11 28.4547C11.1921 28.4547 11.3923 28.4467 11.6004 28.4307C11.8086 28.4147 12.0087 28.3907 12.2009 28.3587L13.2576 25.3805C13.5779 25.2844 13.8821 25.1804 14.1703 25.0683C14.4585 24.9562 14.7307 24.8201 14.9869 24.66L17.869 26.005C18.1892 25.7488 18.4935 25.4846 18.7817 25.2124C19.0699 24.9402 19.3421 24.644 19.5983 24.3237L18.2052 21.4416C18.3654 21.1534 18.5015 20.8732 18.6135 20.601C18.7256 20.3288 18.8297 20.0326 18.9258 19.7124L21.952 18.6556C21.952 18.4635 21.96 18.2633 21.976 18.0552C21.992 17.847 22 17.6469 22 17.4547C22 17.2306 21.992 17.0224 21.976 16.8303C21.96 16.6381 21.952 16.446 21.952 16.2539L18.9258 15.1491ZM11 22.9307C9.49491 22.9307 8.20597 22.3943 7.13319 21.3216C6.06041 20.2488 5.52402 18.9598 5.52402 17.4547C5.52402 15.9176 6.06041 14.6127 7.13319 13.5399C8.20597 12.4671 9.49491 11.9307 11 11.9307C12.5051 11.9307 13.794 12.4671 14.8668 13.5399C15.9396 14.6127 16.476 15.9176 16.476 17.4547C16.476 18.9598 15.9396 20.2488 14.8668 21.3216C13.794 22.3943 12.5051 22.9307 11 22.9307Z" fill="white"/>
</svg>