<svg xmlns="http://www.w3.org/2000/svg" width="10" height="10" viewBox="0 0 10 10" fill="none">
  <g clip-path="url(#clip0_0_1732)">
    <path d="M6.24073 1.3405C6.19406 1.29383 6.13864 1.25883 6.07447 1.2355C6.0103 1.21216 5.94905 1.20049 5.89071 1.20049H2.8806C2.82226 1.20049 2.76101 1.21216 2.69684 1.2355C2.63267 1.25883 2.57725 1.29383 2.53058 1.3405L0.412999 3.45808C0.354664 3.50475 0.313829 3.56017 0.290495 3.62434C0.26716 3.68851 0.255493 3.75559 0.255493 3.8256V6.81821C0.255493 6.88822 0.26716 6.9553 0.290495 7.01947C0.313829 7.08364 0.354664 7.13906 0.412999 7.18573L2.53058 9.30331C2.57725 9.34998 2.63267 9.3879 2.69684 9.41706C2.76101 9.44623 2.82226 9.46082 2.8806 9.46082H5.89071C5.94905 9.46082 6.0103 9.44623 6.07447 9.41706C6.13864 9.3879 6.19406 9.34998 6.24073 9.30331L8.35831 7.18573C8.40498 7.13906 8.44289 7.08364 8.47206 7.01947C8.50123 6.9553 8.51581 6.88822 8.51581 6.81821V3.8256C8.51581 3.75559 8.50415 3.68851 8.48081 3.62434C8.45748 3.56017 8.41664 3.50475 8.35831 3.45808L6.24073 1.3405ZM4.38565 6.3632C4.24565 6.3632 4.12606 6.31069 4.02689 6.20569C3.92772 6.10068 3.87813 5.97818 3.87813 5.83817V2.74055C3.87813 2.60055 3.92772 2.48096 4.02689 2.38179C4.12606 2.28262 4.24565 2.23303 4.38565 2.23303C4.52566 2.23303 4.64525 2.28262 4.74442 2.38179C4.84359 2.48096 4.89317 2.60055 4.89317 2.74055V5.83817C4.89317 5.97818 4.84359 6.10068 4.74442 6.20569C4.64525 6.31069 4.52566 6.3632 4.38565 6.3632ZM4.89317 7.90325C4.89317 8.04326 4.84359 8.16577 4.74442 8.27077C4.64525 8.37577 4.52566 8.42828 4.38565 8.42828C4.24565 8.42828 4.12606 8.37577 4.02689 8.27077C3.92772 8.16577 3.87813 8.04326 3.87813 7.90325C3.87813 7.76325 3.92772 7.64366 4.02689 7.54449C4.12606 7.44532 4.24565 7.39574 4.38565 7.39574C4.52566 7.39574 4.64525 7.44532 4.74442 7.54449C4.84359 7.64366 4.89317 7.76325 4.89317 7.90325Z" fill="#333333"/>
  </g>
  <defs>
    <clipPath id="clip0_0_1732">
      <rect width="8.96035" height="8.96035" fill="white" transform="matrix(1 0 0 -1 0.255127 9.61731)"/>
    </clipPath>
  </defs>
</svg>