<svg width="70" height="75" viewBox="0 0 70 75" fill="none" xmlns="http://www.w3.org/2000/svg">
<g id="Black">
<path id="Vector" d="M32.5931 5.21705C32.5931 8.96521 32.4232 9.90225 31.7433 9.90225C31.1767 9.90225 30.8934 9.02033 30.7801 6.31945L30.6101 2.68152L28.3438 4.33512C25.4543 6.37457 23.4713 9.73689 23.018 13.3748C22.7347 15.8001 22.4514 16.2411 21.2616 16.5167C20.3551 16.7371 19.7885 17.2883 19.6752 18.0049C19.5052 18.9419 20.0151 19.4931 21.8848 20.3751C29.5336 24.1784 43.9247 24.3437 51.1769 20.7058C54.0664 19.2175 54.1231 16.5718 51.2335 16.5167C50.5536 16.5167 50.2137 15.745 49.9871 13.4299C49.5905 9.90225 47.2675 6.04385 44.3213 3.94928L42.5082 2.73664L42.225 6.15409C41.9983 8.85497 41.715 9.68177 40.9785 9.79201C40.072 9.95737 39.9586 9.46129 39.9586 5.27217V0.531838H36.2759H32.5931V5.21705ZM37.6923 14.8631C37.6923 15.4694 37.3524 15.9655 36.8991 15.9655C36.3892 15.9655 36.1059 15.4694 36.1626 14.8631C36.2192 14.2567 36.5592 13.7607 36.9558 13.7607C37.3524 13.7607 37.6923 14.2567 37.6923 14.8631ZM36.5592 16.1859C38.5989 16.1859 41.6017 15.9655 43.2448 15.6899C47.1542 15.0835 47.2108 16.1859 43.2448 17.3435C38.0889 18.8317 27.7206 17.9498 27.0407 15.9655C26.8141 15.3591 27.3806 15.304 29.8169 15.6899C31.5166 15.9655 34.5195 16.1859 36.5592 16.1859Z" fill="#D8EBEF"/>
<path id="Vector_2" d="M21.9436 24.8949C21.0371 25.9973 21.7737 30.4069 22.9068 30.6825C23.4167 30.7928 24.3233 32.2259 24.8898 33.7693C26.023 36.856 30.2157 41.3758 31.9154 41.2656C32.482 41.2656 32.5953 41.1002 32.1987 40.9349C31.8021 40.8246 31.4621 40.3837 31.4621 40.053C31.4621 39.6671 30.6123 38.7301 29.5924 37.9033C28.2893 36.9662 27.2128 35.3126 26.3629 33.0527C25.6831 31.2337 24.6066 29.4699 24.04 29.1392C22.7369 28.4777 22.6235 26.4383 23.87 26.4383C25.0032 26.4383 24.6632 24.5642 23.4734 24.3437C22.9635 24.2886 22.2836 24.5091 21.9436 24.8949Z" fill="#D8EBEF"/>
<path id="Vector_3" d="M49.1947 24.6186C48.1749 25.0044 48.2882 26.4376 49.308 26.4376C50.6678 26.4376 50.2712 28.4219 48.7414 29.414C47.9482 29.9101 47.325 30.6267 47.325 31.0125C47.325 32.7213 44.4355 37.5167 42.849 38.4537C41.6026 39.1703 41.3193 39.6664 41.7159 40.2176C42.0558 40.8239 42.2258 40.879 42.2258 40.3278C42.2258 39.942 42.4524 39.7215 42.7357 39.8869C43.7556 40.5483 46.7018 37.3513 47.8349 34.4851C48.4582 32.8315 49.5913 30.8472 50.4412 30.0755C51.9709 28.5872 52.2542 27.0439 51.291 25.28C50.6678 24.2328 50.3845 24.1225 49.1947 24.6186Z" fill="#D8EBEF"/>
<path id="Vector_4" d="M45.9078 44.6824C45.3979 46.2258 41.3752 47.9897 37.7491 48.3204C33.6131 48.7062 29.987 47.714 27.8907 45.6746L26.1909 44.021L23.7547 45.1785L21.2617 46.2809V49.6433C21.2617 51.4622 21.545 53.5017 21.885 54.108C22.3382 54.8797 22.3382 55.3757 21.885 55.8167C21.545 56.1474 21.2617 58.6278 21.2617 61.8248V67.2266L36.276 67.1163L51.2903 67.0612V56.6986V46.3912L48.7407 45.0132C46.3044 43.6903 46.2478 43.6903 45.9078 44.6824Z" fill="#D8EBEF"/>
<path id="Vector_5" d="M11.6302 51.7929C5.34119 55.486 4.15138 57.4703 1.7151 67.9431C1.26184 70.0377 0.865234 72.4078 0.865234 73.3449V74.9434H8.23074H15.5962V62.2657C15.5962 55.2655 15.5396 49.5881 15.4829 49.5881C15.3696 49.6432 13.6699 50.5803 11.6302 51.7929ZM6.53101 68.0533C6.53101 68.9353 6.19106 69.4314 5.68114 69.4314C5.17122 69.4314 4.83128 68.9353 4.83128 68.0533C4.83128 67.1714 5.17122 66.6753 5.68114 66.6753C6.19106 66.6753 6.53101 67.1714 6.53101 68.0533Z" fill="#D8EBEF"/>
<path id="Vector_6" d="M53.6673 61.3102V74.043H61.3728H69.1349L68.7383 72.3342C68.5683 71.3972 68.5213 70.1808 68.3983 69.6885C68.3983 68.9168 67.9792 67.7347 67.9792 67.7347L67.8707 67.2197L67.6539 66.3185L67.2652 64.7828C67.2652 64.7828 65.3955 58.2235 64.3756 56.2943C63.6957 55.0265 61.996 53.4281 59.4464 51.7745C53.1007 47.6956 53.6673 46.7034 53.6673 61.3102Z" fill="#D8EBEF"/>
</g>
</svg>
