<svg width="162" height="83" viewBox="0 0 162 83" fill="none" xmlns="http://www.w3.org/2000/svg">
<g id="Black">
<path id="Vector" d="M2.16525 8.19263L2.28421 15.6186L9.93746 15.7232L17.5511 15.793V11.8185C17.5511 8.15777 17.4718 7.70454 16.4407 5.9962C14.4184 2.54467 10.5323 0.801478 4.98069 0.801478H2.08594L2.16525 8.19263Z" fill="#D8EBEF"/>
<path id="Vector_2" d="M19.9238 9.50467V12.9562L21.9065 14.1067C23.1755 14.8389 28.1322 19.406 35.5872 26.6926C42.0112 32.9681 47.2852 38.2325 47.2852 38.372C47.2852 38.5463 47.0869 38.8252 46.849 39.0344C46.5714 39.2785 48.3955 41.2657 52.9161 45.6237C56.485 49.0404 59.9349 52.3873 60.609 53.0497L61.8383 54.27L58.9435 56.1177C56.3263 57.7563 55.7712 57.9655 54.0264 57.9655H52.0437V65.8099V73.6543H54.9385H57.7936L57.8729 71.4579C57.9918 68.0761 59.2608 65.4961 62.1159 62.9859C63.9003 61.4171 65.1692 60.6501 66.914 60.0922C76.2327 57.0242 86.4239 62.8465 86.5032 71.2835L86.5428 73.6543H92.0944H97.646L97.5667 63.2648L97.4477 52.9103L95.584 52.8057L93.6806 52.7011V42.0676V31.4689H88.6445H83.5688L78.4137 40.4638C74.1707 47.855 73.219 49.7725 73.0604 51.3414L72.8621 53.2589L70.8398 53.3635L68.8174 53.4681L64.8916 49.7028C62.7503 47.6458 60.8866 45.8677 60.7676 45.7632C60.609 45.6237 57.9522 43.0438 51.5679 36.9077C50.6955 36.0361 50.4179 35.9315 49.9024 36.315C49.4265 36.6637 49.0696 36.5242 47.8007 35.2691C36.6579 24.4613 31.5028 19.4409 31.5822 19.3363C31.6615 19.3014 41.2578 24.2521 52.9161 30.3882C64.5744 36.5242 74.3293 41.5795 74.6069 41.6492C74.8845 41.7189 76.1534 39.906 77.6206 37.3958C79.0085 35.0251 80.1188 33.0378 80.0792 33.003C80.0395 32.9681 70.7208 28.7496 59.3797 23.6246C48.0386 18.4996 34.6355 12.4332 29.5994 10.1671C24.5237 7.90093 20.3204 6.01828 20.1618 6.01828C20.0428 6.01828 19.9238 7.58716 19.9238 9.50467Z" fill="#D8EBEF"/>
<path id="Vector_3" d="M4.4668 24.1483V31.1211H9.2253H13.9838V24.1483V17.1755H9.2253H4.4668V24.1483Z" fill="#D8EBEF"/>
<path id="Vector_4" d="M110.736 43.4956V56.9183H113.512H116.288V54.4778V52.0373H117.478H118.667V54.4778V56.9531L122.752 56.8485L126.796 56.7439L126.915 51.9676C126.995 47.5399 126.955 47.1215 126.201 46.4591C125.051 45.448 120.61 45.448 119.46 46.4591C119.024 46.8426 118.667 47.2958 118.667 47.505C118.667 47.6793 118.152 47.8536 117.478 47.8536C116.328 47.8536 116.288 47.7839 116.288 46.2848V44.7159H118.271H120.253V39.0331V33.3502L118.35 31.7116L116.447 30.073H113.591H110.736V43.4956Z" fill="#D8EBEF"/>
<path id="Vector_5" d="M6.84467 35.9727V39.0756L5.06023 40.0169C2.99821 41.0628 0.5 42.9106 0.5 43.3638C0.5 43.7473 2.52236 43.7822 3.75164 43.3638C4.26715 43.2244 5.13954 42.9803 5.774 42.8409L6.84467 42.6317V45.1419L6.80501 47.6869L4.22749 49.0815C1.0155 50.8247 0.182767 51.5568 0.817233 52.1147C1.17412 52.4284 1.92755 52.3587 4.06887 51.8009L6.88432 51.1036L6.76536 53.7184L6.6464 56.3681L4.66369 57.3791C2.60167 58.425 0.5 59.9939 0.5 60.482C0.5 60.9352 3.03787 60.7958 4.86196 60.238C5.774 59.959 6.60674 59.715 6.68605 59.715C6.76536 59.715 6.84467 60.8655 6.84467 62.2949V64.8749L4.78265 65.9208C1.09481 67.7337 -0.412046 69.4769 1.64997 69.4769C2.04651 69.4769 3.3551 69.198 4.58438 68.8145L6.84467 68.1869V70.8366V73.4863L5.13954 74.2881C3.11717 75.2294 0.5 77.0424 0.5 77.5305C0.5 78.0186 3.27579 77.8791 5.06023 77.3213C5.93262 77.0424 6.68605 76.7983 6.76536 76.7983C6.80501 76.7983 6.84467 77.4259 6.84467 78.2277C6.84467 79.2388 7.20155 80.0755 8.07395 81.226L9.30322 82.7949L10.4532 81.2609C11.4445 79.9709 11.6032 79.4131 11.6032 77.3213V74.8808L13.3083 74.0789C15.6082 72.9982 17.9478 71.2898 17.9478 70.6623C17.9478 69.9999 16.9168 70.0347 14.0221 70.8366L11.6032 71.499V68.9539V66.4437L14.0617 65.1189C16.6392 63.6895 17.9478 62.7133 17.9478 62.1555C17.9478 61.6325 16.0048 61.7371 13.7445 62.3298C12.6738 62.6087 11.7618 62.8528 11.7221 62.8528C11.6428 62.8528 11.6032 61.7022 11.6032 60.3077V57.7278L13.5859 56.7864C19.2564 54.067 19.415 52.0798 13.8635 53.7533L11.6032 54.4506V51.7312V49.0466L13.3479 48.3145C15.1324 47.5475 17.9478 45.5602 17.9478 45.0722C17.9478 44.3749 16.0048 44.5143 12.5152 45.5602C11.6032 45.8043 11.6032 45.7694 11.6032 43.1895V40.5398L13.11 39.8774C15.4496 38.7966 17.9478 37.0883 17.9478 36.5305C17.9478 35.8681 16.6392 35.8681 14.141 36.5305C13.0704 36.8094 12.079 37.0535 11.9204 37.0535C11.7221 37.0535 11.6032 36.1121 11.6032 34.9616V32.8698H9.22392H6.84467V35.9727Z" fill="#D8EBEF"/>
<path id="Vector_6" d="M129.382 47.1577V57.9655H118.874H108.365V65.8099V73.6543H116.851H125.337L125.377 71.423C125.456 62.5327 136.321 56.6756 145.799 60.3711C148.297 61.3473 151.231 63.8575 152.619 66.2283C153.531 67.832 153.809 68.8082 153.928 70.9349L154.047 73.6543H157.774H161.502V69.9936V66.3329H159.916H158.329V62.1841C158.329 58.4536 158.092 56.9893 155.95 47.9596C154.642 42.4511 153.492 37.5701 153.373 37.1169L153.174 36.3499H141.278H129.382V47.1577ZM153.293 47.088C154.602 52.0038 155.712 56.3967 155.831 56.815C156.03 57.582 155.95 57.6169 153.055 57.6169H150.081L148.614 55.8737L147.147 54.1305H140.445H133.744V46.1118V38.0931H142.389H150.993L153.293 47.088Z" fill="#D8EBEF"/>
<path id="Vector_7" d="M42.9297 64.7727V76.1035H46.102H49.2347L49.3537 64.7727L49.4726 53.442H46.221H42.9297V64.7727Z" fill="#D8EBEF"/>
<path id="Vector_8" d="M99.6387 64.7727V76.1035H102.811H105.983V64.7727V53.442H102.811H99.6387V64.7727Z" fill="#D8EBEF"/>
<path id="Vector_9" d="M66.9243 62.083C64.1485 63.2684 62.2451 65.0116 60.8572 67.6612C60.0245 69.2998 59.9055 69.8925 60.0641 72.4027C60.3417 76.9002 62.5227 79.8287 66.9243 81.6765C72.9121 84.1867 79.9705 82.1995 83.1825 77.1093C84.2532 75.401 84.3721 74.9478 84.3721 71.9146C84.3721 69.1604 84.2135 68.3585 83.4601 67.1383C82.1515 64.9418 80.486 63.4427 78.1464 62.327C76.4016 61.4903 75.4896 61.2811 72.6741 61.1765C69.6208 61.0719 69.1053 61.1417 66.9243 62.083ZM75.093 68.0099C76.5999 68.742 77.4326 70.2063 77.4326 72.0889C77.4326 73.5532 77.2344 73.9019 75.8861 75.0872C74.5379 76.2726 74.1413 76.4469 72.4759 76.4469C69.1846 76.4469 67.1226 74.7037 67.1226 71.9146C67.1226 68.0796 71.2069 66.0575 75.093 68.0099Z" fill="#D8EBEF"/>
<path id="Vector_10" d="M134.212 62.1598C131.635 63.3104 129.89 64.8095 128.502 67.1454C127.748 68.3656 127.59 69.1675 127.59 71.9217C127.59 74.9549 127.709 75.4081 128.779 77.1165C133.498 84.6122 145.95 84.6122 150.589 77.1165C151.501 75.5825 151.779 74.7109 151.898 72.4098C152.056 69.9345 151.938 69.307 151.105 67.6683C149.717 65.0536 147.972 63.4149 145.157 62.1598C143.095 61.2534 142.302 61.1139 139.684 61.1139C137.067 61.1139 136.274 61.2534 134.212 62.1598ZM142.539 67.9821C143.967 68.5748 144.839 70.1088 144.839 71.9217C144.839 74.7109 142.777 76.4541 139.486 76.4541C137.821 76.4541 137.424 76.2797 136.076 75.0944C134.728 73.909 134.529 73.5604 134.529 72.1309C134.529 68.0519 138.336 66.0995 142.539 67.9821Z" fill="#D8EBEF"/>
<path id="Vector_11" d="M44.5156 78.1904C44.5156 79.2015 44.5949 79.2363 46.3001 79.2363C48.0052 79.2363 48.0845 79.2015 48.0845 78.1904C48.0845 77.1794 48.0052 77.1445 46.3001 77.1445C44.5949 77.1445 44.5156 77.1794 44.5156 78.1904Z" fill="#D8EBEF"/>
<path id="Vector_12" d="M101.219 78.1924C101.219 79.2034 101.298 79.2383 103.003 79.2383C104.708 79.2383 104.788 79.2034 104.788 78.1924C104.788 77.1813 104.708 77.1464 103.003 77.1464C101.298 77.1464 101.219 77.1813 101.219 78.1924Z" fill="#D8EBEF"/>
<path id="Vector_13" d="M39.3633 81.332V82.7266H46.1045H52.8457V81.332V79.9374H46.1045H39.3633V81.332Z" fill="#D8EBEF"/>
<path id="Vector_14" d="M96.0645 81.332V82.7266H102.806H109.547V81.332V79.9374H102.806H96.0645V81.332Z" fill="#D8EBEF"/>
</g>
</svg>
