<svg xmlns="http://www.w3.org/2000/svg" width="22" height="23" viewBox="0 0 22 23" fill="none">
  <path d="M18.1758 8.25854C18.1758 8.37313 18.1758 8.47339 18.1758 8.55933C18.1758 8.64526 18.1758 8.74552 18.1758 8.86011C18.1758 10.2351 17.918 11.6244 17.4023 13.0281C16.8867 14.4317 16.1348 15.6993 15.1465 16.8308C14.1582 17.9623 12.9264 18.8861 11.4512 19.6023C9.97591 20.3184 8.27865 20.6765 6.35938 20.6765C5.1849 20.6765 4.06771 20.519 3.00781 20.2039C1.94792 19.8888 0.945312 19.4304 0 18.8289C0.143229 18.8289 0.300781 18.8432 0.472656 18.8718C0.644531 18.9005 0.802083 18.9148 0.945312 18.9148C1.94792 18.9148 2.88607 18.7572 3.75977 18.4421C4.63346 18.127 5.42839 17.6973 6.14453 17.1531C5.22786 17.1531 4.42578 16.8738 3.73828 16.3152C3.05078 15.7566 2.5638 15.0763 2.27734 14.2742C2.42057 14.3315 2.54948 14.3601 2.66406 14.3601C2.77865 14.3601 2.92188 14.3601 3.09375 14.3601C3.26562 14.3601 3.45182 14.3458 3.65234 14.3171C3.85286 14.2885 4.02474 14.2742 4.16797 14.2742C3.2513 14.1023 2.4707 13.6368 1.82617 12.8777C1.18164 12.1186 0.859375 11.2234 0.859375 10.1921C0.859375 10.1921 0.859375 10.185 0.859375 10.1707C0.859375 10.1563 0.859375 10.1348 0.859375 10.1062C1.17448 10.2494 1.48242 10.3712 1.7832 10.4714C2.08398 10.5717 2.39193 10.6218 2.70703 10.6218C2.16276 10.2208 1.71875 9.71948 1.375 9.11792C1.03125 8.51636 0.859375 7.87183 0.859375 7.18433C0.859375 6.78328 0.916667 6.41089 1.03125 6.06714C1.14583 5.72339 1.28906 5.40828 1.46094 5.12183C2.49219 6.41089 3.73828 7.43498 5.19922 8.19409C6.66016 8.95321 8.25 9.37573 9.96875 9.46167C9.85417 9.28979 9.78971 9.12508 9.77539 8.96753C9.76107 8.80998 9.75391 8.63094 9.75391 8.43042C9.75391 7.28459 10.1549 6.31063 10.957 5.50854C11.7591 4.70646 12.7331 4.30542 13.8789 4.30542C14.4518 4.30542 15.0033 4.42 15.5332 4.64917C16.0632 4.87834 16.5143 5.17912 16.8867 5.55151C17.3451 5.43693 17.7962 5.30802 18.2402 5.16479C18.6842 5.02157 19.1068 4.83537 19.5078 4.6062C19.3932 5.12183 19.1712 5.56584 18.8418 5.93823C18.5124 6.31063 18.1185 6.62573 17.6602 6.88354C18.1185 6.8549 18.5482 6.78328 18.9492 6.6687C19.3503 6.55412 19.7083 6.39657 20.0234 6.19604C19.8802 6.53979 19.651 6.89787 19.3359 7.27026C19.0208 7.64266 18.6341 7.97209 18.1758 8.25854Z" fill="#F5F5F5"/>
</svg>