<svg xmlns="http://www.w3.org/2000/svg" width="10" height="15" viewBox="0 0 10 15" fill="none">
  <path d="M0.264221 14.8487H9.93696V12.3281C9.93594 11.3926 9.57893 10.4956 8.94425 9.83406C8.30958 9.17251 7.44907 8.80038 6.5515 8.79932H3.64968C2.75212 8.80038 1.89161 9.17251 1.25693 9.83406C0.622255 10.4956 0.265245 11.3926 0.264221 12.3281V14.8487Z" fill="#403A4B" fill-opacity="0.6"/>
  <path d="M1.71704 4.26246C1.71704 4.9604 1.91559 5.64266 2.28759 6.22297C2.65959 6.80328 3.18833 7.25558 3.80694 7.52267C4.42555 7.78976 5.10626 7.85964 5.76297 7.72348C6.41969 7.58732 7.02292 7.25123 7.49638 6.75772C7.96985 6.2642 8.29228 5.63543 8.42291 4.9509C8.55354 4.26638 8.48649 3.55685 8.23026 2.91204C7.97402 2.26723 7.5401 1.71611 6.98336 1.32836C6.42662 0.940604 5.77208 0.733643 5.1025 0.733643C4.20462 0.733643 3.34352 1.10543 2.70862 1.76721C2.07372 2.42899 1.71704 3.32656 1.71704 4.26246Z" fill="#403A4B" fill-opacity="0.6"/>
</svg>