<svg xmlns="http://www.w3.org/2000/svg" width="11" height="15" viewBox="0 0 11 15" fill="none">
  <path d="M6.30737 4.49475V0.56604H0.888184V14.2438H10.937V5.25867H7.06104C6.86115 5.25867 6.66945 5.17818 6.52812 5.03492C6.38678 4.89166 6.30737 4.69735 6.30737 4.49475ZM7.29431 9.72576C7.58322 9.6912 7.84341 9.67483 8.08925 9.68392C8.31893 9.6912 8.51273 9.7203 8.66346 9.77668C8.66705 9.7785 8.66885 9.7785 8.67244 9.78032C8.67961 9.78396 8.68679 9.78578 8.69397 9.78942C8.70294 9.79305 8.71371 9.79669 8.72268 9.80215C8.72447 9.80397 8.72806 9.80397 8.72986 9.80579C8.80343 9.83853 8.86444 9.87854 8.9111 9.92583C9.07439 10.0913 9.12284 10.4005 9.02235 10.6461C8.96493 10.7861 8.8124 11.019 8.4248 11.019C8.03362 11.019 7.45761 10.8425 6.95158 10.5679C6.49399 10.6461 5.98796 10.8207 5.49988 10.988C5.3958 11.0244 5.28813 11.0608 5.18406 11.0953C4.50217 12.2812 3.99076 12.5395 3.67494 12.5395C3.59957 12.5395 3.53497 12.5231 3.48114 12.5031C3.35732 12.4558 3.25145 12.3576 3.18506 12.2303C3.16891 12.1994 3.15635 12.1685 3.14558 12.1357C3.11687 12.0484 3.1079 11.9611 3.12225 11.8884L3.13302 11.8393C3.13481 11.8356 3.13481 11.832 3.13661 11.8283C3.1402 11.8156 3.14379 11.8029 3.14917 11.7901C3.14917 11.7883 3.15096 11.7865 3.15096 11.7847C3.22454 11.5682 3.39501 11.3591 3.64802 11.1554C3.86874 10.9771 4.13431 10.8152 4.47167 10.6388C4.75698 10.1295 5.14637 9.27286 5.39042 8.68538C5.19662 7.9251 5.09075 7.32852 5.20918 6.89199C5.22533 6.83197 5.25404 6.77559 5.29172 6.72648C5.29531 6.72284 5.29711 6.7192 5.3007 6.71556C5.30249 6.71375 5.30249 6.71193 5.30428 6.71193C5.41733 6.57551 5.60754 6.49548 5.80852 6.50276C6.1064 6.51549 6.34147 6.71193 6.40068 7.05023C6.43119 7.19574 6.44016 7.35034 6.43478 7.51768V7.53041C6.43478 7.5395 6.43478 7.5486 6.43298 7.55769C6.42042 7.7996 6.37915 8.0415 6.30199 8.37071C6.29481 8.39982 6.28763 8.42892 6.28046 8.4653L6.26251 8.53987L6.26072 8.54532C6.26251 8.54896 6.26251 8.55078 6.26431 8.55442L6.29661 8.63627C6.2984 8.64172 6.30199 8.649 6.30378 8.65446C6.31635 8.68356 6.32891 8.71448 6.34147 8.74176V8.74358C6.49758 9.08552 6.69497 9.35107 6.94978 9.56388C7.02694 9.62754 7.10949 9.68574 7.19921 9.74213C7.23151 9.73303 7.26201 9.72939 7.29431 9.72576Z" fill="#D6F9FF"/>
</svg>