<svg xmlns="http://www.w3.org/2000/svg" width="41" height="41" viewBox="0 0 41 41" fill="none">
  <path d="M12.7733 32.9222L13.506 33.3125C14.3403 33.7509 15.2708 34.1466 16.2495 34.4406L17.0357 34.6866V38.3597C17.0357 39.2418 17.624 39.4397 18.116 39.4397H22.5227C23.0148 39.4397 23.603 39.2418 23.603 38.3597V34.6866L24.3892 34.4406C25.3679 34.1466 26.2984 33.7563 27.1327 33.3125L27.8654 32.9222L28.4537 33.5103C29.4805 34.5369 30.1704 35.2747 30.4645 35.4672C30.7105 35.7131 30.9565 35.8575 31.1972 35.8575C31.6357 35.8575 32.0315 35.5153 32.0315 35.4672L35.1654 32.3341C35.5077 31.9919 35.8018 31.4038 35.1654 30.7675L32.5716 28.1745L32.962 27.442C33.4006 26.6079 33.7963 25.6776 34.0905 24.6992L34.3365 23.9133H38.0106C38.893 23.9133 39.0909 23.3251 39.0909 22.8332V18.4277C39.0909 17.9358 38.893 17.3477 38.0106 17.3477H34.3365L34.0905 16.5617C33.7482 15.6314 33.4059 14.7011 32.9139 13.8671L32.5235 13.1346L33.1118 12.5465L35.1226 10.5362C35.3686 10.2902 35.513 10.0443 35.513 9.80368C35.513 9.4615 35.267 9.11932 35.1226 8.96962L31.978 5.84188C31.8817 5.74564 31.5395 5.45158 31.1437 5.45158C30.8977 5.45158 30.6517 5.54782 30.411 5.84188L27.8173 8.43496L27.0846 8.04466C26.2503 7.60624 25.3197 7.2106 24.3892 6.91654L23.603 6.71871V2.99751C23.603 2.06721 22.8169 1.9175 22.4746 1.9175H18.116C17.7737 1.9175 17.0357 2.06186 17.0357 2.99751V6.71871L16.2495 6.96466C15.319 7.25872 14.3884 7.6009 13.5541 8.09278L12.8215 8.48308L10.1796 5.84188C9.93354 5.59594 9.68753 5.4997 9.49501 5.4997C9.1046 5.4997 8.70885 5.79376 8.61258 5.89L5.47866 8.97496C5.28078 9.2209 4.79411 9.85714 5.47866 10.5415L8.07244 13.1399L7.68203 13.8724C7.2435 14.7065 6.84774 15.6368 6.5536 16.5671L6.3076 17.353H2.63352C1.7511 17.4011 1.55322 18.0855 1.55322 18.5293V22.8867C1.55322 23.2289 1.69762 23.9667 2.63352 23.9667H6.3076L6.5536 24.7527C6.84774 25.7311 7.23815 26.6133 7.68203 27.4954L8.07244 28.2279L5.47866 30.821C4.84224 31.4572 5.23265 32.0935 5.47866 32.3876L8.56445 35.4725C8.66072 35.5206 9.05647 35.8147 9.39874 35.8147C9.64475 35.8147 9.83728 35.7185 10.0833 35.4725L12.7733 32.9222Z" fill="#39B6CC"/>
  <path d="M19.528 30.8687H19.4852C19.298 30.8527 19.1108 30.8313 18.9236 30.8099C18.6295 30.7725 18.4263 30.4998 18.4637 30.2058C18.5012 29.9117 18.7739 29.7085 19.068 29.746C19.2338 29.7674 19.405 29.7887 19.5708 29.7994C19.8649 29.8208 20.0842 30.0828 20.0628 30.3769C20.036 30.6602 19.8007 30.8687 19.528 30.8687ZM21.6565 30.8099C21.3944 30.8099 21.1645 30.6175 21.127 30.3501C21.0842 30.0561 21.2928 29.7887 21.5816 29.746C21.7474 29.7246 21.9132 29.6978 22.079 29.6658C22.3678 29.607 22.6512 29.7994 22.7047 30.0881C22.7582 30.3769 22.571 30.6602 22.2822 30.7137C22.1004 30.7511 21.9132 30.7832 21.726 30.8046C21.71 30.8099 21.6832 30.8099 21.6565 30.8099ZM16.9235 30.2913C16.8593 30.2913 16.8005 30.2806 16.7363 30.2592C16.5598 30.1951 16.3833 30.1202 16.2122 30.0454C15.9395 29.9277 15.8165 29.6123 15.9395 29.3396C16.0571 29.067 16.3726 28.944 16.6454 29.067C16.8005 29.1365 16.9556 29.2006 17.116 29.2594C17.3941 29.361 17.5332 29.6711 17.4316 29.9491C17.346 30.1577 17.1428 30.2913 16.9235 30.2913ZM24.2235 30.0881C24.0203 30.0881 23.8224 29.9705 23.7315 29.7674C23.6138 29.4947 23.7368 29.1792 24.0042 29.0616C24.1593 28.9921 24.3091 28.9226 24.4588 28.8477C24.7209 28.7141 25.0418 28.821 25.1755 29.083C25.3092 29.345 25.2022 29.6658 24.9401 29.7994C24.7744 29.885 24.6032 29.9652 24.4321 30.04C24.3679 30.0721 24.2984 30.0881 24.2235 30.0881ZM14.5811 29.0242C14.4688 29.0242 14.3618 28.9921 14.2655 28.9226C14.1158 28.8103 13.966 28.6927 13.8217 28.5751C13.5917 28.3879 13.5596 28.0511 13.7468 27.8212C13.934 27.5913 14.2709 27.5592 14.5008 27.7464C14.6292 27.8533 14.7629 27.9602 14.9019 28.0565C15.1426 28.2329 15.1907 28.5644 15.0143 28.805C14.9073 28.9493 14.7415 29.0242 14.5811 29.0242ZM26.4911 28.6873C26.336 28.6873 26.1862 28.6232 26.0793 28.4949C25.8921 28.265 25.9242 27.9281 26.1488 27.741C26.2771 27.6341 26.4055 27.5218 26.5285 27.4095C26.7478 27.2117 27.0847 27.2224 27.2826 27.4416C27.4804 27.6608 27.4697 27.9976 27.2505 28.1955C27.1114 28.3238 26.9724 28.4468 26.828 28.5644C26.7317 28.6499 26.6087 28.6873 26.4911 28.6873ZM12.6665 27.1689C12.506 27.1689 12.351 27.0994 12.244 26.9658C12.1263 26.816 12.014 26.6663 11.9071 26.5113C11.7359 26.2707 11.8001 25.9339 12.0408 25.7681C12.2814 25.597 12.6183 25.6612 12.7841 25.9018C12.8804 26.0408 12.982 26.1745 13.0836 26.3081C13.2655 26.5434 13.2227 26.8749 12.9927 27.0566C12.8964 27.1315 12.7841 27.1689 12.6665 27.1689ZM28.2933 26.7305C28.1864 26.7305 28.0794 26.6984 27.9885 26.6343C27.7478 26.4685 27.6837 26.1317 27.8548 25.8911C27.9511 25.7521 28.042 25.6131 28.1329 25.4687C28.288 25.2174 28.6196 25.1372 28.8709 25.2923C29.1223 25.4473 29.2025 25.7788 29.0474 26.0301C28.9511 26.1905 28.8442 26.3456 28.7372 26.5006C28.6303 26.6503 28.4645 26.7305 28.2933 26.7305ZM11.3295 24.8646C11.1209 24.8646 10.9177 24.7416 10.8321 24.5331C10.7626 24.362 10.6931 24.1802 10.6342 24.0038C10.538 23.7257 10.6877 23.421 10.9658 23.3247C11.2439 23.2285 11.5487 23.3782 11.645 23.6562C11.6985 23.8166 11.7573 23.9717 11.8215 24.1267C11.9338 24.3994 11.8001 24.7149 11.5274 24.8218C11.4685 24.8485 11.399 24.8646 11.3295 24.8646ZM29.502 24.3513C29.4432 24.3513 29.3843 24.3406 29.3309 24.3246C29.0528 24.2283 28.903 23.9236 28.9993 23.6455C29.0528 23.4851 29.1062 23.3247 29.149 23.1643C29.2292 22.881 29.5234 22.7152 29.8068 22.7954C30.0903 22.8756 30.2561 23.1697 30.1758 23.4531C30.1224 23.6348 30.0689 23.8166 30.0101 23.9931C29.9298 24.2123 29.7213 24.3513 29.502 24.3513ZM10.677 22.2822C10.4096 22.2822 10.1743 22.079 10.1476 21.8063C10.1262 21.6192 10.1101 21.4321 10.0994 21.2449C10.0834 20.9509 10.308 20.6996 10.6022 20.6835C10.8963 20.6675 11.1476 20.8921 11.1637 21.1861C11.1744 21.3519 11.1851 21.523 11.2065 21.6887C11.2386 21.9828 11.03 22.2447 10.7359 22.2768C10.7145 22.2822 10.6931 22.2822 10.677 22.2822ZM30.0101 21.7368H29.978C29.6838 21.7208 29.4592 21.4695 29.4753 21.1754C29.4859 21.0097 29.4913 20.8386 29.4913 20.6729C29.4913 20.3788 29.732 20.1382 30.0261 20.1382C30.3202 20.1382 30.5609 20.3788 30.5609 20.6729C30.5609 20.86 30.5555 21.0471 30.5449 21.2342C30.5288 21.5176 30.2935 21.7368 30.0101 21.7368ZM10.7466 19.6196C10.7198 19.6196 10.6877 19.6196 10.661 19.6142C10.3668 19.5661 10.1743 19.2934 10.2224 18.9994C10.2545 18.8122 10.2866 18.6305 10.3294 18.4433C10.3936 18.1546 10.677 17.9728 10.9658 18.037C11.2546 18.1012 11.4364 18.3845 11.3723 18.6732C11.3348 18.839 11.3027 19.0047 11.276 19.1705C11.2279 19.4324 11.0033 19.6196 10.7466 19.6196ZM29.887 19.5768C29.6303 19.5768 29.4057 19.3897 29.3629 19.133C29.3362 18.9673 29.3041 18.8016 29.2667 18.6358C29.2025 18.3471 29.3843 18.0637 29.6678 17.9942C29.9566 17.9301 30.24 18.1118 30.3095 18.3952C30.3523 18.577 30.3898 18.7641 30.4165 18.9513C30.4646 19.24 30.2668 19.518 29.978 19.5661C29.9459 19.5768 29.9191 19.5768 29.887 19.5768ZM11.5327 17.0746C11.4578 17.0746 11.3776 17.0586 11.3027 17.0211C11.0353 16.8928 10.923 16.5774 11.046 16.3101C11.1263 16.139 11.2118 15.9732 11.3027 15.8075C11.4418 15.5455 11.768 15.4493 12.0301 15.5936C12.2921 15.7326 12.3884 16.0588 12.244 16.3207C12.1638 16.4705 12.0889 16.6202 12.014 16.7699C11.9285 16.9623 11.7359 17.0746 11.5327 17.0746ZM29.0848 17.0372C28.887 17.0372 28.6944 16.9249 28.6035 16.7324C28.534 16.5827 28.4538 16.4277 28.3736 16.2833C28.2345 16.0267 28.3254 15.7005 28.5875 15.5562C28.8442 15.4172 29.1704 15.5081 29.3148 15.7701C29.4057 15.9358 29.4913 16.1015 29.5715 16.2726C29.6999 16.54 29.5876 16.8608 29.3202 16.9837C29.2399 17.0211 29.1651 17.0372 29.0848 17.0372ZM12.9927 14.8398C12.8697 14.8398 12.7414 14.797 12.6397 14.7061C12.4151 14.5136 12.3937 14.1768 12.5863 13.9522C12.7093 13.8132 12.8376 13.6689 12.966 13.5352C13.1692 13.3213 13.5115 13.316 13.72 13.5245C13.934 13.7277 13.9393 14.0698 13.7307 14.2784C13.6131 14.396 13.5008 14.5243 13.3885 14.6526C13.2922 14.7809 13.1425 14.8398 12.9927 14.8398ZM27.6248 14.813C27.4751 14.813 27.3307 14.7489 27.2237 14.6312C27.1114 14.5029 26.9991 14.3799 26.8815 14.2623C26.6729 14.0485 26.6782 13.7116 26.8922 13.5085C27.1007 13.2999 27.443 13.3053 27.6462 13.5192C27.7746 13.6528 27.9083 13.7918 28.0313 13.9308C28.2238 14.1554 28.2024 14.4922 27.9832 14.6847C27.8708 14.7702 27.7478 14.813 27.6248 14.813ZM14.9982 13.0861C14.8217 13.0861 14.6559 13.0005 14.549 12.8455C14.3885 12.5995 14.4581 12.2681 14.7041 12.1077C14.8592 12.0061 15.0196 11.9045 15.1854 11.8136C15.4421 11.6639 15.7683 11.7548 15.9181 12.0061C16.0678 12.2627 15.9822 12.5889 15.7255 12.7386C15.5811 12.8241 15.4367 12.9096 15.2977 13.0059C15.2014 13.0593 15.0998 13.0861 14.9982 13.0861ZM25.6086 13.07C25.507 13.07 25.4054 13.0433 25.3199 12.9845C25.1808 12.8936 25.0364 12.8027 24.8867 12.7225C24.63 12.5728 24.5444 12.2467 24.6888 11.99C24.8332 11.7334 25.1648 11.6479 25.4215 11.7922C25.5819 11.8831 25.7477 11.9847 25.9028 12.0863C26.1488 12.2467 26.2183 12.5782 26.0579 12.8241C25.9563 12.9845 25.7851 13.07 25.6086 13.07ZM17.4048 11.9473C17.1748 11.9473 16.9663 11.8029 16.8968 11.573C16.8058 11.2896 16.9663 10.9902 17.2444 10.9047C17.4209 10.8459 17.608 10.7978 17.7845 10.7496C18.0733 10.6748 18.3621 10.8512 18.437 11.1346C18.5118 11.4233 18.3354 11.712 18.0519 11.7869C17.8915 11.8296 17.7257 11.8724 17.5653 11.9259C17.5118 11.9366 17.4583 11.9473 17.4048 11.9473ZM23.1967 11.9366C23.1432 11.9366 23.0897 11.9312 23.0363 11.9098C22.8758 11.8617 22.7154 11.8136 22.5496 11.7762C22.2608 11.7067 22.0897 11.4126 22.1592 11.1292C22.2287 10.8405 22.5229 10.6694 22.8063 10.7389C22.9881 10.7871 23.17 10.8352 23.3518 10.8886C23.6352 10.9742 23.7903 11.2736 23.7048 11.557C23.6352 11.7869 23.4267 11.9366 23.1967 11.9366ZM20.0307 11.5035C19.7419 11.5035 19.5066 11.2736 19.4959 10.9849C19.4852 10.6908 19.7205 10.4449 20.0146 10.4342C20.2018 10.4288 20.3943 10.4288 20.5762 10.4342C20.8703 10.4395 21.1056 10.6855 21.0949 10.9849C21.0896 11.2736 20.8489 11.5035 20.5601 11.5035H20.5441C20.3783 11.4982 20.2072 11.4982 20.036 11.5035H20.0307Z" fill="#005BFF"/>
  <path d="M22.5226 40.4928H18.1159C16.8324 40.4928 15.966 39.632 15.966 38.3435V35.4564L15.9392 35.4457C14.9338 35.1409 13.9498 34.7399 13.0085 34.2427L12.9497 34.2106L10.8266 36.2209C10.5431 36.4989 10.0885 36.8678 9.39329 36.8678C8.81036 36.8678 8.31834 36.5631 8.08303 36.4134C8.07234 36.408 8.06699 36.4027 8.05629 36.3973L7.92794 36.3332L4.68705 33.0932L4.65496 33.0557C3.84207 32.0827 3.86881 30.9011 4.71914 30.0456L6.75673 28.0086L6.72464 27.9498C6.35028 27.2066 5.87965 26.2068 5.53203 25.0413L5.52134 25.0145H2.63342C1.15737 25.0145 0.483521 23.9024 0.483521 22.8652V18.5131C0.483521 17.4545 1.13063 16.3477 2.56924 16.2675H5.51599L5.52669 16.2355C5.83687 15.2517 6.25402 14.2626 6.72999 13.359L6.75138 13.3216L4.71379 11.2846C4.39291 10.9638 3.43562 9.79286 4.63357 8.29048L4.67101 8.24236L7.85307 5.11462C7.92794 5.03977 8.59644 4.41422 9.48421 4.41422C9.99227 4.41422 10.5057 4.64947 10.9282 5.07185L13.0139 7.15701L13.0299 7.14631C14.014 6.56888 15.0943 6.19463 15.9232 5.93264L15.9606 5.92195V2.98669C15.9606 1.51104 17.073 0.837372 18.1105 0.837372H22.4692C22.7366 0.837372 23.25 0.885492 23.7366 1.19559C24.3356 1.58054 24.6618 2.21144 24.6618 2.98134V5.86849L24.6993 5.87918C25.678 6.18928 26.6727 6.60096 27.5712 7.08215L27.6086 7.10354L29.6141 5.09858C30.1382 4.49442 30.7318 4.36076 31.1329 4.36076C31.9512 4.36076 32.5555 4.90076 32.7213 5.0665L35.8552 8.19959C36.1975 8.54177 36.5611 9.13523 36.5611 9.78751C36.5611 10.3115 36.3258 10.8087 35.8552 11.2792L33.8176 13.3162L33.8283 13.3323C34.3631 14.2412 34.7214 15.225 35.0744 16.1767L35.1011 16.2622H37.9891C39.2726 16.2622 40.139 17.123 40.139 18.4115V22.8171C40.139 24.1003 39.2779 24.9664 37.9891 24.9664H35.1011L35.0904 24.9931C34.7856 25.9983 34.3845 26.9874 33.8871 27.923L33.8658 27.9605L35.9033 29.9975C36.4221 30.5161 36.6628 31.1524 36.5718 31.794C36.5077 32.2591 36.2777 32.7029 35.9033 33.0771L32.8389 36.1567C32.4592 36.6379 31.7426 36.916 31.1918 36.916C30.6944 36.916 30.2184 36.7021 29.7692 36.2797C29.4911 36.0712 29.1435 35.7183 28.4589 35.0286C28.229 34.7987 27.9723 34.5367 27.6942 34.2534L27.6674 34.2266L27.63 34.248C26.6887 34.7453 25.7047 35.1516 24.6993 35.451L24.6725 35.4617V38.3488C24.6725 39.632 23.8062 40.4928 22.5226 40.4928ZM18.1052 38.3542H22.5226V33.8845L24.0682 33.4033C24.9453 33.1413 25.801 32.7884 26.6192 32.3553L28.0525 31.5908L29.2023 32.7403C29.4911 33.029 29.7478 33.291 29.9778 33.5262C30.4323 33.9914 30.9083 34.4672 31.0474 34.5688L31.1383 34.6276L31.2078 34.7025L31.2345 34.7292L34.3952 31.5694C34.4059 31.5587 34.4113 31.548 34.4219 31.5427C34.4166 31.532 34.4059 31.5266 34.3952 31.5159L31.2399 28.3615L32.0046 26.9286C32.4378 26.1159 32.7855 25.2551 33.0529 24.3836L33.0582 24.3729L33.5395 22.8385H38.0105V18.4276V18.4222H33.5395L33.0689 16.9145C32.7373 16.0109 32.4218 15.1608 31.9833 14.4176L31.9619 14.3802L31.1971 12.9473L34.3524 9.79286L34.3792 9.76613C34.3685 9.75543 34.3631 9.74474 34.3524 9.73405L31.2185 6.60096C31.2078 6.59562 31.2024 6.58492 31.1864 6.57423L28.0097 9.7394L26.5764 8.97484C25.801 8.56315 24.9399 8.20493 24.095 7.93226L22.5333 7.54196V2.98669V2.98134C22.5119 2.976 22.4959 2.976 22.4745 2.976H18.1159H18.1105V7.48849L16.5757 7.96968C15.8483 8.19959 14.9071 8.52573 14.1049 8.99622L14.0674 9.01761L12.6342 9.78217L9.44142 6.59027C9.40934 6.60631 9.3826 6.6277 9.3612 6.64374L6.2861 9.66989C6.25936 9.70197 6.24332 9.7287 6.22727 9.75009L6.24332 9.76613L9.39864 12.9206L8.63388 14.3535C8.21673 15.1394 7.85307 16.0056 7.58567 16.8664L7.1097 18.3955H2.6869C2.6762 18.3955 2.66551 18.4008 2.65481 18.4008C2.64946 18.4276 2.64411 18.4596 2.64411 18.5024V22.8652H7.1097L7.59102 24.4104C7.82633 25.191 8.15256 25.9822 8.64457 26.9714L9.40399 28.3935L6.24867 31.548L6.23262 31.5641C6.24332 31.5854 6.25936 31.6122 6.2861 31.6443L9.2382 34.5956C9.27029 34.6116 9.31307 34.6437 9.3612 34.6651L12.6128 31.5908L14.0247 32.3447C14.8376 32.7777 15.6986 33.1253 16.5703 33.3926L16.581 33.3979L18.1159 33.8791V38.3488C18.1052 38.3488 18.1052 38.3542 18.1052 38.3542ZM9.36655 6.63304L9.35586 6.64374C9.36121 6.63839 9.36655 6.63839 9.36655 6.63304Z" fill="#0CB9DE"/>
  <path d="M28.0364 25.9499L27.4481 25.4045L27.6406 25.041C29.0792 22.3249 28.5551 18.9138 26.3678 16.7485C24.5709 14.9681 21.9771 14.3051 19.5758 14.9574L23.7901 19.1277C24.758 20.0847 24.7634 21.6513 23.8061 22.619L22.3087 24.1321C21.8434 24.6026 21.2284 24.8592 20.5652 24.8645H20.5545C19.9021 24.8645 19.2817 24.6132 18.8164 24.1481L14.6022 19.9778C13.9765 22.3837 14.6664 24.9715 16.4633 26.7519C18.6506 28.9172 22.068 29.4038 24.7687 27.9388L25.1324 27.741L34.8711 38.0492C35.1706 38.37 35.5771 38.5464 36.0156 38.5517C36.4541 38.5571 36.8659 38.386 37.1708 38.0759L37.9088 37.3327C38.219 37.0226 38.3794 36.6109 38.3741 36.1725C38.3634 35.7341 38.1815 35.3278 37.8606 35.0337L28.2342 26.1263L28.0364 25.9499Z" fill="#E6E6E6"/>
  <path d="M28.769 25.1697C29.4268 23.7475 29.6674 22.1328 29.4375 20.577C29.6674 22.1382 29.4268 23.7528 28.769 25.1697ZM39.342 35.4885C39.3633 35.5741 39.3847 35.6596 39.4008 35.7505C39.3847 35.6596 39.3687 35.5741 39.342 35.4885Z" fill="#005BFF"/>
  <path d="M37.8232 34.8099C37.6948 34.8099 37.5611 34.7618 37.4595 34.6656L28.7102 26.5709C28.4909 26.3677 28.4802 26.0309 28.6835 25.817C28.8867 25.5978 29.2236 25.5871 29.4375 25.7903L38.1869 33.885C38.4061 34.0882 38.4168 34.425 38.2136 34.6388C38.1066 34.7511 37.9622 34.8099 37.8232 34.8099Z" fill="#06F3FF"/>
  <path d="M39.3572 35.7173C39.3411 35.6318 39.3197 35.5409 39.2984 35.4553C39.2823 35.3965 39.2663 35.3377 39.2449 35.2789C39.1005 34.8779 38.8652 34.5143 38.5443 34.2149L28.9179 25.3076L28.7307 25.1365C29.3885 23.7143 29.6292 22.0996 29.3992 20.5438C29.1425 18.7901 28.3403 17.2075 27.0782 15.9564C24.7732 13.6788 21.3451 12.9891 18.3395 14.2028L17.5855 14.5075L22.9923 19.8541C23.2597 20.1161 23.4041 20.4689 23.4094 20.8432C23.4094 21.2175 23.265 21.5703 23.003 21.8323L21.5055 23.3454C21.2435 23.6127 20.8905 23.7571 20.5162 23.7624H20.5108C20.1418 23.7624 19.7888 23.6181 19.5268 23.3561L14.1146 18.0095L13.8205 18.7687C12.6386 21.7842 13.3659 25.206 15.6709 27.4836C16.933 28.7347 18.5267 29.5153 20.2809 29.7559C21.8425 29.9644 23.4522 29.7131 24.8694 29.0395L34.052 38.7595C34.5547 39.2888 35.2339 39.5882 35.9612 39.5936H35.9933C36.7099 39.5936 37.3838 39.3156 37.8918 38.8023L38.6299 38.0591C39.1433 37.5405 39.416 36.8508 39.4 36.1237C39.3946 35.9847 39.3839 35.8456 39.3572 35.7173ZM35.9719 38.5243C35.5334 38.5189 35.1269 38.3425 34.8274 38.0217L25.0887 27.7135L24.725 27.9113C22.0243 29.3763 18.6069 28.8898 16.4196 26.7244C14.6227 24.944 13.9328 22.3616 14.5585 19.9503L18.7727 24.1206C19.238 24.5804 19.853 24.8371 20.5108 24.8371H20.5215C21.1793 24.8317 21.7997 24.5751 22.265 24.1046L23.7624 22.5915C24.7197 21.6238 24.7143 20.0573 23.7464 19.1002L19.5321 14.9299C21.9334 14.2776 24.5272 14.9406 26.3241 16.721C28.5114 18.8864 29.0355 22.2921 27.5969 25.0135L27.4044 25.3771L27.9927 25.9224L28.1852 26.1042L37.8116 35.0116C38.1325 35.311 38.3143 35.712 38.325 36.1504C38.3357 36.5888 38.1699 37.0005 37.8597 37.3106L37.1271 38.0484C36.8222 38.3585 36.4104 38.5243 35.9719 38.5243Z" fill="#E6F8FC"/>
</svg>