<svg xmlns="http://www.w3.org/2000/svg" width="41" height="41" viewBox="0 0 41 41" fill="none">
  <path d="M16.2187 31.9416C16.1877 31.9416 15.8779 34.42 15.8469 34.482C15.785 35.0087 15.692 35.3185 15.4132 35.5663C15.3203 35.6593 15.2273 35.6903 15.1344 35.7522C14.9175 35.9071 14.7316 36.0001 14.4838 36.155C14.2979 36.2479 14.081 36.6197 14.2979 36.7126H26.5663C26.7832 36.6197 26.5663 36.2789 26.3804 36.186C26.1326 36.031 25.9467 35.9071 25.7298 35.7212C25.6369 35.6593 25.5439 35.5663 25.451 35.4734C25.2031 35.2255 25.0792 35.0087 25.0173 34.482C25.0173 34.42 24.6455 31.7247 24.6455 31.9416" fill="#D2D5D6"/>
  <path d="M39.0206 28.1305V5.63846C39.0206 5.0808 38.5869 4.61609 38.0292 4.61609H2.83501C2.27736 4.61609 1.84363 5.0808 1.84363 5.63846V28.1615" fill="#158BA0"/>
  <path d="M3.85742 6.62968H37.0069V26.1166H3.85742V6.62968Z" fill="#0CB9DE"/>
  <path d="M15.1653 6.16546L37.4715 26.6128V6.16546H15.1653Z" fill="#FAFBFA"/>
  <path d="M1.84363 28.1001V30.9194C1.84363 31.477 2.27736 31.9417 2.83501 31.9417H37.9982C38.5559 31.9417 38.9896 31.477 38.9896 30.9194V28.1001" fill="#0CB9DE"/>
  <path d="M19.4719 30.0526C19.4719 30.2991 19.5698 30.5355 19.7441 30.7098C19.9184 30.8841 20.1548 30.982 20.4013 30.982C20.6478 30.982 20.8842 30.8841 21.0585 30.7098C21.2328 30.5355 21.3307 30.2991 21.3307 30.0526C21.3307 29.8061 21.2328 29.5697 21.0585 29.3954C20.8842 29.2211 20.6478 29.1232 20.4013 29.1232C20.1548 29.1232 19.9184 29.2211 19.7441 29.3954C19.5698 29.5697 19.4719 29.8061 19.4719 30.0526Z" fill="#B4E8EC"/>
  <path d="M24.7386 32.8714C24.7076 31.942 24.6766 31.942 24.6766 31.942H16.2498C16.2498 31.942 16.2188 31.942 16.1879 32.8714H24.7386Z" fill="#63CCD3"/>
  <path d="M14.2979 37.0223C14.2669 37.0223 14.205 37.0223 14.174 36.9914C14.0191 36.9294 13.8952 36.7745 13.8952 36.5886C13.8952 36.2788 14.143 35.969 14.3289 35.8761L14.4528 35.8141C14.6387 35.7212 14.7936 35.6282 14.9175 35.5043C14.9795 35.4733 15.0105 35.4423 15.0724 35.4113C15.1034 35.3804 15.1344 35.3804 15.1654 35.3494C15.3513 35.1945 15.4132 34.9466 15.4752 34.4819C15.785 31.8795 15.785 31.8795 16.0948 31.8795C16.2807 31.8795 16.4046 32.0035 16.4046 32.1893V32.2823C16.3736 32.4991 16.1258 34.389 16.0948 34.5439C16.0328 35.1015 15.9089 35.5043 15.5681 35.8141C15.5062 35.8761 15.4132 35.938 15.3513 35.969C15.3203 36 15.2893 36 15.2583 36.031C15.0724 36.1859 14.8865 36.2788 14.7007 36.3717L14.5767 36.4337H26.0087C25.7918 36.3098 25.6059 36.1549 25.42 36.031C25.3581 35.969 25.2961 35.907 25.2032 35.8451L25.1102 35.7831C24.7694 35.4733 24.6455 35.1325 24.5835 34.6058C24.5526 34.4509 24.3357 32.716 24.2737 32.3442C24.2737 32.3133 24.2427 32.2823 24.2427 32.2203C24.2427 32.0654 24.3667 31.9105 24.5216 31.8795C24.8624 31.8486 24.8624 31.8486 25.1722 34.4819C25.2341 34.9776 25.3271 35.1325 25.482 35.2874L25.5749 35.3804C25.6369 35.4423 25.6988 35.4733 25.7298 35.5353C25.9467 35.6902 26.1016 35.8141 26.3494 35.969C26.5353 36.0619 26.8142 36.3717 26.7832 36.6506C26.7832 36.8365 26.6593 36.9604 26.5043 37.0533C26.4734 37.0843 26.4114 37.0843 26.3804 37.0843L14.2979 37.0223ZM39.0206 28.4407C38.8347 28.4407 38.7108 28.3167 38.7108 28.1309V5.63879C38.7108 5.23603 38.401 4.92623 38.0292 4.92623H2.83501C2.46324 4.92623 2.15343 5.23603 2.15343 5.63879V28.1618C2.15343 28.3477 2.02951 28.4716 1.84362 28.4716C1.65774 28.4716 1.53381 28.3477 1.53381 28.1618V5.63879C1.53381 4.89525 2.12245 4.30661 2.83501 4.30661H37.9982C38.7108 4.30661 39.2994 4.89525 39.2994 5.63879V28.1618C39.3304 28.3167 39.2065 28.4407 39.0206 28.4407Z" fill="#0CB9DE"/>
  <path d="M37.0068 26.4267H3.85737C3.67149 26.4267 3.54757 26.3028 3.54757 26.1169V6.63001C3.54757 6.44412 3.67149 6.3202 3.85737 6.3202H37.0068C37.1927 6.3202 37.3166 6.44412 37.3166 6.63001V26.1169C37.3166 26.3028 37.1617 26.4267 37.0068 26.4267ZM4.16718 25.8071H36.697V6.93981H4.16718V25.8071ZM38.0292 32.2511H2.83501C2.12245 32.2511 1.53381 31.6625 1.53381 30.919V28.0997C1.53381 27.9138 1.65774 27.7899 1.84362 27.7899H39.0206C39.2065 27.7899 39.3304 27.9138 39.3304 28.0997V30.919C39.3304 31.6625 38.7418 32.2511 38.0292 32.2511ZM2.15343 28.4095V30.919C2.15343 31.3217 2.46324 31.6315 2.83501 31.6315H37.9982C38.37 31.6315 38.6798 31.3217 38.6798 30.919V28.4095H2.15343Z" fill="#62CCD3"/>
</svg>