<svg xmlns="http://www.w3.org/2000/svg" width="31" height="23" viewBox="0 0 31 23" fill="none">
  <path d="M14.8998 1.42961C14.8998 2.57331 14.8251 2.85923 14.5267 2.85923C14.2779 2.85923 14.1536 2.59013 14.1038 1.76599L14.0292 0.655931L13.0343 1.1605C11.7657 1.78281 10.8952 2.80878 10.6962 3.91884C10.5718 4.65888 10.4475 4.79343 9.92512 4.87753C9.52715 4.9448 9.27841 5.11299 9.22867 5.33164C9.15405 5.61757 9.37791 5.78576 10.1987 6.05486C13.5566 7.21538 19.8744 7.26584 23.0582 6.15578C24.3267 5.70166 24.3516 4.89434 23.0831 4.87753C22.7846 4.87753 22.6353 4.64206 22.5358 3.93566C22.3617 2.85923 21.3419 1.6819 20.0485 1.04277L19.2526 0.67275L19.1282 1.71553C19.0287 2.53967 18.9044 2.79196 18.581 2.8256C18.183 2.87605 18.1333 2.72468 18.1333 1.44643V-1.43051e-05H16.5165H14.8998V1.42961ZM17.1384 4.37295C17.1384 4.55796 16.9891 4.70933 16.7901 4.70933C16.5663 4.70933 16.4419 4.55796 16.4668 4.37295C16.4917 4.18794 16.6409 4.03657 16.815 4.03657C16.9891 4.03657 17.1384 4.18794 17.1384 4.37295ZM16.6409 4.77661C17.5363 4.77661 18.8546 4.70933 19.5759 4.62524C21.2922 4.44023 21.3171 4.77661 19.5759 5.12981C17.3125 5.58393 12.7607 5.31482 12.4622 4.70933C12.3627 4.52432 12.6114 4.50751 13.681 4.62524C14.4272 4.70933 15.7455 4.77661 16.6409 4.77661Z" fill="#F7C600"/>
  <path d="M10.2245 7.43405C9.82652 7.77044 10.1499 9.11596 10.6473 9.20006C10.8712 9.2337 11.2692 9.671 11.5179 10.1419C12.0154 11.0838 13.856 12.463 14.6022 12.4293C14.8509 12.4293 14.9007 12.3789 14.7265 12.3284C14.5524 12.2948 14.4032 12.1602 14.4032 12.0593C14.4032 11.9416 14.0301 11.6556 13.5824 11.4034C13.0103 11.1174 12.5377 10.6129 12.1646 9.92328C11.8661 9.36825 11.3935 8.83004 11.1448 8.72913C10.5727 8.5273 10.523 7.90499 11.0702 7.90499C11.5676 7.90499 11.4184 7.33314 10.8961 7.26586C10.6722 7.24904 10.3737 7.31632 10.2245 7.43405Z" fill="#F7C600"/>
  <path d="M22.188 7.35002C21.7403 7.46775 21.7901 7.90505 22.2378 7.90505C22.8347 7.90505 22.6606 8.51053 21.989 8.81328C21.6408 8.96465 21.3672 9.1833 21.3672 9.30103C21.3672 9.82242 20.0987 11.2857 19.4022 11.5716C18.855 11.7903 18.7306 11.9416 18.9048 12.1098C19.054 12.2948 19.1286 12.3117 19.1286 12.1435C19.1286 12.0257 19.2281 11.9584 19.3525 12.0089C19.8002 12.2107 21.0936 11.2352 21.5911 10.3606C21.8647 9.85606 22.3621 9.25057 22.7352 9.01511C23.4068 8.56099 23.5312 8.09006 23.1083 7.55184C22.8347 7.23228 22.7104 7.19864 22.188 7.35002Z" fill="#F7C600"/>
  <path d="M20.745 13.4716C20.5212 13.9425 18.7552 14.4807 17.1633 14.5817C15.3475 14.6994 13.7556 14.3967 12.8353 13.7743L12.0891 13.2698L11.0196 13.623L9.92517 13.9594V14.9853C9.92517 15.5404 10.0495 16.1627 10.1988 16.3477C10.3978 16.5831 10.3978 16.7345 10.1988 16.8691C10.0495 16.97 9.92517 17.7268 9.92517 18.7023V20.3506L16.5166 20.317L23.108 20.3002V17.1382V13.993L21.9887 13.5725C20.9191 13.1689 20.8943 13.1689 20.745 13.4716Z" fill="#F7C600"/>
  <path d="M5.69686 15.6416C2.93593 16.7685 2.41359 17.3739 1.34405 20.5696C1.14506 21.2087 0.970947 21.9319 0.970947 22.2178V22.7056H4.20447H7.43799V18.8372C7.43799 16.7012 7.41311 14.9688 7.38824 14.9688C7.33849 14.9856 6.5923 15.2716 5.69686 15.6416ZM3.45827 20.6032C3.45827 20.8723 3.30903 21.0237 3.08517 21.0237C2.86131 21.0237 2.71207 20.8723 2.71207 20.6032C2.71207 20.3341 2.86131 20.1827 3.08517 20.1827C3.30903 20.1827 3.45827 20.3341 3.45827 20.6032Z" fill="#F7C600"/>
  <path d="M24.1515 18.5454V22.4306H27.5342H30.9419L30.7677 21.9092C30.6931 21.6233 30.6725 21.2521 30.6185 21.1019C30.6185 20.8664 30.4345 20.5057 30.4345 20.5057L30.3869 20.3486L30.2917 20.0736L30.121 19.605C30.121 19.605 29.3002 17.6035 28.8525 17.0148C28.554 16.628 27.8078 16.1402 26.6885 15.6357C23.9027 14.391 24.1515 14.0883 24.1515 18.5454Z" fill="#F7C600"/>
</svg>