<svg xmlns="http://www.w3.org/2000/svg" width="22" height="23" viewBox="0 0 22 23" fill="none">
  <path d="M20.3242 6.87256C20.3242 6.87256 20.2598 6.60758 20.1309 6.07764C20.002 5.54769 19.8086 5.13949 19.5508 4.85303C19.1497 4.48063 18.7559 4.25863 18.3691 4.18701C17.9824 4.1154 17.7031 4.05094 17.5312 3.99365C16.0417 3.87907 14.459 3.81462 12.7832 3.80029C11.1074 3.78597 10.2695 3.77881 10.2695 3.77881C10.2695 3.77881 9.43164 3.78597 7.75586 3.80029C6.08008 3.81462 4.4974 3.87907 3.00781 3.99365C2.83594 3.99365 2.55664 4.02946 2.16992 4.10107C1.7832 4.17269 1.38932 4.42334 0.988281 4.85303C0.673177 5.16813 0.465495 5.5835 0.365234 6.09912C0.264974 6.61475 0.214844 6.87256 0.214844 6.87256C0.214844 6.87256 0.179036 7.24495 0.107422 7.98975C0.0358073 8.73454 0 9.50798 0 10.3101V11.8569C0 12.7736 0.0358073 13.5757 0.107422 14.2632C0.179036 14.9507 0.214844 15.2944 0.214844 15.2944C0.214844 15.2944 0.279297 15.5666 0.408203 16.1108C0.537109 16.6551 0.730469 17.0562 0.988281 17.314C1.38932 17.715 1.81185 17.9513 2.25586 18.0229C2.69987 18.0946 3.03646 18.1447 3.26562 18.1733C4.06771 18.2306 5.43555 18.2879 7.36914 18.3452C9.30273 18.4025 10.2695 18.4312 10.2695 18.4312C10.2695 18.4312 11.1074 18.4168 12.7832 18.3882C14.459 18.3595 16.0417 18.2879 17.5312 18.1733C17.7031 18.1733 17.9824 18.1375 18.3691 18.0659C18.7559 17.9943 19.1497 17.7437 19.5508 17.314C19.8659 16.9989 20.0736 16.5835 20.1738 16.0679C20.2741 15.5522 20.3242 15.2944 20.3242 15.2944C20.3242 15.2944 20.36 14.9507 20.4316 14.2632C20.5033 13.5757 20.5391 12.7736 20.5391 11.8569V10.3101C20.5391 9.42204 20.5033 8.62712 20.4316 7.92529C20.36 7.22347 20.3242 6.87256 20.3242 6.87256ZM7.21875 15.3804V6.87256L15.2539 11.0835L7.21875 15.3804Z" fill="#F5F5F5"/>
</svg>