<svg xmlns="http://www.w3.org/2000/svg" width="36" height="36" viewBox="0 0 36 36" fill="none">
  <g clip-path="url(#clip0_9_10852)">
    <path d="M18.0226 28.2555C15.8273 27.9622 14.4917 26.2191 12.2657 26.1084C11.795 26.0877 11.3232 26.1328 10.8763 26.2412C10.8763 28.0341 10.8533 29.8399 10.8072 31.6587C10.8072 32.8539 10.7612 34.0381 10.7305 35.2224C10.7305 35.8255 11.3983 36.0967 12.2657 35.82C14.1002 35.322 17.4469 33.6951 19.458 34.5085C20.4405 34.586 24.9616 37.1868 25.0767 35.3386C25.1228 35.2556 25.1612 26.5511 25.2993 26.4847C22.2367 25.5716 20.6247 28.023 18.0226 28.2555Z" fill="#0CB9DE"/>
    <path d="M26.7659 24.4976C28.0938 23.9442 27.9633 22.0739 28.9765 21.3047C29.9898 20.5355 32.8145 20.2477 33.5437 19.3291C34.2729 18.4106 32.9834 16.8224 33.3825 15.7599C33.7817 14.6975 35.8618 13.9172 36 12.8603C35.7083 11.7535 33.7433 10.8017 33.4055 9.84442C33.0678 8.8871 34.4418 7.22699 33.6742 6.28073C32.9066 5.33447 30.3275 5.39533 29.2682 4.65935C28.7474 4.18582 28.3755 3.6364 28.1782 3.04906C28.008 2.44627 27.542 1.90793 26.8657 1.53282C26.4204 1.38905 25.9242 1.34845 25.4456 1.41662C24.2789 1.53836 22.9356 1.97 21.9224 1.80399C21.577 1.74311 19.5352 0.27115 18.0154 0C16.4802 0.27115 14.4537 1.74311 14.1083 1.80399C13.0951 1.97 11.7518 1.53836 10.5851 1.41662C10.1065 1.34845 9.61028 1.38905 9.16503 1.53282C8.48872 1.90793 8.02269 2.44627 7.85245 3.04906C7.65517 3.6364 7.28327 4.18582 6.76247 4.65935C5.7032 5.39533 3.12409 5.31787 2.3565 6.28073C1.58891 7.24359 2.95522 8.81516 2.59446 9.84442C2.23369 10.8737 0.291684 11.7701 0 12.8603C0.138166 13.9172 2.24904 14.7749 2.61749 15.7599C2.98593 16.7449 1.72708 18.3939 2.45629 19.3291C3.1855 20.2643 5.97953 20.5134 7.02345 21.3047C8.06738 22.096 7.90618 23.9332 9.23412 24.4976C10.562 25.062 12.7574 24.0826 14.1851 24.3537C14.8803 24.5363 15.5079 24.8317 16.0196 25.217C16.5782 25.6505 17.2695 25.9839 18.0384 26.1909C18.8073 25.9839 19.4985 25.6505 20.0571 25.217C20.5551 24.8473 21.1607 24.5619 21.8303 24.3814C23.258 24.0826 25.4533 25.062 26.7659 24.4976ZM12.6729 4.189L13.0874 4.05618C13.2247 4.00809 13.3657 3.96561 13.5096 3.92892C13.7706 3.85144 14.0392 3.78504 14.2772 3.72417C14.5151 3.6633 14.7838 3.60796 15.0448 3.56369L15.2444 3.52495L15.7433 3.44749C15.8968 3.41982 16.058 3.40321 16.2115 3.38661L16.5416 3.34787L16.9714 3.30915H17.2938C17.7324 3.27225 18.1755 3.27225 18.6141 3.30915H18.9365L19.3663 3.34787L19.6964 3.38661C19.8499 3.38661 20.0111 3.41982 20.1646 3.44749L20.6635 3.52495L20.8631 3.56369C21.1241 3.60796 21.3774 3.6633 21.6307 3.72417C21.884 3.78504 22.168 3.85144 22.3983 3.92892C22.5422 3.96561 22.6832 4.00809 22.8205 4.05618L23.235 4.189C23.4729 4.26647 23.7109 4.35501 23.9412 4.44354C26.0085 5.28793 27.7311 6.50987 28.9355 7.98645C30.14 9.46303 30.7839 11.1422 30.8026 12.8551C30.8213 14.568 30.214 16.2543 29.0419 17.7444C27.8698 19.2344 26.1741 20.4757 24.1254 21.3434C23.3926 21.6539 22.6218 21.915 21.8226 22.1237L21.3083 22.2454C21.1927 22.2744 21.0748 22.2984 20.9552 22.3173C20.8379 22.3483 20.7172 22.3724 20.5945 22.3893C20.4581 22.4185 20.3198 22.4425 20.18 22.4612C19.9801 22.4969 19.7777 22.5246 19.5736 22.5442H19.4584C19.2205 22.5719 18.9825 22.5995 18.7446 22.6106C18.7247 22.6157 18.703 22.6157 18.6832 22.6106C18.4452 22.6106 18.2149 22.6438 17.977 22.6493H17.9386C17.7006 22.6493 17.4704 22.6493 17.2324 22.6106C17.2125 22.6157 17.1909 22.6157 17.171 22.6106C16.933 22.6106 16.6951 22.5719 16.4571 22.5442H16.342C16.1379 22.5246 15.9355 22.4969 15.7356 22.4612C15.5958 22.4425 15.4574 22.4185 15.3211 22.3893C15.1983 22.3724 15.0777 22.3483 14.9603 22.3173C14.8408 22.2984 14.7229 22.2744 14.6072 22.2454L14.093 22.1237C13.2938 21.915 12.523 21.6539 11.7902 21.3434C9.74729 20.4741 8.05724 19.233 6.88947 17.7444C5.7217 16.2558 5.11723 14.572 5.13667 12.8619C5.15611 11.1518 5.79876 9.47541 7.00022 8.0008C8.20167 6.52619 9.9197 5.30517 11.9821 4.46014C12.1817 4.35501 12.4503 4.26647 12.6883 4.189H12.6729Z" fill="#0CB9DE"/>
    <path d="M18.6836 7.94587L20.3416 10.3752C20.3964 10.454 20.4766 10.5222 20.5754 10.5742C20.6742 10.6262 20.7888 10.6604 20.9097 10.674L24.6325 11.0613C24.7694 11.0792 24.8969 11.1235 25.0016 11.1896C25.1062 11.2557 25.184 11.341 25.2266 11.4365C25.2691 11.532 25.2749 11.634 25.2433 11.7317C25.2116 11.8294 25.1438 11.919 25.047 11.991L22.3604 13.8669C22.2727 13.9285 22.2068 14.0044 22.168 14.0882C22.1293 14.1719 22.1189 14.2611 22.1378 14.3483L22.7749 17.0156C22.7885 17.1135 22.7656 17.2122 22.7087 17.3016C22.6518 17.3909 22.5628 17.4678 22.451 17.5242C22.3392 17.5805 22.2086 17.6144 22.0726 17.6223C21.9366 17.6301 21.8001 17.6117 21.6772 17.5689L18.3229 16.346C18.2138 16.3053 18.0927 16.284 17.9698 16.284C17.8469 16.284 17.7258 16.3053 17.6167 16.346L14.293 17.6077C14.1705 17.6491 14.0349 17.6664 13.9001 17.6579C13.7652 17.6494 13.6359 17.6153 13.5252 17.5591C13.4146 17.5029 13.3265 17.4266 13.2699 17.338C13.2133 17.2493 13.1902 17.1515 13.203 17.0543L13.8325 14.3871C13.8523 14.3003 13.8431 14.2113 13.8058 14.1276C13.7684 14.0439 13.7039 13.9678 13.6175 13.9057L10.9233 12.0131C10.8264 11.9407 10.7587 11.8507 10.7275 11.7526C10.6962 11.6546 10.7027 11.5523 10.7461 11.4567C10.7895 11.3611 10.8683 11.2758 10.9739 11.21C11.0795 11.1443 11.208 11.1005 11.3455 11.0835L15.0606 10.6961C15.1815 10.6825 15.2961 10.6483 15.3949 10.5964C15.4937 10.5444 15.5738 10.4761 15.6286 10.3973L17.2943 7.96801C17.3533 7.87191 17.4491 7.78992 17.5704 7.73162C17.6917 7.67332 17.8335 7.64113 17.9792 7.63881C18.125 7.63649 18.2686 7.66414 18.3934 7.71852C18.5181 7.7729 18.6188 7.85175 18.6836 7.94587Z" fill="#0CB9DE"/>
  </g>
  <defs>
    <clipPath id="clip0_9_10852">
      <rect width="36" height="36" fill="white"/>
    </clipPath>
  </defs>
</svg>