<svg xmlns="http://www.w3.org/2000/svg" width="29" height="26" viewBox="0 0 29 26" fill="none">
  <path d="M24.3799 9.73057H11.8632C11.6012 9.73057 11.3937 9.95058 11.3937 10.2157C11.3937 10.4809 11.6012 10.7009 11.8632 10.7009H24.3799C24.6419 10.7009 24.8494 10.4809 24.8494 10.2157C24.8494 9.95058 24.6419 9.73057 24.3799 9.73057Z" fill="#121212" stroke="#121212" stroke-width="0.15"/>
  <path d="M24.3799 12.866H11.8632C11.6012 12.866 11.3937 13.086 11.3937 13.3511C11.3937 13.6163 11.6012 13.8363 11.8632 13.8363H24.3799C24.6419 13.8363 24.8494 13.6163 24.8494 13.3511C24.8494 13.086 24.6419 12.866 24.3799 12.866Z" fill="#121212" stroke="#121212" stroke-width="0.15"/>
  <path d="M24.3799 16.0014H11.8632C11.6012 16.0014 11.3937 16.2214 11.3937 16.4866C11.3937 16.7517 11.6012 16.9717 11.8632 16.9717H24.3799C24.6419 16.9717 24.8494 16.7517 24.8494 16.4866C24.8494 16.2214 24.6419 16.0014 24.3799 16.0014Z" fill="#121212" stroke="#121212" stroke-width="0.15"/>
  <path d="M25.6155 25.736C25.9268 25.6236 26.1262 25.3297 26.1262 24.9912V20.8328C27.1962 20.5944 28.0013 19.5999 28.0013 18.427V8.604C28.0013 7.24995 26.9413 6.14344 25.6321 6.14344H10.6096C9.30043 6.14344 8.24043 7.24995 8.24043 8.60406V18.427C8.24043 19.781 9.30038 20.8876 10.6096 20.8876H21.139C21.2274 20.8876 21.3102 20.9288 21.3663 21.0026L24.7666 25.479C24.9143 25.6734 25.1316 25.7812 25.3606 25.7812C25.4455 25.7812 25.5315 25.7663 25.6155 25.736ZM25.6155 25.736L25.59 25.6654M25.6155 25.736C25.6155 25.736 25.6155 25.736 25.6155 25.736L25.59 25.6654M25.59 25.6654C25.5141 25.6929 25.4367 25.7062 25.3606 25.7062C25.1558 25.7062 24.9603 25.61 24.8263 25.4336L21.426 20.9572C21.3562 20.8653 21.2516 20.8126 21.139 20.8126H10.6096C9.34454 20.8126 8.31543 19.7424 8.31543 18.427V8.60406C8.31543 7.28858 9.34459 6.21844 10.6096 6.21844H25.6321C26.8971 6.21844 27.9263 7.28858 27.9263 8.604V18.427C27.9263 19.5874 27.1149 20.5653 26.0512 20.7719V24.9912C26.0512 25.2996 25.8702 25.5642 25.59 25.6654ZM27.0624 18.427C27.0624 19.2406 26.4262 19.9064 25.6507 19.9166C25.3911 19.9201 25.1873 20.139 25.1873 20.4018V24.4614L22.1048 20.4034C22.1048 20.4034 22.1048 20.4033 22.1048 20.4033C21.8707 20.0951 21.5186 19.9172 21.139 19.9172H10.6096C9.82373 19.9172 9.1793 19.2514 9.1793 18.4269V8.604C9.1793 7.77954 9.82368 7.11371 10.6096 7.11371H25.6321C26.418 7.11371 27.0624 7.77954 27.0624 8.604V18.427Z" fill="#121212" stroke="#121212" stroke-width="0.15"/>
  <path d="M6.80957 13.9609L6.80955 13.9609L3.84949 17.8577C3.70921 18.0424 3.50256 18.1449 3.28494 18.1449C3.2042 18.1449 3.12248 18.1308 3.04263 18.1019C2.74677 17.9951 2.55733 17.7158 2.55733 17.3943V13.8244C1.62222 13.5921 0.925 12.7134 0.925 11.68V3.12886C0.925 1.91585 1.87467 0.924023 3.04817 0.924023H16.1257C17.2992 0.924023 18.2489 1.91585 18.2489 3.12886V4.7111C18.2489 4.97625 18.0415 5.19626 17.7795 5.19626C17.5175 5.19626 17.31 4.97625 17.31 4.7111V3.12886C17.31 2.44544 16.7759 1.89435 16.1257 1.89435H3.04817C2.39797 1.89435 1.86387 2.44544 1.86387 3.12886V11.68C1.86387 12.3544 2.39115 12.9054 3.03277 12.9139C3.29231 12.9174 3.49615 13.1363 3.49615 13.3991V16.7514L6.07099 13.3617L6.13072 13.407L6.07099 13.3617C6.25146 13.1241 6.51037 12.969 6.80009 12.9262M6.80957 13.9609L7.33132 13.3387C7.29544 13.0758 7.06008 12.8877 6.80009 12.9262M6.80957 13.9609C6.8407 13.9198 6.88452 13.894 6.9329 13.8868L6.80957 13.9609ZM6.80009 12.9262L6.81104 13.0004L6.80005 12.9262C6.80006 12.9262 6.80008 12.9262 6.80009 12.9262Z" fill="#121212" stroke="#121212" stroke-width="0.15"/>
</svg>