<svg xmlns="http://www.w3.org/2000/svg" width="15" height="14" viewBox="0 0 15 14" fill="none">
  <path d="M9.48283 13.2708H5.98283C3.41033 13.2708 2.62866 12.4891 2.62866 9.91663V4.08329C2.62866 1.51079 3.41033 0.729126 5.98283 0.729126H9.48283C12.0553 0.729126 12.837 1.51079 12.837 4.08329V9.91663C12.837 12.4891 12.0553 13.2708 9.48283 13.2708ZM5.98283 1.60413C3.8945 1.60413 3.50366 2.00079 3.50366 4.08329V9.91663C3.50366 11.9991 3.8945 12.3958 5.98283 12.3958H9.48283C11.5712 12.3958 11.962 11.9991 11.962 9.91663V4.08329C11.962 2.00079 11.5712 1.60413 9.48283 1.60413H5.98283Z" fill="#0A2540"/>
  <path d="M8.8995 3.64587H6.56616C6.327 3.64587 6.12866 3.44754 6.12866 3.20837C6.12866 2.96921 6.327 2.77087 6.56616 2.77087H8.8995C9.13866 2.77087 9.337 2.96921 9.337 3.20837C9.337 3.44754 9.13866 3.64587 8.8995 3.64587Z" fill="#0A2540"/>
  <path d="M7.73302 11.5849C6.99219 11.5849 6.39136 10.9841 6.39136 10.2433C6.39136 9.50244 6.99219 8.90161 7.73302 8.90161C8.47386 8.90161 9.07469 9.50244 9.07469 10.2433C9.07469 10.9841 8.47386 11.5849 7.73302 11.5849ZM7.73302 9.77078C7.47636 9.77078 7.26636 9.98078 7.26636 10.2374C7.26636 10.4941 7.47636 10.7041 7.73302 10.7041C7.98969 10.7041 8.19969 10.4941 8.19969 10.2374C8.19969 9.98078 7.98969 9.77078 7.73302 9.77078Z" fill="#0A2540"/>
</svg>