<svg width="17" height="16" viewBox="0 0 17 16" fill="none" xmlns="http://www.w3.org/2000/svg">
<path d="M16.502 1.15479H14.3204C14.3283 0.927368 14.3327 0.698608 14.3327 0.46875C14.3327 0.209839 14.1096 0 13.8347 0H3.16532C2.89036 0 2.66727 0.209839 2.66727 0.46875C2.66727 0.698608 2.67168 0.927368 2.6796 1.15479H0.498047C0.222954 1.15479 0 1.36462 0 1.62354C0 3.72388 0.58326 5.70544 1.64226 7.20337C2.68906 8.6842 4.08347 9.53357 5.5898 9.61621C5.9313 9.96594 6.29225 10.2511 6.66825 10.4686V12.552H5.83273C4.82262 12.552 4.00098 13.3254 4.00098 14.276V15.0624H3.96557C3.69048 15.0624 3.46752 15.2723 3.46752 15.5311C3.46752 15.79 3.69048 15.9999 3.96557 15.9999H13.0344C13.3095 15.9999 13.5325 15.79 13.5325 15.5311C13.5325 15.2723 13.3095 15.0624 13.0344 15.0624H12.999V14.276C12.999 13.3254 12.1774 12.552 11.1673 12.552H10.3317V10.4686C10.7077 10.2512 11.0688 9.96594 11.4103 9.61621C12.9165 9.53357 14.3109 8.6842 15.3579 7.20337C16.4169 5.70544 17 3.72388 17 1.62354C17 1.36462 16.777 1.15479 16.502 1.15479ZM2.47156 6.68408C1.59803 5.44861 1.08481 3.83264 1.0066 2.09229H2.73524C2.91487 4.23169 3.44846 6.20923 4.28242 7.77893C4.41524 8.02893 4.55415 8.26514 4.69824 8.48755C3.86985 8.19312 3.1032 7.57764 2.47156 6.68408ZM12.0029 14.276V15.0625H4.99707V14.276C4.99707 13.8424 5.3719 13.4895 5.83273 13.4895H11.1673C11.6281 13.4895 12.0029 13.8424 12.0029 14.276ZM9.33566 12.552H7.66434V10.876C7.93814 10.9438 8.21712 10.9791 8.5 10.9791C8.78288 10.9791 9.06186 10.9438 9.33566 10.876V12.552ZM9.64408 9.76074C9.62164 9.76941 9.60011 9.77991 9.57949 9.7915C9.22749 9.9563 8.86575 10.0416 8.5 10.0416C8.13438 10.0416 7.77277 9.9563 7.4209 9.79175C7.40002 9.77991 7.37836 9.76941 7.35566 9.7605C6.96513 9.56616 6.58732 9.27271 6.23 8.88708C6.21119 8.86182 6.19005 8.8385 6.16657 8.81726C5.81184 8.4209 5.47813 7.93335 5.17333 7.35962C4.25804 5.63684 3.72939 3.37158 3.6692 0.9375H13.3308C13.2705 3.37158 12.7418 5.63696 11.8267 7.35962C11.5219 7.93335 11.1882 8.4209 10.8336 8.81726C10.81 8.8385 10.7886 8.86194 10.7699 8.88721C10.4126 9.27295 10.0346 9.56628 9.64408 9.76074ZM14.5284 6.68408C13.8968 7.57764 13.1301 8.19312 12.3018 8.48755C12.4459 8.26514 12.5848 8.02893 12.7176 7.77893C13.5515 6.20923 14.085 4.23169 14.2648 2.09229H15.9934C15.9152 3.83264 15.402 5.44861 14.5284 6.68408Z" fill="white"/>
</svg>
