<svg xmlns="http://www.w3.org/2000/svg" width="17" height="16" viewBox="0 0 17 16" fill="none">
  <path d="M16.502 1.15485H14.3204C14.3283 0.927429 14.3327 0.698669 14.3327 0.468811C14.3327 0.2099 14.1096 6.10352e-05 13.8347 6.10352e-05H3.16532C2.89036 6.10352e-05 2.66727 0.2099 2.66727 0.468811C2.66727 0.698669 2.67168 0.927429 2.6796 1.15485H0.498047C0.222954 1.15485 0 1.36469 0 1.6236C0 3.72394 0.58326 5.70551 1.64226 7.20343C2.68906 8.68427 4.08347 9.53363 5.5898 9.61627C5.9313 9.966 6.29225 10.2512 6.66825 10.4687V12.5521H5.83273C4.82262 12.5521 4.00098 13.3255 4.00098 14.2761V15.0624H3.96557C3.69048 15.0624 3.46752 15.2724 3.46752 15.5312C3.46752 15.7901 3.69048 15.9999 3.96557 15.9999H13.0344C13.3095 15.9999 13.5325 15.7901 13.5325 15.5312C13.5325 15.2724 13.3095 15.0624 13.0344 15.0624H12.999V14.2761C12.999 13.3255 12.1774 12.5521 11.1673 12.5521H10.3317V10.4687C10.7077 10.2513 11.0688 9.966 11.4103 9.61627C12.9165 9.53363 14.3109 8.68427 15.3579 7.20343C16.4169 5.70551 17 3.72394 17 1.6236C17 1.36469 16.777 1.15485 16.502 1.15485ZM2.47156 6.68414C1.59803 5.44867 1.08481 3.8327 1.0066 2.09235H2.73524C2.91487 4.23175 3.44846 6.20929 4.28242 7.77899C4.41524 8.02899 4.55415 8.2652 4.69824 8.48761C3.86985 8.19318 3.1032 7.5777 2.47156 6.68414ZM12.0029 14.2761V15.0626H4.99707V14.2761C4.99707 13.8425 5.3719 13.4896 5.83273 13.4896H11.1673C11.6281 13.4896 12.0029 13.8425 12.0029 14.2761ZM9.33566 12.5521H7.66434V10.876C7.93814 10.9439 8.21712 10.9792 8.5 10.9792C8.78288 10.9792 9.06186 10.9439 9.33566 10.876V12.5521ZM9.64408 9.7608C9.62164 9.76947 9.60011 9.77997 9.57949 9.79156C9.22749 9.95636 8.86575 10.0417 8.5 10.0417C8.13438 10.0417 7.77277 9.95636 7.4209 9.79181C7.40002 9.77997 7.37836 9.76947 7.35566 9.76056C6.96513 9.56622 6.58732 9.27277 6.23 8.88715C6.21119 8.86188 6.19005 8.83856 6.16657 8.81732C5.81184 8.42096 5.47813 7.93341 5.17333 7.35968C4.25804 5.6369 3.72939 3.37164 3.6692 0.937561H13.3308C13.2705 3.37164 12.7418 5.63702 11.8267 7.35968C11.5219 7.93341 11.1882 8.42096 10.8336 8.81732C10.81 8.83856 10.7886 8.862 10.7699 8.88727C10.4126 9.27301 10.0346 9.56635 9.64408 9.7608ZM14.5284 6.68414C13.8968 7.5777 13.1301 8.19318 12.3018 8.48761C12.4459 8.2652 12.5848 8.02899 12.7176 7.77899C13.5515 6.20929 14.085 4.23175 14.2648 2.09235H15.9934C15.9152 3.8327 15.402 5.44867 14.5284 6.68414Z" fill="#0CB9DE"/>
</svg>