<svg width="43" height="31" viewBox="0 0 43 31" fill="none" xmlns="http://www.w3.org/2000/svg">
    <rect x="0.637665" y="0.666748" width="41.4713" height="29" rx="3.5" fill="white"
        stroke="#B2BCCA" />
    <path
        d="M22.1377 29.1667L41.1377 23.4167V26.1667C41.1377 27.8236 39.7945 29.1667 38.1377 29.1667H22.1377Z"
        fill="#FD6020" />
    <path fill-rule="evenodd" clip-rule="evenodd"
        d="M36.855 11.5554C38.1607 11.5554 38.8789 12.1598 38.8789 13.3015C38.9441 14.1746 38.3566 14.9133 37.5731 15.0476L39.3359 17.5325H37.9648L36.4632 15.1148H36.3327V17.5325H35.2228V11.5554H36.855ZM36.3327 14.3088H36.6591C37.3773 14.3088 37.7037 13.973 37.7037 13.3686C37.7037 12.8314 37.3773 12.4956 36.6591 12.4956H36.3327V14.3088ZM31.371 17.5325H34.5047V16.5251H32.4808V14.9133H34.4394V13.9059H32.4808V12.5627H34.5047V11.5554H31.371V17.5325ZM28.1065 15.5849L26.6049 11.5554H25.4298L27.8454 17.6668H28.433L30.8486 11.5554H29.6734L28.1065 15.5849ZM14.8532 14.5774C14.8532 16.2564 16.159 17.6667 17.7911 17.6667C18.3134 17.6667 18.7704 17.5324 19.2274 17.3309V15.9877C18.901 16.3907 18.444 16.6593 17.9217 16.6593C16.8771 16.6593 16.0284 15.8534 16.0284 14.7789V14.6445C15.9631 13.57 16.8118 12.6298 17.8564 12.5626C18.3787 12.5626 18.901 12.8313 19.2274 13.2342V11.891C18.8357 11.6224 18.3134 11.5552 17.8564 11.5552C16.159 11.4209 14.8532 12.8313 14.8532 14.5774ZM12.8294 13.8387C12.1765 13.5701 11.9807 13.4358 11.9807 13.1C12.046 12.697 12.3724 12.3612 12.7641 12.4284C13.0905 12.4284 13.417 12.6298 13.6781 12.8985L14.2657 12.0926C13.8087 11.6896 13.2211 11.421 12.6335 11.421C11.7195 11.3538 10.9361 12.0926 10.8708 13.0328V13.1C10.8708 13.9059 11.1972 14.376 12.2418 14.7118C12.503 14.7789 12.7641 14.9132 13.0253 15.0476C13.2211 15.1819 13.3517 15.3834 13.3517 15.652C13.3517 16.1221 12.96 16.5251 12.5683 16.5251H12.503C11.9807 16.5251 11.5237 16.1893 11.3278 15.7191L10.6096 16.4579C11.0014 17.1966 11.7848 17.5996 12.5683 17.5996C13.6128 17.6667 14.4616 16.8608 14.5269 15.7863V15.5848C14.4616 14.7789 14.1351 14.376 12.8294 13.8387ZM9.04277 17.5325H10.1526V11.5554H9.04277V17.5325ZM3.88513 11.5554H5.5173H5.84374C7.41062 11.6225 8.65107 12.9657 8.58579 14.5775C8.58579 15.4506 8.19406 16.2565 7.5412 16.8609C6.95361 17.331 6.23546 17.5997 5.5173 17.5325H3.88513V11.5554ZM5.32148 16.5252C5.84378 16.5923 6.43136 16.3908 6.82308 16.0551C7.2148 15.6521 7.41066 15.1148 7.41066 14.5104C7.41066 13.9731 7.2148 13.4359 6.82308 13.0329C6.43136 12.6971 5.84378 12.4956 5.32148 12.5628H4.99505V16.5252H5.32148Z"
        fill="#333333" />
    <path fill-rule="evenodd" clip-rule="evenodd"
        d="M22.5572 11.4167C20.9251 11.4167 19.554 12.7599 19.554 14.506C19.554 16.185 20.8598 17.5953 22.5572 17.6625C24.2547 17.7297 25.5604 16.3193 25.6257 14.5732C25.5604 12.8271 24.2547 11.4167 22.5572 11.4167V11.4167Z"
        fill="#FD6020" />
</svg>
    