<svg width="502" height="271" viewBox="0 0 502 271" fill="none" xmlns="http://www.w3.org/2000/svg">
<path d="M5.3651 93.0014L5.73405 110.706L29.4696 110.955L53.0821 111.121V101.646C53.0821 92.9183 52.8361 91.8378 49.6386 87.765C43.3665 79.5364 31.3143 75.3805 14.0968 75.3805H5.11914L5.3651 93.0014Z" fill="#0CB9DE"/>
<path d="M60.4443 96.1378V104.366L66.5934 107.109C70.5289 108.855 85.9016 119.743 109.022 137.115C128.945 152.076 145.302 164.627 145.302 164.959C145.302 165.375 144.687 166.04 143.949 166.538C143.088 167.12 148.745 171.858 162.765 182.248C173.834 190.393 184.533 198.372 186.624 199.952L190.436 202.861L181.459 207.266C173.342 211.173 171.62 211.671 166.209 211.671H160.06V230.373V249.074H169.037H177.892L178.138 243.838C178.507 235.775 182.442 229.625 191.297 223.64C196.831 219.9 200.767 218.071 206.178 216.741C235.079 209.427 266.685 223.308 266.931 243.422L267.054 249.074H284.271H301.489L301.243 224.305L300.874 199.619L295.094 199.37L289.191 199.121V173.77V148.502H273.572H257.83L241.843 169.946C228.684 187.567 225.732 192.139 225.24 195.879L224.625 200.45L218.353 200.7L212.081 200.949L199.906 191.972C193.265 187.068 187.485 182.829 187.116 182.58C186.624 182.248 178.384 176.097 158.584 161.468C155.878 159.39 155.017 159.141 153.419 160.055C151.943 160.886 150.836 160.554 146.901 157.562C112.343 131.795 96.3551 119.826 96.601 119.577C96.847 119.494 126.609 131.297 162.765 145.925C198.922 160.554 229.176 172.606 230.036 172.772C230.897 172.938 234.833 168.616 239.383 162.632C243.687 156.98 247.131 152.242 247.008 152.159C246.885 152.076 217.984 142.019 182.811 129.8C147.639 117.582 106.071 103.12 90.4519 97.717C74.7102 92.3143 61.6742 87.826 61.1822 87.826C60.8133 87.826 60.4443 91.5663 60.4443 96.1378Z" fill="#0CB9DE"/>
<path d="M12.5 131.052V147.676H27.2578H42.0157V131.052V114.429H27.2578H12.5V131.052Z" fill="#0CB9DE"/>
<path d="M342.086 177.167V209.167H350.695H359.303V203.349V197.53H362.993H366.682V203.349V209.25L379.349 209.001L391.894 208.751L392.263 197.364C392.509 186.808 392.386 185.811 390.049 184.232C386.482 181.821 372.708 181.821 369.142 184.232C367.789 185.146 366.682 186.226 366.682 186.725C366.682 187.141 365.084 187.556 362.993 187.556C359.426 187.556 359.303 187.39 359.303 183.816V180.076H365.453H371.602V166.528V152.979L365.698 149.073L359.795 145.166H350.941H342.086V177.167Z" fill="#0CB9DE"/>
<path d="M19.8763 159.24V166.638L14.3421 168.882C7.94708 171.375 0.199219 175.781 0.199219 176.861C0.199219 177.775 6.4713 177.859 10.2837 176.861C11.8825 176.529 14.5881 175.947 16.5558 175.614L19.8763 175.116V181.1L19.7533 187.168L11.7595 190.492C1.79798 194.648 -0.784637 196.394 1.18307 197.724C2.28991 198.472 4.62657 198.305 11.2676 196.976L19.9993 195.313L19.6304 201.547L19.2614 207.864L13.1123 210.274C6.71726 212.768 0.199219 216.508 0.199219 217.672C0.199219 218.752 8.07006 218.42 13.7272 217.09C16.5558 216.425 19.1384 215.843 19.3844 215.843C19.6304 215.843 19.8763 218.586 19.8763 221.994V228.145L13.4813 230.638C2.04395 234.96 -2.62937 239.116 3.76569 239.116C4.99551 239.116 9.05392 238.451 12.8664 237.537L19.8763 236.041V242.358V248.675L14.5881 250.586C8.31603 252.831 0.199219 257.153 0.199219 258.316C0.199219 259.48 8.80795 259.148 14.3421 257.818C17.0477 257.153 19.3844 256.571 19.6304 256.571C19.7533 256.571 19.8763 258.067 19.8763 259.979C19.8763 262.389 20.9832 264.384 23.6888 267.127L27.5012 270.867L31.0677 267.21C34.1422 264.135 34.6342 262.805 34.6342 257.818V251.999L39.9224 250.088C47.0553 247.511 54.3113 243.438 54.3113 241.942C54.3113 240.363 51.1137 240.446 42.1361 242.358L34.6342 243.937V237.869V231.885L42.259 228.727C50.2529 225.319 54.3113 222.991 54.3113 221.662C54.3113 220.415 48.2852 220.664 41.2752 222.077C37.9547 222.742 35.1261 223.324 35.0031 223.324C34.7571 223.324 34.6342 220.581 34.6342 217.256V211.106L40.7833 208.861C58.3697 202.378 58.8616 197.641 41.6441 201.63L34.6342 203.293V196.809V190.409L40.0454 188.664C45.5796 186.835 54.3113 182.098 54.3113 180.934C54.3113 179.272 48.2852 179.604 37.4627 182.098C34.6342 182.679 34.6342 182.596 34.6342 176.446V170.129L39.3075 168.549C46.5634 165.973 54.3113 161.9 54.3113 160.57C54.3113 158.991 50.2529 158.991 42.505 160.57C39.1845 161.235 36.1099 161.817 35.618 161.817C35.0031 161.817 34.6342 159.573 34.6342 156.83V151.843H27.2552H19.8763V159.24Z" fill="#0CB9DE"/>
<path d="M399.905 185.905V211.671H367.315H334.725V230.373V249.074H361.043H387.361L387.484 243.755C387.73 222.56 421.427 208.596 450.82 217.406C458.567 219.734 467.668 225.718 471.972 231.37C474.801 235.194 475.662 237.521 476.031 242.591L476.4 249.074H487.96H499.52V240.347V231.62H494.601H489.682V221.729C489.682 212.835 488.944 209.344 482.303 187.817C478.245 174.684 474.678 163.047 474.309 161.967L473.694 160.138H436.8H399.905V185.905ZM474.063 185.739C478.122 197.458 481.565 207.931 481.934 208.928C482.549 210.757 482.303 210.84 473.325 210.84H464.102L459.551 206.684L455.001 202.528H434.217H413.433V183.411V164.294H440.243H466.93L474.063 185.739Z" fill="#0CB9DE"/>
<path d="M131.791 227.897V254.91H141.63H151.345L151.714 227.897L152.083 200.884H141.999H131.791V227.897Z" fill="#0CB9DE"/>
<path d="M307.666 227.897V254.91H317.505H327.343V227.897V200.884H317.505H307.666V227.897Z" fill="#0CB9DE"/>
<path d="M206.206 221.494C197.597 224.32 191.694 228.476 187.39 234.793C184.807 238.7 184.438 240.113 184.93 246.097C185.791 256.819 192.555 263.801 206.206 268.207C224.776 274.191 246.667 269.453 256.628 257.318C259.949 253.245 260.318 252.165 260.318 244.934C260.318 238.367 259.826 236.456 257.489 233.546C253.431 228.31 248.266 224.736 241.01 222.076C235.598 220.081 232.77 219.583 224.038 219.333C214.569 219.084 212.97 219.25 206.206 221.494ZM231.54 235.624C236.213 237.37 238.796 240.861 238.796 245.349C238.796 248.84 238.181 249.671 234 252.497C229.818 255.323 228.588 255.739 223.423 255.739C213.216 255.739 206.821 251.583 206.821 244.934C206.821 235.791 219.488 230.97 231.54 235.624Z" fill="#0CB9DE"/>
<path d="M414.886 221.67C406.892 224.413 401.481 227.987 397.176 233.556C394.84 236.465 394.348 238.377 394.348 244.943C394.348 252.174 394.717 253.255 398.037 257.328C412.672 275.198 451.288 275.198 465.677 257.328C468.506 253.671 469.367 251.593 469.736 246.107C470.228 240.206 469.859 238.709 467.276 234.803C462.972 228.569 457.56 224.663 448.829 221.67C442.434 219.509 439.974 219.177 431.857 219.177C423.74 219.177 421.281 219.509 414.886 221.67ZM440.712 235.551C445.139 236.964 447.845 240.621 447.845 244.943C447.845 251.593 441.45 255.749 431.242 255.749C426.077 255.749 424.847 255.333 420.666 252.507C416.484 249.681 415.869 248.85 415.869 245.442C415.869 235.717 427.676 231.063 440.712 235.551Z" fill="#0CB9DE"/>
<path d="M136.711 259.897C136.711 262.308 136.957 262.391 142.245 262.391C147.533 262.391 147.779 262.308 147.779 259.897C147.779 257.487 147.533 257.404 142.245 257.404C136.957 257.404 136.711 257.487 136.711 259.897Z" fill="#0CB9DE"/>
<path d="M312.565 259.897C312.565 262.308 312.811 262.391 318.1 262.391C323.388 262.391 323.634 262.308 323.634 259.897C323.634 257.487 323.388 257.404 318.1 257.404C312.811 257.404 312.565 257.487 312.565 259.897Z" fill="#0CB9DE"/>
<path d="M120.729 267.386V270.711H141.635H162.542V267.386V264.062H141.635H120.729V267.386Z" fill="#0CB9DE"/>
<path d="M296.579 267.386V270.711H317.486H338.393V267.386V264.062H317.486H296.579V267.386Z" fill="#0CB9DE"/>
</svg>
