<svg xmlns="http://www.w3.org/2000/svg" width="25" height="24" viewBox="0 0 25 24" fill="none">
  <path d="M5.22325 2.79827C4.26285 2.79827 3.34178 3.17979 2.66268 3.8589C1.98357 4.538 1.60205 5.45907 1.60205 6.41947V6.7834L12.4657 12.6335L23.3293 6.78522V6.41947C23.3293 5.45907 22.9477 4.538 22.2686 3.8589C21.5895 3.17979 20.6685 2.79827 19.7081 2.79827H5.22325ZM23.3293 8.84025L12.8948 14.4585C12.7629 14.5295 12.6154 14.5667 12.4657 14.5667C12.3159 14.5667 12.1684 14.5295 12.0365 14.4585L1.60205 8.84025V17.2831C1.60205 18.2435 1.98357 19.1646 2.66268 19.8437C3.34178 20.5228 4.26285 20.9043 5.22325 20.9043H19.7081C20.6685 20.9043 21.5895 20.5228 22.2686 19.8437C22.9477 19.1646 23.3293 18.2435 23.3293 17.2831V8.84025Z" fill="#FA8B02"/>
</svg>