<svg xmlns="http://www.w3.org/2000/svg" width="24" height="24" viewBox="0 0 24 24" fill="none">
  <path d="M4.6437 4.79999H20.5437C22.0437 4.79999 22.7997 5.50799 22.7997 6.94799V17.052C22.7997 18.48 22.0437 19.2 20.5437 19.2H4.6437C3.1437 19.2 2.3877 18.48 2.3877 17.052V6.94799C2.3877 5.50799 3.1437 4.79999 4.6437 4.79999ZM12.5877 15.12L20.6757 8.48399C20.9637 8.24399 21.1917 7.69199 20.8317 7.19999C20.4837 6.70799 19.8477 6.69599 19.4277 6.99599L12.5877 11.628L5.7597 6.99599C5.3397 6.69599 4.7037 6.70799 4.3557 7.19999C3.9957 7.69199 4.2237 8.24399 4.5117 8.48399L12.5877 15.12Z" fill="#0CB9DE"/>
</svg>