<svg xmlns="http://www.w3.org/2000/svg" width="44" height="45" viewBox="0 0 44 45" fill="none">
  <path d="M43.4094 22.7394C43.4094 10.5259 33.8903 0.627319 22.1451 0.627319C10.3999 0.627319 0.880859 10.5259 0.880859 22.7394C0.880859 34.9528 10.3999 44.8515 22.1451 44.8515C22.2697 44.8515 22.3943 44.8515 22.5189 44.8428V27.6369H17.9504V22.1002H22.5189V18.0233C22.5189 13.2986 25.2932 10.7246 29.3467 10.7246C31.2904 10.7246 32.96 10.8714 33.4418 10.9405V15.8812H30.6508C28.4496 15.8812 28.0177 16.9695 28.0177 18.5675V22.0916H33.2923L32.6028 27.6282H28.0177V43.9963C36.9055 41.3446 43.4094 32.8367 43.4094 22.7394Z" fill="#0CB9DE"/>
</svg>