<svg xmlns="http://www.w3.org/2000/svg" width="41" height="41" viewBox="0 0 41 41" fill="none">
  <g clip-path="url(#clip0_627_30046)">
    <path d="M12.2439 22.4943H17.6951L18.4851 16.253H12.2439V12.3029C12.2439 11.4602 12.4414 10.7097 12.8364 10.0513C13.2314 9.39297 14.0873 9.06379 15.404 9.06379H18.8801V3.5336C18.6168 3.5336 18.0243 3.49409 17.1026 3.41509C16.1809 3.33609 15.167 3.29659 14.0609 3.29659C11.6382 3.29659 9.64995 4.00761 8.09623 5.42966C6.54251 6.85172 5.76565 8.98479 5.76565 11.8289V16.7271H0.314453V22.9683H5.76565V39.0059H12.2439V22.4943Z" fill="#0CB9DE"/>
  </g>
  <defs>
    <clipPath id="clip0_627_30046">
      <rect width="40.4494" height="40.4494" fill="white" transform="matrix(1 0 0 -1 0.314453 40.6641)"/>
    </clipPath>
  </defs>
</svg>