<svg xmlns="http://www.w3.org/2000/svg" width="33" height="32" viewBox="0 0 33 32" fill="none">
  <path d="M19.1667 16V26.5067C19.2201 26.9067 19.0867 27.3333 18.7801 27.6133C18.6567 27.7369 18.5102 27.835 18.3489 27.9019C18.1876 27.9688 18.0147 28.0033 17.8401 28.0033C17.6654 28.0033 17.4925 27.9688 17.3312 27.9019C17.1699 27.835 17.0234 27.7369 16.9001 27.6133L14.2201 24.9333C14.0746 24.7912 13.9641 24.6173 13.897 24.4253C13.8299 24.2333 13.8081 24.0285 13.8334 23.8267V16H13.7934L6.11339 6.16C5.89686 5.88204 5.79916 5.52968 5.84164 5.17991C5.88411 4.83014 6.0633 4.5114 6.34005 4.29333C6.59339 4.10667 6.87339 4 7.16672 4H25.8334C26.1267 4 26.4067 4.10667 26.6601 4.29333C26.9368 4.5114 27.116 4.83014 27.1585 5.17991C27.2009 5.52968 27.1032 5.88204 26.8867 6.16L19.2067 16H19.1667Z" fill="#0CB9DE"/>
</svg>