<svg xmlns="http://www.w3.org/2000/svg" width="35" height="36" viewBox="0 0 35 36" fill="none">
  <path d="M27.5409 0.629272H0.883789V34.4052H27.5409V0.629272Z" fill="#F2F2F2"/>
  <path d="M28.1041 34.9787H0.319824V0.055542H28.1041V34.9787ZM1.44696 33.8315H26.977V1.20277H1.44696V33.8315Z" fill="black"/>
  <path d="M23.01 11.665H15.8701V15.9078H23.01V11.665Z" fill="#FF7C24"/>
  <path d="M13.1944 11.9521H5.45361V13.0993H13.1944V11.9521Z" fill="black"/>
  <path d="M11.728 14.7586H5.53906V15.9058H11.728V14.7586Z" fill="black"/>
  <path d="M11.7665 17.5947H5.57715V18.7415H11.7665V17.5947Z" fill="black"/>
  <path d="M16.3284 20.5251H5.53906V21.672H16.3284V20.5251Z" fill="black"/>
  <path d="M14.8894 23.3325H5.53906V24.4793H14.8894V23.3325Z" fill="black"/>
  <path d="M23.0106 5.26831H5.47314V8.9132H23.0106V5.26831Z" fill="#39B6CC"/>
  <path d="M15.9879 26.0172H5.53906V27.164H15.9879V26.0172Z" fill="black"/>
  <path d="M18.5843 28.8237H5.53906V29.9709H18.5843V28.8237Z" fill="black"/>
  <path d="M13.8198 14.7586H12.5332V15.9058H13.8198V14.7586Z" fill="black"/>
  <path fill-rule="evenodd" clip-rule="evenodd" d="M28.2938 26.6575L29.9988 28.4496L27.3563 31.0553L25.6426 29.2511C26.7888 28.7204 27.7262 27.8006 28.2938 26.6575Z" fill="#F2F2F2"/>
  <path d="M27.3432 31.8665L24.6816 29.0653L25.4087 28.7289C26.4344 28.2536 27.2803 27.4262 27.7906 26.3988L28.1474 25.6799L30.7946 28.4625L27.3432 31.8665ZM26.5644 29.3968L27.369 30.2433L29.2005 28.4366L28.4023 27.597C27.9207 28.3212 27.2923 28.9361 26.5644 29.3968Z" fill="black"/>
  <path fill-rule="evenodd" clip-rule="evenodd" d="M30.4158 28.0406L33.8827 31.6915L30.4078 35.1085L26.9429 31.458L30.4158 28.0406Z" fill="#39B6CC"/>
  <path d="M30.3944 35.9198L26.146 31.4438L30.4298 27.2298L34.6803 31.7053L30.3944 35.9198ZM27.7397 31.4714L30.4219 34.2973L33.0858 31.6774L30.402 28.8515L27.7397 31.4714Z" fill="black"/>
  <path fill-rule="evenodd" clip-rule="evenodd" d="M23.5981 18.1149C26.6772 18.1149 29.1733 20.6554 29.1733 23.7899C29.1733 26.9243 26.6776 29.4649 23.5981 29.4649C20.5185 29.4649 18.0225 26.9243 18.0225 23.7899C18.0225 20.6554 20.5185 18.1149 23.5981 18.1149Z" fill="#F2F2F2"/>
  <path d="M23.5978 30.038C20.2128 30.038 17.459 27.2351 17.459 23.7898C17.459 20.3445 20.2128 17.5416 23.5978 17.5416C26.9828 17.5416 29.737 20.3445 29.737 23.7898C29.737 27.2351 26.9828 30.038 23.5978 30.038ZM23.5978 18.6884C20.834 18.6884 18.5861 20.9768 18.5861 23.7898C18.5861 26.6028 20.8336 28.8908 23.5978 28.8908C26.3611 28.8908 28.6098 26.6028 28.6098 23.7898C28.6098 20.9768 26.3611 18.6884 23.5978 18.6884Z" fill="black"/>
  <path d="M17.2701 17.5947H13.1685V18.7415H17.2701V17.5947Z" fill="black"/>
  <path d="M27.6858 24.1008H26.5587C26.5587 23.8433 26.5316 23.5928 26.4771 23.3559C26.46 23.2807 26.439 23.2001 26.4099 23.1009L27.4905 22.7738C27.5267 22.8969 27.5534 23.0001 27.576 23.0981C27.6484 23.4187 27.6858 23.7563 27.6858 24.1008ZM26.1085 22.4196C25.5163 21.4076 24.4368 20.7769 23.291 20.7757L23.2926 19.6285C24.8322 19.6305 26.2827 20.4749 27.0773 21.8327L26.1085 22.4196Z" fill="black"/>
</svg>