<svg width="14" height="14" viewBox="0 0 14 14" fill="none" xmlns="http://www.w3.org/2000/svg">
<path d="M3.57823 12.2502C2.89107 12.2502 2.33398 11.6785 2.33398 10.9727V5.83816C2.33398 5.45024 2.50607 5.08274 2.80065 4.84066L6.22307 2.03016C6.44173 1.84908 6.71674 1.75 7.00065 1.75C7.28456 1.75 7.55957 1.84908 7.77823 2.03016L11.2001 4.84066C11.4952 5.08274 11.6673 5.45024 11.6673 5.83816V10.9727C11.6673 11.6785 11.1102 12.2502 10.4231 12.2502H3.57823Z" stroke="#DAF0F5" stroke-width="1.5" stroke-linecap="round" stroke-linejoin="round"/>
<path d="M5.54297 12.25V9.04167C5.54297 8.73225 5.66589 8.4355 5.88468 8.21671C6.10347 7.99792 6.40022 7.875 6.70964 7.875H7.29297C7.60239 7.875 7.89913 7.99792 8.11793 8.21671C8.33672 8.4355 8.45964 8.73225 8.45964 9.04167V12.25" stroke="#DAF0F5" stroke-width="1.5" stroke-linecap="round" stroke-linejoin="round"/>
</svg>
