<svg xmlns="http://www.w3.org/2000/svg" width="10" height="11" viewBox="0 0 10 11" fill="none">
  <g clip-path="url(#clip0_627_29983)">
    <path d="M6.57556 1.54416C6.52468 1.49328 6.46427 1.45513 6.39431 1.42969C6.32436 1.40425 6.25758 1.39153 6.19399 1.39153H2.91252C2.84893 1.39153 2.78216 1.40425 2.7122 1.42969C2.64225 1.45513 2.58183 1.49328 2.53096 1.54416L0.222486 3.85263C0.158892 3.90351 0.114376 3.96392 0.0889378 4.03388C0.0635001 4.10383 0.0507812 4.17696 0.0507812 4.25328V7.51566C0.0507812 7.59198 0.0635001 7.66511 0.0889378 7.73506C0.114376 7.80502 0.158892 7.86543 0.222486 7.91631L2.53096 10.2248C2.58183 10.2757 2.64225 10.317 2.7122 10.3488C2.78216 10.3806 2.84893 10.3965 2.91252 10.3965H6.19399C6.25758 10.3965 6.32436 10.3806 6.39431 10.3488C6.46427 10.317 6.52468 10.2757 6.57556 10.2248L8.88403 7.91631C8.9349 7.86543 8.97624 7.80502 9.00804 7.73506C9.03983 7.66511 9.05573 7.59198 9.05573 7.51566V4.25328C9.05573 4.17696 9.04301 4.10383 9.01758 4.03388C8.99214 3.96392 8.94762 3.90351 8.88403 3.85263L6.57556 1.54416ZM4.55326 7.01963C4.40063 7.01963 4.27026 6.96239 4.16215 6.84792C4.05404 6.73345 3.99999 6.59991 3.99999 6.44728V3.07042C3.99999 2.9178 4.05404 2.78743 4.16215 2.67932C4.27026 2.57121 4.40063 2.51715 4.55326 2.51715C4.70588 2.51715 4.83625 2.57121 4.94436 2.67932C5.05247 2.78743 5.10653 2.9178 5.10653 3.07042V6.44728C5.10653 6.59991 5.05247 6.73345 4.94436 6.84792C4.83625 6.96239 4.70588 7.01963 4.55326 7.01963ZM5.10653 8.69852C5.10653 8.85114 5.05247 8.98469 4.94436 9.09916C4.83625 9.21363 4.70588 9.27087 4.55326 9.27087C4.40063 9.27087 4.27026 9.21363 4.16215 9.09916C4.05404 8.98469 3.99999 8.85114 3.99999 8.69852C3.99999 8.54589 4.05404 8.41552 4.16215 8.30741C4.27026 8.1993 4.40063 8.14525 4.55326 8.14525C4.70588 8.14525 4.83625 8.1993 4.94436 8.30741C5.05247 8.41552 5.10653 8.54589 5.10653 8.69852Z" fill="#333333"/>
  </g>
  <defs>
    <clipPath id="clip0_627_29983">
      <rect width="9.76808" height="9.76808" fill="white" transform="matrix(1 0 0 -1 0.0507812 10.5684)"/>
    </clipPath>
  </defs>
</svg>