<svg xmlns="http://www.w3.org/2000/svg" width="42" height="41" viewBox="0 0 42 41" fill="none">
  <g clip-path="url(#clip0_627_30048)">
    <path d="M30.5002 4.48132H4.82426C3.77089 4.48132 2.86236 4.85 2.09867 5.58736C1.33497 6.32472 0.953125 7.22009 0.953125 8.27346V34.1074C0.953125 35.1607 1.33497 36.0693 2.09867 36.833C2.86236 37.5967 3.77089 37.9785 4.82426 37.9785H30.5792C31.6852 37.9785 32.6069 37.5967 33.3443 36.833C34.0816 36.0693 34.4503 35.1607 34.4503 34.1074V8.27346C34.4503 7.22009 34.0553 6.32472 33.2653 5.58736C32.4752 4.85 31.5535 4.48132 30.5002 4.48132ZM17.7807 14.8307C19.5715 14.8307 21.0857 15.4627 22.3234 16.7268C23.5611 17.9908 24.18 19.5182 24.18 21.3089C24.18 23.047 23.5611 24.548 22.3234 25.8121C21.0857 27.0761 19.5715 27.7081 17.7807 27.7081C15.99 27.7081 14.4758 27.0761 13.2381 25.8121C12.0004 24.548 11.3815 23.047 11.3815 21.3089C11.3815 19.5182 12.0004 17.9908 13.2381 16.7268C14.4758 15.4627 15.99 14.8307 17.7807 14.8307ZM30.5002 32.8433C30.5002 33.212 30.3685 33.5149 30.1052 33.7519C29.8418 33.9889 29.5258 34.1074 29.1571 34.1074H5.9303C5.56162 34.1074 5.25878 33.9889 5.02177 33.7519C4.78476 33.5149 4.66626 33.212 4.66626 32.8433V18.5438H7.66836C7.6157 19.0178 7.54986 19.4655 7.47086 19.8869C7.39185 20.3082 7.35235 20.7822 7.35235 21.3089C7.35235 24.153 8.35306 26.5758 10.3545 28.5772C12.3559 30.5786 14.7786 31.5793 17.6227 31.5793C20.4668 31.5793 22.8896 30.5786 24.891 28.5772C26.8924 26.5758 27.8931 24.153 27.8931 21.3089C27.8931 20.8876 27.8668 20.4531 27.8141 20.0054C27.7614 19.5577 27.7087 19.0705 27.6561 18.5438H30.5002V32.8433ZM30.5002 13.4086C30.5002 13.7773 30.3685 14.0933 30.1052 14.3567C29.8418 14.62 29.5258 14.7517 29.1571 14.7517H25.365C24.9963 14.7517 24.6803 14.62 24.417 14.3567C24.1536 14.0933 24.0219 13.7773 24.0219 13.4086V9.61651C24.0219 9.24783 24.1536 8.93181 24.417 8.66847C24.6803 8.40513 24.9963 8.27346 25.365 8.27346H29.1571C29.5258 8.27346 29.8418 8.40513 30.1052 8.66847C30.3685 8.93181 30.5002 9.24783 30.5002 9.61651V13.4086Z" fill="#0CB9DE"/>
  </g>
  <defs>
    <clipPath id="clip0_627_30048">
      <rect width="40.4494" height="40.4494" fill="white" transform="matrix(1 0 0 -1 0.953125 40.6641)"/>
    </clipPath>
  </defs>
</svg>