<svg xmlns="http://www.w3.org/2000/svg" width="50" height="51" viewBox="0 0 50 51" fill="none">
  <path fill-rule="evenodd" clip-rule="evenodd" d="M3.46069 25.484C3.46069 13.5537 13.1342 3.88023 25.0645 3.88023C36.9948 3.88023 46.6682 13.5537 46.6682 25.484C46.6682 37.4143 36.9948 47.0878 25.0645 47.0878C13.1342 47.0878 3.46069 37.4143 3.46069 25.484ZM25.0644 14.6205C22.1134 14.6205 21.7441 14.6323 20.5856 14.6857H20.5846C19.4291 14.739 18.639 14.9227 17.9477 15.1903C17.2233 15.4633 16.5671 15.891 16.0249 16.4436C15.4719 16.9861 15.0439 17.6426 14.7706 18.3674C14.503 19.0588 14.3183 19.8488 14.2659 21.0063C14.2136 22.1638 14.2008 22.5331 14.2008 25.4841C14.2008 28.434 14.2126 28.8034 14.2659 29.9638C14.3193 31.1193 14.503 31.9094 14.7706 32.6007C15.0435 33.3255 15.4712 33.9821 16.0239 34.5246C16.5669 35.0769 17.2237 35.5042 17.9487 35.7769C18.64 36.0455 19.4301 36.2302 20.5856 36.2825C21.7441 36.3349 22.1134 36.3477 25.0644 36.3477C28.0153 36.3477 28.3847 36.3358 29.5441 36.2825C30.6996 36.2292 31.4897 36.0455 32.181 35.7769C32.9049 35.5043 33.5617 35.0776 34.1049 34.5246C34.6572 33.9816 35.0846 33.3247 35.3571 32.5997C35.6258 31.9084 35.8105 31.1183 35.8628 29.9629C35.9151 28.8044 35.928 28.435 35.928 25.4841C35.928 22.5341 35.9161 22.1648 35.8628 21.0043C35.8095 19.8488 35.6258 19.0588 35.3571 18.3674C35.0846 17.6425 34.6579 16.9868 34.1049 16.4446C33.5617 15.8915 32.9049 15.4639 32.181 15.1903C31.4897 14.9227 30.6996 14.738 29.5422 14.6857C28.3847 14.6333 28.0153 14.6205 25.0644 14.6205ZM25.0644 16.5779C27.965 16.5779 28.3086 16.5888 29.4543 16.6411C30.514 16.6895 31.0887 16.8663 31.4719 17.0154C31.9437 17.1894 32.3706 17.4668 32.7212 17.8272C33.1015 18.2074 33.3355 18.5699 33.533 19.0765C33.6822 19.4597 33.859 20.0345 33.9073 21.0942C33.9597 22.2398 33.9706 22.5835 33.9706 25.4841C33.9706 28.3847 33.9597 28.7284 33.9073 29.874C33.859 30.9337 33.6822 31.5084 33.533 31.8916C33.3592 32.3627 33.0817 32.7904 32.7212 33.141C32.341 33.5212 31.9786 33.7552 31.4719 33.9528C31.0887 34.1019 30.514 34.2787 29.4543 34.3271C28.3086 34.3794 27.9659 34.3903 25.0644 34.3903C22.1628 34.3903 21.8201 34.3794 20.6745 34.3271C19.6148 34.2787 19.04 34.1019 18.6568 33.9528C18.1857 33.7789 17.7581 33.5014 17.4075 33.141C17.047 32.7904 16.7695 32.3627 16.5957 31.8916C16.4466 31.5084 16.2698 30.9337 16.2214 29.874C16.1691 28.7284 16.1582 28.3847 16.1582 25.4841C16.1582 22.5835 16.1691 22.2398 16.2214 21.0942C16.2698 20.0345 16.4466 19.4597 16.5957 19.0765C16.7697 18.6047 17.0471 18.1779 17.4075 17.8272C17.7877 17.447 18.1502 17.2129 18.6568 17.0154C19.04 16.8663 19.6148 16.6895 20.6745 16.6411C21.8201 16.5888 22.1638 16.5779 25.0644 16.5779ZM26.1181 28.9562C25.3146 29.1992 24.4517 29.1556 23.6768 28.833C23.1818 28.6278 22.7385 28.3154 22.3788 27.9182C22.0191 27.5211 21.7519 27.0492 21.5965 26.5364C21.441 26.0236 21.4012 25.4827 21.4799 24.9527C21.5586 24.4227 21.7538 23.9167 22.0515 23.4712C22.3492 23.0257 22.742 22.6517 23.2016 22.3762C23.6611 22.1007 24.1761 21.9306 24.7093 21.878C25.2426 21.8254 25.7808 21.8917 26.2854 22.0721C26.7899 22.2525 27.2482 22.5425 27.6272 22.9213C28.2217 23.5138 28.5921 24.2944 28.6751 25.1296C28.7581 25.9649 28.5485 26.8031 28.0821 27.501C27.6157 28.1989 26.9215 28.7133 26.1181 28.9562ZM22.9275 20.3252C22.25 20.6058 21.6345 21.0171 21.1159 21.5357C20.0688 22.5828 19.4805 24.0031 19.4805 25.4841C19.4805 26.965 20.0688 28.3853 21.1159 29.4325C22.1631 30.4797 23.5834 31.068 25.0644 31.068C26.5453 31.068 27.9656 30.4797 29.0128 29.4325C29.5313 28.914 29.9426 28.2984 30.2232 27.621C30.5039 26.9435 30.6483 26.2174 30.6483 25.4841C30.6483 24.7508 30.5039 24.0247 30.2232 23.3472C29.9426 22.6697 29.5313 22.0542 29.0128 21.5357C28.4943 21.0171 27.8787 20.6058 27.2012 20.3252C26.5238 20.0446 25.7977 19.9002 25.0644 19.9002C24.3311 19.9002 23.605 20.0446 22.9275 20.3252ZM32.1892 20.3031C32.1181 20.4648 32.0152 20.6105 31.8867 20.7317C31.6368 20.9675 31.3049 21.0965 30.9614 21.0915C30.6179 21.0865 30.2899 20.9478 30.047 20.7049C29.8041 20.462 29.6654 20.134 29.6604 19.7905C29.6554 19.447 29.7844 19.1151 30.0202 18.8652C30.1414 18.7367 30.2871 18.6338 30.4488 18.5627C30.6105 18.4915 30.7848 18.4535 30.9614 18.451C31.138 18.4484 31.3134 18.4813 31.4771 18.5477C31.6407 18.6141 31.7894 18.7127 31.9143 18.8376C32.0392 18.9625 32.1378 19.1112 32.2042 19.2748C32.2706 19.4385 32.3035 19.6139 32.3009 19.7905C32.2984 19.9671 32.2604 20.1414 32.1892 20.3031Z" fill="#FA8B02"/>
</svg>