<svg xmlns="http://www.w3.org/2000/svg" width="43" height="45" viewBox="0 0 43 45" fill="none">
  <path d="M25.7437 22.7396C25.7437 25.0771 23.9215 26.972 21.6736 26.972C19.4257 26.972 17.6035 25.0771 17.6035 22.7396C17.6035 20.4021 19.4257 18.5072 21.6736 18.5072C23.9215 18.5072 25.7437 20.4021 25.7437 22.7396Z" fill="#0CB9DE"/>
  <path d="M31.1921 15.251C30.9965 14.6997 30.6843 14.2007 30.2787 13.7911C29.8848 13.3693 29.4053 13.0448 28.8748 12.8413C28.4445 12.6675 27.7982 12.4607 26.6077 12.4044C25.3199 12.3433 24.9338 12.3301 21.6735 12.3301C18.413 12.3301 18.0269 12.343 16.7394 12.404C15.5489 12.4607 14.9022 12.6675 14.4723 12.8413C13.9418 13.0448 13.4619 13.3693 13.0684 13.7911C12.6628 14.2007 12.3506 14.6994 12.1547 15.251C11.9876 15.6984 11.7887 16.3709 11.7345 17.6088C11.6757 18.9476 11.6631 19.3491 11.6631 22.7397C11.6631 26.1299 11.6757 26.5314 11.7345 27.8706C11.7887 29.1085 11.9876 29.7806 12.1547 30.228C12.3506 30.7797 12.6624 31.2784 13.068 31.688C13.4619 32.1097 13.9415 32.4343 14.472 32.6378C14.9022 32.8119 15.5489 33.0187 16.7394 33.075C18.0269 33.1361 18.4126 33.1489 21.6732 33.1489C24.9341 33.1489 25.3202 33.1361 26.6074 33.075C27.7979 33.0187 28.4445 32.8119 28.8748 32.6378C29.9397 32.2106 30.7813 31.3354 31.1921 30.228C31.3592 29.7806 31.5581 29.1085 31.6126 27.8706C31.6713 26.5314 31.6837 26.1299 31.6837 22.7397C31.6837 19.3491 31.6713 18.9476 31.6126 17.6088C31.5584 16.3709 31.3595 15.6984 31.1921 15.251ZM21.6735 29.2594C18.2105 29.2594 15.4032 26.3405 15.4032 22.7394C15.4032 19.1383 18.2105 16.2194 21.6735 16.2194C25.1363 16.2194 27.9435 19.1383 27.9435 22.7394C27.9435 26.3405 25.1363 29.2594 21.6735 29.2594ZM28.1914 17.4853C27.3822 17.4853 26.7261 16.8031 26.7261 15.9616C26.7261 15.1201 27.3822 14.4379 28.1914 14.4379C29.0007 14.4379 29.6567 15.1201 29.6567 15.9616C29.6564 16.8031 29.0007 17.4853 28.1914 17.4853Z" fill="#0CB9DE"/>
  <path d="M21.6734 0.627319C9.93131 0.627319 0.40918 10.5291 0.40918 22.7394C0.40918 34.9497 9.93131 44.8515 21.6734 44.8515C33.4156 44.8515 42.9377 34.9497 42.9377 22.7394C42.9377 10.5291 33.4156 0.627319 21.6734 0.627319ZM33.8101 27.9742C33.7511 29.3258 33.5444 30.2486 33.2426 31.0564C32.6083 32.762 31.3117 34.1102 29.6716 34.7698C28.8951 35.0836 28.0074 35.2982 26.7079 35.36C25.4058 35.4217 24.9898 35.4366 21.6738 35.4366C18.3574 35.4366 17.9418 35.4217 16.6393 35.36C15.3399 35.2982 14.4521 35.0836 13.6757 34.7698C12.8606 34.451 12.1228 33.9513 11.5128 33.3052C10.8917 32.6712 10.4112 31.9036 10.1046 31.0564C9.80282 30.249 9.59614 29.3258 9.53708 27.9745C9.47706 26.6202 9.46311 26.1876 9.46311 22.7394C9.46311 19.2911 9.47706 18.8586 9.53676 17.5046C9.59581 16.1529 9.80217 15.2301 10.1039 14.4224C10.4105 13.5752 10.8914 12.8076 11.5128 12.1736C12.1224 11.5275 12.8606 11.0278 13.6753 10.7089C14.4521 10.3951 15.3395 10.1806 16.6393 10.1188C17.9414 10.0571 18.3574 10.0422 21.6734 10.0422C24.9895 10.0422 25.4055 10.0571 26.7076 10.1192C28.0074 10.1806 28.8948 10.3951 29.6716 10.7086C30.4863 11.0274 31.2245 11.5275 31.8345 12.1736C32.4555 12.8079 32.9363 13.5752 33.2426 14.4224C33.5447 15.2301 33.7511 16.1529 33.8105 17.5046C33.8698 18.8586 33.8838 19.2911 33.8838 22.7394C33.8838 26.1876 33.8698 26.6202 33.8101 27.9742Z" fill="#0CB9DE"/>
</svg>