<svg xmlns="http://www.w3.org/2000/svg" width="571" height="367" viewBox="0 0 571 367" fill="none">
  <path d="M4.83642 94.6497L1.66653 296.087C1.47261 308.411 11.31 318.708 23.6329 319.081L100.176 321.394C101.55 321.436 102.536 322.761 102.175 324.081L93.7251 355.031C91.9105 361.678 99.2503 367.206 105.09 363.592L170.044 323.389C172.262 322.016 174.824 321.286 177.449 321.279L551.434 320.292C560.12 320.269 567.092 313.313 567.139 304.625L568.666 18.8642C568.67 18.1188 568.588 17.3741 568.42 16.645L568.157 15.4995C566.564 8.5546 560.954 3.19343 553.951 1.92209V1.92209V1.92209C546.823 1.03402 539.684 3.07282 534.168 7.57178L532.901 8.6048" stroke="black" stroke-width="2.94625" stroke-linecap="round"/>
</svg>