<svg xmlns="http://www.w3.org/2000/svg" width="104" height="102" viewBox="0 0 104 102" fill="none">
  <g clip-path="url(#clip0_627_31007)">
    <path d="M34.1217 43.8436C43.9415 34.6864 53.2115 39.3769 58.6238 34.3298L69.0942 45.5579C63.682 50.6049 67.7143 60.1796 57.8944 69.3367C50.3 76.4186 38.8219 76.4528 32.2572 69.413C25.6925 62.3732 26.5273 50.9255 34.1217 43.8436Z" fill="#F5DF5D"/>
    <path d="M44.512 65.8613C44.2522 65.5827 44.1555 65.1662 44.2953 64.7567L44.9557 62.8214L42.9791 63.3453C42.5757 63.4521 42.1617 63.3406 41.893 63.0526C41.6244 62.7645 41.5422 62.3437 41.6769 61.9488L42.3374 60.0136L40.3609 60.5376C39.9575 60.6444 39.5436 60.5331 39.2749 60.245C39.0064 59.957 38.924 59.5362 39.0588 59.1412L39.7192 57.206L37.7427 57.7299C37.119 57.8951 36.5168 57.5348 36.3973 56.9255C36.2779 56.316 36.6866 55.6877 37.3102 55.5225L41.2427 54.4802C41.6461 54.3733 42.0601 54.4847 42.3287 54.7728C42.5972 55.0608 42.6796 55.4816 42.5448 55.8765L41.8844 57.8118L43.8609 57.2878C44.2643 57.181 44.6783 57.2924 44.9469 57.5805C45.2155 57.8685 45.2978 58.2893 45.163 58.6842L44.5025 60.6194L46.4791 60.0955C46.8825 59.9887 47.2965 60.1001 47.5651 60.3881C47.8337 60.6762 47.916 61.0969 47.7813 61.492L46.4673 65.3422C46.2589 65.9527 45.6037 66.3167 45.004 66.155C44.8065 66.1018 44.6396 65.9981 44.512 65.8613Z" fill="white"/>
    <g opacity="0.15">
      <path d="M38.0609 52.5951C37.6457 52.1498 37.6985 51.4256 38.1789 50.9776C42.1406 47.2833 45.9139 45.6733 49.5629 44.1161C53.2391 42.5472 57.0405 40.9252 61.1782 37.0667C61.6586 36.6188 62.3847 36.6166 62.7999 37.0619C63.2152 37.5072 63.1624 38.2314 62.682 38.6794C58.2171 42.843 54.2081 44.5538 50.3313 46.2079C46.7241 47.7471 43.317 49.2011 39.6827 52.5903C39.2023 53.0382 38.4762 53.0404 38.0609 52.5951Z" fill="black"/>
      <path d="M49.4391 64.796C49.0238 64.3507 49.0766 63.6266 49.557 63.1786C53.1912 59.7897 54.8794 56.4922 56.6666 53.001C58.5875 49.2491 60.5735 45.3692 65.0384 41.2057C65.5188 40.7577 66.2448 40.7555 66.6601 41.2008C67.0753 41.6461 67.0225 42.3703 66.5421 42.8183C62.4047 46.6765 60.5213 50.3554 58.6998 53.9136C56.8918 57.4451 55.0224 61.0969 51.0608 64.7912C50.5803 65.2391 49.8542 65.2412 49.4391 64.796Z" fill="black"/>
    </g>
    <path opacity="0.1" d="M36.2873 44.6874C43.7891 37.6919 51.3788 40.2083 57.6616 37.0103L67.5096 47.571C67.9282 46.8401 68.4422 46.1657 69.0941 45.5578L58.6238 34.3298C53.2116 39.3768 43.9415 34.6864 34.1217 43.8436C26.5273 50.9255 25.6925 62.3732 32.2572 69.413C34.1621 71.4557 36.481 72.9015 38.9986 73.7536C37.369 72.912 35.7312 71.6604 34.4227 70.2572C27.8583 63.2172 28.6929 51.7693 36.2873 44.6874Z" fill="black"/>
    <path opacity="0.3" d="M64.4523 58.705C64.4197 58.669 64.3894 58.6318 64.3561 58.5961C60.9892 54.9856 55.1023 55.003 51.2072 58.6352C47.3121 62.2674 46.884 68.1388 50.2509 71.7494C50.7748 72.3112 51.3598 72.7849 51.9886 73.1711C54.0968 72.2854 56.1044 71.0073 57.8958 69.3367C61.7334 65.7583 63.4555 62.116 64.4523 58.705Z" fill="white"/>
    <path opacity="0.3" d="M40.3319 70.2047C41.2926 71.2349 42.9725 71.2299 44.0839 70.1935C45.1953 69.1571 45.3175 67.4817 44.3568 66.4514C43.396 65.4211 41.7162 65.4261 40.6047 66.4626C39.4933 67.499 39.3711 69.1744 40.3319 70.2047Z" fill="white"/>
    <path d="M74.3475 30.1617C75.5677 31.4702 77.7012 31.4638 79.1128 30.1475C80.5245 28.8311 80.6796 26.7032 79.4594 25.3947C78.2392 24.0862 76.1057 24.0925 74.694 25.4089C73.2824 26.7252 73.1272 28.8531 74.3475 30.1617Z" fill="#7E858B"/>
    <path opacity="0.1" d="M80.1485 26.6101C79.5747 26.6315 78.9916 26.8587 78.523 27.2957C77.5409 28.2115 77.4329 29.6918 78.2818 30.6022C78.3101 30.6324 78.3405 30.6589 78.3703 30.6872C78.6315 30.5423 78.8809 30.3632 79.1108 30.1487C80.1392 29.1898 80.4999 27.8001 80.1485 26.6101Z" fill="white"/>
    <path d="M64.8253 39.0391C67.7636 42.19 72.901 42.1747 76.3001 39.005C79.6992 35.8353 80.0728 30.7114 77.1346 27.5606C74.1963 24.4097 69.0589 24.425 65.6598 27.5947C62.2607 30.7644 61.8871 35.8883 64.8253 39.0391Z" fill="#394049"/>
    <path opacity="0.1" d="M78.5684 29.809C77.3967 29.9772 76.2405 30.5074 75.2837 31.3997C72.9352 33.5897 72.6771 37.1298 74.7071 39.3067C74.8861 39.4987 75.0774 39.6727 75.2783 39.8307C75.6338 39.5841 75.9769 39.3092 76.3038 39.0044C78.9774 36.5112 79.7779 32.8092 78.5684 29.809Z" fill="white"/>
    <path d="M76.988 39.7395L64.978 26.8604C64.3408 26.177 63.2266 26.1803 62.4894 26.8678L58.0352 31.0214C57.2979 31.7089 57.2169 32.8201 57.8542 33.5035L69.8641 46.3826C70.5014 47.066 71.6155 47.0627 72.3528 46.3752L76.807 42.2215C77.5442 41.5341 77.6253 40.4229 76.988 39.7395Z" fill="#7E858B"/>
    <path opacity="0.1" d="M71.254 46.3793L59.244 33.5002C58.6067 32.8168 58.6878 31.7056 59.425 31.0181L63.8792 26.8645C64.0539 26.7016 64.2501 26.5786 64.4555 26.4925C63.8333 26.2192 63.0517 26.344 62.4892 26.8686L58.0349 31.0222C57.2977 31.7097 57.2167 32.8209 57.8539 33.5043L69.8639 46.3834C70.3502 46.9049 71.1139 47.0253 71.7762 46.748C71.5833 46.6631 71.4049 46.5412 71.254 46.3793Z" fill="black"/>
    <path opacity="0.2" d="M75.45 43.4862L61.1328 28.1328L59.3933 29.755L73.7105 45.1083L75.45 43.4862Z" fill="black"/>
    <path opacity="0.1" d="M76.9874 39.7395L73.9742 36.5083C73.7624 36.6551 73.5581 36.8188 73.3633 37.0004C71.3393 38.8878 71.1166 41.9392 72.8664 43.8156C73.23 44.2055 73.6507 44.5126 74.1064 44.7398L76.8066 42.2218C77.5437 41.5341 77.6247 40.4229 76.9874 39.7395Z" fill="white"/>
    <path d="M31.3042 41.9893L27.481 37.8895C27.0657 37.4442 27.1185 36.72 27.5989 36.2721C28.0793 35.8241 28.8054 35.8219 29.2206 36.2672L33.0438 40.3671C33.4591 40.8124 33.4063 41.5365 32.9259 41.9845C32.4454 42.4324 31.7194 42.4347 31.3042 41.9893Z" fill="#E45D4C"/>
    <path d="M18.0587 57.2139C17.8663 57.0075 17.7588 56.7221 17.7819 56.4062C17.828 55.7746 18.3788 55.2609 19.0118 55.2592L24.8427 55.2419C25.476 55.24 25.952 55.7505 25.9059 56.3821C25.8599 57.0137 25.3092 57.5272 24.676 57.529L18.8452 57.5464C18.5284 57.5474 18.2511 57.4201 18.0587 57.2139Z" fill="#E45D4C"/>
    <path d="M24.6655 76.4905C24.2503 76.0451 24.3031 75.321 24.7835 74.873L29.2063 70.7486C29.6867 70.3007 30.4128 70.2985 30.8281 70.7438C31.2433 71.1891 31.1905 71.9133 30.7101 72.3612L26.2872 76.4856C25.8068 76.9336 25.0808 76.9358 24.6655 76.4905Z" fill="#E45D4C"/>
    <path d="M43.436 84.4274C43.2435 84.221 43.136 83.9356 43.1591 83.6197L43.5832 77.8042C43.6292 77.1726 44.1799 76.6591 44.8131 76.6573C45.4464 76.6554 45.9225 77.166 45.8763 77.7974L45.4522 83.6128C45.4062 84.2444 44.8555 84.758 44.2223 84.7598C43.9056 84.7609 43.6284 84.6337 43.436 84.4274Z" fill="#E45D4C"/>
    <path d="M63.3686 76.3761L59.5454 72.2762C59.1302 71.8309 59.183 71.1068 59.6634 70.6588C60.1438 70.2108 60.8698 70.2086 61.2851 70.654L65.1083 74.7538C65.5235 75.1991 65.4707 75.9233 64.9903 76.3712C64.5098 76.8191 63.7838 76.8213 63.3686 76.3761Z" fill="#E45D4C"/>
  </g>
  <defs>
    <clipPath id="clip0_627_31007">
      <rect width="69.4474" height="74.9191" fill="white" transform="translate(55.7773) rotate(47)"/>
    </clipPath>
  </defs>
</svg>