<svg xmlns="http://www.w3.org/2000/svg" width="27" height="23" viewBox="0 0 27 23" fill="none">
  <path d="M26.5495 17.7417L21.4512 12.8183C21.2917 12.6644 21.0821 12.579 20.8645 12.5793H19.9387V9.84057C20.0307 9.87532 20.1278 9.89334 20.2258 9.89382H20.2843C20.5155 9.87766 20.7305 9.76458 20.88 9.58053L21.4499 8.88812C21.758 8.51025 21.7222 7.94634 21.369 7.61388L19.9387 6.28189V3.18017C19.9387 2.68577 19.5533 2.28499 19.0778 2.28499H17.7866C17.3111 2.28499 16.9257 2.68577 16.9257 3.18017V3.47782L14.4848 1.2059C14.1591 0.903046 13.6665 0.903046 13.3408 1.2059L6.45667 7.6112C6.10349 7.94352 6.06769 8.5073 6.37575 8.885L6.94562 9.58053C7.09545 9.76493 7.31095 9.87801 7.54259 9.89382C7.65947 9.90131 7.7766 9.88409 7.88692 9.84325V12.5793H7.02611C6.80972 12.5788 6.60117 12.6635 6.44248 12.8165L1.2774 17.7399C1.11655 17.898 1.0214 18.1151 1.01225 18.3451C1.00708 18.3624 1.00306 18.38 1.00022 18.3979V21.0834C0.994967 21.3224 1.08401 21.5533 1.2466 21.7223C1.40919 21.8914 1.63121 21.9839 1.86107 21.9785H25.9646C26.1944 21.984 26.4165 21.8914 26.579 21.7223C26.7416 21.5533 26.8306 21.3224 26.8254 21.0834V18.3979C26.823 18.3784 26.8193 18.3591 26.8142 18.3401C26.8035 18.1126 26.7087 17.8982 26.5495 17.7417ZM15.2041 15.7124H12.6215V12.1317C12.6215 11.8846 12.8143 11.6842 13.0519 11.6842H14.7736C15.0113 11.6842 15.204 11.8846 15.204 12.1317V15.7124H15.2041ZM14.7737 10.789H13.052C12.3389 10.789 11.7607 11.3902 11.7607 12.1317V15.7124H9.17822C8.94052 15.7124 8.74781 15.512 8.74781 15.2648V9.12891L13.9128 4.3219L19.0779 9.12891V15.2648C19.0779 15.512 18.8852 15.7124 18.6475 15.7124H16.065V12.1317C16.0649 11.3902 15.4868 10.789 14.7737 10.789ZM17.7866 3.18012H19.0778V5.48068L17.7866 4.27891V3.18012ZM7.03085 8.28255L13.9128 1.8732L20.7995 8.30536L20.2301 8.99865L14.1999 3.38778C14.0365 3.23563 13.7891 3.23563 13.6257 3.38778L7.59982 8.99865L7.03085 8.28255ZM7.02611 13.4745H7.88696V15.2648C7.88696 16.0064 8.46508 16.6075 9.17822 16.6075H18.6474C19.3606 16.6075 19.9387 16.0064 19.9387 15.2648V13.4745H20.8645L25.9646 18.3979H1.86107L7.02611 13.4745ZM1.86107 21.0834V19.2931H25.9646V21.0834H1.86107Z" fill="#121212" stroke="#121212" stroke-width="0.15"/>
</svg>