<svg width="40" height="38" viewBox="0 0 40 38" fill="none" xmlns="http://www.w3.org/2000/svg">
<path d="M20 28.0322L21.7875 26.4595L14.8125 20.129H30V17.8709H14.8125L21.7875 11.5788L20 9.96771L10 19L20 28.0322Z" fill="#39B6CC"/>
<path d="M20 3.19373C23.4612 3.19373 26.8446 4.12076 29.7225 5.8576C32.6003 7.59443 34.8434 10.0631 36.1679 12.9513C37.4924 15.8396 37.839 19.0177 37.1637 22.0839C36.4885 25.15 34.8218 27.9665 32.3744 30.177C29.9269 32.3876 26.8087 33.893 23.4141 34.5029C20.0194 35.1128 16.5007 34.7998 13.303 33.6034C10.1053 32.4071 7.3722 30.3811 5.44927 27.7818C3.52635 25.1824 2.49999 22.1264 2.49999 19.0002C2.50529 14.8095 4.35073 10.7919 7.63147 7.82861C10.9122 4.86537 15.3603 3.19851 20 3.19373ZM20 32.5486C22.9667 32.5486 25.8668 31.754 28.3335 30.2653C30.8003 28.7765 32.7229 26.6606 33.8582 24.1849C34.9935 21.7093 35.2905 18.9852 34.7118 16.357C34.133 13.7289 32.7044 11.3148 30.6066 9.42003C28.5088 7.52525 25.8361 6.23489 22.9263 5.71212C20.0166 5.18936 17.0006 5.45766 14.2597 6.48311C11.5188 7.50855 9.17617 9.24508 7.52795 11.4731C5.87973 13.7011 4.99999 16.3206 4.99999 19.0002C5.00462 22.5922 6.58646 26.0358 9.39851 28.5757C12.2105 31.1156 16.0232 32.5444 20 32.5486Z" fill="#39B6CC"/>
</svg>
