<svg xmlns="http://www.w3.org/2000/svg" width="42" height="41" viewBox="0 0 42 41" fill="none">
  <g clip-path="url(#clip0_627_30050)">
    <path d="M8.41308 8.03603C8.41308 9.14207 8.03123 10.0769 7.26753 10.8406C6.50384 11.6043 5.56897 11.9862 4.46293 11.9862C3.40956 11.9862 2.50103 11.6043 1.73734 10.8406C0.973644 10.0769 0.591797 9.14207 0.591797 8.03603C0.591797 6.98266 0.973644 6.06096 1.73734 5.27094C2.50103 4.48091 3.40956 4.08589 4.46293 4.08589C5.56897 4.08589 6.50384 4.48091 7.26753 5.27094C8.03123 6.06096 8.41308 6.98266 8.41308 8.03603ZM1.22382 14.8303H7.78105V36.082H1.22382V14.8303ZM24.6877 14.1983C23.1076 14.1983 21.7777 14.5538 20.698 15.2648C19.6183 15.9758 18.8941 16.779 18.5254 17.6744V14.6723H11.8892V35.924H18.5254V25.4167C18.5254 24.0473 18.7493 22.8096 19.197 21.7035C19.6446 20.5975 20.7375 20.0445 22.4756 20.0445C24.2136 20.0445 25.2275 20.6765 25.5172 21.9405C25.8069 23.2046 25.9517 24.4686 25.9517 25.7327V36.082H32.5089V24.4686C32.5089 21.6245 32.0217 19.2018 31.0474 17.2004C30.073 15.199 27.9531 14.1983 24.6877 14.1983Z" fill="#0CB9DE"/>
  </g>
  <defs>
    <clipPath id="clip0_627_30050">
      <rect width="40.4494" height="40.4494" fill="white" transform="matrix(1 0 0 -1 0.591797 40.6641)"/>
    </clipPath>
  </defs>
</svg>