<svg xmlns="http://www.w3.org/2000/svg" width="43" height="45" viewBox="0 0 43 45" fill="none">
  <path d="M21.4589 0.627319C9.62978 0.627319 0.0371094 10.5291 0.0371094 22.7394C0.0371094 34.9497 9.62978 44.8515 21.4589 44.8515C33.288 44.8515 42.8807 34.9497 42.8807 22.7394C42.8807 10.5291 33.288 0.627319 21.4589 0.627319ZM15.234 34.0545H10.0168V17.8528H15.234V34.0545ZM12.6255 15.6404H12.5915C10.8408 15.6404 9.70855 14.3964 9.70855 12.8417C9.70855 11.2518 10.8755 10.0422 12.6602 10.0422C14.4449 10.0422 15.5432 11.2518 15.5772 12.8417C15.5772 14.3964 14.4449 15.6404 12.6255 15.6404ZM34.046 34.0545H28.8295V25.387C28.8295 23.2087 28.0741 21.7231 26.1864 21.7231C24.7452 21.7231 23.8869 22.7252 23.5097 23.6926C23.3717 24.0387 23.3381 24.5226 23.3381 25.0067V34.0545H18.1212C18.1212 34.0545 18.1895 19.3728 18.1212 17.8528H23.3381V20.1468C24.0314 19.0428 25.2718 17.4725 28.0398 17.4725C31.4722 17.4725 34.046 19.7881 34.046 24.7645V34.0545Z" fill="#0CB9DE"/>
</svg>