<svg xmlns="http://www.w3.org/2000/svg" width="24" height="25" viewBox="0 0 24 25" fill="none">
  <path d="M12.1182 23.6575C10.5939 22.3573 9.18104 20.9319 7.89432 19.3961C5.96339 17.0899 3.67041 13.6552 3.67041 10.3823C3.66957 8.7108 4.16462 7.07661 5.0929 5.68656C6.02117 4.29651 7.34096 3.21308 8.88522 2.57338C10.4295 1.93369 12.1288 1.76649 13.7681 2.09294C15.4074 2.41939 16.9131 3.22481 18.0945 4.40729C18.881 5.19035 19.5045 6.12164 19.9287 7.14725C20.353 8.17286 20.5696 9.27243 20.5661 10.3823C20.5661 13.6552 18.2731 17.0899 16.3422 19.3961C15.0554 20.9318 13.6425 22.3573 12.1182 23.6575ZM12.1182 6.76182C11.158 6.76182 10.2371 7.14326 9.55816 7.82224C8.87918 8.50121 8.49774 9.4221 8.49774 10.3823C8.49774 11.3425 8.87918 12.2634 9.55816 12.9424C10.2371 13.6214 11.158 14.0028 12.1182 14.0028C13.0785 14.0028 13.9993 13.6214 14.6783 12.9424C15.3573 12.2634 15.7387 11.3425 15.7387 10.3823C15.7387 9.4221 15.3573 8.50121 14.6783 7.82224C13.9993 7.14326 13.0785 6.76182 12.1182 6.76182Z" fill="#FA8B02"/>
</svg>