<svg xmlns="http://www.w3.org/2000/svg" width="22" height="22" viewBox="0 0 22 22" fill="none">
  <path d="M19.6595 20.2696V13.0486H14.2966V9.40924H7.70319V11.6501H2.34029V20.2696H0.5V21.5H21.4996V20.2696H19.6595ZM7.70319 20.2695H3.57074V12.8806H7.70319V20.2695ZM13.0661 20.2695H8.93363V10.6397H13.0661L13.0661 20.2695ZM18.429 20.2695H14.2966V14.2791H18.429V20.2695Z" fill="#0CB9DE"/>
  <path d="M8.57906 7.95001L10.9997 7.16474L13.4204 7.95001L13.4216 5.40517L14.9164 3.34569L12.4965 2.55816L10.9997 0.5L9.50288 2.55812L7.08301 3.34565L8.57783 5.40513L8.57906 7.95001ZM10.2633 3.60462L10.9997 2.592L11.7361 3.60462L12.9267 3.99208L12.1912 5.0054L12.1906 6.2575L10.9996 5.87114L9.80865 6.2575L9.80807 5.0054L9.07255 3.99208L10.2633 3.60462Z" fill="#0CB9DE"/>
</svg>