<svg xmlns="http://www.w3.org/2000/svg" width="23" height="24" viewBox="0 0 23 24" fill="none">
  <path d="M8.61004 20.5697C7.25862 20.7696 6.21511 21.1078 5.85159 21.4676C5.43676 21.8766 5.71047 22.301 6.60001 22.6362C7.77609 23.0729 9.49958 23.3066 11.5823 23.3066C14.6914 23.3066 17.1933 22.7377 17.4798 21.9689C17.6937 21.3815 16.4876 20.8311 14.3408 20.542C13.7206 20.4559 13.6736 20.4621 14.0842 20.5635C14.7214 20.7173 15.2346 20.9756 15.3714 21.2063C15.5724 21.5445 15.2688 21.8674 14.5161 22.1257C13.6308 22.424 12.3478 22.5624 11.005 22.504C10.0042 22.4609 9.30286 22.3471 8.64853 22.1257C7.28 21.6614 7.45962 20.9818 9.05909 20.5635C9.46537 20.459 9.36273 20.459 8.61004 20.5697Z" fill="#63CCD3"/>
  <path d="M10.4239 20.7236C9.32478 20.8896 9.02114 21.2433 9.74817 21.5077C9.85509 21.5477 10.1074 21.6123 10.3041 21.6523C10.6249 21.7138 10.7575 21.7199 11.5829 21.7199C12.4083 21.7199 12.5408 21.7138 12.8616 21.6523C13.8923 21.4493 14.1189 21.1295 13.4047 20.8773C13.1738 20.7943 12.4724 20.6651 12.2586 20.6621C12.2115 20.6621 12.0875 20.7881 11.8951 21.0311C11.7368 21.234 11.5957 21.397 11.5829 21.397C11.57 21.397 11.4289 21.234 11.2707 21.0311C10.9371 20.6129 10.997 20.6344 10.4239 20.7236Z" fill="#39B6CC"/>
  <path d="M21.6713 1.78672H16.6496V0.595574C16.6496 0.266668 16.3624 0 15.9688 0H7.41509C7.02144 0 6.67025 0.266668 6.67025 0.595574V1.78672H1.71261C1.31897 1.78672 0.967773 2.05339 0.967773 2.3823V4.76459C0.967773 5.0935 1.31897 5.36016 1.71261 5.36016H6.67025V7.74246C6.67025 8.07136 7.02144 8.33803 7.41509 8.33803H8.09587V8.93361C8.09587 9.59052 8.80867 10.1248 9.52148 10.1248H13.7983C14.5111 10.1248 15.224 9.59052 15.224 8.93361V8.33803H15.9688C16.3624 8.33803 16.6496 8.07136 16.6496 7.74246V5.36016H21.6713C22.0649 5.36016 22.352 5.0935 22.352 4.76459V2.3823C22.352 2.05339 22.0649 1.78672 21.6713 1.78672ZM2.39339 4.16902V2.97787H6.67025V4.16902H2.39339ZM15.224 7.14689H14.5432C14.1495 7.14689 13.7983 7.41355 13.7983 7.74246V8.93361H13.1176H10.2663H9.52148V7.74246C9.52148 7.41355 9.23435 7.14689 8.84071 7.14689H8.09587V1.19115H15.224V7.14689ZM20.9264 4.16902H16.6496V2.97787H20.9264V4.16902Z" fill="#62CCD3"/>
  <path d="M15.1955 10.9556C15.1387 10.6728 15.0054 10.4593 14.8411 10.3704L15.0248 9.71888C15.057 9.60456 15.0517 9.47108 15.011 9.36488C14.9702 9.25868 14.8992 9.19415 14.8233 9.19415H8.59102C8.5149 9.19415 8.44412 9.25831 8.40316 9.36488C8.36221 9.47108 8.35709 9.60456 8.38936 9.71888L8.74082 10.9667C8.60104 11.0452 8.48819 11.2086 8.4223 11.4273C8.35597 11.6474 8.34507 11.8974 8.39203 12.1305C8.46771 12.5077 8.68005 12.7614 8.92 12.7614C8.98009 12.7614 9.0393 12.7455 9.09606 12.7138L9.21447 12.6485L9.37006 13.2013C9.09472 13.3768 8.94804 13.8842 9.04219 14.3525C9.11832 14.7301 9.33044 14.9834 9.57038 14.9834C9.63048 14.9834 9.68969 14.9676 9.74644 14.9359L9.84371 14.882L10.0002 15.4374C9.73799 15.6243 9.6011 16.1181 9.6928 16.5749C9.7687 16.9522 9.98082 17.2055 10.2208 17.2055C10.2809 17.2055 10.3401 17.1896 10.3968 17.1579L10.473 17.1159L10.6303 17.6742C10.3812 17.8718 10.2537 18.3515 10.343 18.7966C10.4186 19.1738 10.631 19.4275 10.8709 19.4275C10.931 19.4275 10.9902 19.4117 11.047 19.38L11.1022 19.3494L11.5055 20.7808C11.5418 20.911 11.6206 20.994 11.7072 20.994C11.7938 20.994 11.8723 20.911 11.9088 20.7812L12.5347 18.5588L13.0415 18.2789C13.3325 18.1181 13.4905 17.5952 13.3934 17.1133C13.3434 16.864 13.2339 16.6686 13.0963 16.565L13.3959 15.5019L13.9423 15.1999C14.0835 15.1221 14.1976 14.958 14.2642 14.7375C14.3305 14.5173 14.3414 14.2673 14.2945 14.0343C14.2413 13.7684 14.1202 13.5638 13.969 13.4661L14.2568 12.445L14.8436 12.1212C15.1345 11.9605 15.2925 11.4376 15.1955 10.9556ZM12.7348 9.93238L8.96407 12.0147C8.95294 12.0209 8.94114 12.0239 8.92935 12.0239C8.8895 12.0239 8.84143 11.9848 8.82384 11.8978C8.81115 11.8347 8.82206 11.7824 8.82985 11.7569C8.83742 11.7315 8.85612 11.6858 8.89395 11.6647L12.0321 9.93164L12.7348 9.93238ZM14.6417 11.0718C14.6533 11.0655 14.6653 11.0622 14.6771 11.0622C14.7169 11.0622 14.7648 11.1013 14.7824 11.1883C14.8017 11.2849 14.7701 11.3893 14.712 11.4214L9.61445 14.2364C9.6031 14.243 9.59153 14.2459 9.57973 14.2459C9.53989 14.2459 9.49181 14.2069 9.47423 14.1198C9.45486 14.0232 9.48647 13.9189 9.54456 13.8868L14.6417 11.0718ZM13.7407 14.1504C13.7523 14.1442 13.7643 14.1409 13.7761 14.1409C13.8159 14.1409 13.8638 14.1796 13.8813 14.267C13.9007 14.3636 13.8693 14.4683 13.811 14.5004L10.2648 16.4588C10.2535 16.465 10.2417 16.4684 10.2299 16.4684C10.19 16.4684 10.1417 16.4293 10.1244 16.3423C10.115 16.2954 10.117 16.2453 10.1304 16.201C10.138 16.1756 10.1567 16.1299 10.1947 16.1088L13.7407 14.1504ZM10.9057 18.6808C10.8943 18.6871 10.8825 18.6904 10.8707 18.6904C10.8309 18.6904 10.7828 18.6513 10.7652 18.5643C10.7458 18.4677 10.7774 18.3633 10.8355 18.3313L12.8308 17.2298C12.8421 17.2236 12.8539 17.2202 12.8657 17.2202C12.9056 17.2202 12.9536 17.2593 12.971 17.3467C12.9904 17.4433 12.9587 17.5477 12.9007 17.5798L10.9057 18.6808ZM12.474 17.0377L11.1496 17.7689L10.8046 16.5495L12.9425 15.3688L12.474 17.0377ZM13.3349 13.986L10.5219 15.5395L10.1754 14.3156L13.8039 12.3119L13.3349 13.986ZM14.1927 10.9309L9.89402 13.3049L9.54634 12.0818L13.4397 9.93164H14.4736L14.1927 10.9309ZM11.3283 9.93164L9.26478 11.0711L8.94047 9.93164H11.3283ZM11.7072 19.7531L11.4325 18.7785L12.0827 18.4198L11.7072 19.7531Z" fill="#62CCD3"/>
  <path d="M8 0H16V7C16 7.55228 15.5523 8 15 8H9C8.44772 8 8 7.55228 8 7V0Z" fill="#63CCD3"/>
  <circle cx="12" cy="4" r="2.88013" fill="#E7F4F5"/>
  <circle cx="12" cy="4" r="2.88013" fill="white" fill-opacity="0.5"/>
  <circle cx="12" cy="4" r="2.88013" stroke="#62CCD3" stroke-width="0.239738"/>
</svg>