<svg width="43" height="31" viewBox="0 0 43 31" fill="none" xmlns="http://www.w3.org/2000/svg">
    <rect x="0.781494" y="0.666748" width="41.4713" height="29" rx="3.5" fill="white"
        stroke="#B2BCCA" />
    <path
        d="M24.3373 14.7989C24.3373 19.4283 20.63 23.1811 16.0568 23.1811C11.4837 23.1811 7.77643 19.4283 7.77643 14.7989C7.77643 10.1696 11.4837 6.41675 16.0568 6.41675C20.63 6.41675 24.3373 10.1696 24.3373 14.7989Z"
        fill="#ED0006" />
    <path
        d="M35.0795 14.7989C35.0795 19.4283 31.3722 23.1811 26.799 23.1811C22.2259 23.1811 18.5186 19.4283 18.5186 14.7989C18.5186 10.1696 22.2259 6.41675 26.799 6.41675C31.3722 6.41675 35.0795 10.1696 35.0795 14.7989Z"
        fill="#2F80ED" />
    <path fill-rule="evenodd" clip-rule="evenodd"
        d="M21.428 8.41919C23.2083 9.95664 24.3372 12.2443 24.3372 14.7989C24.3372 17.3536 23.2083 19.6413 21.428 21.1787C19.6476 19.6413 18.5187 17.3536 18.5187 14.7989C18.5187 12.2443 19.6476 9.95664 21.428 8.41919Z"
        fill="#6C6BBD" />
</svg>
    