<svg width="43" height="31" viewBox="0 0 43 31" fill="none" xmlns="http://www.w3.org/2000/svg">
    <rect x="0.921143" y="0.666748" width="41.4713" height="29" rx="3.5" fill="white"
        stroke="#B2BCCA" />
    <path fill-rule="evenodd" clip-rule="evenodd"
        d="M21.8804 21.2037C20.4013 22.4512 18.4827 23.2043 16.3862 23.2043C11.7083 23.2043 7.91608 19.4547 7.91608 14.8293C7.91608 10.204 11.7083 6.45435 16.3862 6.45435C18.4827 6.45435 20.4013 7.20747 21.8804 8.45502C23.3594 7.20747 25.278 6.45435 27.3745 6.45435C32.0524 6.45435 35.8447 10.204 35.8447 14.8293C35.8447 19.4547 32.0524 23.2043 27.3745 23.2043C25.278 23.2043 23.3594 22.4512 21.8804 21.2037Z"
        fill="#ED0006" />
    <path fill-rule="evenodd" clip-rule="evenodd"
        d="M21.8803 21.2037C23.7015 19.6676 24.8564 17.3818 24.8564 14.8293C24.8564 12.2769 23.7015 9.99109 21.8803 8.45496C23.3594 7.20744 25.2779 6.45435 27.3744 6.45435C32.0523 6.45435 35.8445 10.204 35.8445 14.8293C35.8445 19.4547 32.0523 23.2043 27.3744 23.2043C25.2779 23.2043 23.3594 22.4512 21.8803 21.2037Z"
        fill="#F9A000" />
    <path fill-rule="evenodd" clip-rule="evenodd"
        d="M21.8804 21.2037C23.7016 19.6676 24.8564 17.3818 24.8564 14.8294C24.8564 12.277 23.7016 9.99121 21.8804 8.45508C20.0592 9.99121 18.9044 12.277 18.9044 14.8294C18.9044 17.3818 20.0592 19.6676 21.8804 21.2037Z"
        fill="#FD6020" />
</svg>
    