<svg xmlns="http://www.w3.org/2000/svg" width="20" height="21" viewBox="0 0 20 21" fill="none">
  <path fill-rule="evenodd" clip-rule="evenodd" d="M10.0002 7.0804C9.11611 7.0804 8.26826 7.43159 7.64314 8.05671C7.01802 8.68184 6.66683 9.52968 6.66683 10.4137C6.66683 11.2978 7.01802 12.1456 7.64314 12.7708C8.26826 13.3959 9.11611 13.7471 10.0002 13.7471C10.8842 13.7471 11.7321 13.3959 12.3572 12.7708C12.9823 12.1456 13.3335 11.2978 13.3335 10.4137C13.3335 9.52968 12.9823 8.68184 12.3572 8.05671C11.7321 7.43159 10.8842 7.0804 10.0002 7.0804ZM8.82165 9.23522C9.13421 8.92266 9.55813 8.74707 10.0002 8.74707C10.4422 8.74707 10.8661 8.92266 11.1787 9.23522C11.4912 9.54778 11.6668 9.97171 11.6668 10.4137C11.6668 10.8558 11.4912 11.2797 11.1787 11.5922C10.8661 11.9048 10.4422 12.0804 10.0002 12.0804C9.55813 12.0804 9.13421 11.9048 8.82165 11.5922C8.50909 11.2797 8.3335 10.8558 8.3335 10.4137C8.3335 9.97171 8.50909 9.54778 8.82165 9.23522Z" fill="#5C5E64"/>
  <path fill-rule="evenodd" clip-rule="evenodd" d="M9.151 1.24707C8.77246 1.24707 8.44147 1.50221 8.34511 1.86828L7.92281 3.47261L6.58112 4.0382L5.55407 3.12447C5.22431 2.8311 4.723 2.84572 4.41091 3.15781L2.74424 4.82448C2.44232 5.1264 2.41745 5.60767 2.68663 5.93911L3.58674 7.04736L3.03478 8.4053L1.47737 8.76889C1.10026 8.85693 0.833496 9.19315 0.833496 9.5804V11.2471C0.833496 11.6228 1.08499 11.9521 1.44751 12.051L3.05724 12.4902L3.62436 13.8355L2.71154 14.8591C2.41753 15.1888 2.43188 15.6906 2.74424 16.003L4.41091 17.6697C4.71323 17.972 5.19531 17.9965 5.5267 17.7263L6.63457 16.8232L7.95912 17.3681L8.35886 18.9511C8.4523 19.3211 8.78517 19.5804 9.16683 19.5804H10.8335C11.215 19.5804 11.5478 19.3213 11.6414 18.9515L12.0421 17.3678L13.411 16.8008C13.5488 16.9163 13.7067 17.052 13.864 17.1889C14.0202 17.3249 14.1654 17.4531 14.2716 17.5474C14.3247 17.5945 14.3679 17.633 14.3978 17.6596L14.443 17.7001C14.7726 17.9958 15.2764 17.9827 15.5894 17.6697L17.2561 16.003C17.5628 15.6963 17.5829 15.2056 17.3024 14.8748L16.3947 13.8043L16.9564 12.4476L18.5431 12.0353C18.9104 11.9398 19.1668 11.6083 19.1668 11.2287V9.5804C19.1668 9.1993 18.9083 8.86676 18.539 8.7728L16.9621 8.37161L16.4018 7.01818L17.3033 5.95169C17.5829 5.62082 17.5624 5.13083 17.2561 4.82448L15.5894 3.15781C15.2818 2.85022 14.7894 2.83097 14.4587 3.11361L13.4001 4.01847L11.999 3.4424L11.5853 1.86854C11.489 1.50234 11.158 1.24707 10.7793 1.24707H9.151ZM15.5348 15.3673L14.9647 15.9374L14.9584 15.9319C14.6507 15.664 14.2542 15.3248 14.0306 15.165C13.7966 14.9977 13.4929 14.9629 13.2271 15.073L11.0179 15.988C10.7748 16.0887 10.5935 16.2983 10.529 16.5535L10.1848 17.9137H9.81589L9.4723 16.553C9.40766 16.2971 9.22553 16.0868 8.98135 15.9864L6.80969 15.0931C6.5269 14.9767 6.20313 15.0246 5.96612 15.2178L5.05711 15.9588L4.47926 15.381L5.21878 14.5517C5.43287 14.3116 5.48967 13.9698 5.36472 13.6734L4.43556 11.4692C4.33614 11.2334 4.13388 11.0563 3.88698 10.9889L2.50016 10.6106V10.2416L3.83378 9.93025C4.09724 9.86874 4.31445 9.68316 4.41632 9.43253L5.31632 7.21837C5.43079 6.93676 5.38284 6.61516 5.19119 6.3792L4.45409 5.47165L5.03356 4.89218L5.86625 5.633C6.10632 5.84658 6.44778 5.90311 6.74387 5.7783L8.94803 4.84913C9.18627 4.7487 9.3644 4.54339 9.43021 4.29336L9.79336 2.91374H10.1367L10.4925 4.26726C10.559 4.51991 10.74 4.7268 10.9816 4.82613L13.2374 5.75363C13.5266 5.87254 13.8581 5.81954 14.0958 5.61636L14.9558 4.88124L15.5357 5.46108L14.8012 6.32995C14.6 6.56805 14.5484 6.89858 14.6677 7.18664L15.5819 9.39497C15.6824 9.63784 15.8916 9.81903 16.1464 9.88384L17.5002 10.2283V10.5843L16.1356 10.9389C15.8826 11.0046 15.6752 11.1852 15.5752 11.4266L14.6602 13.6366C14.5408 13.9251 14.5926 14.2562 14.7946 14.4944L15.5348 15.3673Z" fill="#5C5E64"/>
</svg>