<svg xmlns="http://www.w3.org/2000/svg" width="20" height="21" viewBox="0 0 20 21" fill="none">
  <path fill-rule="evenodd" clip-rule="evenodd" d="M12.9998 2.08008C12.6462 2.08008 12.3071 2.22055 12.057 2.4706C11.807 2.72065 11.6665 3.05979 11.6665 3.41341V7.08008H7.99984C7.64622 7.08008 7.30708 7.22055 7.05703 7.4706C6.80698 7.72065 6.6665 8.05979 6.6665 8.41341V12.9134H2.99984C2.64622 12.9134 2.30708 13.0539 2.05703 13.3039C1.80698 13.554 1.6665 13.8931 1.6665 14.2467V17.4134C1.6665 17.767 1.80698 18.1062 2.05703 18.3562C2.30708 18.6063 2.64622 18.7467 2.99984 18.7467H16.9998C17.3535 18.7467 17.6926 18.6063 17.9426 18.3562C18.1927 18.1062 18.3332 17.767 18.3332 17.4134V3.41341C18.3332 3.05979 18.1927 2.72065 17.9426 2.4706C17.6926 2.22055 17.3535 2.08008 16.9998 2.08008H12.9998ZM8.33317 8.74674H11.6665V17.0801H8.33317V8.74674ZM16.6665 17.0801H13.3332V3.74674H16.6665V17.0801ZM6.6665 14.5801V17.0801H3.33317V14.5801H6.6665Z" fill="black"/>
</svg>