<svg xmlns="http://www.w3.org/2000/svg" width="20" height="21" viewBox="0 0 20 21" fill="none">
  <path fill-rule="evenodd" clip-rule="evenodd" d="M9.99843 1.24609C8.43357 1.24609 6.94449 1.90955 5.85467 3.07196C4.76732 4.2318 4.1651 5.79437 4.1651 7.41276C4.1651 10.4098 3.56384 12.2769 3.00648 13.3668C2.727 13.9133 2.45489 14.2718 2.26601 14.4844C2.17136 14.591 2.09701 14.6616 2.05225 14.7014C2.02986 14.7213 2.01483 14.7335 2.00833 14.7386L2.00587 14.7406C1.7173 14.952 1.59551 15.3246 1.70458 15.6662C1.81486 16.0116 2.13584 16.2461 2.49843 16.2461H17.4984C17.861 16.2461 18.182 16.0116 18.2923 15.6662C18.4014 15.3246 18.2796 14.952 17.991 14.7406L17.9885 14.7386C17.982 14.7335 17.967 14.7213 17.9446 14.7014C17.8999 14.6616 17.8255 14.591 17.7309 14.4844C17.542 14.2718 17.2699 13.9133 16.9904 13.3668C16.433 12.2769 15.8318 10.4098 15.8318 7.41276C15.8318 5.79437 15.2296 4.23182 14.1422 3.07198C13.0526 1.9108 11.5627 1.24609 9.99843 1.24609ZM2.00587 14.7406L2.00833 14.7386L2.00587 14.7406ZM2.00833 14.7386L2.00511 14.7412L2.00833 14.7386ZM15.5065 14.1256C15.5897 14.2883 15.6733 14.4394 15.7563 14.5794H4.24057C4.32352 14.4394 4.40716 14.2883 4.49038 14.1256C5.18303 12.7711 5.83177 10.6382 5.83177 7.41276C5.83177 6.20282 6.28289 5.05205 7.07053 4.21189C7.85737 3.37264 8.91163 2.91276 9.99843 2.91276C11.0841 2.91276 12.1392 3.37322 12.9263 4.21188L14.2165 8.93862C14.383 11.3288 14.9295 12.9973 15.5065 14.1256ZM14.2165 8.93862C14.1832 8.45963 14.1651 7.95117 14.1651 7.41276C14.1651 6.20294 13.7138 5.05202 12.9263 4.21188L14.2165 8.93862Z" fill="#5C5E64"/>
  <path d="M9.27796 17.4952C9.04737 17.0969 8.53755 16.961 8.13924 17.1916C7.74094 17.4222 7.60498 17.932 7.83557 18.3303C8.05512 18.7095 8.37051 19.0243 8.75013 19.2432C9.12975 19.4621 9.56024 19.5773 9.99843 19.5773C10.4366 19.5773 10.8671 19.4621 11.2467 19.2432C11.6264 19.0243 11.9417 18.7095 12.1613 18.3303C12.3919 17.932 12.2559 17.4222 11.8576 17.1916C11.4593 16.961 10.9495 17.0969 10.7189 17.4952C10.6458 17.6216 10.5407 17.7264 10.4143 17.7993C10.2878 17.8723 10.1444 17.9106 9.99843 17.9106C9.85246 17.9106 9.70906 17.8723 9.58261 17.7993C9.45615 17.7264 9.35109 17.6216 9.27796 17.4952Z" fill="#5C5E64"/>
</svg>