<svg xmlns="http://www.w3.org/2000/svg" width="20" height="21" viewBox="0 0 20 21" fill="none">
  <path fill-rule="evenodd" clip-rule="evenodd" d="M6.6665 2.0804C6.6665 1.62017 6.29341 1.24707 5.83317 1.24707C5.37293 1.24707 4.99984 1.62017 4.99984 2.0804V2.91374H4.1665C3.50346 2.91374 2.86758 3.17713 2.39874 3.64597C1.9299 4.11481 1.6665 4.7507 1.6665 5.41374V16.2471C1.6665 16.9101 1.9299 17.546 2.39874 18.0148C2.86758 18.4837 3.50346 18.7471 4.1665 18.7471H15.8332C16.4962 18.7471 17.1321 18.4837 17.6009 18.0148C18.0698 17.546 18.3332 16.9101 18.3332 16.2471V5.41374C18.3332 4.7507 18.0698 4.11481 17.6009 3.64597C17.1321 3.17713 16.4962 2.91374 15.8332 2.91374H15.4165C14.9563 2.91374 14.5832 3.28683 14.5832 3.74707C14.5832 4.20731 14.9563 4.5804 15.4165 4.5804H15.8332C16.0542 4.5804 16.2661 4.6682 16.4224 4.82448C16.5787 4.98076 16.6665 5.19272 16.6665 5.41374V7.91374H3.33317V5.41374C3.33317 5.19272 3.42097 4.98076 3.57725 4.82448C3.73353 4.6682 3.94549 4.5804 4.1665 4.5804H4.99984V5.41374C4.99984 5.87397 5.37293 6.24707 5.83317 6.24707C6.29341 6.24707 6.6665 5.87397 6.6665 5.41374V2.0804ZM3.57725 16.8363C3.42097 16.68 3.33317 16.4681 3.33317 16.2471V9.5804H16.6665V16.2471C16.6665 16.4681 16.5787 16.68 16.4224 16.8363C16.2661 16.9926 16.0542 17.0804 15.8332 17.0804H4.1665C3.94549 17.0804 3.73353 16.9926 3.57725 16.8363Z" fill="#5C5E64"/>
  <path d="M13.3332 2.0804C13.3332 1.62017 12.9601 1.24707 12.4998 1.24707C12.0396 1.24707 11.6665 1.62017 11.6665 2.0804V2.91374H8.74984C8.2896 2.91374 7.9165 3.28683 7.9165 3.74707C7.9165 4.20731 8.2896 4.5804 8.74984 4.5804H11.6665V5.41374C11.6665 5.87397 12.0396 6.24707 12.4998 6.24707C12.9601 6.24707 13.3332 5.87397 13.3332 5.41374V2.0804Z" fill="#5C5E64"/>
</svg>