<svg xmlns="http://www.w3.org/2000/svg" width="20" height="21" viewBox="0 0 20 21" fill="none">
  <path d="M6.66667 7.91374C6.20643 7.91374 5.83333 8.28683 5.83333 8.74707C5.83333 9.20731 6.20643 9.5804 6.66667 9.5804H13.3333C13.7936 9.5804 14.1667 9.20731 14.1667 8.74707C14.1667 8.28683 13.7936 7.91374 13.3333 7.91374H6.66667Z" fill="#5C5E64"/>
  <path d="M6.66667 11.2471C6.20643 11.2471 5.83333 11.6202 5.83333 12.0804C5.83333 12.5406 6.20643 12.9137 6.66667 12.9137H10C10.4602 12.9137 10.8333 12.5406 10.8333 12.0804C10.8333 11.6202 10.4602 11.2471 10 11.2471H6.66667Z" fill="#5C5E64"/>
  <path d="M6.66667 14.5804C6.20643 14.5804 5.83333 14.9535 5.83333 15.4137C5.83333 15.874 6.20643 16.2471 6.66667 16.2471H13.3333C13.7936 16.2471 14.1667 15.874 14.1667 15.4137C14.1667 14.9535 13.7936 14.5804 13.3333 14.5804H6.66667Z" fill="#5C5E64"/>
  <path fill-rule="evenodd" clip-rule="evenodd" d="M17.399 4.69506C17.3319 4.53275 17.2335 4.38529 17.1093 4.26115L14.4863 1.63818C14.2365 1.38806 13.8976 1.24738 13.5441 1.24707H3.83333C3.47971 1.24707 3.14057 1.38755 2.89052 1.63759C2.64048 1.88764 2.5 2.22678 2.5 2.5804V18.2471C2.5 18.4222 2.53449 18.5955 2.60149 18.7573C2.6685 18.9191 2.76671 19.0661 2.89052 19.1899C3.01433 19.3137 3.16132 19.4119 3.32309 19.4789C3.48486 19.5459 3.65824 19.5804 3.83333 19.5804H16.1667C16.3418 19.5804 16.5151 19.5459 16.6769 19.4789C16.8387 19.4119 16.9857 19.3137 17.1095 19.1899C17.2333 19.0661 17.3315 18.9191 17.3985 18.7573C17.4655 18.5955 17.5 18.4222 17.5 18.2471V5.20566L16.6667 5.2054L17.5 5.20745L17.5 5.20566C17.5002 5.03048 17.4659 4.85697 17.399 4.69506ZM12.5 4.99707C12.5 5.68743 13.0596 6.24707 13.75 6.24707H15.8333V17.9137H4.16667V2.91374H12.5V4.99707ZM15.0715 4.5804L14.1667 3.67558V4.5804H15.0715Z" fill="#5C5E64"/>
</svg>