<svg xmlns="http://www.w3.org/2000/svg" width="16" height="16" viewBox="0 0 16 16" fill="none">
  <g clip-path="url(#clip0_1_10520)">
    <path d="M8.66667 0.666667C8.66667 0.298477 8.36819 0 8 0C7.63181 0 7.33333 0.298477 7.33333 0.666667V1.33333C7.33333 1.70152 7.63181 2 8 2C8.36819 2 8.66667 1.70152 8.66667 1.33333V0.666667Z" fill="black"/>
    <path d="M3.13807 2.19526C2.87772 1.93491 2.45561 1.93491 2.19526 2.19526C1.93491 2.45561 1.93491 2.87772 2.19526 3.13807L2.86193 3.80474C3.12228 4.06509 3.54439 4.06509 3.80474 3.80474C4.06509 3.54439 4.06509 3.12228 3.80474 2.86193L3.13807 2.19526Z" fill="black"/>
    <path d="M13.8047 3.13807C14.0651 2.87772 14.0651 2.45561 13.8047 2.19526C13.5444 1.93491 13.1223 1.93491 12.8619 2.19526L12.1953 2.86193C11.9349 3.12228 11.9349 3.54439 12.1953 3.80474C12.4556 4.06509 12.8777 4.06509 13.1381 3.80474L13.8047 3.13807Z" fill="black"/>
    <path fill-rule="evenodd" clip-rule="evenodd" d="M8 3.33333C6.76232 3.33333 5.57534 3.825 4.70017 4.70017C3.825 5.57534 3.33333 6.76232 3.33333 8C3.33333 9.23768 3.825 10.4247 4.70017 11.2998C5.57534 12.175 6.76232 12.6667 8 12.6667C9.23768 12.6667 10.4247 12.175 11.2998 11.2998C12.175 10.4247 12.6667 9.23768 12.6667 8C12.6667 6.76232 12.175 5.57534 11.2998 4.70017C10.4247 3.825 9.23768 3.33333 8 3.33333ZM5.64298 5.64298C6.2681 5.01786 7.11595 4.66667 8 4.66667C8.88406 4.66667 9.7319 5.01786 10.357 5.64298C10.9821 6.2681 11.3333 7.11594 11.3333 8C11.3333 8.88406 10.9821 9.7319 10.357 10.357C9.7319 10.9821 8.88406 11.3333 8 11.3333C7.11594 11.3333 6.2681 10.9821 5.64298 10.357C5.01786 9.7319 4.66667 8.88406 4.66667 8C4.66667 7.11595 5.01786 6.2681 5.64298 5.64298Z" fill="black"/>
    <path d="M0.666667 7.33333C0.298477 7.33333 0 7.63181 0 8C0 8.36819 0.298477 8.66667 0.666667 8.66667H1.33333C1.70152 8.66667 2 8.36819 2 8C2 7.63181 1.70152 7.33333 1.33333 7.33333H0.666667Z" fill="black"/>
    <path d="M14.6667 7.33333C14.2985 7.33333 14 7.63181 14 8C14 8.36819 14.2985 8.66667 14.6667 8.66667H15.3333C15.7015 8.66667 16 8.36819 16 8C16 7.63181 15.7015 7.33333 15.3333 7.33333H14.6667Z" fill="black"/>
    <path d="M3.80474 13.1381C4.06509 12.8777 4.06509 12.4556 3.80474 12.1953C3.54439 11.9349 3.12228 11.9349 2.86193 12.1953L2.19526 12.8619C1.93491 13.1223 1.93491 13.5444 2.19526 13.8047C2.45561 14.0651 2.87772 14.0651 3.13807 13.8047L3.80474 13.1381Z" fill="black"/>
    <path d="M13.8047 12.8619L13.1381 12.1953C12.8777 11.9349 12.4556 11.9349 12.1953 12.1953C11.9349 12.4556 11.9349 12.8777 12.1953 13.1381L12.8619 13.8047C13.1223 14.0651 13.5444 14.0651 13.8047 13.8047C14.0651 13.5444 14.0651 13.1223 13.8047 12.8619Z" fill="black"/>
    <path d="M8.66667 14.6667C8.66667 14.2985 8.36819 14 8 14C7.63181 14 7.33333 14.2985 7.33333 14.6667V15.3333C7.33333 15.7015 7.63181 16 8 16C8.36819 16 8.66667 15.7015 8.66667 15.3333V14.6667Z" fill="black"/>
  </g>
  <defs>
    <clipPath id="clip0_1_10520">
      <rect width="16" height="16" fill="white"/>
    </clipPath>
  </defs>
</svg>