<svg xmlns="http://www.w3.org/2000/svg" width="17" height="16" viewBox="0 0 17 16" fill="none">
  <path fill-rule="evenodd" clip-rule="evenodd" d="M6.68283 2.00016C6.68283 1.76947 6.56357 1.55518 6.36751 1.4336C6.17146 1.31202 5.92649 1.30043 5.71984 1.40297C4.55249 1.98222 3.57013 2.876 2.88347 3.98358C2.19692 5.09098 1.83328 6.36811 1.8335 7.67106C1.83247 9.24958 2.36536 10.7821 3.34555 12.0194C4.32574 13.2567 5.69559 14.1261 7.23247 14.4864C8.76934 14.8466 10.3829 14.6764 11.8108 14.0035C13.2387 13.3306 14.3971 12.1946 15.0976 10.78C15.1999 10.5734 15.1882 10.3285 15.0666 10.1326C14.945 9.93666 14.7308 9.8175 14.5002 9.8175C11.7659 9.8175 9.84513 9.13964 8.60283 7.89727C7.36053 6.6549 6.68283 4.73409 6.68283 2.00016ZM4.0167 4.68613C4.38053 4.09927 4.84692 3.58656 5.39075 3.17089C5.56489 5.55834 6.2946 7.47458 7.66 8.84005C9.02564 10.2058 10.9423 10.9356 13.3306 11.1097C12.7831 11.8274 12.0685 12.4081 11.2424 12.7974C10.0867 13.342 8.78067 13.4798 7.53674 13.1882C6.2928 12.8966 5.18404 12.1929 4.39068 11.1914C3.59732 10.19 3.166 8.94958 3.16683 7.67193C3.16656 6.61713 3.46091 5.58262 4.0167 4.68613Z" fill="#5C5E64"/>
</svg>