<svg width="81" height="101" viewBox="0 0 81 101" fill="none" xmlns="http://www.w3.org/2000/svg">
    <path d="M46.9216 68.9345V60.9768H63.8992V75.247L46.9216 68.9345Z" fill="#ADD9FF" />
    <path d="M70.4398 68.9343H46.9216V92.5388H70.4398V68.9343Z" fill="#C8E6FF" />
    <path
        d="M55.5525 28.9299H45.1992V37.7053L55.5523 37.6358C59.6142 37.6358 62.9191 41.1259 62.9191 45.4158V97.4543L71.1625 91.7448V45.4156C71.1625 36.3108 64.1736 28.9299 55.5525 28.9299Z"
        fill="#94C8EF" />
    <path d="M47.0114 43.4905H34.9207V50.9257H47.0114V43.4905Z" fill="#C8E6FF" />
    <path d="M46.8523 2.03711H35.2925V12.7198H46.8523V2.03711Z" fill="#94C8EF" />
    <path d="M49.086 8.49512H32.4077V43.4915H49.086V8.49512Z" fill="#7AB6DE" />
    <path
        d="M70.7557 87.1693C65.9781 87.1693 62.0913 83.0644 62.0913 78.019C62.0913 72.9736 65.9781 68.8687 70.7557 68.8687C75.5333 68.8687 79.4201 72.9736 79.4201 78.019C79.4201 83.0644 75.5333 87.1693 70.7557 87.1693Z"
        fill="#4693BD" />
    <path
        d="M8.24413 92.709C4.92323 92.709 2.23096 95.552 2.23096 99.0594L70.9418 99.1663V92.709H8.24413Z"
        fill="#4693BD" />
    <path
        d="M32.5631 3.68861H49.1801C50.018 3.68861 50.6973 2.97117 50.6973 2.08625C50.6973 1.20132 50.018 0.483887 49.1799 0.483887H32.5629C31.725 0.483887 31.0457 1.20132 31.0457 2.08625C31.0457 2.97117 31.725 3.68861 32.5631 3.68861Z"
        fill="#63CCD3" />
    <path
        d="M76.9505 97.6967H72.2852V88.2606C77.0896 87.4861 80.7821 83.093 80.7821 77.806C80.7821 72.5192 77.0896 68.1259 72.2852 67.3514V45.1239C72.2852 35.1501 64.6017 27.0359 55.1577 27.0359H50.6949V8.49616C50.6949 7.61123 50.0155 6.8938 49.1776 6.8938H32.5606C31.7227 6.8938 31.0434 7.61123 31.0434 8.49616V41.8892H30.5377C29.6998 41.8892 29.0204 42.6066 29.0204 43.4916C29.0204 44.3765 29.6998 45.0939 30.5377 45.0939H33.3065V50.9267C33.3065 51.8117 33.9858 52.5291 34.8237 52.5291H46.9145C47.7525 52.5291 48.4318 51.8117 48.4318 50.9267V45.0939H51.2008C52.0387 45.0939 52.718 44.3765 52.718 43.4916C52.718 42.6066 52.0387 41.8892 51.2008 41.8892H50.6951V30.2406H55.1579C62.9287 30.2406 69.2509 36.917 69.2509 45.1239V67.3514C64.4465 68.1259 60.754 72.519 60.754 77.806C60.754 83.0928 64.4465 87.4861 69.2509 88.2606V97.6969H3.83767C4.46148 95.8648 6.12323 94.5512 8.06986 94.5512H64.6987C65.5366 94.5512 66.2159 93.8337 66.2159 92.9488C66.2159 92.0639 65.5366 91.3464 64.6987 91.3464H48.4316V63.212H61.0071V63.746C61.0071 64.631 61.6864 65.3484 62.5244 65.3484C63.3623 65.3484 64.0416 64.631 64.0416 63.746V45.1237C64.0416 39.9503 60.0562 35.7414 55.1575 35.7414C54.3196 35.7414 53.6403 36.4588 53.6403 37.3438C53.6403 38.2287 54.3196 38.9461 55.1575 38.9461C58.383 38.9461 61.0071 41.7174 61.0071 45.1237V60.007H24.2708C23.4329 60.007 22.7536 60.7245 22.7536 61.6094C22.7536 62.4943 23.4329 63.2118 24.2708 63.2118H45.3971V84.7101H34.8237C33.9858 84.7101 33.3065 85.4275 33.3065 86.3124C33.3065 87.1974 33.9858 87.9148 34.8237 87.9148H45.3971V91.346H8.07005C3.9179 91.346 0.539795 94.9136 0.539795 99.2988C0.539795 100.184 1.21913 100.901 2.05706 100.901H76.9505C77.7884 100.901 78.4677 100.184 78.4677 99.2988C78.4677 98.4139 77.7884 97.6967 76.9505 97.6967ZM45.3971 49.3246H36.341V45.0943H45.3971V49.3246ZM34.0779 41.8892V10.0985H47.6601V41.8892H34.0779ZM63.7883 77.8058C63.7883 73.7419 66.9187 70.4355 70.7666 70.4347C70.767 70.4347 70.7674 70.4347 70.7679 70.4347C70.7685 70.4347 70.7687 70.4347 70.7692 70.4347C74.6172 70.4353 77.7476 73.7419 77.7476 77.8058C77.7476 81.8702 74.6164 85.1769 70.7679 85.1769C66.9192 85.1769 63.7883 81.8704 63.7883 77.8058Z"
        fill="#63CCD3" />
</svg>
    