<svg xmlns="http://www.w3.org/2000/svg" width="15" height="14" viewBox="0 0 15 14" fill="none">
  <path d="M4.53614 9.48498C4.42531 9.48498 4.31447 9.44415 4.22697 9.35665C4.05781 9.18748 4.05781 8.90748 4.22697 8.73832L6.00614 6.95915C6.17531 6.78998 6.45531 6.78998 6.62447 6.95915C6.79364 7.12832 6.79364 7.40832 6.62447 7.57748L4.84531 9.35665C4.75781 9.43832 4.64697 9.48498 4.53614 9.48498Z" fill="#0A2540"/>
  <path d="M6.33288 9.50244C6.22205 9.50244 6.11122 9.46161 6.02372 9.37411L4.24455 7.59494C4.07538 7.42577 4.07538 7.14577 4.24455 6.97661C4.41372 6.80744 4.69372 6.80744 4.86288 6.97661L6.64205 8.75577C6.81122 8.92494 6.81122 9.20494 6.64205 9.37411C6.55455 9.46161 6.44372 9.50244 6.33288 9.50244Z" fill="#0A2540"/>
  <path d="M8.63116 8.75004C8.31033 8.75004 8.04199 8.48754 8.04199 8.16671C8.04199 7.84587 8.29866 7.58337 8.61949 7.58337H8.63116C8.95199 7.58337 9.21449 7.84587 9.21449 8.16671C9.21449 8.48754 8.95783 8.75004 8.63116 8.75004Z" fill="#0A2540"/>
  <path d="M10.9295 8.75004C10.6087 8.75004 10.3403 8.48754 10.3403 8.16671C10.3403 7.84587 10.597 7.58337 10.9178 7.58337H10.9295C11.2503 7.58337 11.5128 7.84587 11.5128 8.16671C11.5128 8.48754 11.2503 8.75004 10.9295 8.75004Z" fill="#0A2540"/>
  <path d="M9.77474 9.89918C9.45391 9.89918 9.19141 9.64252 9.19141 9.32168V9.31002C9.19141 8.98918 9.45391 8.72668 9.77474 8.72668C10.0956 8.72668 10.3581 8.98918 10.3581 9.31002C10.3581 9.63085 10.1014 9.89918 9.77474 9.89918Z" fill="#0A2540"/>
  <path d="M9.77474 7.60084C9.45391 7.60084 9.19141 7.34418 9.19141 7.02334V7.01168C9.19141 6.69084 9.45391 6.42834 9.77474 6.42834C10.0956 6.42834 10.3581 6.69084 10.3581 7.01168C10.3581 7.33251 10.1014 7.60084 9.77474 7.60084Z" fill="#0A2540"/>
  <path d="M9.48275 13.2708H5.98275C2.81525 13.2708 1.46191 11.9175 1.46191 8.75V7.58333C1.46191 4.41583 2.81525 3.0625 5.98275 3.0625H9.48275C12.6502 3.0625 14.0036 4.41583 14.0036 7.58333V8.75C14.0036 11.9175 12.6502 13.2708 9.48275 13.2708ZM5.98275 3.9375C3.29358 3.9375 2.33691 4.89417 2.33691 7.58333V8.75C2.33691 11.4392 3.29358 12.3958 5.98275 12.3958H9.48275C12.1719 12.3958 13.1286 11.4392 13.1286 8.75V7.58333C13.1286 4.89417 12.1719 3.9375 9.48275 3.9375H5.98275Z" fill="#0A2540"/>
  <path d="M8.31022 3.93746H7.72689C7.16689 3.93746 6.70605 3.47663 6.70605 2.91663C6.70605 2.35663 7.16105 1.89579 7.72105 1.89579C7.81439 1.89579 7.87855 1.83163 7.88439 1.74996L7.89022 1.16079C7.89605 0.921626 8.08855 0.729126 8.32772 0.729126H8.33355C8.57272 0.734959 8.77105 0.933293 8.76522 1.17246L8.75939 1.76163C8.75355 2.31579 8.29272 2.77079 7.73855 2.77079C7.64522 2.77079 7.58689 2.83496 7.58689 2.91663C7.58689 2.99829 7.65105 3.06246 7.73272 3.06246H8.31605C8.55522 3.06246 8.75355 3.26079 8.75355 3.49996C8.75355 3.73913 8.54939 3.93746 8.31022 3.93746Z" fill="#0A2540"/>
</svg>