<svg xmlns="http://www.w3.org/2000/svg" width="29" height="22" viewBox="0 0 29 22" fill="none">
  <mask id="path-1-inside-1_9_11683" fill="white">
    <path d="M28.8376 5.9202C28.8369 5.43649 28.7082 4.94593 28.4234 4.54156L26.1385 1.31135C25.7558 0.774433 25.1735 0.501058 24.5915 0.5C24.2452 0.5 23.8926 0.598074 23.581 0.812766L21.3531 2.34424C21.1187 2.50933 20.7171 2.62265 20.329 2.61973C20.0276 2.62116 19.7363 2.55451 19.5439 2.44953L17.3622 1.28191C17.0103 1.09473 16.618 1.018 16.2235 1.01725C15.657 1.02018 15.0832 1.17401 14.6221 1.52704L14.3675 1.72437C14.164 1.61217 13.8531 1.44122 13.5008 1.24756C13.0784 1.01875 12.5817 0.92646 12.08 0.924655C11.6267 0.926086 11.1736 1.00325 10.7757 1.18894L9.28971 1.88952C9.04785 2.0054 8.66316 2.08107 8.28106 2.0792C7.89897 2.08101 7.51495 2.00533 7.2731 1.88952L5.78571 1.18857C5.5144 1.06075 5.22439 1.00611 4.93697 1.00574C4.60602 1.00611 4.27703 1.07818 3.97125 1.21502C3.66587 1.35261 3.38239 1.55572 3.15665 1.83445L0.448618 5.18527C0.14847 5.55559 -0.000617635 6.02194 1.92299e-06 6.48101C-0.000617635 7.02844 0.211384 7.57762 0.620292 7.96251L3.1464 10.3437L1.94806 11.7248C1.61772 12.1058 1.45326 12.5996 1.45326 13.0879C1.45264 13.6075 1.63941 14.1321 2.00934 14.5183L2.25243 14.7735C2.4815 15.0136 2.75675 15.1663 3.04479 15.2478C2.90032 15.5414 2.82135 15.8633 2.82197 16.1858C2.82135 16.7058 3.00812 17.23 3.37738 17.6167L3.37676 17.6163L3.62058 17.8726C3.96765 18.2361 4.41756 18.4171 4.86083 18.4168C5.09907 18.4172 5.3376 18.3643 5.56177 18.2608C5.64045 18.6134 5.80295 18.9486 6.05854 19.2165L6.30237 19.4729C6.64943 19.8363 7.09861 20.0174 7.54261 20.0171C7.88967 20.0174 8.23832 19.9044 8.53846 19.6851C8.62627 19.9972 8.77671 20.2929 9.00572 20.5333L9.24955 20.7896C9.59588 21.1531 10.0458 21.3342 10.4892 21.3338C10.9613 21.3342 11.4382 21.1293 11.7904 20.7231L12.8495 19.5011L14.2884 20.9725C14.6328 21.3254 15.0749 21.5011 15.5112 21.5C15.9907 21.5011 16.4743 21.2889 16.8272 20.8715L17.0569 20.5996C17.2552 20.3643 17.3846 20.0858 17.4597 19.7952L18.0171 20.3636C18.3621 20.7151 18.8036 20.89 19.2393 20.8896C19.7194 20.89 20.2044 20.6778 20.5577 20.26L20.786 19.9884C21.0498 19.6771 21.1983 19.2915 21.2441 18.8976C21.3912 18.9392 21.5403 18.9675 21.6907 18.9675C22.1708 18.9675 22.6544 18.7557 23.008 18.3383L23.2371 18.0667C23.5572 17.6876 23.7165 17.2014 23.7158 16.7221C23.7158 16.5733 23.6965 16.4252 23.6667 16.2789C24.0648 16.2206 24.4508 16.0244 24.7444 15.6761L24.9741 15.4042C25.2942 15.0251 25.4528 14.5389 25.4528 14.0592C25.4535 13.5314 25.2608 12.9987 24.8807 12.6107L24.4511 12.1723L28.3283 7.43598C28.6764 7.00959 28.837 6.46072 28.8376 5.9202ZM3.49284 14.24C3.28743 14.2393 3.08653 14.1581 2.92955 13.9938L2.68607 13.7386C2.5176 13.5626 2.43441 13.3284 2.43374 13.088C2.43441 12.8625 2.50746 12.6423 2.6579 12.4689L5.11225 9.6391C5.27216 9.45477 5.48551 9.36249 5.70438 9.36218C5.90917 9.36255 6.1094 9.44401 6.26767 9.60873L6.51014 9.86431C6.51014 9.86431 6.76118 10.2745 6.7618 10.5152C6.76118 10.6955 6.71201 10.8711 6.61665 11.0232C6.60848 11.0322 3.96765 14.0731 3.96765 14.0731C3.8274 14.1827 3.66159 14.2392 3.49284 14.24ZM5.45301 17.0625C5.29345 17.2461 5.08043 17.338 4.86156 17.3388C4.65615 17.3384 4.45586 17.2569 4.29827 17.0926L4.05444 16.8366L4.05382 16.8362C3.88671 16.661 3.80279 16.426 3.80279 16.1856C3.80279 15.9601 3.87652 15.7399 4.02623 15.5665C4.02623 15.5665 7.29783 11.8038 7.32537 11.7675C7.48172 11.6013 7.68319 11.5155 7.89125 11.5151C8.09666 11.5155 8.29695 11.5966 8.45454 11.7613L8.69837 12.0176C8.8661 12.1929 8.9494 12.4275 8.95002 12.6682C8.94934 12.8938 8.87567 13.1142 8.72585 13.2877L5.45301 17.0625ZM8.1344 18.6623C7.97517 18.8463 7.76221 18.9384 7.54328 18.9391C7.33787 18.9387 7.13759 18.8572 6.97999 18.6925L6.73549 18.4365C6.56776 18.2609 6.48384 18.0263 6.48384 17.7859C6.48384 17.5846 6.5458 17.3894 6.66436 17.2269L8.94275 14.5995C9.09646 14.4463 9.28909 14.3656 9.4887 14.3656C9.69411 14.366 9.89439 14.4471 10.052 14.6118L10.2965 14.8681C10.4636 15.0434 10.5475 15.278 10.5481 15.5184C10.5475 15.7443 10.4731 15.9648 10.324 16.1378L8.1344 18.6623ZM12.4635 18.385L11.081 19.9792C10.9217 20.1631 10.7084 20.2552 10.4896 20.2558C10.2842 20.2555 10.0839 20.174 9.92627 20.0093L9.68245 19.7533C9.51534 19.578 9.43141 19.3431 9.4308 19.1027C9.43141 18.8767 9.50514 18.6562 9.65496 18.4835L11.0369 16.8894C11.1968 16.7055 11.4101 16.6132 11.629 16.6128C11.8338 16.6132 12.0347 16.6943 12.1923 16.8594L12.4368 17.1154C12.6039 17.2906 12.6871 17.5252 12.6878 17.7656C12.687 17.9915 12.6133 18.212 12.4635 18.385ZM24.4738 14.0606C24.4735 14.282 24.4017 14.4989 24.2562 14.6712L24.0272 14.9428C23.8673 15.1318 23.6503 15.2274 23.4282 15.2278C23.2267 15.2274 23.0294 15.1492 22.8728 14.9892L19.0126 11.0451L18.3452 11.8347L22.4769 16.0637C22.649 16.2397 22.7355 16.4787 22.7368 16.7227C22.7355 16.945 22.6643 17.1615 22.5192 17.3339L22.2908 17.6054C22.1309 17.7944 21.9139 17.8896 21.6918 17.8904C21.4903 17.8897 21.2923 17.8111 21.137 17.6522L17.2759 13.708L16.609 14.4977L20.0357 17.9987C20.2008 18.1736 20.2854 18.4064 20.2854 18.6453C20.2854 18.8669 20.2143 19.0837 20.0691 19.2557L19.84 19.5273C19.6808 19.7162 19.4632 19.8118 19.2404 19.8125C19.0382 19.8118 18.841 19.7332 18.685 19.5743L15.2653 16.086H15.2647L15.264 16.0853L14.5985 16.8763L14.5992 16.877L14.612 16.8904L16.3248 18.6369C16.4765 18.8092 16.5551 19.0301 16.5558 19.2585C16.5551 19.479 16.4846 19.6948 16.3395 19.8668L16.1104 20.1387C15.9505 20.3277 15.7342 20.4226 15.5127 20.4233C15.3112 20.4226 15.1139 20.3444 14.9579 20.1848L13.4667 18.6591C13.5964 18.3778 13.6689 18.0726 13.6689 17.7663C13.6695 17.2467 13.4827 16.7229 13.1134 16.3359L12.8689 16.0795C12.5226 15.7164 12.0733 15.535 11.63 15.5357C11.5956 15.5357 11.5609 15.5444 11.5272 15.5466C11.5272 15.5376 11.5291 15.5281 11.5291 15.5191C11.5297 14.9996 10.9737 14.088 10.9737 14.088L10.7298 13.8324C10.4706 13.5608 10.1544 13.3914 9.82545 13.3233C9.89327 13.1112 9.93162 12.8903 9.93162 12.6691C9.93162 12.1496 9.74547 11.6253 9.37622 11.2387L9.13239 10.9824C8.78533 10.6189 8.33615 10.4375 7.89277 10.4379C7.84101 10.4379 7.78993 10.4495 7.73845 10.4546C7.72436 9.95566 7.5425 9.45714 7.18862 9.08569V9.08532L6.94547 8.83011C6.5984 8.46626 6.14922 8.28486 5.70585 8.28523C5.23295 8.28486 4.75685 8.48978 4.40466 8.89602L3.82532 9.56399L1.25889 7.1455C1.07443 6.97101 0.982339 6.72987 0.981663 6.48225C0.982282 6.27478 1.04621 6.07166 1.18251 5.90302L3.89049 2.55227C3.99795 2.41904 4.1569 2.2985 4.34304 2.2148C4.52919 2.13116 4.74052 2.08524 4.9381 2.08555C5.11017 2.08555 5.27165 2.11996 5.4008 2.18151L6.88751 2.8824C7.30661 3.07755 7.79319 3.15758 8.28219 3.15932C8.77175 3.15751 9.25771 3.07749 9.67687 2.8824L11.1629 2.18182C11.392 2.07142 11.7376 2.00297 12.0814 2.0044C12.4615 2.00185 12.8422 2.08878 13.0631 2.21331C13.2033 2.29041 13.3364 2.36359 13.4599 2.43198L11.9443 3.60905C11.4574 3.98741 11.1949 4.58911 11.1956 5.19628C11.195 5.59816 11.3103 6.00726 11.5449 6.35443L11.5443 6.35369L11.7444 6.6509C12.1246 7.20922 12.7173 7.49629 13.3098 7.49772C13.6444 7.49772 13.9852 7.40431 14.2889 7.203L15.1953 6.60161C15.3801 6.47672 15.6593 6.39781 15.9479 6.39924C16.2871 6.39706 16.6289 6.50789 16.8343 6.67473L19.3418 8.66091C19.8999 9.10262 20.8088 9.92193 21.3125 10.4375L24.2148 13.4023C24.3866 13.5784 24.4731 13.8163 24.4738 14.0606ZM27.6006 6.71524L23.7342 11.4388L21.9788 9.64601C21.429 9.08519 20.5223 8.26737 19.9141 7.78472L17.4073 5.79854C16.9823 5.46586 16.4619 5.32205 15.9475 5.31993C15.5097 5.32136 15.0686 5.42678 14.6879 5.67725L13.7822 6.27864C13.6432 6.37093 13.4794 6.41803 13.3093 6.41841C13.0051 6.41953 12.7008 6.26271 12.5311 6.00744L12.3315 5.71061L12.3308 5.70986C12.2247 5.55167 12.1752 5.37426 12.1745 5.19466C12.1758 4.92309 12.2892 4.65955 12.5088 4.48829L15.1886 2.40796C15.4203 2.22264 15.8325 2.09264 16.2241 2.09588C16.4961 2.09445 16.7559 2.15487 16.9338 2.25195L19.1155 3.41956C19.4875 3.61689 19.9072 3.6976 20.3295 3.69872C20.8722 3.6958 21.4207 3.56549 21.8726 3.25882L24.1012 1.72704C24.2435 1.62897 24.4142 1.57825 24.5922 1.57825C24.893 1.57757 25.1944 1.72816 25.3651 1.97397L27.6501 5.20418C27.7818 5.38919 27.8581 5.65018 27.8581 5.92069C27.8585 6.22319 27.7618 6.52084 27.6006 6.71524Z"/>
  </mask>
  <path d="M28.8376 5.9202C28.8369 5.43649 28.7082 4.94593 28.4234 4.54156L26.1385 1.31135C25.7558 0.774433 25.1735 0.501058 24.5915 0.5C24.2452 0.5 23.8926 0.598074 23.581 0.812766L21.3531 2.34424C21.1187 2.50933 20.7171 2.62265 20.329 2.61973C20.0276 2.62116 19.7363 2.55451 19.5439 2.44953L17.3622 1.28191C17.0103 1.09473 16.618 1.018 16.2235 1.01725C15.657 1.02018 15.0832 1.17401 14.6221 1.52704L14.3675 1.72437C14.164 1.61217 13.8531 1.44122 13.5008 1.24756C13.0784 1.01875 12.5817 0.92646 12.08 0.924655C11.6267 0.926086 11.1736 1.00325 10.7757 1.18894L9.28971 1.88952C9.04785 2.0054 8.66316 2.08107 8.28106 2.0792C7.89897 2.08101 7.51495 2.00533 7.2731 1.88952L5.78571 1.18857C5.5144 1.06075 5.22439 1.00611 4.93697 1.00574C4.60602 1.00611 4.27703 1.07818 3.97125 1.21502C3.66587 1.35261 3.38239 1.55572 3.15665 1.83445L0.448618 5.18527C0.14847 5.55559 -0.000617635 6.02194 1.92299e-06 6.48101C-0.000617635 7.02844 0.211384 7.57762 0.620292 7.96251L3.1464 10.3437L1.94806 11.7248C1.61772 12.1058 1.45326 12.5996 1.45326 13.0879C1.45264 13.6075 1.63941 14.1321 2.00934 14.5183L2.25243 14.7735C2.4815 15.0136 2.75675 15.1663 3.04479 15.2478C2.90032 15.5414 2.82135 15.8633 2.82197 16.1858C2.82135 16.7058 3.00812 17.23 3.37738 17.6167L3.37676 17.6163L3.62058 17.8726C3.96765 18.2361 4.41756 18.4171 4.86083 18.4168C5.09907 18.4172 5.3376 18.3643 5.56177 18.2608C5.64045 18.6134 5.80295 18.9486 6.05854 19.2165L6.30237 19.4729C6.64943 19.8363 7.09861 20.0174 7.54261 20.0171C7.88967 20.0174 8.23832 19.9044 8.53846 19.6851C8.62627 19.9972 8.77671 20.2929 9.00572 20.5333L9.24955 20.7896C9.59588 21.1531 10.0458 21.3342 10.4892 21.3338C10.9613 21.3342 11.4382 21.1293 11.7904 20.7231L12.8495 19.5011L14.2884 20.9725C14.6328 21.3254 15.0749 21.5011 15.5112 21.5C15.9907 21.5011 16.4743 21.2889 16.8272 20.8715L17.0569 20.5996C17.2552 20.3643 17.3846 20.0858 17.4597 19.7952L18.0171 20.3636C18.3621 20.7151 18.8036 20.89 19.2393 20.8896C19.7194 20.89 20.2044 20.6778 20.5577 20.26L20.786 19.9884C21.0498 19.6771 21.1983 19.2915 21.2441 18.8976C21.3912 18.9392 21.5403 18.9675 21.6907 18.9675C22.1708 18.9675 22.6544 18.7557 23.008 18.3383L23.2371 18.0667C23.5572 17.6876 23.7165 17.2014 23.7158 16.7221C23.7158 16.5733 23.6965 16.4252 23.6667 16.2789C24.0648 16.2206 24.4508 16.0244 24.7444 15.6761L24.9741 15.4042C25.2942 15.0251 25.4528 14.5389 25.4528 14.0592C25.4535 13.5314 25.2608 12.9987 24.8807 12.6107L24.4511 12.1723L28.3283 7.43598C28.6764 7.00959 28.837 6.46072 28.8376 5.9202ZM3.49284 14.24C3.28743 14.2393 3.08653 14.1581 2.92955 13.9938L2.68607 13.7386C2.5176 13.5626 2.43441 13.3284 2.43374 13.088C2.43441 12.8625 2.50746 12.6423 2.6579 12.4689L5.11225 9.6391C5.27216 9.45477 5.48551 9.36249 5.70438 9.36218C5.90917 9.36255 6.1094 9.44401 6.26767 9.60873L6.51014 9.86431C6.51014 9.86431 6.76118 10.2745 6.7618 10.5152C6.76118 10.6955 6.71201 10.8711 6.61665 11.0232C6.60848 11.0322 3.96765 14.0731 3.96765 14.0731C3.8274 14.1827 3.66159 14.2392 3.49284 14.24ZM5.45301 17.0625C5.29345 17.2461 5.08043 17.338 4.86156 17.3388C4.65615 17.3384 4.45586 17.2569 4.29827 17.0926L4.05444 16.8366L4.05382 16.8362C3.88671 16.661 3.80279 16.426 3.80279 16.1856C3.80279 15.9601 3.87652 15.7399 4.02623 15.5665C4.02623 15.5665 7.29783 11.8038 7.32537 11.7675C7.48172 11.6013 7.68319 11.5155 7.89125 11.5151C8.09666 11.5155 8.29695 11.5966 8.45454 11.7613L8.69837 12.0176C8.8661 12.1929 8.9494 12.4275 8.95002 12.6682C8.94934 12.8938 8.87567 13.1142 8.72585 13.2877L5.45301 17.0625ZM8.1344 18.6623C7.97517 18.8463 7.76221 18.9384 7.54328 18.9391C7.33787 18.9387 7.13759 18.8572 6.97999 18.6925L6.73549 18.4365C6.56776 18.2609 6.48384 18.0263 6.48384 17.7859C6.48384 17.5846 6.5458 17.3894 6.66436 17.2269L8.94275 14.5995C9.09646 14.4463 9.28909 14.3656 9.4887 14.3656C9.69411 14.366 9.89439 14.4471 10.052 14.6118L10.2965 14.8681C10.4636 15.0434 10.5475 15.278 10.5481 15.5184C10.5475 15.7443 10.4731 15.9648 10.324 16.1378L8.1344 18.6623ZM12.4635 18.385L11.081 19.9792C10.9217 20.1631 10.7084 20.2552 10.4896 20.2558C10.2842 20.2555 10.0839 20.174 9.92627 20.0093L9.68245 19.7533C9.51534 19.578 9.43141 19.3431 9.4308 19.1027C9.43141 18.8767 9.50514 18.6562 9.65496 18.4835L11.0369 16.8894C11.1968 16.7055 11.4101 16.6132 11.629 16.6128C11.8338 16.6132 12.0347 16.6943 12.1923 16.8594L12.4368 17.1154C12.6039 17.2906 12.6871 17.5252 12.6878 17.7656C12.687 17.9915 12.6133 18.212 12.4635 18.385ZM24.4738 14.0606C24.4735 14.282 24.4017 14.4989 24.2562 14.6712L24.0272 14.9428C23.8673 15.1318 23.6503 15.2274 23.4282 15.2278C23.2267 15.2274 23.0294 15.1492 22.8728 14.9892L19.0126 11.0451L18.3452 11.8347L22.4769 16.0637C22.649 16.2397 22.7355 16.4787 22.7368 16.7227C22.7355 16.945 22.6643 17.1615 22.5192 17.3339L22.2908 17.6054C22.1309 17.7944 21.9139 17.8896 21.6918 17.8904C21.4903 17.8897 21.2923 17.8111 21.137 17.6522L17.2759 13.708L16.609 14.4977L20.0357 17.9987C20.2008 18.1736 20.2854 18.4064 20.2854 18.6453C20.2854 18.8669 20.2143 19.0837 20.0691 19.2557L19.84 19.5273C19.6808 19.7162 19.4632 19.8118 19.2404 19.8125C19.0382 19.8118 18.841 19.7332 18.685 19.5743L15.2653 16.086H15.2647L15.264 16.0853L14.5985 16.8763L14.5992 16.877L14.612 16.8904L16.3248 18.6369C16.4765 18.8092 16.5551 19.0301 16.5558 19.2585C16.5551 19.479 16.4846 19.6948 16.3395 19.8668L16.1104 20.1387C15.9505 20.3277 15.7342 20.4226 15.5127 20.4233C15.3112 20.4226 15.1139 20.3444 14.9579 20.1848L13.4667 18.6591C13.5964 18.3778 13.6689 18.0726 13.6689 17.7663C13.6695 17.2467 13.4827 16.7229 13.1134 16.3359L12.8689 16.0795C12.5226 15.7164 12.0733 15.535 11.63 15.5357C11.5956 15.5357 11.5609 15.5444 11.5272 15.5466C11.5272 15.5376 11.5291 15.5281 11.5291 15.5191C11.5297 14.9996 10.9737 14.088 10.9737 14.088L10.7298 13.8324C10.4706 13.5608 10.1544 13.3914 9.82545 13.3233C9.89327 13.1112 9.93162 12.8903 9.93162 12.6691C9.93162 12.1496 9.74547 11.6253 9.37622 11.2387L9.13239 10.9824C8.78533 10.6189 8.33615 10.4375 7.89277 10.4379C7.84101 10.4379 7.78993 10.4495 7.73845 10.4546C7.72436 9.95566 7.5425 9.45714 7.18862 9.08569V9.08532L6.94547 8.83011C6.5984 8.46626 6.14922 8.28486 5.70585 8.28523C5.23295 8.28486 4.75685 8.48978 4.40466 8.89602L3.82532 9.56399L1.25889 7.1455C1.07443 6.97101 0.982339 6.72987 0.981663 6.48225C0.982282 6.27478 1.04621 6.07166 1.18251 5.90302L3.89049 2.55227C3.99795 2.41904 4.1569 2.2985 4.34304 2.2148C4.52919 2.13116 4.74052 2.08524 4.9381 2.08555C5.11017 2.08555 5.27165 2.11996 5.4008 2.18151L6.88751 2.8824C7.30661 3.07755 7.79319 3.15758 8.28219 3.15932C8.77175 3.15751 9.25771 3.07749 9.67687 2.8824L11.1629 2.18182C11.392 2.07142 11.7376 2.00297 12.0814 2.0044C12.4615 2.00185 12.8422 2.08878 13.0631 2.21331C13.2033 2.29041 13.3364 2.36359 13.4599 2.43198L11.9443 3.60905C11.4574 3.98741 11.1949 4.58911 11.1956 5.19628C11.195 5.59816 11.3103 6.00726 11.5449 6.35443L11.5443 6.35369L11.7444 6.6509C12.1246 7.20922 12.7173 7.49629 13.3098 7.49772C13.6444 7.49772 13.9852 7.40431 14.2889 7.203L15.1953 6.60161C15.3801 6.47672 15.6593 6.39781 15.9479 6.39924C16.2871 6.39706 16.6289 6.50789 16.8343 6.67473L19.3418 8.66091C19.8999 9.10262 20.8088 9.92193 21.3125 10.4375L24.2148 13.4023C24.3866 13.5784 24.4731 13.8163 24.4738 14.0606ZM27.6006 6.71524L23.7342 11.4388L21.9788 9.64601C21.429 9.08519 20.5223 8.26737 19.9141 7.78472L17.4073 5.79854C16.9823 5.46586 16.4619 5.32205 15.9475 5.31993C15.5097 5.32136 15.0686 5.42678 14.6879 5.67725L13.7822 6.27864C13.6432 6.37093 13.4794 6.41803 13.3093 6.41841C13.0051 6.41953 12.7008 6.26271 12.5311 6.00744L12.3315 5.71061L12.3308 5.70986C12.2247 5.55167 12.1752 5.37426 12.1745 5.19466C12.1758 4.92309 12.2892 4.65955 12.5088 4.48829L15.1886 2.40796C15.4203 2.22264 15.8325 2.09264 16.2241 2.09588C16.4961 2.09445 16.7559 2.15487 16.9338 2.25195L19.1155 3.41956C19.4875 3.61689 19.9072 3.6976 20.3295 3.69872C20.8722 3.6958 21.4207 3.56549 21.8726 3.25882L24.1012 1.72704C24.2435 1.62897 24.4142 1.57825 24.5922 1.57825C24.893 1.57757 25.1944 1.72816 25.3651 1.97397L27.6501 5.20418C27.7818 5.38919 27.8581 5.65018 27.8581 5.92069C27.8585 6.22319 27.7618 6.52084 27.6006 6.71524Z" fill="#121212" stroke="#121212" stroke-width="0.2" mask="url(#path-1-inside-1_9_11683)"/>
</svg>