<svg width="259" height="288" viewBox="0 0 259 288" fill="none" xmlns="http://www.w3.org/2000/svg">
<path d="M107.358 64.1151L75.8202 32.8616C74.2374 31.2929 73.3637 29.2678 73.3637 27.1691V17.5742H44.1821V27.1691C44.1821 29.2673 43.3079 31.2934 41.7256 32.8616L10.187 64.1156C7.02182 67.2525 5.27344 71.3036 5.27344 75.5006H112.272C112.272 71.3031 110.523 67.252 107.358 64.1151Z" fill="#E4EAF8"/>
<path d="M77.6863 34.7123L75.8202 32.8626C75.0894 32.1381 74.5286 31.3089 74.1162 30.4282C73.8796 29.9241 73.6982 29.4016 73.5702 28.867C73.5679 28.855 73.5617 28.8445 73.5594 28.8329C73.432 28.2893 73.3637 27.7337 73.3637 27.1701V21.8594H44.1821V27.1706C44.1821 29.2688 43.3079 31.2939 41.7256 32.8626L10.187 64.1166C7.02182 67.2535 5.27344 71.3046 5.27344 75.5016H44.1821C44.1821 71.3046 44.818 67.2535 45.9686 64.1166L54.8959 40.5671C56.2212 37.0706 59.9369 34.7128 64.1224 34.7128H77.6869L77.6863 34.7123Z" fill="#D5DCED"/>
<path d="M73.387 21.867H44.2053C41.5196 21.867 39.3418 19.9487 39.3418 17.5829V9.01461C39.3418 6.64884 41.5196 4.73047 44.2053 4.73047H73.387C76.0727 4.73047 78.2505 6.64884 78.2505 9.01461V17.5829C78.251 19.9492 76.0732 21.867 73.387 21.867Z" fill="#39B6CC"/>
<path d="M53.9323 17.5829V9.01461C53.9323 6.64884 56.1101 4.73047 58.7958 4.73047H44.2053C41.5196 4.73047 39.3418 6.64884 39.3418 9.01461V17.5829C39.3418 19.9487 41.5196 21.867 44.2053 21.867H58.7958C56.1101 21.867 53.9323 19.9492 53.9323 17.5829Z" fill="#0CB9DE"/>
<path d="M112.273 98.9788V73.2734H5.27344V98.9788C5.27344 103.711 9.62904 107.547 15.0005 107.547C9.62848 107.547 5.27344 111.383 5.27344 116.115V120.4C5.27344 125.132 9.62904 128.968 15.0005 128.968C9.62848 128.968 5.27344 132.804 5.27344 137.536V141.82C5.27344 146.552 9.62904 150.389 15.0005 150.389C9.62848 150.389 5.27344 154.224 5.27344 158.957V163.241C5.27344 167.973 9.62904 171.809 15.0005 171.809C9.62848 171.809 5.27344 175.645 5.27344 180.378V184.662C5.27344 189.394 9.62904 193.23 15.0005 193.23C9.62848 193.23 5.27344 197.066 5.27344 201.798V206.082C5.27344 210.814 9.62904 214.651 15.0005 214.651C9.62848 214.651 5.27344 218.486 5.27344 223.219V236.071C5.27344 245.536 13.9829 253.208 24.7281 253.208H92.8184C103.563 253.208 112.273 245.536 112.273 236.071V223.219C112.273 218.486 107.917 214.651 102.546 214.651C107.918 214.651 112.273 210.814 112.273 206.082V201.798C112.273 197.066 107.917 193.23 102.546 193.23C107.918 193.23 112.273 189.393 112.273 184.662V180.378C112.273 175.645 107.917 171.809 102.546 171.809C107.918 171.809 112.273 167.972 112.273 163.241V158.957C112.273 154.224 107.917 150.389 102.546 150.389C107.918 150.389 112.273 146.552 112.273 141.82V137.536C112.273 132.804 107.917 128.968 102.546 128.968C107.918 128.968 112.273 125.131 112.273 120.4V116.115C112.273 111.383 107.917 107.547 102.546 107.547C107.917 107.547 112.273 103.711 112.273 98.9788Z" fill="#BBE8FC"/>
<path d="M44.1821 236.071V223.219C44.1821 218.486 48.5377 214.651 53.9091 214.651C48.5371 214.651 44.1821 210.814 44.1821 206.082V201.798C44.1821 197.066 48.5377 193.23 53.9091 193.23C48.5371 193.23 44.1821 189.393 44.1821 184.662V180.378C44.1821 175.645 48.5377 171.809 53.9091 171.809C48.5371 171.809 44.1821 167.972 44.1821 163.241V158.957C44.1821 154.224 48.5377 150.389 53.9091 150.389C48.5371 150.389 44.1821 146.552 44.1821 141.82V137.536C44.1821 132.804 48.5377 128.968 53.9091 128.968C48.5371 128.968 44.1821 125.131 44.1821 120.4V116.115C44.1821 111.383 48.5377 107.547 53.9091 107.547C48.5371 107.547 44.1821 103.71 44.1821 98.9788V73.2734H5.27344V98.9788C5.27344 103.711 9.62904 107.547 15.0005 107.547C9.62847 107.547 5.27344 111.383 5.27344 116.115V120.4C5.27344 125.132 9.62904 128.968 15.0005 128.968C9.62847 128.968 5.27344 132.804 5.27344 137.536V141.82C5.27344 146.552 9.62904 150.389 15.0005 150.389C9.62847 150.389 5.27344 154.224 5.27344 158.957V163.241C5.27344 167.973 9.62904 171.809 15.0005 171.809C9.62847 171.809 5.27344 175.645 5.27344 180.378V184.662C5.27344 189.394 9.62904 193.23 15.0005 193.23C9.62847 193.23 5.27344 197.066 5.27344 201.798V206.082C5.27344 210.814 9.62904 214.651 15.0005 214.651C9.62847 214.651 5.27344 218.486 5.27344 223.219V236.071C5.27344 245.536 13.9829 253.208 24.7281 253.208H63.6367C52.8916 253.208 44.1821 245.535 44.1821 236.071Z" fill="#90DDFA"/>
<path d="M116.865 75.5103C116.865 70.3238 114.711 65.3327 110.799 61.4564L79.2613 30.2033C78.4195 29.3692 77.956 28.2955 77.956 27.1792V24.8435C80.8527 23.4262 82.8195 20.7052 82.8195 17.5844V9.01609C82.8195 4.43836 78.5924 0.714844 73.3962 0.714844H44.2145C39.0183 0.714844 34.7912 4.43836 34.7912 9.01559V17.5839C34.7912 20.7042 36.758 23.4252 39.6548 24.843V27.1792C39.6548 28.2955 39.1906 29.3692 38.3494 30.2033L6.81198 61.4569C2.90058 65.3332 0.746094 70.3243 0.746094 75.5108V98.9846C0.746094 102.293 2.20441 105.304 4.58241 107.553C2.20497 109.801 0.746094 112.814 0.746094 116.121V120.405C0.746094 123.714 2.20441 126.725 4.58241 128.974C2.20497 131.222 0.746094 134.234 0.746094 137.542V141.826C0.746094 145.134 2.20441 148.146 4.58241 150.394C2.20497 152.643 0.746094 155.655 0.746094 158.963V163.247C0.746094 166.555 2.20441 169.567 4.58241 171.815C2.20497 174.064 0.746094 177.076 0.746094 180.383V184.667C0.746094 187.976 2.20441 190.987 4.58241 193.236C2.20497 195.484 0.746094 198.496 0.746094 201.804V206.088C0.746094 209.396 2.20441 212.408 4.58241 214.657C2.20497 216.905 0.746094 219.917 0.746094 223.225V236.077C0.746094 247.741 11.5191 257.23 24.7599 257.23H92.8502C106.092 257.23 116.864 247.741 116.864 236.077V223.225C116.864 219.917 115.406 216.905 113.028 214.657C115.405 212.408 116.864 209.396 116.864 206.088V201.804C116.864 198.496 115.406 195.484 113.028 193.236C115.405 190.987 116.864 187.975 116.864 184.667V180.383C116.864 177.075 115.406 174.064 113.028 171.815C115.405 169.567 116.864 166.554 116.864 163.247V158.963C116.864 155.654 115.406 152.643 113.028 150.394C115.405 148.146 116.864 145.134 116.864 141.826V137.542C116.864 134.234 115.406 131.222 113.028 128.974C115.405 126.725 116.864 123.713 116.864 120.405V116.121C116.864 112.813 115.406 109.801 113.028 107.553C115.405 105.304 116.864 102.292 116.864 98.9846L116.865 75.5103ZM43.9108 9.01559C43.9108 8.86779 44.0468 8.74805 44.2145 8.74805H73.3962C73.564 8.74805 73.6999 8.86779 73.6999 9.01559V17.5839C73.6999 17.7317 73.564 17.8514 73.3962 17.8514H44.2145C44.0468 17.8514 43.9108 17.7317 43.9108 17.5839V9.01559ZM13.6275 66.7937L45.1655 35.5401C47.4929 33.2335 48.7743 30.2645 48.7743 27.1792V25.8841H68.8364V27.1787C68.8364 30.264 70.1178 33.2335 72.4452 35.5401L103.983 66.7937C104.748 67.5522 105.391 68.3849 105.932 69.2626H11.6795C12.2198 68.3844 12.8631 67.5512 13.6275 66.7937ZM107.746 236.079C107.746 243.314 101.064 249.2 92.8508 249.2H24.7605C16.5475 249.2 9.86568 243.314 9.86568 236.079V223.227C9.86568 220.717 12.184 218.675 15.0335 218.675H102.578C105.427 218.675 107.746 220.717 107.746 223.227V236.079ZM107.746 206.09C107.746 208.6 105.427 210.642 102.578 210.642H15.0335C12.184 210.642 9.86568 208.6 9.86568 206.09V201.806C9.86568 199.296 12.184 197.253 15.0335 197.253H102.578C105.427 197.253 107.746 199.296 107.746 201.806V206.09ZM107.746 184.669C107.746 187.179 105.427 189.221 102.578 189.221H15.0335C12.184 189.221 9.86568 187.179 9.86568 184.669V180.384C9.86568 177.874 12.184 175.832 15.0335 175.832H102.578C105.427 175.832 107.746 177.874 107.746 180.384V184.669ZM107.746 163.247C107.746 165.757 105.427 167.799 102.578 167.799H15.0335C12.184 167.799 9.86568 165.757 9.86568 163.247V158.963C9.86568 156.453 12.184 154.411 15.0335 154.411H102.578C105.427 154.411 107.746 156.453 107.746 158.963V163.247ZM107.746 141.826C107.746 144.336 105.427 146.378 102.578 146.378H15.0335C12.184 146.378 9.86568 144.336 9.86568 141.826V137.542C9.86568 135.032 12.184 132.99 15.0335 132.99H102.578C105.427 132.99 107.746 135.032 107.746 137.542V141.826ZM107.746 120.405C107.746 122.915 105.427 124.958 102.578 124.958H15.0335C12.184 124.958 9.86568 122.915 9.86568 120.405V116.121C9.86568 113.611 12.184 111.569 15.0335 111.569H102.578C105.427 111.569 107.746 113.611 107.746 116.121V120.405ZM102.578 103.536H15.0335C12.184 103.536 9.86568 101.494 9.86568 98.9841V77.2954H107.746V98.9841C107.746 101.494 105.427 103.536 102.578 103.536Z" fill="#D8F0F5" fill-opacity="0.3"/>
<path d="M178.366 64.1151L146.828 32.8616C145.245 31.2929 144.372 29.2678 144.372 27.1691V17.5742H115.19V27.1691C115.19 29.2673 114.316 31.2934 112.733 32.8616L81.1948 64.1156C78.0296 67.2525 76.2812 71.3036 76.2812 75.5006H183.28C183.28 71.3031 181.531 67.252 178.366 64.1151Z" fill="#E4EAF8"/>
<path d="M148.694 34.7123L146.828 32.8626C146.097 32.1381 145.536 31.3089 145.124 30.4282C144.887 29.9241 144.706 29.4016 144.578 28.867C144.576 28.855 144.569 28.8445 144.567 28.8329C144.44 28.2893 144.372 27.7337 144.372 27.1701V21.8594H115.19V27.1706C115.19 29.2688 114.316 31.2939 112.733 32.8626L81.1948 64.1166C78.0296 67.2535 76.2812 71.3046 76.2812 75.5016H115.19C115.19 71.3046 115.826 67.2535 116.976 64.1166L125.904 40.5671C127.229 37.0706 130.945 34.7128 135.13 34.7128H148.695L148.694 34.7123Z" fill="#D5DCED"/>
<path d="M144.4 21.867H115.218C112.532 21.867 110.354 19.9487 110.354 17.5829V9.01461C110.354 6.64884 112.532 4.73047 115.218 4.73047H144.4C147.085 4.73047 149.263 6.64884 149.263 9.01461V17.5829C149.264 19.9492 147.086 21.867 144.4 21.867Z" fill="#39B6CC"/>
<path d="M124.945 17.5829V9.01461C124.945 6.64884 127.123 4.73047 129.809 4.73047H115.218C112.532 4.73047 110.354 6.64884 110.354 9.01461V17.5829C110.354 19.9487 112.532 21.867 115.218 21.867H129.809C127.123 21.867 124.945 19.9492 124.945 17.5829Z" fill="#0CB9DE"/>
<path d="M183.281 98.9788V73.2734H76.2812V98.9788C76.2812 103.711 80.6369 107.547 86.0083 107.547C80.6363 107.547 76.2812 111.383 76.2812 116.115V120.4C76.2812 125.132 80.6369 128.968 86.0083 128.968C80.6363 128.968 76.2812 132.804 76.2812 137.536V141.82C76.2812 146.552 80.6369 150.389 86.0083 150.389C80.6363 150.389 76.2812 154.224 76.2812 158.957V163.241C76.2812 167.973 80.6369 171.809 86.0083 171.809C80.6363 171.809 76.2812 175.645 76.2812 180.378V184.662C76.2812 189.394 80.6369 193.23 86.0083 193.23C80.6363 193.23 76.2812 197.066 76.2812 201.798V206.082C76.2812 210.814 80.6369 214.651 86.0083 214.651C80.6363 214.651 76.2812 218.486 76.2812 223.219V236.071C76.2812 245.536 84.9908 253.208 95.7359 253.208H163.826C174.571 253.208 183.281 245.536 183.281 236.071V223.219C183.281 218.486 178.925 214.651 173.554 214.651C178.926 214.651 183.281 210.814 183.281 206.082V201.798C183.281 197.066 178.925 193.23 173.554 193.23C178.926 193.23 183.281 189.393 183.281 184.662V180.378C183.281 175.645 178.925 171.809 173.554 171.809C178.926 171.809 183.281 167.972 183.281 163.241V158.957C183.281 154.224 178.925 150.389 173.554 150.389C178.926 150.389 183.281 146.552 183.281 141.82V137.536C183.281 132.804 178.925 128.968 173.554 128.968C178.926 128.968 183.281 125.131 183.281 120.4V116.115C183.281 111.383 178.925 107.547 173.554 107.547C178.925 107.547 183.281 103.711 183.281 98.9788Z" fill="#BBE8FC"/>
<path d="M115.19 236.071V223.219C115.19 218.486 119.546 214.651 124.917 214.651C119.545 214.651 115.19 210.814 115.19 206.082V201.798C115.19 197.066 119.546 193.23 124.917 193.23C119.545 193.23 115.19 189.393 115.19 184.662V180.378C115.19 175.645 119.546 171.809 124.917 171.809C119.545 171.809 115.19 167.972 115.19 163.241V158.957C115.19 154.224 119.546 150.389 124.917 150.389C119.545 150.389 115.19 146.552 115.19 141.82V137.536C115.19 132.804 119.546 128.968 124.917 128.968C119.545 128.968 115.19 125.131 115.19 120.4V116.115C115.19 111.383 119.546 107.547 124.917 107.547C119.545 107.547 115.19 103.71 115.19 98.9788V73.2734H76.2812V98.9788C76.2812 103.711 80.6368 107.547 86.0083 107.547C80.6363 107.547 76.2812 111.383 76.2812 116.115V120.4C76.2812 125.132 80.6368 128.968 86.0083 128.968C80.6363 128.968 76.2812 132.804 76.2812 137.536V141.82C76.2812 146.552 80.6368 150.389 86.0083 150.389C80.6363 150.389 76.2812 154.224 76.2812 158.957V163.241C76.2812 167.973 80.6368 171.809 86.0083 171.809C80.6363 171.809 76.2812 175.645 76.2812 180.378V184.662C76.2812 189.394 80.6368 193.23 86.0083 193.23C80.6363 193.23 76.2812 197.066 76.2812 201.798V206.082C76.2812 210.814 80.6368 214.651 86.0083 214.651C80.6363 214.651 76.2812 218.486 76.2812 223.219V236.071C76.2812 245.536 84.9908 253.208 95.7359 253.208H134.645C123.899 253.208 115.19 245.535 115.19 236.071Z" fill="#90DDFA"/>
<path d="M187.872 75.5103C187.872 70.3238 185.719 65.3327 181.807 61.4564L150.269 30.2033C149.427 29.3692 148.964 28.2955 148.964 27.1792V24.8435C151.861 23.4262 153.827 20.7052 153.827 17.5844V9.01609C153.827 4.43836 149.6 0.714844 144.404 0.714844H115.222C110.026 0.714844 105.799 4.43836 105.799 9.01559V17.5839C105.799 20.7042 107.766 23.4252 110.663 24.843V27.1792C110.663 28.2955 110.198 29.3692 109.357 30.2033L77.8198 61.4569C73.9084 65.3332 71.7539 70.3243 71.7539 75.5108V98.9846C71.7539 102.293 73.2122 105.304 75.5902 107.553C73.2128 109.801 71.7539 112.814 71.7539 116.121V120.405C71.7539 123.714 73.2122 126.725 75.5902 128.974C73.2128 131.222 71.7539 134.234 71.7539 137.542V141.826C71.7539 145.134 73.2122 148.146 75.5902 150.394C73.2128 152.643 71.7539 155.655 71.7539 158.963V163.247C71.7539 166.555 73.2122 169.567 75.5902 171.815C73.2128 174.064 71.7539 177.076 71.7539 180.383V184.667C71.7539 187.976 73.2122 190.987 75.5902 193.236C73.2128 195.484 71.7539 198.496 71.7539 201.804V206.088C71.7539 209.396 73.2122 212.408 75.5902 214.657C73.2128 216.905 71.7539 219.917 71.7539 223.225V236.077C71.7539 247.741 82.5269 257.23 95.7678 257.23H163.858C177.099 257.23 187.872 247.741 187.872 236.077V223.225C187.872 219.917 186.414 216.905 184.036 214.657C186.413 212.408 187.872 209.396 187.872 206.088V201.804C187.872 198.496 186.414 195.484 184.036 193.236C186.413 190.987 187.872 187.975 187.872 184.667V180.383C187.872 177.075 186.414 174.064 184.036 171.815C186.413 169.567 187.872 166.554 187.872 163.247V158.963C187.872 155.654 186.414 152.643 184.036 150.394C186.413 148.146 187.872 145.134 187.872 141.826V137.542C187.872 134.234 186.414 131.222 184.036 128.974C186.413 126.725 187.872 123.713 187.872 120.405V116.121C187.872 112.813 186.414 109.801 184.036 107.553C186.413 105.304 187.872 102.292 187.872 98.9846L187.872 75.5103ZM114.919 9.01559C114.919 8.86779 115.055 8.74805 115.222 8.74805H144.404C144.572 8.74805 144.708 8.86779 144.708 9.01559V17.5839C144.708 17.7317 144.572 17.8514 144.404 17.8514H115.222C115.055 17.8514 114.919 17.7317 114.919 17.5839V9.01559ZM84.6353 66.7937L116.173 35.5401C118.501 33.2335 119.782 30.2645 119.782 27.1792V25.8841H139.844V27.1787C139.844 30.264 141.126 33.2335 143.453 35.5401L174.99 66.7937C175.756 67.5522 176.399 68.3849 176.94 69.2626H82.6873C83.2276 68.3844 83.8709 67.5512 84.6353 66.7937ZM178.753 236.079C178.753 243.314 172.072 249.2 163.859 249.2H95.7683C87.5553 249.2 80.8735 243.314 80.8735 236.079V223.227C80.8735 220.717 83.1918 218.675 86.0413 218.675H173.586C176.435 218.675 178.753 220.717 178.753 223.227V236.079ZM178.753 206.09C178.753 208.6 176.435 210.642 173.586 210.642H86.0413C83.1918 210.642 80.8735 208.6 80.8735 206.09V201.806C80.8735 199.296 83.1918 197.253 86.0413 197.253H173.586C176.435 197.253 178.753 199.296 178.753 201.806V206.09ZM178.753 184.669C178.753 187.179 176.435 189.221 173.586 189.221H86.0413C83.1918 189.221 80.8735 187.179 80.8735 184.669V180.384C80.8735 177.874 83.1918 175.832 86.0413 175.832H173.586C176.435 175.832 178.753 177.874 178.753 180.384V184.669ZM178.753 163.247C178.753 165.757 176.435 167.799 173.586 167.799H86.0413C83.1918 167.799 80.8735 165.757 80.8735 163.247V158.963C80.8735 156.453 83.1918 154.411 86.0413 154.411H173.586C176.435 154.411 178.753 156.453 178.753 158.963V163.247ZM178.753 141.826C178.753 144.336 176.435 146.378 173.586 146.378H86.0413C83.1918 146.378 80.8735 144.336 80.8735 141.826V137.542C80.8735 135.032 83.1918 132.99 86.0413 132.99H173.586C176.435 132.99 178.753 135.032 178.753 137.542V141.826ZM178.753 120.405C178.753 122.915 176.435 124.958 173.586 124.958H86.0413C83.1918 124.958 80.8735 122.915 80.8735 120.405V116.121C80.8735 113.611 83.1918 111.569 86.0413 111.569H173.586C176.435 111.569 178.753 113.611 178.753 116.121V120.405ZM173.586 103.536H86.0413C83.1918 103.536 80.8735 101.494 80.8735 98.9841V77.2954H178.753V98.9841C178.753 101.494 176.435 103.536 173.586 103.536Z" fill="#D8F0F5" fill-opacity="0.3"/>
<path d="M249.375 64.1151L217.837 32.8616C216.254 31.2929 215.38 29.2678 215.38 27.1691V17.5742H186.199V27.1691C186.199 29.2673 185.325 31.2934 183.742 32.8616L152.204 64.1156C149.038 67.2525 147.29 71.3036 147.29 75.5006H254.289C254.289 71.3031 252.54 67.252 249.375 64.1151Z" fill="#E4EAF8"/>
<path d="M219.703 34.7123L217.837 32.8626C217.106 32.1381 216.545 31.3089 216.133 30.4282C215.896 29.9241 215.715 29.4016 215.587 28.867C215.585 28.855 215.578 28.8445 215.576 28.8329C215.449 28.2893 215.38 27.7337 215.38 27.1701V21.8594H186.199V27.1706C186.199 29.2688 185.325 31.2939 183.742 32.8626L152.204 64.1166C149.038 67.2535 147.29 71.3046 147.29 75.5016H186.199C186.199 71.3046 186.835 67.2535 187.985 64.1166L196.913 40.5671C198.238 37.0706 201.953 34.7128 206.139 34.7128H219.704L219.703 34.7123Z" fill="#D5DCED"/>
<path d="M215.408 21.867H186.227C183.541 21.867 181.363 19.9487 181.363 17.5829V9.01461C181.363 6.64884 183.541 4.73047 186.227 4.73047H215.408C218.094 4.73047 220.272 6.64884 220.272 9.01461V17.5829C220.273 19.9492 218.095 21.867 215.408 21.867Z" fill="#39B6CC"/>
<path d="M195.954 17.5829V9.01461C195.954 6.64884 198.132 4.73047 200.817 4.73047H186.227C183.541 4.73047 181.363 6.64884 181.363 9.01461V17.5829C181.363 19.9487 183.541 21.867 186.227 21.867H200.817C198.132 21.867 195.954 19.9492 195.954 17.5829Z" fill="#0CB9DE"/>
<path d="M254.29 98.9788V73.2734H147.29V98.9788C147.29 103.711 151.646 107.547 157.017 107.547C151.645 107.547 147.29 111.383 147.29 116.115V120.4C147.29 125.132 151.646 128.968 157.017 128.968C151.645 128.968 147.29 132.804 147.29 137.536V141.82C147.29 146.552 151.646 150.389 157.017 150.389C151.645 150.389 147.29 154.224 147.29 158.957V163.241C147.29 167.973 151.646 171.809 157.017 171.809C151.645 171.809 147.29 175.645 147.29 180.378V184.662C147.29 189.394 151.646 193.23 157.017 193.23C151.645 193.23 147.29 197.066 147.29 201.798V206.082C147.29 210.814 151.646 214.651 157.017 214.651C151.645 214.651 147.29 218.486 147.29 223.219V236.071C147.29 245.536 156 253.208 166.745 253.208H234.835C245.58 253.208 254.29 245.536 254.29 236.071V223.219C254.29 218.486 249.934 214.651 244.563 214.651C249.935 214.651 254.29 210.814 254.29 206.082V201.798C254.29 197.066 249.934 193.23 244.563 193.23C249.935 193.23 254.29 189.393 254.29 184.662V180.378C254.29 175.645 249.934 171.809 244.563 171.809C249.935 171.809 254.29 167.972 254.29 163.241V158.957C254.29 154.224 249.934 150.389 244.563 150.389C249.935 150.389 254.29 146.552 254.29 141.82V137.536C254.29 132.804 249.934 128.968 244.563 128.968C249.935 128.968 254.29 125.131 254.29 120.4V116.115C254.29 111.383 249.934 107.547 244.563 107.547C249.934 107.547 254.29 103.711 254.29 98.9788Z" fill="#BBE8FC"/>
<path d="M186.199 236.071V223.219C186.199 218.486 190.554 214.651 195.926 214.651C190.554 214.651 186.199 210.814 186.199 206.082V201.798C186.199 197.066 190.554 193.23 195.926 193.23C190.554 193.23 186.199 189.393 186.199 184.662V180.378C186.199 175.645 190.554 171.809 195.926 171.809C190.554 171.809 186.199 167.972 186.199 163.241V158.957C186.199 154.224 190.554 150.389 195.926 150.389C190.554 150.389 186.199 146.552 186.199 141.82V137.536C186.199 132.804 190.554 128.968 195.926 128.968C190.554 128.968 186.199 125.131 186.199 120.4V116.115C186.199 111.383 190.554 107.547 195.926 107.547C190.554 107.547 186.199 103.71 186.199 98.9788V73.2734H147.29V98.9788C147.29 103.711 151.646 107.547 157.017 107.547C151.645 107.547 147.29 111.383 147.29 116.115V120.4C147.29 125.132 151.646 128.968 157.017 128.968C151.645 128.968 147.29 132.804 147.29 137.536V141.82C147.29 146.552 151.646 150.389 157.017 150.389C151.645 150.389 147.29 154.224 147.29 158.957V163.241C147.29 167.973 151.646 171.809 157.017 171.809C151.645 171.809 147.29 175.645 147.29 180.378V184.662C147.29 189.394 151.646 193.23 157.017 193.23C151.645 193.23 147.29 197.066 147.29 201.798V206.082C147.29 210.814 151.646 214.651 157.017 214.651C151.645 214.651 147.29 218.486 147.29 223.219V236.071C147.29 245.536 156 253.208 166.745 253.208H205.653C194.908 253.208 186.199 245.535 186.199 236.071Z" fill="#90DDFA"/>
<path d="M258.881 75.5103C258.881 70.3238 256.727 65.3327 252.815 61.4564L221.278 30.2033C220.436 29.3692 219.973 28.2955 219.973 27.1792V24.8435C222.869 23.4262 224.836 20.7052 224.836 17.5844V9.01609C224.836 4.43836 220.609 0.714844 215.413 0.714844H186.231C181.035 0.714844 176.808 4.43836 176.808 9.01559V17.5839C176.808 20.7042 178.775 23.4252 181.671 24.843V27.1792C181.671 28.2955 181.207 29.3692 180.366 30.2033L148.829 61.4569C144.917 65.3332 142.763 70.3243 142.763 75.5108V98.9846C142.763 102.293 144.221 105.304 146.599 107.553C144.222 109.801 142.763 112.814 142.763 116.121V120.405C142.763 123.714 144.221 126.725 146.599 128.974C144.222 131.222 142.763 134.234 142.763 137.542V141.826C142.763 145.134 144.221 148.146 146.599 150.394C144.222 152.643 142.763 155.655 142.763 158.963V163.247C142.763 166.555 144.221 169.567 146.599 171.815C144.222 174.064 142.763 177.076 142.763 180.383V184.667C142.763 187.976 144.221 190.987 146.599 193.236C144.222 195.484 142.763 198.496 142.763 201.804V206.088C142.763 209.396 144.221 212.408 146.599 214.657C144.222 216.905 142.763 219.917 142.763 223.225V236.077C142.763 247.741 153.536 257.23 166.777 257.23H234.867C248.108 257.23 258.881 247.741 258.881 236.077V223.225C258.881 219.917 257.422 216.905 255.044 214.657C257.422 212.408 258.881 209.396 258.881 206.088V201.804C258.881 198.496 257.422 195.484 255.044 193.236C257.422 190.987 258.881 187.975 258.881 184.667V180.383C258.881 177.075 257.422 174.064 255.044 171.815C257.422 169.567 258.881 166.554 258.881 163.247V158.963C258.881 155.654 257.422 152.643 255.044 150.394C257.422 148.146 258.881 145.134 258.881 141.826V137.542C258.881 134.234 257.422 131.222 255.044 128.974C257.422 126.725 258.881 123.713 258.881 120.405V116.121C258.881 112.813 257.422 109.801 255.044 107.553C257.422 105.304 258.881 102.292 258.881 98.9846L258.881 75.5103ZM185.927 9.01559C185.927 8.86779 186.063 8.74805 186.231 8.74805H215.413C215.581 8.74805 215.717 8.86779 215.717 9.01559V17.5839C215.717 17.7317 215.581 17.8514 215.413 17.8514H186.231C186.063 17.8514 185.927 17.7317 185.927 17.5839V9.01559ZM155.644 66.7937L187.182 35.5401C189.51 33.2335 190.791 30.2645 190.791 27.1792V25.8841H210.853V27.1787C210.853 30.264 212.134 33.2335 214.462 35.5401L245.999 66.7937C246.765 67.5522 247.408 68.3849 247.948 69.2626H153.696C154.236 68.3844 154.88 67.5512 155.644 66.7937ZM249.762 236.079C249.762 243.314 243.08 249.2 234.867 249.2H166.777C158.564 249.2 151.882 243.314 151.882 236.079V223.227C151.882 220.717 154.201 218.675 157.05 218.675H244.594C247.444 218.675 249.762 220.717 249.762 223.227V236.079ZM249.762 206.09C249.762 208.6 247.444 210.642 244.594 210.642H157.05C154.201 210.642 151.882 208.6 151.882 206.09V201.806C151.882 199.296 154.201 197.253 157.05 197.253H244.594C247.444 197.253 249.762 199.296 249.762 201.806V206.09ZM249.762 184.669C249.762 187.179 247.444 189.221 244.594 189.221H157.05C154.201 189.221 151.882 187.179 151.882 184.669V180.384C151.882 177.874 154.201 175.832 157.05 175.832H244.594C247.444 175.832 249.762 177.874 249.762 180.384V184.669ZM249.762 163.247C249.762 165.757 247.444 167.799 244.594 167.799H157.05C154.201 167.799 151.882 165.757 151.882 163.247V158.963C151.882 156.453 154.201 154.411 157.05 154.411H244.594C247.444 154.411 249.762 156.453 249.762 158.963V163.247ZM249.762 141.826C249.762 144.336 247.444 146.378 244.594 146.378H157.05C154.201 146.378 151.882 144.336 151.882 141.826V137.542C151.882 135.032 154.201 132.99 157.05 132.99H244.594C247.444 132.99 249.762 135.032 249.762 137.542V141.826ZM249.762 120.405C249.762 122.915 247.444 124.958 244.594 124.958H157.05C154.201 124.958 151.882 122.915 151.882 120.405V116.121C151.882 113.611 154.201 111.569 157.05 111.569H244.594C247.444 111.569 249.762 113.611 249.762 116.121V120.405ZM244.594 103.536H157.05C154.201 103.536 151.882 101.494 151.882 98.9841V77.2954H249.762V98.9841C249.762 101.494 247.444 103.536 244.594 103.536Z" fill="#D8F0F5" fill-opacity="0.3"/>
<path d="M192.567 94.1854L161.029 62.9319C159.446 61.3632 158.573 59.3381 158.573 57.2394V47.6445H129.391V57.2394C129.391 59.3376 128.517 61.3637 126.935 62.9319L95.396 94.1859C92.2308 97.3228 90.4824 101.374 90.4824 105.571H197.481C197.481 101.373 195.732 97.3223 192.567 94.1854Z" fill="#E4EAF8"/>
<path d="M162.895 64.7865L161.029 62.9368C160.298 62.2123 159.738 61.3832 159.325 60.5024C159.089 59.9984 158.907 59.4758 158.779 58.9412C158.777 58.9292 158.771 58.9187 158.768 58.9072C158.641 58.3636 158.573 57.8079 158.573 57.2443V51.9336H129.391V57.2448C129.391 59.343 128.517 61.3681 126.935 62.9368L95.396 94.1909C92.2308 97.3277 90.4824 101.379 90.4824 105.576H129.391C129.391 101.379 130.027 97.3277 131.178 94.1909L140.105 70.6413C141.43 67.1448 145.146 64.787 149.331 64.787H162.896L162.895 64.7865Z" fill="#D5DCED"/>
<path d="M158.595 51.9374H129.413C126.728 51.9374 124.55 50.019 124.55 47.6532V39.0849C124.55 36.7192 126.728 34.8008 129.413 34.8008H158.595C161.281 34.8008 163.458 36.7192 163.458 39.0849V47.6532C163.459 50.0195 161.281 51.9374 158.595 51.9374Z" fill="#39B6CC"/>
<path d="M139.14 47.6532V39.0849C139.14 36.7192 141.318 34.8008 144.004 34.8008H129.413C126.728 34.8008 124.55 36.7192 124.55 39.0849V47.6532C124.55 50.019 126.728 51.9374 129.413 51.9374H144.004C141.318 51.9374 139.14 50.0195 139.14 47.6532Z" fill="#0CB9DE"/>
<path d="M197.482 129.053V103.348H90.4824V129.053C90.4824 133.785 94.838 137.621 100.209 137.621C94.8375 137.621 90.4824 141.457 90.4824 146.19V150.474C90.4824 155.206 94.838 159.042 100.209 159.042C94.8375 159.042 90.4824 162.878 90.4824 167.61V171.894C90.4824 176.626 94.838 180.463 100.209 180.463C94.8375 180.463 90.4824 184.298 90.4824 189.031V193.315C90.4824 198.047 94.838 201.883 100.209 201.883C94.8375 201.883 90.4824 205.719 90.4824 210.452V214.736C90.4824 219.468 94.838 223.304 100.209 223.304C94.8375 223.304 90.4824 227.14 90.4824 231.872V236.157C90.4824 240.889 94.838 244.725 100.209 244.725C94.8375 244.725 90.4824 248.561 90.4824 253.293V266.146C90.4824 275.61 99.1919 283.283 109.937 283.283H178.027C188.772 283.283 197.482 275.61 197.482 266.146V253.293C197.482 248.561 193.126 244.725 187.755 244.725C193.127 244.725 197.482 240.888 197.482 236.157V231.872C197.482 227.14 193.126 223.304 187.755 223.304C193.127 223.304 197.482 219.467 197.482 214.736V210.452C197.482 205.719 193.126 201.883 187.755 201.883C193.127 201.883 197.482 198.047 197.482 193.315V189.031C197.482 184.298 193.126 180.463 187.755 180.463C193.127 180.463 197.482 176.626 197.482 171.894V167.61C197.482 162.878 193.126 159.042 187.755 159.042C193.127 159.042 197.482 155.205 197.482 150.474V146.19C197.482 141.457 193.126 137.621 187.755 137.621C193.126 137.621 197.482 133.785 197.482 129.053Z" fill="#BBE8FC"/>
<path d="M129.391 266.146V253.293C129.391 248.561 133.747 244.725 139.118 244.725C133.746 244.725 129.391 240.888 129.391 236.157V231.872C129.391 227.14 133.747 223.304 139.118 223.304C133.746 223.304 129.391 219.467 129.391 214.736V210.452C129.391 205.719 133.747 201.883 139.118 201.883C133.746 201.883 129.391 198.047 129.391 193.315V189.031C129.391 184.298 133.747 180.463 139.118 180.463C133.746 180.463 129.391 176.626 129.391 171.894V167.61C129.391 162.878 133.747 159.042 139.118 159.042C133.746 159.042 129.391 155.205 129.391 150.474V146.19C129.391 141.457 133.747 137.621 139.118 137.621C133.746 137.621 129.391 133.785 129.391 129.053V103.348H90.4824V129.053C90.4824 133.785 94.838 137.621 100.209 137.621C94.8375 137.621 90.4824 141.457 90.4824 146.19V150.474C90.4824 155.206 94.838 159.042 100.209 159.042C94.8375 159.042 90.4824 162.878 90.4824 167.61V171.894C90.4824 176.627 94.838 180.463 100.209 180.463C94.8375 180.463 90.4824 184.298 90.4824 189.031V193.315C90.4824 198.047 94.838 201.883 100.209 201.883C94.8375 201.883 90.4824 205.719 90.4824 210.452V214.736C90.4824 219.468 94.838 223.304 100.209 223.304C94.8375 223.304 90.4824 227.14 90.4824 231.872V236.157C90.4824 240.889 94.838 244.725 100.209 244.725C94.8375 244.725 90.4824 248.561 90.4824 253.293V266.146C90.4824 275.61 99.1919 283.283 109.937 283.283H148.846C138.101 283.282 129.391 275.61 129.391 266.146Z" fill="#90DDFA"/>
<path d="M202.074 105.581C202.074 100.394 199.92 95.403 196.008 91.5267L164.47 60.2737C163.629 59.4395 163.165 58.3658 163.165 57.2496V54.9138C166.062 53.4965 168.028 50.7755 168.028 47.6547V39.0864C168.028 34.5087 163.801 30.7852 158.605 30.7852H129.424C124.227 30.7852 120 34.5087 120 39.0859V47.6542C120 50.7745 121.967 53.4955 124.864 54.9133V57.2496C124.864 58.3658 124.4 59.4395 123.558 60.2737L92.021 91.5272C88.1096 95.4035 85.9551 100.395 85.9551 105.581V129.055C85.9551 132.363 87.4134 135.375 89.7914 137.623C87.414 139.872 85.9551 142.884 85.9551 146.192V150.476C85.9551 153.784 87.4134 156.795 89.7914 159.044C87.414 161.292 85.9551 164.305 85.9551 167.612V171.896C85.9551 175.205 87.4134 178.216 89.7914 180.465C87.414 182.713 85.9551 185.725 85.9551 189.033V193.317C85.9551 196.625 87.4134 199.637 89.7914 201.885C87.414 204.134 85.9551 207.146 85.9551 210.454V214.738C85.9551 218.046 87.4134 221.058 89.7914 223.306C87.414 225.555 85.9551 228.567 85.9551 231.874V236.159C85.9551 239.467 87.4134 242.478 89.7914 244.727C87.414 246.975 85.9551 249.987 85.9551 253.295V266.148C85.9551 277.811 96.7281 287.301 109.969 287.301H178.059C191.301 287.301 202.073 277.811 202.073 266.148V253.295C202.073 249.987 200.615 246.975 198.237 244.727C200.614 242.478 202.073 239.466 202.073 236.159V231.874C202.073 228.566 200.615 225.555 198.237 223.306C200.614 221.058 202.073 218.045 202.073 214.738V210.454C202.073 207.146 200.615 204.134 198.237 201.885C200.614 199.637 202.073 196.625 202.073 193.317V189.033C202.073 185.725 200.615 182.713 198.237 180.465C200.614 178.216 202.073 175.204 202.073 171.896V167.612C202.073 164.304 200.615 161.292 198.237 159.044C200.614 156.795 202.073 153.783 202.073 150.476V146.192C202.073 142.883 200.615 139.872 198.237 137.623C200.614 135.375 202.073 132.363 202.073 129.055L202.074 105.581ZM129.12 39.0859C129.12 38.9381 129.256 38.8184 129.424 38.8184H158.605C158.773 38.8184 158.909 38.9381 158.909 39.0859V47.6542C158.909 47.802 158.773 47.9217 158.605 47.9217H129.424C129.256 47.9217 129.12 47.802 129.12 47.6542V39.0859ZM98.8365 96.864L130.375 65.6104C132.702 63.3038 133.983 60.3348 133.983 57.2496V55.9544H154.045V57.2491C154.045 60.3343 155.327 63.3038 157.654 65.6104L189.192 96.864C189.957 97.6225 190.6 98.4552 191.141 99.333H96.8885C97.4288 98.4547 98.0721 97.6215 98.8365 96.864ZM192.955 266.15C192.955 273.384 186.273 279.27 178.06 279.27H109.969C101.757 279.27 95.0747 273.384 95.0747 266.15V253.297C95.0747 250.787 97.3929 248.745 100.242 248.745H187.787C190.636 248.745 192.955 250.787 192.955 253.297V266.15ZM192.955 236.16C192.955 238.67 190.636 240.712 187.787 240.712H100.242C97.3929 240.712 95.0747 238.67 95.0747 236.16V231.876C95.0747 229.366 97.3929 227.324 100.242 227.324H187.787C190.636 227.324 192.955 229.366 192.955 231.876V236.16ZM192.955 214.739C192.955 217.249 190.636 219.291 187.787 219.291H100.242C97.3929 219.291 95.0747 217.249 95.0747 214.739V210.455C95.0747 207.945 97.3929 205.903 100.242 205.903H187.787C190.636 205.903 192.955 207.945 192.955 210.455V214.739ZM192.955 193.318C192.955 195.828 190.636 197.87 187.787 197.87H100.242C97.3929 197.87 95.0747 195.828 95.0747 193.318V189.033C95.0747 186.523 97.3929 184.481 100.242 184.481H187.787C190.636 184.481 192.955 186.523 192.955 189.033V193.318ZM192.955 171.896C192.955 174.406 190.636 176.449 187.787 176.449H100.242C97.3929 176.449 95.0747 174.406 95.0747 171.896V167.612C95.0747 165.102 97.3929 163.06 100.242 163.06H187.787C190.636 163.06 192.955 165.102 192.955 167.612V171.896ZM192.955 150.476C192.955 152.986 190.636 155.028 187.787 155.028H100.242C97.3929 155.028 95.0747 152.986 95.0747 150.476V146.192C95.0747 143.681 97.3929 141.639 100.242 141.639H187.787C190.636 141.639 192.955 143.681 192.955 146.192V150.476ZM187.787 133.607H100.242C97.3929 133.607 95.0747 131.564 95.0747 129.054V107.366H192.955V129.054C192.955 131.564 190.636 133.607 187.787 133.607Z" fill="#D8F0F5" fill-opacity="0.3"/>
</svg>
