<svg width="43" height="31" viewBox="0 0 43 31" fill="none" xmlns="http://www.w3.org/2000/svg">
    <rect x="0.866089" y="0.666748" width="41.5" height="29" rx="3.5" fill="white" stroke="#B2BCCA" />
    <path fill-rule="evenodd" clip-rule="evenodd"
        d="M18.6339 23.2271L18.9098 21.4157L18.2952 21.4009H15.3602L17.3999 8.03387C17.4063 7.99339 17.4268 7.95582 17.4568 7.92909C17.4869 7.90236 17.5254 7.8877 17.5656 7.8877H22.5143C24.1573 7.8877 25.2911 8.24099 25.8829 8.93842C26.1605 9.26559 26.3372 9.60759 26.4228 9.98379C26.5125 10.3786 26.514 10.8503 26.4265 11.4257L26.4201 11.4675V11.8363L26.6977 11.9988C26.9313 12.1269 27.1171 12.2736 27.2595 12.4414C27.4969 12.7213 27.6504 13.0768 27.7153 13.4983C27.7824 13.9318 27.7602 14.4477 27.6504 15.0318C27.5237 15.7036 27.3191 16.2887 27.0426 16.7674C26.7884 17.2086 26.4645 17.5745 26.0798 17.858C25.7125 18.1275 25.2763 18.332 24.783 18.4629C24.3049 18.5915 23.7599 18.6564 23.1622 18.6564H22.777C22.5017 18.6564 22.2342 18.7589 22.0242 18.9427C21.8137 19.1302 21.6744 19.3865 21.6317 19.6668L21.6026 19.8299L21.1151 23.0227L21.0931 23.1399C21.0872 23.177 21.0771 23.1955 21.0623 23.208C21.0492 23.2195 21.0303 23.2271 21.0118 23.2271H18.6339Z"
        fill="#28356A" />
    <path fill-rule="evenodd" clip-rule="evenodd"
        d="M26.9607 11.51C26.9461 11.6076 26.9291 11.7074 26.9102 11.8098C26.2576 15.2731 24.0247 16.4696 21.1732 16.4696H19.7212C19.3725 16.4696 19.0785 16.7312 19.0243 17.0868L18.0704 23.3409C18.035 23.5744 18.2091 23.7848 18.437 23.7848H21.0122C21.3171 23.7848 21.5762 23.5558 21.6242 23.245L21.6495 23.1098L22.1343 19.9295L22.1655 19.7551C22.2129 19.4432 22.4726 19.2141 22.7775 19.2141H23.1626C25.6576 19.2141 27.6108 18.1672 28.1817 15.1374C28.42 13.8717 28.2966 12.8149 27.6656 12.0716C27.4747 11.8476 27.2378 11.6615 26.9607 11.51Z"
        fill="#2F80ED" />
    <path fill-rule="evenodd" clip-rule="evenodd"
        d="M26.2777 11.2289C26.1779 11.1988 26.0751 11.1716 25.9695 11.147C25.8634 11.1231 25.7548 11.1018 25.6429 11.0832C25.2515 11.0178 24.8225 10.9868 24.363 10.9868H20.4842C20.3886 10.9868 20.2979 11.0091 20.2167 11.0494C20.0378 11.1383 19.9049 11.3134 19.8727 11.5277L19.0475 16.9296L19.0239 17.0871C19.0781 16.7315 19.372 16.4698 19.7208 16.4698H21.1727C24.0243 16.4698 26.2571 15.2728 26.9097 11.8101C26.9292 11.7076 26.9456 11.6079 26.9603 11.5103C26.7952 11.4197 26.6164 11.3423 26.4238 11.2763C26.3762 11.2599 26.3272 11.2442 26.2777 11.2289Z"
        fill="#28356A" />
    <path fill-rule="evenodd" clip-rule="evenodd"
        d="M19.8729 11.5276C19.9051 11.3133 20.038 11.1383 20.2169 11.05C20.2986 11.0095 20.3888 10.9872 20.4844 10.9872H24.3632C24.8226 10.9872 25.2516 11.0184 25.6431 11.0838C25.755 11.1023 25.8636 11.1236 25.9697 11.1476C26.0752 11.1721 26.1781 11.1994 26.2778 11.2293C26.3273 11.2446 26.3764 11.2605 26.4244 11.2762C26.617 11.3422 26.796 11.4203 26.961 11.5102C27.1552 10.2304 26.9594 9.359 26.29 8.56993C25.5518 7.70112 24.2197 7.32935 22.515 7.32935H17.5662C17.218 7.32935 16.921 7.591 16.8672 7.94719L14.8059 21.4517C14.7653 21.7188 14.9647 21.9599 15.2253 21.9599H18.2805L19.8729 11.5276Z"
        fill="#28356A" />
</svg>
    