<svg xmlns="http://www.w3.org/2000/svg" width="15" height="14" viewBox="0 0 15 14" fill="none">
  <path d="M12.3995 5.60004C12.3995 3.26671 11.4662 2.33337 9.13283 2.33337H6.33283C3.9995 2.33337 3.06616 3.26671 3.06616 5.60004V8.40004C3.06616 10.7334 3.9995 11.6667 6.33283 11.6667" stroke="white" stroke-linecap="round" stroke-linejoin="round"/>
  <path d="M10.2703 4.66671C9.9495 4.25837 9.41283 4.08337 8.60783 4.08337H6.85783C5.3995 4.08337 4.81616 4.66671 4.81616 6.12504V7.87504C4.81616 8.68004 4.99116 9.21671 5.39366 9.53754" stroke="white" stroke-linecap="round" stroke-linejoin="round"/>
  <path d="M5.40552 2.33329V1.16663" stroke="white" stroke-linecap="round" stroke-linejoin="round"/>
  <path d="M7.73291 2.33329V1.16663" stroke="white" stroke-linecap="round" stroke-linejoin="round"/>
  <path d="M10.0662 2.33329V1.16663" stroke="white" stroke-linecap="round" stroke-linejoin="round"/>
  <path d="M12.3997 4.66663H13.5663" stroke="white" stroke-linecap="round" stroke-linejoin="round"/>
  <path d="M5.40552 11.6666V12.8333" stroke="white" stroke-linecap="round" stroke-linejoin="round"/>
  <path d="M1.89966 4.66663H3.06632" stroke="white" stroke-linecap="round" stroke-linejoin="round"/>
  <path d="M1.89966 7H3.06632" stroke="white" stroke-linecap="round" stroke-linejoin="round"/>
  <path d="M1.89966 9.33337H3.06632" stroke="white" stroke-linecap="round" stroke-linejoin="round"/>
  <path d="M10.4805 10.8441C10.9927 10.8441 11.408 10.4289 11.408 9.91664C11.408 9.40439 10.9927 8.98914 10.4805 8.98914C9.96823 8.98914 9.55298 9.40439 9.55298 9.91664C9.55298 10.4289 9.96823 10.8441 10.4805 10.8441Z" stroke="white" stroke-miterlimit="10" stroke-linecap="round" stroke-linejoin="round"/>
  <path d="M7.38867 10.185V9.64252C7.38867 9.32168 7.65117 9.05918 7.97201 9.05918C8.53201 9.05918 8.75951 8.66252 8.47951 8.17835C8.31617 7.89835 8.41534 7.53668 8.69534 7.37918L9.22617 7.07002C9.47117 6.92418 9.78617 7.01168 9.93201 7.25668L9.96701 7.31502C10.247 7.79918 10.702 7.79918 10.982 7.31502L11.017 7.25668C11.1628 7.01168 11.4778 6.93002 11.7228 7.07002L12.2537 7.37918C12.5337 7.54252 12.6328 7.89835 12.4695 8.17835C12.1895 8.66252 12.417 9.05918 12.977 9.05918C13.2978 9.05918 13.5603 9.32168 13.5603 9.64252V10.185C13.5603 10.5058 13.2978 10.7683 12.977 10.7683C12.417 10.7683 12.1895 11.165 12.4695 11.6492C12.6328 11.9292 12.5337 12.2908 12.2537 12.4483L11.7228 12.7575C11.4778 12.9034 11.1628 12.8158 11.017 12.5708L10.982 12.5125C10.702 12.0284 10.247 12.0284 9.96701 12.5125L9.93201 12.5708C9.78617 12.8158 9.47117 12.8975 9.22617 12.7575L8.69534 12.4483C8.41534 12.285 8.31617 11.9292 8.47951 11.6492C8.75951 11.165 8.53201 10.7683 7.97201 10.7683C7.65117 10.7742 7.38867 10.5117 7.38867 10.185Z" stroke="white" stroke-miterlimit="10" stroke-linecap="round" stroke-linejoin="round"/>
</svg>