<svg xmlns="http://www.w3.org/2000/svg" width="41" height="40" viewBox="0 0 41 40" fill="none">
  <path d="M15.3442 18.5928C15.1778 18.5766 14.978 18.5766 14.795 18.5928C10.8337 18.4632 7.68799 15.3045 7.68799 11.4168C7.68799 7.44813 10.9835 4.22461 15.0779 4.22461C19.1557 4.22461 22.4678 7.44813 22.4678 11.4168C22.4512 15.3045 19.3055 18.4632 15.3442 18.5928Z" stroke="#2190A4" stroke-width="2.42979" stroke-linecap="round" stroke-linejoin="round"/>
  <path d="M27.4117 7.46387C30.6406 7.46387 33.2371 10.007 33.2371 13.1334C33.2371 16.1949 30.7405 18.6895 27.6281 18.8029C27.4949 18.7867 27.3451 18.7867 27.1953 18.8029" stroke="#2190A4" stroke-width="2.42979" stroke-linecap="round" stroke-linejoin="round"/>
  <path d="M7.02283 24.5694C2.99499 27.1936 2.99499 31.4701 7.02283 34.078C11.5999 37.0586 19.1064 37.0586 23.6835 34.078C27.7113 31.4539 27.7113 27.1774 23.6835 24.5694C19.123 21.6051 11.6166 21.6051 7.02283 24.5694Z" stroke="#2190A4" stroke-width="2.42979" stroke-linecap="round" stroke-linejoin="round"/>
  <path d="M30.6235 33.382C31.8219 33.139 32.9537 32.6693 33.8858 31.9727C36.4822 30.0775 36.4822 26.9512 33.8858 25.0559C32.9703 24.3756 31.8552 23.922 30.6735 23.6628" stroke="#2190A4" stroke-width="2.42979" stroke-linecap="round" stroke-linejoin="round"/>
</svg>