<svg xmlns="http://www.w3.org/2000/svg" width="24" height="24" viewBox="0 0 24 24" fill="none">
  <path d="M10.1344 10.536L11.7454 9.06C12.1859 8.65563 12.4955 8.12885 12.6345 7.54727C12.7735 6.96569 12.7355 6.35584 12.5254 5.796L11.8384 3.9615C11.5818 3.27663 11.0736 2.71538 10.4176 2.39208C9.76152 2.06879 9.00689 2.00779 8.30742 2.2215C5.73342 3.009 3.75492 5.4015 4.36392 8.2425C4.76442 10.1115 5.53092 12.4575 6.98292 14.9535C8.43792 17.4555 10.0999 19.3035 11.5249 20.6025C13.6759 22.56 16.7509 22.071 18.7294 20.226C19.2598 19.7315 19.5816 19.0534 19.6292 18.3298C19.6769 17.6063 19.4468 16.8918 18.9859 16.332L17.7259 14.802C17.3459 14.3393 16.8361 14.0009 16.2622 13.8304C15.6883 13.6598 15.0764 13.6649 14.5054 13.845L12.4234 14.5005C11.8857 13.9456 11.4146 13.33 11.0194 12.666C10.638 11.9945 10.3408 11.2786 10.1344 10.5345" fill="#0CB9DE"/>
</svg>