<svg xmlns="http://www.w3.org/2000/svg" width="25" height="25" viewBox="0 0 25 25" fill="none">
  <g clip-path="url(#clip0_1_2413)">
    <path d="M10.6359 14.1353C12.0103 15.5296 13.6732 16.606 15.508 17.2891L17.9902 15.3139C18.0638 15.2632 18.151 15.2361 18.2404 15.2361C18.3297 15.2361 18.417 15.2632 18.4906 15.3139L23.0994 18.2833C23.2743 18.3884 23.4225 18.5329 23.532 18.7052C23.6416 18.8774 23.7096 19.0728 23.7306 19.2759C23.7517 19.4789 23.7253 19.6841 23.6534 19.8752C23.5816 20.0663 23.4663 20.2381 23.3166 20.377L21.1571 22.5102C20.8478 22.8158 20.4677 23.04 20.0507 23.163C19.6336 23.2859 19.1927 23.3036 18.7671 23.2147C14.5219 22.3379 10.6089 20.2845 7.47553 17.2891C4.41165 14.2639 2.29146 10.4146 1.37216 6.20819C1.28134 5.78921 1.30029 5.35387 1.42718 4.94437C1.55407 4.53487 1.78459 4.16509 2.0964 3.87087L4.33496 1.71131C4.47348 1.56896 4.64242 1.45979 4.82912 1.39198C5.01582 1.32416 5.21543 1.29946 5.41303 1.31973C5.61062 1.34 5.80107 1.4047 5.97012 1.509C6.13916 1.6133 6.28242 1.75449 6.38917 1.922L9.45731 6.47155C9.51023 6.54299 9.5388 6.62954 9.5388 6.71845C9.5388 6.80736 9.51023 6.89391 9.45731 6.96535L7.43602 9.39485C8.1376 11.1929 9.23065 12.8122 10.6359 14.1353Z" fill="#FA8B02"/>
  </g>
  <defs>
    <clipPath id="clip0_1_2413">
      <rect width="23.7024" height="23.7024" fill="white" transform="translate(0.614502 0.545929)"/>
    </clipPath>
  </defs>
</svg>