<svg width="1421" height="110" viewBox="0 0 1421 110" fill="none" xmlns="http://www.w3.org/2000/svg">
<rect x="139.771" y="25.2297" width="478.721" height="5.87387" fill="#EFEFEF"/>
<rect x="592.059" y="25.2297" width="728.36" height="5.87387" fill="#EFEFEF"/>
<circle cx="157.392" cy="27.9909" r="27.1667" fill="#148A92"/>
<path d="M159.906 39.1665H156.522V25.6721C156.522 25.2227 156.527 24.7734 156.536 24.3241C156.546 23.8747 156.555 23.435 156.565 23.0047C156.584 22.5745 156.608 22.1634 156.637 21.7715C156.436 21.9913 156.187 22.2304 155.891 22.4885C155.604 22.7466 155.298 23.0143 154.973 23.2916L152.564 25.2132L150.872 23.0764L157.096 18.2007H159.906V39.1665Z" fill="white"/>
<path d="M20.8133 90.1586C20.8133 92.52 20.3735 94.4942 19.494 96.0812C18.6144 97.6587 17.3381 98.849 15.665 99.652C13.992 100.446 11.9748 100.842 9.61335 100.842H3.7911V79.8765H10.2443C12.4145 79.8765 14.2884 80.2684 15.8658 81.0524C17.4433 81.8268 18.6622 82.9788 19.5226 84.5084C20.3831 86.0285 20.8133 87.9119 20.8133 90.1586ZM17.2282 90.259C17.2282 88.5381 16.9557 87.1232 16.4108 86.0142C15.8754 84.9052 15.0819 84.083 14.0302 83.5476C12.9881 83.0027 11.7023 82.7302 10.1726 82.7302H7.23282V97.9598H9.67071C12.2042 97.9598 14.0971 97.3145 15.3496 96.0239C16.602 94.7332 17.2282 92.8116 17.2282 90.259ZM33.0314 84.6662C33.2991 84.6662 33.5907 84.6805 33.9062 84.7092C34.2217 84.7379 34.4941 84.7761 34.7236 84.8239L34.4081 87.9788C34.2073 87.9215 33.9588 87.8785 33.6624 87.8498C33.3756 87.8211 33.1174 87.8068 32.888 87.8068C32.2857 87.8068 31.7121 87.9071 31.1671 88.1079C30.6222 88.2991 30.1394 88.5955 29.7187 88.997C29.2981 89.389 28.9683 89.8814 28.7293 90.4741C28.4902 91.0668 28.3707 91.7552 28.3707 92.5391V100.842H24.9864V84.9673H27.625L28.0839 87.7637H28.2417C28.5572 87.1997 28.9491 86.6834 29.4176 86.215C29.8861 85.7465 30.4214 85.3737 31.0237 85.0964C31.6356 84.8096 32.3048 84.6662 33.0314 84.6662ZM41.0334 84.9673V100.842H37.6634V84.9673H41.0334ZM39.3699 78.887C39.8862 78.887 40.3307 79.0256 40.7036 79.3028C41.086 79.5801 41.2772 80.0581 41.2772 80.7369C41.2772 81.4061 41.086 81.8841 40.7036 82.1709C40.3307 82.4482 39.8862 82.5868 39.3699 82.5868C38.8345 82.5868 38.3804 82.4482 38.0076 82.1709C37.6443 81.8841 37.4626 81.4061 37.4626 80.7369C37.4626 80.0581 37.6443 79.5801 38.0076 79.3028C38.3804 79.0256 38.8345 78.887 39.3699 78.887ZM49.2505 100.842H45.8662V78.5284H49.2505V100.842ZM57.4533 100.842H54.0689V78.5284H57.4533V100.842ZM68.5959 84.6662C70.0108 84.6662 71.225 84.9578 72.2384 85.541C73.2518 86.1241 74.0309 86.9511 74.5759 88.0219C75.1208 89.0926 75.3933 90.3737 75.3933 91.8651V93.672H64.7956C64.8339 95.2112 65.245 96.3967 66.0289 97.2285C66.8224 98.0602 67.9314 98.4761 69.3559 98.4761C70.3693 98.4761 71.2776 98.3805 72.0806 98.1893C72.8933 97.9885 73.7298 97.6969 74.5902 97.3145V100.054C73.7967 100.426 72.9889 100.699 72.1667 100.871C71.3445 101.043 70.3598 101.129 69.2125 101.129C67.6542 101.129 66.2823 100.828 65.0968 100.226C63.9209 99.6138 62.9983 98.7055 62.3291 97.5009C61.6694 96.2963 61.3396 94.8001 61.3396 93.0124C61.3396 91.2341 61.6407 89.7236 62.243 88.4808C62.8453 87.2379 63.6914 86.2914 64.7813 85.6413C65.8712 84.9912 67.1427 84.6662 68.5959 84.6662ZM68.5959 87.2045C67.5347 87.2045 66.6743 87.5486 66.0146 88.237C65.3645 88.9253 64.9821 89.9339 64.8673 91.2628H72.095C72.0854 90.4693 71.9516 89.7666 71.6934 89.1548C71.4449 88.5429 71.0624 88.0649 70.5462 87.7207C70.0395 87.3765 69.3894 87.2045 68.5959 87.2045ZM87.2386 84.6662C87.5062 84.6662 87.7978 84.6805 88.1133 84.7092C88.4288 84.7379 88.7013 84.7761 88.9307 84.8239L88.6152 87.9788C88.4145 87.9215 88.1659 87.8785 87.8695 87.8498C87.5827 87.8211 87.3246 87.8068 87.0951 87.8068C86.4928 87.8068 85.9192 87.9071 85.3743 88.1079C84.8293 88.2991 84.3465 88.5955 83.9259 88.997C83.5052 89.389 83.1754 89.8814 82.9364 90.4741C82.6974 91.0668 82.5779 91.7552 82.5779 92.5391V100.842H79.1935V84.9673H81.8322L82.2911 87.7637H82.4488C82.7643 87.1997 83.1563 86.6834 83.6247 86.215C84.0932 85.7465 84.6286 85.3737 85.2309 85.0964C85.8427 84.8096 86.512 84.6662 87.2386 84.6662ZM105.939 79.8765C108.644 79.8765 110.618 80.431 111.861 81.54C113.104 82.649 113.725 84.2025 113.725 86.2006C113.725 87.1089 113.582 87.9741 113.295 88.7963C113.018 89.6089 112.559 90.3307 111.919 90.9617C111.278 91.5831 110.432 92.0755 109.38 92.4387C108.338 92.802 107.052 92.9837 105.523 92.9837H103.286V100.842H99.8439V79.8765H105.939ZM105.709 82.7302H103.286V90.1156H105.164C106.245 90.1156 107.162 89.9913 107.918 89.7427C108.673 89.4846 109.246 89.0783 109.638 88.5238C110.03 87.9693 110.226 87.2379 110.226 86.3297C110.226 85.1155 109.858 84.2121 109.122 83.6193C108.396 83.0266 107.258 82.7302 105.709 82.7302ZM125.614 84.6662C125.881 84.6662 126.173 84.6805 126.489 84.7092C126.804 84.7379 127.076 84.7761 127.306 84.8239L126.99 87.9788C126.79 87.9215 126.541 87.8785 126.245 87.8498C125.958 87.8211 125.7 87.8068 125.47 87.8068C124.868 87.8068 124.294 87.9071 123.749 88.1079C123.205 88.2991 122.722 88.5955 122.301 88.997C121.88 89.389 121.551 89.8814 121.312 90.4741C121.073 91.0668 120.953 91.7552 120.953 92.5391V100.842H117.569V84.9673H120.207L120.666 87.7637H120.824C121.14 87.1997 121.531 86.6834 122 86.215C122.468 85.7465 123.004 85.3737 123.606 85.0964C124.218 84.8096 124.887 84.6662 125.614 84.6662ZM144.299 92.869C144.299 94.1883 144.127 95.3594 143.783 96.3824C143.439 97.4053 142.937 98.2706 142.277 98.978C141.618 99.6759 140.824 100.211 139.897 100.584C138.97 100.947 137.923 101.129 136.756 101.129C135.666 101.129 134.667 100.947 133.759 100.584C132.851 100.211 132.062 99.6759 131.393 98.978C130.733 98.2706 130.222 97.4053 129.859 96.3824C129.495 95.3594 129.314 94.1883 129.314 92.869C129.314 91.1194 129.615 89.6376 130.217 88.4234C130.829 87.1997 131.699 86.2675 132.827 85.627C133.955 84.9865 135.298 84.6662 136.857 84.6662C138.319 84.6662 139.61 84.9865 140.729 85.627C141.847 86.2675 142.722 87.1997 143.353 88.4234C143.984 89.6471 144.299 91.129 144.299 92.869ZM132.784 92.869C132.784 94.0258 132.923 95.0153 133.2 95.8374C133.487 96.6596 133.926 97.2906 134.519 97.7304C135.112 98.1606 135.877 98.3757 136.814 98.3757C137.751 98.3757 138.515 98.1606 139.108 97.7304C139.701 97.2906 140.136 96.6596 140.413 95.8374C140.69 95.0153 140.829 94.0258 140.829 92.869C140.829 91.7122 140.69 90.7322 140.413 89.9292C140.136 89.1165 139.701 88.4999 139.108 88.0792C138.515 87.649 137.746 87.4339 136.799 87.4339C135.404 87.4339 134.385 87.9024 133.745 88.8393C133.104 89.7762 132.784 91.1194 132.784 92.869ZM156.102 87.5343H152.244V100.842H148.874V87.5343H146.278V85.9138L148.874 84.9243V83.8201C148.874 82.4721 149.084 81.4013 149.505 80.6078C149.935 79.8143 150.547 79.2455 151.341 78.9013C152.144 78.5476 153.1 78.3707 154.209 78.3707C154.935 78.3707 155.6 78.4328 156.202 78.5571C156.804 78.6719 157.311 78.8057 157.722 78.9587L156.847 81.5113C156.522 81.4061 156.159 81.3105 155.758 81.2245C155.356 81.1289 154.926 81.0811 154.467 81.0811C153.702 81.0811 153.138 81.3201 152.775 81.7981C152.421 82.2761 152.244 82.974 152.244 83.8918V84.9673H156.102V87.5343ZM162.168 84.9673V100.842H158.798V84.9673H162.168ZM160.504 78.887C161.02 78.887 161.465 79.0256 161.838 79.3028C162.22 79.5801 162.412 80.0581 162.412 80.7369C162.412 81.4061 162.22 81.8841 161.838 82.1709C161.465 82.4482 161.02 82.5868 160.504 82.5868C159.969 82.5868 159.515 82.4482 159.142 82.1709C158.779 81.8841 158.597 81.4061 158.597 80.7369C158.597 80.0581 158.779 79.5801 159.142 79.3028C159.515 79.0256 159.969 78.887 160.504 78.887ZM170.371 100.842H166.986V78.5284H170.371V100.842ZM181.513 84.6662C182.928 84.6662 184.142 84.9578 185.156 85.541C186.169 86.1241 186.948 86.9511 187.493 88.0219C188.038 89.0926 188.31 90.3737 188.31 91.8651V93.672H177.713C177.751 95.2112 178.162 96.3967 178.946 97.2285C179.74 98.0602 180.849 98.4761 182.273 98.4761C183.287 98.4761 184.195 98.3805 184.998 98.1893C185.81 97.9885 186.647 97.6969 187.507 97.3145V100.054C186.714 100.426 185.906 100.699 185.084 100.871C184.262 101.043 183.277 101.129 182.13 101.129C180.571 101.129 179.199 100.828 178.014 100.226C176.838 99.6138 175.916 98.7055 175.246 97.5009C174.587 96.2963 174.257 94.8001 174.257 93.0124C174.257 91.2341 174.558 89.7236 175.16 88.4808C175.763 87.2379 176.609 86.2914 177.699 85.6413C178.788 84.9912 180.06 84.6662 181.513 84.6662ZM181.513 87.2045C180.452 87.2045 179.591 87.5486 178.932 88.237C178.282 88.9253 177.899 89.9339 177.785 91.2628H185.012C185.003 90.4693 184.869 89.7666 184.611 89.1548C184.362 88.5429 183.98 88.0649 183.463 87.7207C182.957 87.3765 182.307 87.2045 181.513 87.2045ZM200.084 100.842V79.8765H203.526V97.9168H212.431V100.842H200.084ZM229.769 92.869C229.769 94.1883 229.597 95.3594 229.253 96.3824C228.908 97.4053 228.407 98.2706 227.747 98.978C227.087 99.6759 226.294 100.211 225.366 100.584C224.439 100.947 223.392 101.129 222.226 101.129C221.136 101.129 220.137 100.947 219.229 100.584C218.32 100.211 217.532 99.6759 216.862 98.978C216.203 98.2706 215.691 97.4053 215.328 96.3824C214.965 95.3594 214.783 94.1883 214.783 92.869C214.783 91.1194 215.084 89.6376 215.687 88.4234C216.298 87.1997 217.168 86.2675 218.296 85.627C219.425 84.9865 220.768 84.6662 222.326 84.6662C223.789 84.6662 225.08 84.9865 226.198 85.627C227.317 86.2675 228.191 87.1997 228.822 88.4234C229.453 89.6471 229.769 91.129 229.769 92.869ZM218.253 92.869C218.253 94.0258 218.392 95.0153 218.669 95.8374C218.956 96.6596 219.396 97.2906 219.989 97.7304C220.581 98.1606 221.346 98.3757 222.283 98.3757C223.22 98.3757 223.985 98.1606 224.578 97.7304C225.17 97.2906 225.605 96.6596 225.883 95.8374C226.16 95.0153 226.299 94.0258 226.299 92.869C226.299 91.7122 226.16 90.7322 225.883 89.9292C225.605 89.1165 225.17 88.4999 224.578 88.0792C223.985 87.649 223.215 87.4339 222.269 87.4339C220.873 87.4339 219.855 87.9024 219.214 88.8393C218.574 89.7762 218.253 91.1194 218.253 92.869ZM247.695 92.869C247.695 94.1883 247.522 95.3594 247.178 96.3824C246.834 97.4053 246.332 98.2706 245.673 98.978C245.013 99.6759 244.219 100.211 243.292 100.584C242.365 100.947 241.318 101.129 240.151 101.129C239.062 101.129 238.063 100.947 237.154 100.584C236.246 100.211 235.457 99.6759 234.788 98.978C234.128 98.2706 233.617 97.4053 233.254 96.3824C232.89 95.3594 232.709 94.1883 232.709 92.869C232.709 91.1194 233.01 89.6376 233.612 88.4234C234.224 87.1997 235.094 86.2675 236.222 85.627C237.35 84.9865 238.693 84.6662 240.252 84.6662C241.715 84.6662 243.005 84.9865 244.124 85.627C245.242 86.2675 246.117 87.1997 246.748 88.4234C247.379 89.6471 247.695 91.129 247.695 92.869ZM236.179 92.869C236.179 94.0258 236.318 95.0153 236.595 95.8374C236.882 96.6596 237.322 97.2906 237.914 97.7304C238.507 98.1606 239.272 98.3757 240.209 98.3757C241.146 98.3757 241.911 98.1606 242.503 97.7304C243.096 97.2906 243.531 96.6596 243.808 95.8374C244.086 95.0153 244.224 94.0258 244.224 92.869C244.224 91.7122 244.086 90.7322 243.808 89.9292C243.531 89.1165 243.096 88.4999 242.503 88.0792C241.911 87.649 241.141 87.4339 240.194 87.4339C238.799 87.4339 237.78 87.9024 237.14 88.8393C236.499 89.7762 236.179 91.1194 236.179 92.869ZM254.937 78.5284V89.3125C254.937 89.8001 254.917 90.3355 254.879 90.9186C254.841 91.4923 254.803 92.0324 254.764 92.5391H254.836C255.085 92.2045 255.381 91.8125 255.725 91.3632C256.079 90.9139 256.414 90.5219 256.729 90.1873L261.576 84.9673H265.448L259.095 91.7934L265.864 100.842H261.906L256.829 93.8728L254.937 95.4933V100.842H251.566V78.5284H254.937ZM292.838 79.8765V93.4426C292.838 94.9053 292.528 96.2151 291.906 97.3719C291.294 98.5287 290.367 99.4465 289.124 100.125C287.881 100.794 286.318 101.129 284.435 101.129C281.748 101.129 279.703 100.426 278.297 99.021C276.901 97.6061 276.203 95.7275 276.203 93.3852V79.8765H279.645V93.0841C279.645 94.8336 280.056 96.1243 280.878 96.956C281.701 97.7878 282.929 98.2036 284.564 98.2036C285.692 98.2036 286.61 98.0076 287.317 97.6157C288.034 97.2141 288.56 96.631 288.895 95.8661C289.239 95.0917 289.411 94.1596 289.411 93.0697V79.8765H292.838ZM306.003 84.6662C307.886 84.6662 309.397 85.3545 310.535 86.7312C311.682 88.1079 312.256 90.1538 312.256 92.869C312.256 94.6663 311.988 96.1816 311.452 97.4149C310.927 98.6386 310.186 99.566 309.23 100.197C308.283 100.818 307.179 101.129 305.917 101.129C305.114 101.129 304.416 101.024 303.823 100.814C303.231 100.603 302.724 100.331 302.303 99.9962C301.883 99.652 301.529 99.2792 301.242 98.8776H301.041C301.089 99.26 301.132 99.6855 301.17 100.154C301.218 100.613 301.242 101.033 301.242 101.416V107.883H297.858V84.9673H300.611L301.084 87.1614H301.242C301.538 86.7121 301.897 86.2962 302.318 85.9138C302.748 85.5314 303.264 85.2302 303.866 85.0104C304.478 84.7809 305.19 84.6662 306.003 84.6662ZM305.1 87.4196C304.172 87.4196 303.427 87.606 302.863 87.9788C302.308 88.3421 301.902 88.8919 301.644 89.628C301.395 90.3642 301.261 91.2867 301.242 92.3957V92.869C301.242 94.0449 301.362 95.0439 301.601 95.8661C301.849 96.6788 302.255 97.3002 302.819 97.7304C303.393 98.151 304.167 98.3614 305.143 98.3614C305.965 98.3614 306.644 98.1367 307.179 97.6874C307.724 97.238 308.13 96.5975 308.398 95.7657C308.666 94.934 308.799 93.9541 308.799 92.8259C308.799 91.1146 308.494 89.7857 307.882 88.8393C307.279 87.8928 306.352 87.4196 305.1 87.4196Z" fill="#148A92"/>
<circle cx="577.374" cy="27.9909" r="27.1667" fill="#EFEFEF"/>
<path d="M584.176 39.1665H569.979V36.6282L575.414 31.1215C576.466 30.0507 577.331 29.1281 578.01 28.3538C578.688 27.5698 579.19 26.8289 579.515 26.131C579.85 25.4331 580.017 24.673 580.017 23.8508C580.017 22.8374 579.726 22.0726 579.143 21.5564C578.559 21.0305 577.79 20.7676 576.834 20.7676C575.926 20.7676 575.084 20.9493 574.31 21.3126C573.545 21.6663 572.752 22.173 571.929 22.8327L570.079 20.6099C570.663 20.1127 571.284 19.6586 571.944 19.2475C572.613 18.8364 573.359 18.5114 574.181 18.2724C575.003 18.0238 575.94 17.8995 576.992 17.8995C578.32 17.8995 579.468 18.1385 580.433 18.6165C581.399 19.085 582.14 19.7399 582.656 20.5812C583.182 21.4225 583.445 22.4024 583.445 23.521C583.445 24.6491 583.22 25.6912 582.771 26.6472C582.321 27.6033 581.681 28.5497 580.849 29.4867C580.017 30.414 579.028 31.4226 577.881 32.5125L574.252 36.0546V36.2124H584.176V39.1665Z" fill="#333333" fill-opacity="0.4"/>
<path opacity="0.4" d="M491.589 95.2638C491.589 96.5067 491.278 97.5679 490.657 98.4474C490.045 99.3174 489.185 99.9819 488.076 100.441C486.967 100.9 485.662 101.129 484.161 101.129C483.367 101.129 482.617 101.091 481.909 101.014C481.202 100.938 480.552 100.828 479.959 100.685C479.366 100.541 478.845 100.364 478.396 100.154V97.8164C479.113 98.1128 479.988 98.3901 481.02 98.6482C482.053 98.8968 483.133 99.021 484.261 99.021C485.313 99.021 486.202 98.8824 486.928 98.6052C487.655 98.3184 488.205 97.912 488.578 97.3862C488.96 96.8508 489.151 96.2103 489.151 95.4646C489.151 94.7476 488.993 94.15 488.678 93.672C488.362 93.1845 487.837 92.7447 487.1 92.3527C486.374 91.9512 485.38 91.5257 484.118 91.0764C483.229 90.7609 482.445 90.4167 481.766 90.0439C481.087 89.6615 480.518 89.2312 480.059 88.7532C479.6 88.2752 479.251 87.7207 479.012 87.0897C478.783 86.4588 478.668 85.7369 478.668 84.9243C478.668 83.8058 478.95 82.8497 479.514 82.0562C480.088 81.2531 480.877 80.6413 481.881 80.2206C482.894 79.7904 484.056 79.5753 485.365 79.5753C486.484 79.5753 487.516 79.6805 488.463 79.8908C489.419 80.1011 490.294 80.3832 491.087 80.7369L490.327 82.8306C489.572 82.5151 488.769 82.2522 487.918 82.0419C487.077 81.8315 486.207 81.7264 485.308 81.7264C484.409 81.7264 483.649 81.8602 483.028 82.1279C482.416 82.386 481.947 82.7541 481.622 83.2321C481.297 83.7102 481.135 84.279 481.135 84.9387C481.135 85.6748 481.288 86.2867 481.594 86.7742C481.909 87.2618 482.406 87.6968 483.085 88.0792C483.773 88.4521 484.682 88.8441 485.81 89.2552C487.043 89.7045 488.09 90.1825 488.95 90.6892C489.811 91.1863 490.466 91.7982 490.915 92.5248C491.364 93.2418 491.589 94.1548 491.589 95.2638ZM501.57 84.8383C502.909 84.8383 504.056 85.1346 505.012 85.7274C505.968 86.3201 506.699 87.1519 507.206 88.2226C507.713 89.2838 507.966 90.5267 507.966 91.9512V93.4282H497.11C497.139 95.2734 497.598 96.6788 498.487 97.6444C499.376 98.6099 500.628 99.0927 502.244 99.0927C503.238 99.0927 504.118 99.0019 504.883 98.8203C505.648 98.6386 506.441 98.3709 507.263 98.0172V100.111C506.47 100.465 505.681 100.723 504.897 100.885C504.123 101.048 503.205 101.129 502.144 101.129C500.633 101.129 499.314 100.823 498.186 100.211C497.067 99.5899 496.197 98.6816 495.576 97.4866C494.954 96.2916 494.644 94.8288 494.644 93.0984C494.644 91.4062 494.926 89.9435 495.49 88.7102C496.063 87.4674 496.866 86.5113 497.899 85.8421C498.941 85.1729 500.165 84.8383 501.57 84.8383ZM501.541 86.7886C500.27 86.7886 499.256 87.2045 498.501 88.0362C497.746 88.868 497.297 90.0295 497.153 91.521H505.471C505.461 90.584 505.313 89.7618 505.026 89.0544C504.749 88.3374 504.323 87.7829 503.75 87.3909C503.176 86.9893 502.44 86.7886 501.541 86.7886ZM514.405 100.842H512.01V78.5284H514.405V100.842ZM525.49 84.8383C526.828 84.8383 527.976 85.1346 528.932 85.7274C529.888 86.3201 530.619 87.1519 531.126 88.2226C531.633 89.2838 531.886 90.5267 531.886 91.9512V93.4282H521.03C521.059 95.2734 521.518 96.6788 522.407 97.6444C523.296 98.6099 524.548 99.0927 526.164 99.0927C527.158 99.0927 528.038 99.0019 528.803 98.8203C529.568 98.6386 530.361 98.3709 531.183 98.0172V100.111C530.39 100.465 529.601 100.723 528.817 100.885C528.043 101.048 527.125 101.129 526.064 101.129C524.553 101.129 523.234 100.823 522.106 100.211C520.987 99.5899 520.117 98.6816 519.496 97.4866C518.874 96.2916 518.564 94.8288 518.564 93.0984C518.564 91.4062 518.846 89.9435 519.41 88.7102C519.983 87.4674 520.786 86.5113 521.819 85.8421C522.861 85.1729 524.085 84.8383 525.49 84.8383ZM525.461 86.7886C524.19 86.7886 523.176 87.2045 522.421 88.0362C521.666 88.868 521.217 90.0295 521.073 91.521H529.391C529.381 90.584 529.233 89.7618 528.946 89.0544C528.669 88.3374 528.243 87.7829 527.67 87.3909C527.096 86.9893 526.36 86.7886 525.461 86.7886ZM542.225 101.129C540.81 101.129 539.563 100.838 538.483 100.254C537.402 99.6711 536.561 98.782 535.959 97.587C535.356 96.3919 535.055 94.8862 535.055 93.0697C535.055 91.1672 535.371 89.6137 536.002 88.4091C536.642 87.1949 537.522 86.2962 538.64 85.713C539.759 85.1299 541.03 84.8383 542.455 84.8383C543.239 84.8383 543.994 84.9195 544.721 85.0821C545.457 85.235 546.059 85.431 546.528 85.67L545.811 87.6634C545.333 87.4721 544.778 87.3001 544.147 87.1471C543.526 86.9941 542.942 86.9176 542.398 86.9176C541.308 86.9176 540.399 87.1519 539.673 87.6203C538.956 88.0888 538.416 88.7771 538.052 89.6854C537.699 90.5936 537.522 91.7122 537.522 93.041C537.522 94.3126 537.694 95.3977 538.038 96.2963C538.392 97.195 538.913 97.8834 539.601 98.3614C540.299 98.8298 541.169 99.0641 542.211 99.0641C543.043 99.0641 543.793 98.978 544.463 98.8059C545.132 98.6243 545.739 98.414 546.284 98.1749V100.297C545.758 100.565 545.17 100.771 544.52 100.914C543.879 101.057 543.115 101.129 542.225 101.129ZM555.089 99.1788C555.481 99.1788 555.882 99.1453 556.293 99.0784C556.705 99.0115 557.039 98.9302 557.297 98.8346V100.685C557.02 100.809 556.633 100.914 556.136 101C555.648 101.086 555.17 101.129 554.702 101.129C553.87 101.129 553.115 100.986 552.436 100.699C551.757 100.403 551.212 99.9054 550.801 99.2075C550.4 98.5096 550.199 97.544 550.199 96.3107V86.9893H547.962V85.8278L550.213 84.8956L551.16 81.4826H552.594V85.1251H557.197V86.9893H552.594V96.239C552.594 97.2237 552.818 97.9598 553.268 98.4474C553.727 98.935 554.334 99.1788 555.089 99.1788ZM573.947 79.8765C576.652 79.8765 578.626 80.4071 579.869 81.4683C581.122 82.5199 581.748 84.0304 581.748 85.9999C581.748 86.889 581.6 87.7351 581.303 88.5381C581.017 89.3316 580.548 90.0343 579.898 90.6462C579.248 91.2485 578.392 91.7265 577.331 92.0802C576.279 92.4244 574.989 92.5965 573.459 92.5965H570.906V100.842H568.469V79.8765H573.947ZM573.717 81.9558H570.906V90.5028H573.187C574.525 90.5028 575.639 90.3594 576.528 90.0726C577.427 89.7857 578.101 89.3221 578.55 88.6815C578.999 88.0314 579.224 87.171 579.224 86.1002C579.224 84.7044 578.779 83.6671 577.89 82.9883C577.001 82.3 575.61 81.9558 573.717 81.9558ZM591.657 84.867C593.531 84.867 594.922 85.2876 595.83 86.1289C596.738 86.9702 597.193 88.3135 597.193 90.1586V100.842H595.457L594.999 98.5191H594.884C594.444 99.0927 593.985 99.5755 593.507 99.9675C593.029 100.35 592.475 100.642 591.844 100.842C591.222 101.033 590.457 101.129 589.549 101.129C588.593 101.129 587.742 100.962 586.997 100.627C586.26 100.293 585.677 99.7859 585.247 99.1071C584.826 98.4283 584.616 97.5679 584.616 96.5258C584.616 94.9579 585.237 93.7533 586.48 92.912C587.723 92.0707 589.616 91.6118 592.159 91.5353L594.869 91.4206V90.4598C594.869 89.1022 594.578 88.1509 593.995 87.606C593.411 87.0611 592.589 86.7886 591.528 86.7886C590.706 86.7886 589.922 86.9081 589.176 87.1471C588.431 87.3861 587.723 87.6681 587.054 87.9932L586.323 86.1863C587.03 85.823 587.843 85.5123 588.76 85.2541C589.678 84.996 590.644 84.867 591.657 84.867ZM594.841 93.0984L592.446 93.1988C590.486 93.2753 589.105 93.5955 588.301 94.1596C587.498 94.7237 587.097 95.522 587.097 96.5545C587.097 97.4531 587.369 98.1176 587.914 98.5478C588.459 98.978 589.181 99.1931 590.08 99.1931C591.476 99.1931 592.618 98.8059 593.507 98.0315C594.396 97.2572 594.841 96.0956 594.841 94.5468V93.0984ZM608.393 101.129C606.978 101.129 605.73 100.838 604.65 100.254C603.569 99.6711 602.728 98.782 602.126 97.587C601.523 96.3919 601.222 94.8862 601.222 93.0697C601.222 91.1672 601.538 89.6137 602.169 88.4091C602.809 87.1949 603.689 86.2962 604.807 85.713C605.926 85.1299 607.198 84.8383 608.622 84.8383C609.406 84.8383 610.161 84.9195 610.888 85.0821C611.624 85.235 612.226 85.431 612.695 85.67L611.978 87.6634C611.5 87.4721 610.945 87.3001 610.314 87.1471C609.693 86.9941 609.11 86.9176 608.565 86.9176C607.475 86.9176 606.567 87.1519 605.84 87.6203C605.123 88.0888 604.583 88.7771 604.219 89.6854C603.866 90.5936 603.689 91.7122 603.689 93.041C603.689 94.3126 603.861 95.3977 604.205 96.2963C604.559 97.195 605.08 97.8834 605.768 98.3614C606.466 98.8298 607.336 99.0641 608.378 99.0641C609.21 99.0641 609.96 98.978 610.63 98.8059C611.299 98.6243 611.906 98.414 612.451 98.1749V100.297C611.925 100.565 611.337 100.771 610.687 100.914C610.046 101.057 609.282 101.129 608.393 101.129ZM618.546 78.5284V90.1156C618.546 90.498 618.531 90.9665 618.503 91.521C618.474 92.0659 618.45 92.5487 618.431 92.9693H618.531C618.732 92.7208 619.024 92.3527 619.406 91.8651C619.798 91.3775 620.128 90.9856 620.396 90.6892L625.616 85.1251H628.412L622.088 91.8364L628.871 100.842H626.003L620.453 93.3996L618.546 95.1491V100.842H616.179V78.5284H618.546ZM637.489 84.867C639.363 84.867 640.754 85.2876 641.663 86.1289C642.571 86.9702 643.025 88.3135 643.025 90.1586V100.842H641.29L640.831 98.5191H640.716C640.276 99.0927 639.817 99.5755 639.339 99.9675C638.861 100.35 638.307 100.642 637.676 100.842C637.054 101.033 636.29 101.129 635.381 101.129C634.425 101.129 633.574 100.962 632.829 100.627C632.093 100.293 631.509 99.7859 631.079 99.1071C630.659 98.4283 630.448 97.5679 630.448 96.5258C630.448 94.9579 631.07 93.7533 632.313 92.912C633.555 92.0707 635.448 91.6118 637.991 91.5353L640.702 91.4206V90.4598C640.702 89.1022 640.41 88.1509 639.827 87.606C639.244 87.0611 638.422 86.7886 637.36 86.7886C636.538 86.7886 635.754 86.9081 635.009 87.1471C634.263 87.3861 633.555 87.6681 632.886 87.9932L632.155 86.1863C632.862 85.823 633.675 85.5123 634.593 85.2541C635.51 84.996 636.476 84.867 637.489 84.867ZM640.673 93.0984L638.278 93.1988C636.318 93.2753 634.937 93.5955 634.134 94.1596C633.331 94.7237 632.929 95.522 632.929 96.5545C632.929 97.4531 633.202 98.1176 633.747 98.5478C634.292 98.978 635.013 99.1931 635.912 99.1931C637.308 99.1931 638.45 98.8059 639.339 98.0315C640.228 97.2572 640.673 96.0956 640.673 94.5468V93.0984ZM652.318 107.898C650.253 107.898 648.661 107.511 647.542 106.736C646.424 105.971 645.864 104.896 645.864 103.51C645.864 102.525 646.175 101.684 646.796 100.986C647.427 100.288 648.297 99.8241 649.406 99.5947C648.995 99.4035 648.642 99.1166 648.345 98.7342C648.058 98.3518 647.915 97.912 647.915 97.4149C647.915 96.8413 648.073 96.3394 648.388 95.9091C648.713 95.4694 649.206 95.0487 649.865 94.6472C649.043 94.3126 648.374 93.7485 647.858 92.955C647.351 92.1519 647.098 91.2198 647.098 90.1586C647.098 89.0305 647.332 88.0697 647.8 87.2762C648.269 86.4731 648.948 85.8612 649.837 85.4406C650.726 85.0199 651.801 84.8096 653.063 84.8096C653.34 84.8096 653.618 84.8239 653.895 84.8526C654.182 84.8717 654.454 84.9052 654.712 84.953C654.971 84.9912 655.195 85.039 655.386 85.0964H660.778V86.6308L657.882 86.9893C658.168 87.3622 658.407 87.8115 658.599 88.3374C658.79 88.8632 658.885 89.4464 658.885 90.0869C658.885 91.6548 658.355 92.9024 657.294 93.8298C656.233 94.7476 654.775 95.2065 652.92 95.2065C652.48 95.2065 652.031 95.1682 651.572 95.0917C651.103 95.3499 650.745 95.6367 650.496 95.9522C650.257 96.2677 650.138 96.631 650.138 97.042C650.138 97.348 650.229 97.5918 650.41 97.7734C650.601 97.9551 650.874 98.0889 651.228 98.1749C651.581 98.2514 652.007 98.2897 652.504 98.2897H655.272C656.983 98.2897 658.293 98.6482 659.201 99.3652C660.119 100.082 660.578 101.129 660.578 102.506C660.578 104.246 659.87 105.579 658.455 106.507C657.04 107.434 654.994 107.898 652.318 107.898ZM652.389 106.034C653.689 106.034 654.765 105.9 655.616 105.632C656.476 105.374 657.117 104.996 657.537 104.499C657.968 104.012 658.183 103.428 658.183 102.75C658.183 102.119 658.039 101.641 657.753 101.316C657.466 101 657.045 100.79 656.491 100.685C655.936 100.57 655.257 100.512 654.454 100.512H651.73C651.022 100.512 650.405 100.622 649.88 100.842C649.354 101.062 648.948 101.387 648.661 101.817C648.383 102.248 648.245 102.783 648.245 103.424C648.245 104.274 648.603 104.92 649.32 105.36C650.037 105.809 651.06 106.034 652.389 106.034ZM653.006 93.4713C654.144 93.4713 654.999 93.1845 655.573 92.6108C656.146 92.0372 656.433 91.2007 656.433 90.1012C656.433 88.9253 656.142 88.0458 655.558 87.4626C654.975 86.8698 654.115 86.5735 652.977 86.5735C651.887 86.5735 651.046 86.8794 650.453 87.4913C649.87 88.0936 649.579 88.9779 649.579 90.1443C649.579 91.215 649.875 92.0372 650.468 92.6108C651.06 93.1845 651.906 93.4713 653.006 93.4713ZM669.928 84.8383C671.266 84.8383 672.413 85.1346 673.369 85.7274C674.325 86.3201 675.057 87.1519 675.564 88.2226C676.07 89.2838 676.324 90.5267 676.324 91.9512V93.4282H665.468C665.496 95.2734 665.955 96.6788 666.844 97.6444C667.734 98.6099 668.986 99.0927 670.602 99.0927C671.596 99.0927 672.476 99.0019 673.24 98.8203C674.005 98.6386 674.799 98.3709 675.621 98.0172V100.111C674.827 100.465 674.039 100.723 673.255 100.885C672.48 101.048 671.563 101.129 670.501 101.129C668.991 101.129 667.671 100.823 666.543 100.211C665.425 99.5899 664.555 98.6816 663.933 97.4866C663.312 96.2916 663.001 94.8288 663.001 93.0984C663.001 91.4062 663.283 89.9435 663.847 88.7102C664.421 87.4674 665.224 86.5113 666.257 85.8421C667.299 85.1729 668.522 84.8383 669.928 84.8383ZM669.899 86.7886C668.627 86.7886 667.614 87.2045 666.859 88.0362C666.104 88.868 665.654 90.0295 665.511 91.521H673.828C673.819 90.584 673.671 89.7618 673.384 89.0544C673.107 88.3374 672.681 87.7829 672.107 87.3909C671.534 86.9893 670.798 86.7886 669.899 86.7886Z" fill="#FBFCFC"/>
<circle cx="945.96" cy="27.9909" r="27.1667" fill="#EFEFEF"/>
<path d="M951.959 22.9904C951.959 23.9369 951.768 24.7591 951.385 25.457C951.003 26.1549 950.477 26.7285 949.808 27.1778C949.148 27.6176 948.383 27.9331 947.513 28.1243V28.2247C949.186 28.435 950.448 28.9608 951.299 29.8021C952.16 30.6435 952.59 31.7572 952.59 33.1435C952.59 34.3577 952.298 35.4428 951.715 36.3988C951.132 37.3453 950.238 38.091 949.033 38.6359C947.829 39.1808 946.28 39.4533 944.387 39.4533C943.249 39.4533 942.193 39.3625 941.218 39.1808C940.252 38.9992 939.334 38.7076 938.464 38.3061V35.3089C939.354 35.7487 940.3 36.0881 941.304 36.3271C942.308 36.5661 943.259 36.6856 944.158 36.6856C945.907 36.6856 947.155 36.3605 947.901 35.7104C948.646 35.0508 949.019 34.1425 949.019 32.9857C949.019 32.24 948.823 31.6282 948.431 31.1502C948.049 30.6721 947.451 30.3136 946.639 30.0746C945.835 29.8356 944.798 29.7161 943.527 29.7161H941.677V27.0057H943.541C944.755 27.0057 945.73 26.8623 946.466 26.5755C947.203 26.2792 947.733 25.8728 948.058 25.3566C948.393 24.8403 948.56 24.238 948.56 23.5497C948.56 22.651 948.269 21.9531 947.685 21.456C947.102 20.9493 946.237 20.6959 945.09 20.6959C944.382 20.6959 943.737 20.7772 943.154 20.9397C942.58 21.1022 942.05 21.3078 941.562 21.5564C941.074 21.8049 940.611 22.0726 940.171 22.3594L938.55 20.0219C939.344 19.4292 940.29 18.9273 941.39 18.5162C942.489 18.1051 943.77 17.8995 945.233 17.8995C947.384 17.8995 949.043 18.3632 950.209 19.2906C951.376 20.2083 951.959 21.4416 951.959 22.9904Z" fill="#333333" fill-opacity="0.4"/>
<path opacity="0.4" d="M893.875 79.8765C896.581 79.8765 898.555 80.4071 899.798 81.4683C901.05 82.5199 901.676 84.0304 901.676 85.9999C901.676 86.889 901.528 87.7351 901.232 88.5381C900.945 89.3316 900.476 90.0343 899.826 90.6462C899.176 91.2485 898.321 91.7265 897.259 92.0802C896.208 92.4244 894.917 92.5965 893.387 92.5965H890.835V100.842H888.397V79.8765H893.875ZM893.646 81.9558H890.835V90.5028H893.115C894.453 90.5028 895.567 90.3594 896.456 90.0726C897.355 89.7857 898.029 89.3221 898.478 88.6815C898.928 88.0314 899.152 87.171 899.152 86.1002C899.152 84.7044 898.708 83.6671 897.819 82.9883C896.93 82.3 895.538 81.9558 893.646 81.9558ZM911.586 84.867C913.459 84.867 914.85 85.2876 915.759 86.1289C916.667 86.9702 917.121 88.3135 917.121 90.1586V100.842H915.386L914.927 98.5191H914.812C914.372 99.0927 913.913 99.5755 913.435 99.9675C912.957 100.35 912.403 100.642 911.772 100.842C911.151 101.033 910.386 101.129 909.477 101.129C908.521 101.129 907.671 100.962 906.925 100.627C906.189 100.293 905.606 99.7859 905.175 99.1071C904.755 98.4283 904.544 97.5679 904.544 96.5258C904.544 94.9579 905.166 93.7533 906.409 92.912C907.651 92.0707 909.544 91.6118 912.087 91.5353L914.798 91.4206V90.4598C914.798 89.1022 914.506 88.1509 913.923 87.606C913.34 87.0611 912.518 86.7886 911.456 86.7886C910.634 86.7886 909.85 86.9081 909.105 87.1471C908.359 87.3861 907.651 87.6681 906.982 87.9932L906.251 86.1863C906.958 85.823 907.771 85.5123 908.689 85.2541C909.607 84.996 910.572 84.867 911.586 84.867ZM914.769 93.0984L912.374 93.1988C910.414 93.2753 909.033 93.5955 908.23 94.1596C907.427 94.7237 907.025 95.522 907.025 96.5545C907.025 97.4531 907.298 98.1176 907.843 98.5478C908.388 98.978 909.109 99.1931 910.008 99.1931C911.404 99.1931 912.546 98.8059 913.435 98.0315C914.325 97.2572 914.769 96.0956 914.769 94.5468V93.0984ZM919.544 85.1251H922.097L925.568 94.2456C925.768 94.781 925.955 95.2973 926.127 95.7944C926.299 96.282 926.452 96.7505 926.586 97.1998C926.72 97.6491 926.825 98.0841 926.901 98.5048H927.002C927.135 98.0268 927.327 97.4006 927.575 96.6262C927.824 95.8422 928.091 95.0439 928.378 94.2313L931.662 85.1251H934.229L927.389 103.151C927.025 104.117 926.6 104.958 926.112 105.675C925.634 106.392 925.051 106.942 924.363 107.324C923.675 107.716 922.843 107.912 921.868 107.912C921.418 107.912 921.022 107.883 920.677 107.826C920.333 107.778 920.037 107.721 919.788 107.654V105.747C919.999 105.795 920.252 105.838 920.548 105.876C920.854 105.914 921.17 105.933 921.495 105.933C922.088 105.933 922.599 105.818 923.029 105.589C923.469 105.369 923.847 105.044 924.162 104.614C924.478 104.184 924.75 103.672 924.98 103.079L925.84 100.871L919.544 85.1251ZM953.804 84.8383C955.534 84.8383 956.839 85.2924 957.719 86.2006C958.598 87.0993 959.038 88.5477 959.038 90.5458V100.842H956.686V90.6605C956.686 89.389 956.409 88.4377 955.855 87.8068C955.31 87.1662 954.497 86.8459 953.417 86.8459C951.897 86.8459 950.792 87.2857 950.104 88.1653C949.416 89.0448 949.072 90.3402 949.072 92.0516V100.842H946.705V90.6605C946.705 89.8097 946.581 89.1022 946.333 88.5381C946.094 87.9741 945.73 87.5534 945.243 87.2762C944.765 86.9893 944.158 86.8459 943.421 86.8459C942.379 86.8459 941.543 87.0611 940.912 87.4913C940.281 87.9215 939.822 88.562 939.535 89.4129C939.258 90.2542 939.119 91.2915 939.119 92.5248V100.842H936.739V85.1251H938.66L939.019 87.3479H939.148C939.463 86.8029 939.86 86.344 940.338 85.9712C940.816 85.5983 941.352 85.3163 941.944 85.1251C942.537 84.9339 943.168 84.8383 943.837 84.8383C945.032 84.8383 946.031 85.0629 946.834 85.5123C947.647 85.9521 948.235 86.6261 948.598 87.5343H948.727C949.244 86.6261 949.951 85.9521 950.85 85.5123C951.749 85.0629 952.733 84.8383 953.804 84.8383ZM969.98 84.8383C971.319 84.8383 972.466 85.1346 973.422 85.7274C974.378 86.3201 975.109 87.1519 975.616 88.2226C976.123 89.2838 976.376 90.5267 976.376 91.9512V93.4282H965.52C965.549 95.2734 966.008 96.6788 966.897 97.6444C967.786 98.6099 969.038 99.0927 970.654 99.0927C971.648 99.0927 972.528 99.0019 973.293 98.8203C974.058 98.6386 974.851 98.3709 975.673 98.0172V100.111C974.88 100.465 974.091 100.723 973.307 100.885C972.533 101.048 971.615 101.129 970.554 101.129C969.043 101.129 967.724 100.823 966.596 100.211C965.477 99.5899 964.607 98.6816 963.986 97.4866C963.364 96.2916 963.054 94.8288 963.054 93.0984C963.054 91.4062 963.336 89.9435 963.9 88.7102C964.473 87.4674 965.276 86.5113 966.309 85.8421C967.351 85.1729 968.575 84.8383 969.98 84.8383ZM969.951 86.7886C968.68 86.7886 967.666 87.2045 966.911 88.0362C966.156 88.868 965.707 90.0295 965.563 91.521H973.881C973.871 90.584 973.723 89.7618 973.436 89.0544C973.159 88.3374 972.733 87.7829 972.16 87.3909C971.586 86.9893 970.85 86.7886 969.951 86.7886ZM987.863 84.8383C989.727 84.8383 991.137 85.2972 992.093 86.215C993.049 87.1232 993.527 88.5859 993.527 90.6032V100.842H991.175V90.7609C991.175 89.4511 990.874 88.4712 990.272 87.8211C989.679 87.171 988.766 86.8459 987.533 86.8459C985.793 86.8459 984.569 87.3383 983.862 88.323C983.154 89.3077 982.8 90.737 982.8 92.6108V100.842H980.42V85.1251H982.342L982.7 87.3909H982.829C983.164 86.8364 983.589 86.3727 984.105 85.9999C984.622 85.6174 985.2 85.3306 985.841 85.1394C986.481 84.9387 987.155 84.8383 987.863 84.8383ZM1003.51 99.1788C1003.9 99.1788 1004.3 99.1453 1004.71 99.0784C1005.12 99.0115 1005.46 98.9302 1005.72 98.8346V100.685C1005.44 100.809 1005.05 100.914 1004.56 101C1004.07 101.086 1003.59 101.129 1003.12 101.129C1002.29 101.129 1001.53 100.986 1000.86 100.699C1000.18 100.403 999.631 99.9054 999.22 99.2075C998.819 98.5096 998.618 97.544 998.618 96.3107V86.9893H996.381V85.8278L998.632 84.8956L999.579 81.4826H1001.01V85.1251H1005.62V86.9893H1001.01V96.239C1001.01 97.2237 1001.24 97.9598 1001.69 98.4474C1002.15 98.935 1002.75 99.1788 1003.51 99.1788Z" fill="#FBFCFC"/>
<circle cx="1312.36" cy="29.9909" r="27.1667" fill="#EFEFEF"/>
<path d="M1319.92 36.5632H1317.08V41.1665H1313.75V36.5632H1304.22V34.0106L1313.79 20.1433H1317.08V33.7668H1319.92V36.5632ZM1313.75 33.7668V28.5612C1313.75 28.131 1313.76 27.696 1313.77 27.2562C1313.79 26.8069 1313.8 26.3767 1313.82 25.9656C1313.84 25.5545 1313.86 25.1768 1313.88 24.8327C1313.9 24.4789 1313.91 24.1873 1313.92 23.9579H1313.81C1313.63 24.3403 1313.43 24.7323 1313.21 25.1338C1312.99 25.5258 1312.75 25.9082 1312.5 26.2811L1307.34 33.7668H1313.75Z" fill="#333333" fill-opacity="0.4"/>
<path opacity="0.4" d="M1207.15 102.842V81.8765H1209.59V100.663H1218.9V102.842H1207.15ZM1224.52 87.1251V102.842H1222.14V87.1251H1224.52ZM1223.36 81.2455C1223.75 81.2455 1224.09 81.3745 1224.36 81.6327C1224.65 81.8812 1224.79 82.2732 1224.79 82.8086C1224.79 83.3344 1224.65 83.7264 1224.36 83.9845C1224.09 84.2426 1223.75 84.3717 1223.36 84.3717C1222.95 84.3717 1222.6 84.2426 1222.33 83.9845C1222.06 83.7264 1221.92 83.3344 1221.92 82.8086C1221.92 82.2732 1222.06 81.8812 1222.33 81.6327C1222.6 81.3745 1222.95 81.2455 1223.36 81.2455ZM1235.86 103.129C1234.45 103.129 1233.2 102.838 1232.12 102.254C1231.04 101.671 1230.2 100.782 1229.6 99.587C1228.99 98.3919 1228.69 96.8862 1228.69 95.0697C1228.69 93.1672 1229.01 91.6137 1229.64 90.4091C1230.28 89.1949 1231.16 88.2962 1232.28 87.713C1233.4 87.1299 1234.67 86.8383 1236.09 86.8383C1236.88 86.8383 1237.63 86.9195 1238.36 87.0821C1239.1 87.235 1239.7 87.431 1240.17 87.67L1239.45 89.6634C1238.97 89.4721 1238.42 89.3001 1237.79 89.1471C1237.16 88.9941 1236.58 88.9176 1236.04 88.9176C1234.95 88.9176 1234.04 89.1519 1233.31 89.6203C1232.59 90.0888 1232.05 90.7771 1231.69 91.6854C1231.34 92.5936 1231.16 93.7122 1231.16 95.041C1231.16 96.3126 1231.33 97.3977 1231.68 98.2963C1232.03 99.195 1232.55 99.8834 1233.24 100.361C1233.94 100.83 1234.81 101.064 1235.85 101.064C1236.68 101.064 1237.43 100.978 1238.1 100.806C1238.77 100.624 1239.38 100.414 1239.92 100.175V102.297C1239.4 102.565 1238.81 102.771 1238.16 102.914C1237.52 103.057 1236.75 103.129 1235.86 103.129ZM1249.7 86.8383C1251.04 86.8383 1252.19 87.1346 1253.14 87.7274C1254.1 88.3201 1254.83 89.1519 1255.34 90.2226C1255.84 91.2838 1256.1 92.5267 1256.1 93.9512V95.4282H1245.24C1245.27 97.2734 1245.73 98.6788 1246.62 99.6444C1247.51 100.61 1248.76 101.093 1250.38 101.093C1251.37 101.093 1252.25 101.002 1253.02 100.82C1253.78 100.639 1254.57 100.371 1255.4 100.017V102.111C1254.6 102.465 1253.81 102.723 1253.03 102.885C1252.25 103.048 1251.34 103.129 1250.28 103.129C1248.77 103.129 1247.45 102.823 1246.32 102.211C1245.2 101.59 1244.33 100.682 1243.71 99.4866C1243.09 98.2916 1242.78 96.8288 1242.78 95.0984C1242.78 93.4062 1243.06 91.9435 1243.62 90.7102C1244.2 89.4674 1245 88.5113 1246.03 87.8421C1247.07 87.1729 1248.3 86.8383 1249.7 86.8383ZM1249.67 88.7886C1248.4 88.7886 1247.39 89.2045 1246.63 90.0362C1245.88 90.868 1245.43 92.0295 1245.29 93.521H1253.6C1253.59 92.584 1253.45 91.7618 1253.16 91.0544C1252.88 90.3374 1252.46 89.7829 1251.88 89.3909C1251.31 88.9893 1250.57 88.7886 1249.67 88.7886ZM1267.58 86.8383C1269.45 86.8383 1270.86 87.2972 1271.82 88.215C1272.77 89.1232 1273.25 90.5859 1273.25 92.6032V102.842H1270.9V92.7609C1270.9 91.4511 1270.6 90.4712 1269.99 89.8211C1269.4 89.171 1268.49 88.8459 1267.26 88.8459C1265.52 88.8459 1264.29 89.3383 1263.58 90.323C1262.88 91.3077 1262.52 92.737 1262.52 94.6108V102.842H1260.14V87.1251H1262.06L1262.42 89.3909H1262.55C1262.89 88.8364 1263.31 88.3727 1263.83 87.9999C1264.34 87.6174 1264.92 87.3306 1265.56 87.1394C1266.2 86.9387 1266.88 86.8383 1267.58 86.8383ZM1288.32 98.5401C1288.32 99.544 1288.07 100.39 1287.56 101.078C1287.06 101.757 1286.35 102.269 1285.41 102.613C1284.48 102.957 1283.37 103.129 1282.08 103.129C1280.98 103.129 1280.03 103.043 1279.23 102.871C1278.43 102.699 1277.72 102.455 1277.12 102.14V99.9455C1277.76 100.261 1278.53 100.548 1279.42 100.806C1280.31 101.064 1281.21 101.193 1282.14 101.193C1283.5 101.193 1284.48 100.973 1285.09 100.533C1285.71 100.094 1286.01 99.4962 1286.01 98.7409C1286.01 98.3107 1285.89 97.933 1285.64 97.608C1285.4 97.2734 1284.99 96.9531 1284.42 96.6472C1283.85 96.3317 1283.05 95.9875 1282.04 95.6147C1281.04 95.2323 1280.17 94.8546 1279.43 94.4818C1278.7 94.0994 1278.14 93.6357 1277.74 93.0907C1277.35 92.5458 1277.15 91.8383 1277.15 90.9683C1277.15 89.6395 1277.69 88.6213 1278.76 87.9138C1279.84 87.1968 1281.25 86.8383 1283 86.8383C1283.95 86.8383 1284.83 86.9339 1285.65 87.1251C1286.49 87.3067 1287.26 87.5553 1287.98 87.8708L1287.17 89.7781C1286.52 89.5008 1285.83 89.2666 1285.09 89.0754C1284.36 88.8842 1283.61 88.7886 1282.84 88.7886C1281.74 88.7886 1280.9 88.9702 1280.31 89.3335C1279.72 89.6968 1279.43 90.194 1279.43 90.8249C1279.43 91.3125 1279.56 91.714 1279.83 92.0295C1280.11 92.345 1280.55 92.6414 1281.15 92.9186C1281.75 93.1959 1282.55 93.521 1283.53 93.8938C1284.52 94.2571 1285.37 94.6347 1286.08 95.0267C1286.8 95.4091 1287.35 95.8776 1287.73 96.4321C1288.13 96.977 1288.32 97.6797 1288.32 98.5401ZM1298.2 86.8383C1299.54 86.8383 1300.69 87.1346 1301.64 87.7274C1302.6 88.3201 1303.33 89.1519 1303.84 90.2226C1304.34 91.2838 1304.6 92.5267 1304.6 93.9512V95.4282H1293.74C1293.77 97.2734 1294.23 98.6788 1295.12 99.6444C1296.01 100.61 1297.26 101.093 1298.88 101.093C1299.87 101.093 1300.75 101.002 1301.51 100.82C1302.28 100.639 1303.07 100.371 1303.9 100.017V102.111C1303.1 102.465 1302.31 102.723 1301.53 102.885C1300.75 103.048 1299.84 103.129 1298.78 103.129C1297.27 103.129 1295.95 102.823 1294.82 102.211C1293.7 101.59 1292.83 100.682 1292.21 99.4866C1291.59 98.2916 1291.28 96.8288 1291.28 95.0984C1291.28 93.4062 1291.56 91.9435 1292.12 90.7102C1292.7 89.4674 1293.5 88.5113 1294.53 87.8421C1295.57 87.1729 1296.8 86.8383 1298.2 86.8383ZM1298.17 88.7886C1296.9 88.7886 1295.89 89.2045 1295.13 90.0362C1294.38 90.868 1293.93 92.0295 1293.79 93.521H1302.1C1302.09 92.584 1301.94 91.7618 1301.66 91.0544C1301.38 90.3374 1300.96 89.7829 1300.38 89.3909C1299.81 88.9893 1299.07 88.7886 1298.17 88.7886ZM1314.23 103.129C1312.25 103.129 1310.67 102.45 1309.5 101.093C1308.35 99.7352 1307.77 97.7179 1307.77 95.041C1307.77 92.3355 1308.36 90.2943 1309.55 88.9176C1310.73 87.5314 1312.31 86.8383 1314.28 86.8383C1315.11 86.8383 1315.84 86.9482 1316.46 87.1681C1317.08 87.388 1317.61 87.6844 1318.06 88.0572C1318.51 88.4205 1318.89 88.8364 1319.2 89.3048H1319.37C1319.33 89.0085 1319.29 88.6022 1319.25 88.0859C1319.22 87.5696 1319.2 87.149 1319.2 86.8239V80.5284H1321.58V102.842H1319.66L1319.3 100.605H1319.2C1318.9 101.074 1318.52 101.499 1318.06 101.881C1317.61 102.264 1317.07 102.57 1316.44 102.799C1315.82 103.019 1315.09 103.129 1314.23 103.129ZM1314.61 101.15C1316.29 101.15 1317.48 100.672 1318.18 99.7161C1318.88 98.76 1319.23 97.3403 1319.23 95.4569V95.0267C1319.23 93.0286 1318.89 91.4942 1318.22 90.4234C1317.56 89.3526 1316.36 88.8173 1314.61 88.8173C1313.14 88.8173 1312.05 89.3813 1311.32 90.5094C1310.6 91.628 1310.23 93.1577 1310.23 95.0984C1310.23 97.0296 1310.59 98.521 1311.31 99.5726C1312.04 100.624 1313.14 101.15 1314.61 101.15ZM1334.61 102.842V81.8765H1337.05V102.842H1334.61ZM1352.62 98.5401C1352.62 99.544 1352.37 100.39 1351.86 101.078C1351.37 101.757 1350.65 102.269 1349.71 102.613C1348.79 102.957 1347.68 103.129 1346.39 103.129C1345.29 103.129 1344.34 103.043 1343.53 102.871C1342.73 102.699 1342.03 102.455 1341.42 102.14V99.9455C1342.06 100.261 1342.83 100.548 1343.72 100.806C1344.61 101.064 1345.52 101.193 1346.44 101.193C1347.8 101.193 1348.79 100.973 1349.4 100.533C1350.01 100.094 1350.32 99.4962 1350.32 98.7409C1350.32 98.3107 1350.19 97.933 1349.94 97.608C1349.7 97.2734 1349.3 96.9531 1348.72 96.6472C1348.15 96.3317 1347.36 95.9875 1346.34 95.6147C1345.34 95.2323 1344.47 94.8546 1343.73 94.4818C1343.01 94.0994 1342.44 93.6357 1342.04 93.0907C1341.65 92.5458 1341.45 91.8383 1341.45 90.9683C1341.45 89.6395 1341.99 88.6213 1343.06 87.9138C1344.14 87.1968 1345.55 86.8383 1347.3 86.8383C1348.25 86.8383 1349.13 86.9339 1349.96 87.1251C1350.79 87.3067 1351.56 87.5553 1352.28 87.8708L1351.48 89.7781C1350.83 89.5008 1350.13 89.2666 1349.4 89.0754C1348.66 88.8842 1347.91 88.7886 1347.15 88.7886C1346.05 88.7886 1345.2 88.9702 1344.61 89.3335C1344.02 89.6968 1343.73 90.194 1343.73 90.8249C1343.73 91.3125 1343.87 91.714 1344.13 92.0295C1344.41 92.345 1344.85 92.6414 1345.45 92.9186C1346.06 93.1959 1346.85 93.521 1347.83 93.8938C1348.82 94.2571 1349.67 94.6347 1350.39 95.0267C1351.1 95.4091 1351.65 95.8776 1352.04 96.4321C1352.43 96.977 1352.62 97.6797 1352.62 98.5401ZM1366.62 98.5401C1366.62 99.544 1366.37 100.39 1365.86 101.078C1365.36 101.757 1364.65 102.269 1363.71 102.613C1362.78 102.957 1361.67 103.129 1360.38 103.129C1359.28 103.129 1358.33 103.043 1357.53 102.871C1356.73 102.699 1356.02 102.455 1355.42 102.14V99.9455C1356.06 100.261 1356.83 100.548 1357.72 100.806C1358.6 101.064 1359.51 101.193 1360.44 101.193C1361.8 101.193 1362.78 100.973 1363.39 100.533C1364.01 100.094 1364.31 99.4962 1364.31 98.7409C1364.31 98.3107 1364.19 97.933 1363.94 97.608C1363.7 97.2734 1363.29 96.9531 1362.72 96.6472C1362.15 96.3317 1361.35 95.9875 1360.34 95.6147C1359.34 95.2323 1358.47 94.8546 1357.73 94.4818C1357 94.0994 1356.44 93.6357 1356.04 93.0907C1355.65 92.5458 1355.45 91.8383 1355.45 90.9683C1355.45 89.6395 1355.98 88.6213 1357.06 87.9138C1358.14 87.1968 1359.55 86.8383 1361.3 86.8383C1362.25 86.8383 1363.13 86.9339 1363.95 87.1251C1364.79 87.3067 1365.56 87.5553 1366.28 87.8708L1365.47 89.7781C1364.82 89.5008 1364.13 89.2666 1363.39 89.0754C1362.66 88.8842 1361.91 88.7886 1361.14 88.7886C1360.04 88.7886 1359.2 88.9702 1358.6 89.3335C1358.02 89.6968 1357.73 90.194 1357.73 90.8249C1357.73 91.3125 1357.86 91.714 1358.13 92.0295C1358.41 92.345 1358.85 92.6414 1359.45 92.9186C1360.05 93.1959 1360.85 93.521 1361.83 93.8938C1362.82 94.2571 1363.67 94.6347 1364.38 95.0267C1365.1 95.4091 1365.65 95.8776 1366.03 96.4321C1366.42 96.977 1366.62 97.6797 1366.62 98.5401ZM1383.43 87.1251V102.842H1381.48L1381.13 100.634H1381C1380.68 101.179 1380.26 101.638 1379.74 102.011C1379.23 102.383 1378.64 102.661 1377.99 102.842C1377.35 103.033 1376.67 103.129 1375.94 103.129C1374.7 103.129 1373.66 102.928 1372.82 102.527C1371.97 102.125 1371.34 101.504 1370.91 100.663C1370.49 99.8212 1370.28 98.7409 1370.28 97.4216V87.1251H1372.69V97.2495C1372.69 98.5593 1372.98 99.5392 1373.58 100.189C1374.17 100.83 1375.07 101.15 1376.29 101.15C1377.45 101.15 1378.38 100.93 1379.07 100.49C1379.77 100.051 1380.27 99.4053 1380.57 98.5545C1380.88 97.694 1381.03 96.6424 1381.03 95.3996V87.1251H1383.43ZM1394.51 86.8383C1395.85 86.8383 1397 87.1346 1397.95 87.7274C1398.91 88.3201 1399.64 89.1519 1400.15 90.2226C1400.66 91.2838 1400.91 92.5267 1400.91 93.9512V95.4282H1390.05C1390.08 97.2734 1390.54 98.6788 1391.43 99.6444C1392.32 100.61 1393.57 101.093 1395.19 101.093C1396.18 101.093 1397.06 101.002 1397.83 100.82C1398.59 100.639 1399.38 100.371 1400.21 100.017V102.111C1399.41 102.465 1398.62 102.723 1397.84 102.885C1397.07 103.048 1396.15 103.129 1395.09 103.129C1393.58 103.129 1392.26 102.823 1391.13 102.211C1390.01 101.59 1389.14 100.682 1388.52 99.4866C1387.9 98.2916 1387.59 96.8288 1387.59 95.0984C1387.59 93.4062 1387.87 91.9435 1388.43 90.7102C1389.01 89.4674 1389.81 88.5113 1390.84 87.8421C1391.88 87.1729 1393.11 86.8383 1394.51 86.8383ZM1394.48 88.7886C1393.21 88.7886 1392.2 89.2045 1391.44 90.0362C1390.69 90.868 1390.24 92.0295 1390.1 93.521H1398.41C1398.4 92.584 1398.26 91.7618 1397.97 91.0544C1397.69 90.3374 1397.27 89.7829 1396.69 89.3909C1396.12 88.9893 1395.38 88.7886 1394.48 88.7886ZM1410.55 103.129C1408.56 103.129 1406.98 102.45 1405.81 101.093C1404.66 99.7352 1404.08 97.7179 1404.08 95.041C1404.08 92.3355 1404.67 90.2943 1405.86 88.9176C1407.04 87.5314 1408.62 86.8383 1410.59 86.8383C1411.42 86.8383 1412.15 86.9482 1412.77 87.1681C1413.39 87.388 1413.93 87.6844 1414.37 88.0572C1414.82 88.4205 1415.2 88.8364 1415.51 89.3048H1415.68C1415.64 89.0085 1415.6 88.6022 1415.56 88.0859C1415.53 87.5696 1415.51 87.149 1415.51 86.8239V80.5284H1417.89V102.842H1415.97L1415.61 100.605H1415.51C1415.21 101.074 1414.83 101.499 1414.37 101.881C1413.93 102.264 1413.38 102.57 1412.75 102.799C1412.13 103.019 1411.4 103.129 1410.55 103.129ZM1410.92 101.15C1412.6 101.15 1413.79 100.672 1414.49 99.7161C1415.19 98.76 1415.54 97.3403 1415.54 95.4569V95.0267C1415.54 93.0286 1415.2 91.4942 1414.53 90.4234C1413.87 89.3526 1412.67 88.8173 1410.92 88.8173C1409.46 88.8173 1408.36 89.3813 1407.63 90.5094C1406.91 91.628 1406.54 93.1577 1406.54 95.0984C1406.54 97.0296 1406.9 98.521 1407.62 99.5726C1408.35 100.624 1409.45 101.15 1410.92 101.15Z" fill="#FBFCFC"/>
</svg>
