<svg xmlns="http://www.w3.org/2000/svg" width="15" height="14" viewBox="0 0 15 14" fill="none">
  <path d="M10.9763 10.4825H4.48966C2.16799 10.4825 1.46216 9.77663 1.46216 7.45496V3.75663C1.46216 1.43496 2.16799 0.729126 4.48966 0.729126H10.9705C13.2922 0.729126 13.998 1.43496 13.998 3.75663V7.44913C14.0038 9.77663 13.298 10.4825 10.9763 10.4825ZM4.48966 1.60413C2.65799 1.60413 2.33716 1.92496 2.33716 3.75663V7.44913C2.33716 9.28079 2.65799 9.60163 4.48966 9.60163H10.9705C12.8022 9.60163 13.123 9.28079 13.123 7.44913V3.75663C13.123 1.92496 12.8022 1.60413 10.9705 1.60413H4.48966Z" fill="#0A2540"/>
  <path d="M7.73291 13.2709C7.49374 13.2709 7.29541 13.0725 7.29541 12.8334V10.045C7.29541 9.80588 7.49374 9.60754 7.73291 9.60754C7.97208 9.60754 8.17041 9.80588 8.17041 10.045V12.8334C8.17041 13.0725 7.97208 13.2709 7.73291 13.2709Z" fill="#0A2540"/>
  <path d="M13.5663 8.02087H1.89966C1.66049 8.02087 1.46216 7.82254 1.46216 7.58337C1.46216 7.34421 1.66049 7.14587 1.89966 7.14587H13.5663C13.8055 7.14587 14.0038 7.34421 14.0038 7.58337C14.0038 7.82254 13.8055 8.02087 13.5663 8.02087Z" fill="#0A2540"/>
  <path d="M10.3579 13.2709H5.10791C4.86874 13.2709 4.67041 13.0725 4.67041 12.8334C4.67041 12.5942 4.86874 12.3959 5.10791 12.3959H10.3579C10.5971 12.3959 10.7954 12.5942 10.7954 12.8334C10.7954 13.0725 10.5971 13.2709 10.3579 13.2709Z" fill="#0A2540"/>
</svg>