<svg xmlns="http://www.w3.org/2000/svg" width="28" height="29" viewBox="0 0 28 29" fill="none">
  <mask id="path-1-outside-1_9_11692" maskUnits="userSpaceOnUse" x="0" y="0" width="28" height="29" fill="black">
    <rect fill="white" width="28" height="29"/>
    <path d="M25.6665 16.7497H24.8011C24.2457 16.7523 23.7535 17.122 23.5765 17.6694C23.0649 17.4831 22.6102 17.1587 22.2588 16.7294C21.9028 16.1993 21.4911 15.7118 21.0316 15.276C20.7949 15.0488 20.5764 14.858 20.3734 14.6955L22.8893 12.0438C23.4579 11.4415 23.6513 10.5572 23.3891 9.75838C23.157 8.99609 22.5312 8.43508 21.772 8.30858L17.0519 7.56565C16.6707 7.50163 16.3458 7.2433 16.1864 6.87766L14.0579 2.21546C13.7386 1.47585 13.0317 1 12.2521 1C11.4725 1 10.7655 1.47585 10.4463 2.21546L8.31737 6.87634C8.15764 7.2433 7.83142 7.50242 7.44892 7.56617L2.73226 8.30863C1.97298 8.43519 1.34728 8.99615 1.11518 9.75843C0.852957 10.5573 1.04636 11.4415 1.61497 12.0439L5.00187 15.6108C5.28615 15.9195 5.41434 16.3491 5.34807 16.7709L4.54275 21.838C4.39898 22.6752 4.73103 23.5237 5.39609 24.0186C5.72448 24.2659 6.11916 24.4 6.52463 24.402C6.85399 24.4001 7.17762 24.3122 7.4658 24.1464L9.26204 23.1249C9.07741 24.0111 9.56148 24.9002 10.3871 25.1917C10.1922 25.4885 10.0882 25.8397 10.0886 26.1992C10.0886 27.1932 10.8635 27.999 11.8194 27.999H17.8776C20.9218 27.999 21.4692 27.999 22.8794 27.0226C23.1 26.8714 23.335 26.7444 23.5809 26.6437C23.7621 27.1839 24.251 27.5467 24.8012 27.5491H25.6666C26.3836 27.5491 26.9648 26.9447 26.9648 26.1992V18.0996C26.9647 17.3541 26.3835 16.7497 25.6665 16.7497ZM7.0508 23.3567C6.6865 23.5731 6.23351 23.5449 5.89675 23.2847C5.50288 22.9877 5.30811 22.4818 5.39609 21.9843L6.20182 16.9148C6.31135 16.2105 6.09558 15.4936 5.61936 14.98L2.23114 11.4121C1.89281 11.0494 1.77892 10.5199 1.93647 10.0419C2.06416 9.59961 2.42364 9.27209 2.86207 9.19869L7.57488 8.4567C8.24308 8.34987 8.81534 7.90197 9.09891 7.26381L11.2284 2.60209C11.4041 2.17649 11.8068 1.90065 12.2522 1.90065C12.6976 1.90065 13.1002 2.17649 13.276 2.60209L15.4059 7.26471C15.6888 7.90128 16.2592 8.3485 16.9256 8.45623L21.6423 9.19869C22.0808 9.27199 22.4405 9.59955 22.5683 10.0419C22.7258 10.5199 22.6119 11.0494 22.2736 11.4121L19.6453 14.1821C19.3735 14.0157 19.1333 13.8937 18.9166 13.7853C18.3569 13.5699 17.8942 13.1458 17.6184 12.5955C17.2876 12.0136 17.0769 11.3665 16.9996 10.6953C16.9032 9.76318 16.1349 9.06406 15.2337 9.08843C14.3324 9.11279 13.6001 9.8524 13.5504 10.7885C13.445 12.7177 13.8972 14.6355 14.8485 16.2953L10.954 16.2998C10.3304 16.2961 9.75377 16.6434 9.44658 17.2077C9.13938 17.772 9.14977 18.4649 9.47371 19.019C8.7264 19.0963 8.11392 19.6693 7.96114 20.4339C7.80835 21.1985 8.15064 21.9777 8.80647 22.3582L7.0508 23.3567ZM22.3973 26.2748C21.2095 27.0991 20.8932 27.0991 17.8775 27.0991H11.8194C11.3414 27.0991 10.9539 26.6962 10.9539 26.1992C10.9539 25.7021 11.3414 25.2992 11.8194 25.2992H13.1176C13.3565 25.2992 13.5503 25.0977 13.5503 24.8492C13.5503 24.6008 13.3565 24.3993 13.1176 24.3993H10.9539C10.4759 24.3993 10.0885 23.9963 10.0885 23.4993C10.0885 23.0023 10.4759 22.5993 10.9539 22.5993H13.1176C13.3565 22.5993 13.5503 22.3978 13.5503 22.1494C13.5503 21.9009 13.3565 21.6994 13.1176 21.6994H9.65575C9.17776 21.6994 8.79029 21.2965 8.79029 20.7994C8.79029 20.3024 9.17776 19.8995 9.65575 19.8995H13.1176C13.3565 19.8995 13.5503 19.698 13.5503 19.4495C13.5503 19.201 13.3565 18.9996 13.1176 18.9996H10.9539C10.4759 18.9996 10.0885 18.5966 10.0885 18.0996C10.0885 17.6026 10.4759 17.1996 10.9539 17.1996L14.8484 17.1952C15.1642 17.1968 15.4555 17.0186 15.6075 16.7308C15.7595 16.443 15.7479 16.0917 15.5771 15.8155C14.7231 14.3164 14.3187 12.5864 14.4157 10.8469C14.4344 10.3734 14.8031 9.99609 15.2588 9.98423C15.7144 9.97236 16.1008 10.33 16.1423 10.8019C16.2336 11.5952 16.4826 12.36 16.8736 13.0478C17.2347 13.7536 17.8262 14.3022 18.5417 14.5948C19.2437 14.9249 19.8864 15.3773 20.4418 15.9326C20.8608 16.3305 21.2362 16.7751 21.5613 17.2587C22.0678 17.8953 22.7429 18.3632 23.5029 18.6041V25.7138C23.1131 25.8516 22.7417 26.0401 22.3973 26.2748ZM26.0992 26.1992C26.0992 26.4477 25.9055 26.6491 25.6665 26.6491H24.8011C24.5621 26.6491 24.3684 26.4477 24.3684 26.1992V18.0996C24.3684 17.8511 24.5621 17.6496 24.8011 17.6496H25.6665C25.9055 17.6496 26.0992 17.8511 26.0992 18.0996V26.1992Z"/>
  </mask>
  <path d="M25.6665 16.7497H24.8011C24.2457 16.7523 23.7535 17.122 23.5765 17.6694C23.0649 17.4831 22.6102 17.1587 22.2588 16.7294C21.9028 16.1993 21.4911 15.7118 21.0316 15.276C20.7949 15.0488 20.5764 14.858 20.3734 14.6955L22.8893 12.0438C23.4579 11.4415 23.6513 10.5572 23.3891 9.75838C23.157 8.99609 22.5312 8.43508 21.772 8.30858L17.0519 7.56565C16.6707 7.50163 16.3458 7.2433 16.1864 6.87766L14.0579 2.21546C13.7386 1.47585 13.0317 1 12.2521 1C11.4725 1 10.7655 1.47585 10.4463 2.21546L8.31737 6.87634C8.15764 7.2433 7.83142 7.50242 7.44892 7.56617L2.73226 8.30863C1.97298 8.43519 1.34728 8.99615 1.11518 9.75843C0.852957 10.5573 1.04636 11.4415 1.61497 12.0439L5.00187 15.6108C5.28615 15.9195 5.41434 16.3491 5.34807 16.7709L4.54275 21.838C4.39898 22.6752 4.73103 23.5237 5.39609 24.0186C5.72448 24.2659 6.11916 24.4 6.52463 24.402C6.85399 24.4001 7.17762 24.3122 7.4658 24.1464L9.26204 23.1249C9.07741 24.0111 9.56148 24.9002 10.3871 25.1917C10.1922 25.4885 10.0882 25.8397 10.0886 26.1992C10.0886 27.1932 10.8635 27.999 11.8194 27.999H17.8776C20.9218 27.999 21.4692 27.999 22.8794 27.0226C23.1 26.8714 23.335 26.7444 23.5809 26.6437C23.7621 27.1839 24.251 27.5467 24.8012 27.5491H25.6666C26.3836 27.5491 26.9648 26.9447 26.9648 26.1992V18.0996C26.9647 17.3541 26.3835 16.7497 25.6665 16.7497ZM7.0508 23.3567C6.6865 23.5731 6.23351 23.5449 5.89675 23.2847C5.50288 22.9877 5.30811 22.4818 5.39609 21.9843L6.20182 16.9148C6.31135 16.2105 6.09558 15.4936 5.61936 14.98L2.23114 11.4121C1.89281 11.0494 1.77892 10.5199 1.93647 10.0419C2.06416 9.59961 2.42364 9.27209 2.86207 9.19869L7.57488 8.4567C8.24308 8.34987 8.81534 7.90197 9.09891 7.26381L11.2284 2.60209C11.4041 2.17649 11.8068 1.90065 12.2522 1.90065C12.6976 1.90065 13.1002 2.17649 13.276 2.60209L15.4059 7.26471C15.6888 7.90128 16.2592 8.3485 16.9256 8.45623L21.6423 9.19869C22.0808 9.27199 22.4405 9.59955 22.5683 10.0419C22.7258 10.5199 22.6119 11.0494 22.2736 11.4121L19.6453 14.1821C19.3735 14.0157 19.1333 13.8937 18.9166 13.7853C18.3569 13.5699 17.8942 13.1458 17.6184 12.5955C17.2876 12.0136 17.0769 11.3665 16.9996 10.6953C16.9032 9.76318 16.1349 9.06406 15.2337 9.08843C14.3324 9.11279 13.6001 9.8524 13.5504 10.7885C13.445 12.7177 13.8972 14.6355 14.8485 16.2953L10.954 16.2998C10.3304 16.2961 9.75377 16.6434 9.44658 17.2077C9.13938 17.772 9.14977 18.4649 9.47371 19.019C8.7264 19.0963 8.11392 19.6693 7.96114 20.4339C7.80835 21.1985 8.15064 21.9777 8.80647 22.3582L7.0508 23.3567ZM22.3973 26.2748C21.2095 27.0991 20.8932 27.0991 17.8775 27.0991H11.8194C11.3414 27.0991 10.9539 26.6962 10.9539 26.1992C10.9539 25.7021 11.3414 25.2992 11.8194 25.2992H13.1176C13.3565 25.2992 13.5503 25.0977 13.5503 24.8492C13.5503 24.6008 13.3565 24.3993 13.1176 24.3993H10.9539C10.4759 24.3993 10.0885 23.9963 10.0885 23.4993C10.0885 23.0023 10.4759 22.5993 10.9539 22.5993H13.1176C13.3565 22.5993 13.5503 22.3978 13.5503 22.1494C13.5503 21.9009 13.3565 21.6994 13.1176 21.6994H9.65575C9.17776 21.6994 8.79029 21.2965 8.79029 20.7994C8.79029 20.3024 9.17776 19.8995 9.65575 19.8995H13.1176C13.3565 19.8995 13.5503 19.698 13.5503 19.4495C13.5503 19.201 13.3565 18.9996 13.1176 18.9996H10.9539C10.4759 18.9996 10.0885 18.5966 10.0885 18.0996C10.0885 17.6026 10.4759 17.1996 10.9539 17.1996L14.8484 17.1952C15.1642 17.1968 15.4555 17.0186 15.6075 16.7308C15.7595 16.443 15.7479 16.0917 15.5771 15.8155C14.7231 14.3164 14.3187 12.5864 14.4157 10.8469C14.4344 10.3734 14.8031 9.99609 15.2588 9.98423C15.7144 9.97236 16.1008 10.33 16.1423 10.8019C16.2336 11.5952 16.4826 12.36 16.8736 13.0478C17.2347 13.7536 17.8262 14.3022 18.5417 14.5948C19.2437 14.9249 19.8864 15.3773 20.4418 15.9326C20.8608 16.3305 21.2362 16.7751 21.5613 17.2587C22.0678 17.8953 22.7429 18.3632 23.5029 18.6041V25.7138C23.1131 25.8516 22.7417 26.0401 22.3973 26.2748ZM26.0992 26.1992C26.0992 26.4477 25.9055 26.6491 25.6665 26.6491H24.8011C24.5621 26.6491 24.3684 26.4477 24.3684 26.1992V18.0996C24.3684 17.8511 24.5621 17.6496 24.8011 17.6496H25.6665C25.9055 17.6496 26.0992 17.8511 26.0992 18.0996V26.1992Z" fill="#121212"/>
  <path d="M25.6665 16.7497H24.8011C24.2457 16.7523 23.7535 17.122 23.5765 17.6694C23.0649 17.4831 22.6102 17.1587 22.2588 16.7294C21.9028 16.1993 21.4911 15.7118 21.0316 15.276C20.7949 15.0488 20.5764 14.858 20.3734 14.6955L22.8893 12.0438C23.4579 11.4415 23.6513 10.5572 23.3891 9.75838C23.157 8.99609 22.5312 8.43508 21.772 8.30858L17.0519 7.56565C16.6707 7.50163 16.3458 7.2433 16.1864 6.87766L14.0579 2.21546C13.7386 1.47585 13.0317 1 12.2521 1C11.4725 1 10.7655 1.47585 10.4463 2.21546L8.31737 6.87634C8.15764 7.2433 7.83142 7.50242 7.44892 7.56617L2.73226 8.30863C1.97298 8.43519 1.34728 8.99615 1.11518 9.75843C0.852957 10.5573 1.04636 11.4415 1.61497 12.0439L5.00187 15.6108C5.28615 15.9195 5.41434 16.3491 5.34807 16.7709L4.54275 21.838C4.39898 22.6752 4.73103 23.5237 5.39609 24.0186C5.72448 24.2659 6.11916 24.4 6.52463 24.402C6.85399 24.4001 7.17762 24.3122 7.4658 24.1464L9.26204 23.1249C9.07741 24.0111 9.56148 24.9002 10.3871 25.1917C10.1922 25.4885 10.0882 25.8397 10.0886 26.1992C10.0886 27.1932 10.8635 27.999 11.8194 27.999H17.8776C20.9218 27.999 21.4692 27.999 22.8794 27.0226C23.1 26.8714 23.335 26.7444 23.5809 26.6437C23.7621 27.1839 24.251 27.5467 24.8012 27.5491H25.6666C26.3836 27.5491 26.9648 26.9447 26.9648 26.1992V18.0996C26.9647 17.3541 26.3835 16.7497 25.6665 16.7497ZM7.0508 23.3567C6.6865 23.5731 6.23351 23.5449 5.89675 23.2847C5.50288 22.9877 5.30811 22.4818 5.39609 21.9843L6.20182 16.9148C6.31135 16.2105 6.09558 15.4936 5.61936 14.98L2.23114 11.4121C1.89281 11.0494 1.77892 10.5199 1.93647 10.0419C2.06416 9.59961 2.42364 9.27209 2.86207 9.19869L7.57488 8.4567C8.24308 8.34987 8.81534 7.90197 9.09891 7.26381L11.2284 2.60209C11.4041 2.17649 11.8068 1.90065 12.2522 1.90065C12.6976 1.90065 13.1002 2.17649 13.276 2.60209L15.4059 7.26471C15.6888 7.90128 16.2592 8.3485 16.9256 8.45623L21.6423 9.19869C22.0808 9.27199 22.4405 9.59955 22.5683 10.0419C22.7258 10.5199 22.6119 11.0494 22.2736 11.4121L19.6453 14.1821C19.3735 14.0157 19.1333 13.8937 18.9166 13.7853C18.3569 13.5699 17.8942 13.1458 17.6184 12.5955C17.2876 12.0136 17.0769 11.3665 16.9996 10.6953C16.9032 9.76318 16.1349 9.06406 15.2337 9.08843C14.3324 9.11279 13.6001 9.8524 13.5504 10.7885C13.445 12.7177 13.8972 14.6355 14.8485 16.2953L10.954 16.2998C10.3304 16.2961 9.75377 16.6434 9.44658 17.2077C9.13938 17.772 9.14977 18.4649 9.47371 19.019C8.7264 19.0963 8.11392 19.6693 7.96114 20.4339C7.80835 21.1985 8.15064 21.9777 8.80647 22.3582L7.0508 23.3567ZM22.3973 26.2748C21.2095 27.0991 20.8932 27.0991 17.8775 27.0991H11.8194C11.3414 27.0991 10.9539 26.6962 10.9539 26.1992C10.9539 25.7021 11.3414 25.2992 11.8194 25.2992H13.1176C13.3565 25.2992 13.5503 25.0977 13.5503 24.8492C13.5503 24.6008 13.3565 24.3993 13.1176 24.3993H10.9539C10.4759 24.3993 10.0885 23.9963 10.0885 23.4993C10.0885 23.0023 10.4759 22.5993 10.9539 22.5993H13.1176C13.3565 22.5993 13.5503 22.3978 13.5503 22.1494C13.5503 21.9009 13.3565 21.6994 13.1176 21.6994H9.65575C9.17776 21.6994 8.79029 21.2965 8.79029 20.7994C8.79029 20.3024 9.17776 19.8995 9.65575 19.8995H13.1176C13.3565 19.8995 13.5503 19.698 13.5503 19.4495C13.5503 19.201 13.3565 18.9996 13.1176 18.9996H10.9539C10.4759 18.9996 10.0885 18.5966 10.0885 18.0996C10.0885 17.6026 10.4759 17.1996 10.9539 17.1996L14.8484 17.1952C15.1642 17.1968 15.4555 17.0186 15.6075 16.7308C15.7595 16.443 15.7479 16.0917 15.5771 15.8155C14.7231 14.3164 14.3187 12.5864 14.4157 10.8469C14.4344 10.3734 14.8031 9.99609 15.2588 9.98423C15.7144 9.97236 16.1008 10.33 16.1423 10.8019C16.2336 11.5952 16.4826 12.36 16.8736 13.0478C17.2347 13.7536 17.8262 14.3022 18.5417 14.5948C19.2437 14.9249 19.8864 15.3773 20.4418 15.9326C20.8608 16.3305 21.2362 16.7751 21.5613 17.2587C22.0678 17.8953 22.7429 18.3632 23.5029 18.6041V25.7138C23.1131 25.8516 22.7417 26.0401 22.3973 26.2748ZM26.0992 26.1992C26.0992 26.4477 25.9055 26.6491 25.6665 26.6491H24.8011C24.5621 26.6491 24.3684 26.4477 24.3684 26.1992V18.0996C24.3684 17.8511 24.5621 17.6496 24.8011 17.6496H25.6665C25.9055 17.6496 26.0992 17.8511 26.0992 18.0996V26.1992Z" stroke="#121212" stroke-width="0.26" mask="url(#path-1-outside-1_9_11692)"/>
</svg>