<svg xmlns="http://www.w3.org/2000/svg" width="63" height="54" viewBox="0 0 63 54" fill="none">
  <ellipse cx="31.2956" cy="26.8389" rx="31.0603" ry="26.5595" fill="white"/>
  <path d="M31.2962 2.40411C25.6451 2.40411 20.1209 3.83695 15.422 6.52148C10.723 9.20601 7.06046 13.0217 4.89724 17.4861C2.73402 21.9504 2.16731 26.8631 3.26876 31.6029C4.37021 36.3426 7.09037 40.6967 11.0853 44.1146C15.0803 47.5325 20.1706 49.8608 25.7128 50.805C31.2549 51.7492 37.0001 51.267 42.2218 49.4194C47.4435 47.5717 51.9074 44.4416 55.049 40.4247C58.1906 36.4078 59.8688 31.6845 59.8716 26.8521C59.8735 23.6421 59.1357 20.4632 57.7005 17.4971C56.2652 14.5311 54.1607 11.8358 51.507 9.56548C48.8534 7.29512 45.7026 5.4941 42.2348 4.26533C38.7669 3.03656 35.0499 2.40411 31.2962 2.40411ZM50.0761 28.3474C49.4333 34.3069 46.534 39.2488 40.6454 42.6667C33.5668 46.7733 24.3803 46.0533 18.2055 40.9866C13.6782 37.2591 11.4132 32.6988 11.2616 27.3057C11.1409 22.959 12.3198 18.97 15.2584 15.4321C19.1879 10.7014 24.4674 8.02047 31.4112 8.19328C36.1827 8.31089 40.1374 10.0558 43.5504 12.8088C44.3672 13.4664 45.1222 14.1841 45.9895 14.7889C48.3162 16.4138 50.9181 17.0042 53.8483 16.1282C54.0717 16.0695 54.2984 16.0207 54.5276 15.9818L54.7381 16.1738C53.5929 17.7531 52.3664 18.7059 49.0432 20.5829C50.0161 23.0813 50.3679 25.7259 50.0761 28.3474Z" fill="#0CB9DE"/>
  <path d="M44.0709 19.8676C43.5769 19.7932 43.1166 19.5508 42.6394 19.3876C41.4269 18.9724 40.2425 18.4707 38.9458 18.2811C38.2946 18.1851 37.5564 17.9595 36.9558 18.6651C37.6406 20.1316 39.1534 21.0461 40.467 22.191C40.2944 22.2275 40.1171 22.2452 39.9393 22.2438C35.0079 21.4589 30.155 20.4797 25.8804 18.0627C25.2796 17.7104 24.6033 17.4631 23.8905 17.335C23.1776 17.2069 22.4422 17.2006 21.7264 17.3163C19.4978 17.6691 17.6763 18.7059 15.9754 19.9228C15.6653 20.17 15.4451 20.4883 15.341 20.8397C13.0676 26.9457 13.9377 32.6604 18.6867 37.6768C24.8615 44.1932 35.4542 44.606 42.1763 38.1568C47.0151 33.5221 48.0929 27.9993 46.4482 22.011C46.1254 20.8517 45.5135 20.0884 44.0709 19.8676ZM34.904 36.8103C32.3022 36.8991 29.6414 36.8727 27.0452 36.8103C26.7252 36.3807 26.7954 36.0374 26.9413 35.5958H34.8451C35.2016 35.8958 35.1398 36.2679 34.904 36.8103ZM44.635 25.0783C44.2028 25.4792 43.706 25.2608 43.2962 25.496C43.2276 25.5751 43.1797 25.666 43.1559 25.7624C43.1334 26.7993 43.139 27.8385 43.111 28.8826C43.0773 30.1163 42.443 30.7811 41.0059 30.8195C38.5304 30.8843 36.0492 30.8867 33.5736 30.8195C32.1394 30.7787 31.5612 30.1187 31.5191 28.8562C31.4798 27.7449 31.6258 26.6289 31.4209 25.5416C30.9213 25.3016 30.489 25.3208 29.894 25.5896C29.894 26.5616 29.894 27.5913 29.894 28.621C29.8772 30.1787 29.1699 30.8267 27.3679 30.8507C25.1703 30.8819 22.9726 30.8867 20.7749 30.8507C18.8803 30.8171 18.1787 30.1643 18.1646 28.5514C18.1646 27.5577 18.1646 26.564 18.1646 25.6856C17.7408 25.2584 17.2272 25.4792 16.7977 25.2056C16.6153 24.7255 16.6827 24.1879 16.7977 23.5543H44.534C44.8231 24.1039 44.7052 24.6367 44.635 25.0783Z" fill="#0CB9DE"/>
  <path d="M19.6997 25.3928C19.5818 25.4576 19.3797 25.5104 19.3657 25.5896C19.1594 26.7301 19.1594 27.8909 19.3657 29.0314C19.3657 29.1058 19.5846 29.1562 19.6997 29.2186C20.0674 29.5498 20.5417 29.4994 21.0104 29.4994C23.0593 29.4994 25.1111 29.4994 27.16 29.4994C27.5249 29.4994 27.9122 29.5546 28.2181 29.317C28.5447 28.0239 28.537 26.6854 28.1957 25.3952L19.6997 25.3928ZM24.2157 28.5466C23.4046 28.5466 22.8124 27.8769 22.8629 27.0441C22.9134 26.3072 23.6151 25.6904 24.3448 25.7408C25.0746 25.7912 25.678 26.4848 25.6556 27.2049C25.6331 27.9249 24.9707 28.5466 24.2157 28.5466Z" fill="#0CB9DE"/>
  <path d="M32.9831 25.4119C32.9831 26.852 32.8821 28.1145 33.0393 29.3338C34.6981 29.6242 40.5052 29.5738 41.5914 29.2426C41.7064 27.9692 41.7064 26.6901 41.5914 25.4167C38.6668 25.3399 35.8601 25.3327 32.9831 25.4119ZM37.1231 28.5537C36.326 28.5705 35.7562 28.0113 35.745 27.2024C35.7337 26.3936 36.4158 25.6928 37.1792 25.7408C37.8978 25.784 38.5461 26.4608 38.5405 27.1808C38.5349 27.9009 37.8753 28.5321 37.1231 28.5441V28.5537Z" fill="#0CB9DE"/>
</svg>