<svg xmlns="http://www.w3.org/2000/svg" width="13" height="14" viewBox="0 0 13 14" fill="none">
  <path d="M4.78305 11.4169C4.68625 11.4169 4.58945 11.3812 4.51303 11.3048C4.36529 11.1571 4.36529 10.9125 4.51303 10.7648L7.83476 7.44304C8.07931 7.19849 8.07931 6.80111 7.83476 6.55656L4.51303 3.23483C4.36529 3.08708 4.36529 2.84254 4.51303 2.69479C4.66078 2.54705 4.90532 2.54705 5.05307 2.69479L8.3748 6.01653C8.63463 6.27636 8.78237 6.62789 8.78237 6.9998C8.78237 7.37171 8.63972 7.72325 8.3748 7.98307L5.05307 11.3048C4.97665 11.3761 4.87985 11.4169 4.78305 11.4169Z" fill="#425466"/>
</svg>