<svg width="40" height="40" viewBox="0 0 40 40" fill="none" xmlns="http://www.w3.org/2000/svg">
<path d="M20 10L18.2125 11.7412L25.1875 18.75H10V21.25H25.1875L18.2125 28.2162L20 30L30 20L20 10Z" fill="#39B6CC"/>
<path d="M20 37.5C16.5388 37.5 13.1554 36.4737 10.2775 34.5507C7.39967 32.6278 5.15665 29.8947 3.83212 26.697C2.50758 23.4993 2.16102 19.9806 2.83627 16.5859C3.51151 13.1913 5.17822 10.0731 7.62564 7.62564C10.0731 5.17822 13.1913 3.51151 16.5859 2.83627C19.9806 2.16102 23.4993 2.50758 26.697 3.83212C29.8947 5.15665 32.6278 7.39967 34.5507 10.2775C36.4737 13.1554 37.5 16.5388 37.5 20C37.4947 24.6397 35.6493 29.0878 32.3685 32.3685C29.0878 35.6493 24.6397 37.4947 20 37.5ZM20 5.00001C17.0333 5.00001 14.1332 5.87974 11.6665 7.52796C9.19972 9.17618 7.27713 11.5189 6.14181 14.2598C5.0065 17.0006 4.70945 20.0166 5.28823 22.9264C5.86701 25.8361 7.29562 28.5088 9.39341 30.6066C11.4912 32.7044 14.1639 34.133 17.0737 34.7118C19.9834 35.2906 22.9994 34.9935 25.7403 33.8582C28.4812 32.7229 30.8238 30.8003 32.4721 28.3336C34.1203 25.8668 35 22.9667 35 20C34.9954 16.0232 33.4135 12.2106 30.6015 9.39852C27.7895 6.58648 23.9768 5.00464 20 5.00001Z" fill="#39B6CC"/>
</svg>
