<svg xmlns="http://www.w3.org/2000/svg" width="16" height="17" viewBox="0 0 16 17" fill="none">
  <path d="M7.40657 14.2105C3.8825 14.2105 1.02002 11.348 1.02002 7.82393C1.02002 4.29986 3.8825 1.43738 7.40657 1.43738C7.67513 1.43738 7.89784 1.66009 7.89784 1.92865C7.89784 2.19721 7.67513 2.41992 7.40657 2.41992C4.42618 2.41992 2.00257 4.84354 2.00257 7.82393C2.00257 10.8043 4.42618 13.2279 7.40657 13.2279C10.387 13.2279 12.8106 10.8043 12.8106 7.82393C12.8106 7.55536 13.0333 7.33265 13.3018 7.33265C13.5704 7.33265 13.7931 7.55536 13.7931 7.82393C13.7931 11.348 10.9306 14.2105 7.40657 14.2105Z" fill="#5E7790"/>
  <path d="M13.3018 4.38501H9.37164C9.10308 4.38501 8.88037 4.1623 8.88037 3.89374C8.88037 3.62518 9.10308 3.40247 9.37164 3.40247H13.3018C13.5704 3.40247 13.7931 3.62518 13.7931 3.89374C13.7931 4.1623 13.5704 4.38501 13.3018 4.38501Z" fill="#5E7790"/>
  <path d="M11.3367 6.3501H9.37164C9.10308 6.3501 8.88037 6.12739 8.88037 5.85883C8.88037 5.59026 9.10308 5.36755 9.37164 5.36755H11.3367C11.6053 5.36755 11.828 5.59026 11.828 5.85883C11.828 6.12739 11.6053 6.3501 11.3367 6.3501Z" fill="#5E7790"/>
  <path d="M13.4068 15.5467C13.3544 15.5467 13.302 15.5402 13.2561 15.5336C12.9482 15.4943 12.3915 15.2847 12.0771 14.348C11.9133 13.8567 11.9722 13.3655 12.2408 12.9921C12.5094 12.6187 12.9613 12.4091 13.4788 12.4091C14.1469 12.4091 14.671 12.6646 14.9068 13.1166C15.1426 13.5685 15.0771 14.1449 14.7037 14.7017C14.2387 15.4026 13.7343 15.5467 13.4068 15.5467ZM13.0137 14.0401C13.1251 14.3808 13.2823 14.5511 13.3871 14.5642C13.4919 14.5773 13.6884 14.4528 13.8915 14.158C14.0814 13.8764 14.0945 13.6733 14.0487 13.5816C14.0028 13.4899 13.8194 13.3917 13.4788 13.3917C13.2758 13.3917 13.1251 13.4572 13.0399 13.5685C12.9613 13.6799 12.9482 13.8502 13.0137 14.0401Z" fill="#5E7790"/>
</svg>