<svg xmlns="http://www.w3.org/2000/svg" width="33" height="32" viewBox="0 0 33 32" fill="none">
  <g clip-path="url(#clip0_412_136)">
    <path fill-rule="evenodd" clip-rule="evenodd" d="M12.5 17.3333C13.2072 17.3333 13.8855 17.6143 14.3856 18.1144C14.8857 18.6145 15.1667 19.2928 15.1667 20V25.3333C15.1667 26.0406 14.8857 26.7189 14.3856 27.219C13.8855 27.719 13.2072 28 12.5 28H7.16667C6.45942 28 5.78115 27.719 5.28105 27.219C4.78095 26.7189 4.5 26.0406 4.5 25.3333V20C4.5 19.2928 4.78095 18.6145 5.28105 18.1144C5.78115 17.6143 6.45942 17.3333 7.16667 17.3333H12.5ZM25.8333 17.3333C26.5406 17.3333 27.2189 17.6143 27.719 18.1144C28.219 18.6145 28.5 19.2928 28.5 20V25.3333C28.5 26.0406 28.219 26.7189 27.719 27.219C27.2189 27.719 26.5406 28 25.8333 28H20.5C19.7928 28 19.1145 27.719 18.6144 27.219C18.1143 26.7189 17.8333 26.0406 17.8333 25.3333V20C17.8333 19.2928 18.1143 18.6145 18.6144 18.1144C19.1145 17.6143 19.7928 17.3333 20.5 17.3333H25.8333ZM12.5 4C13.2072 4 13.8855 4.28095 14.3856 4.78105C14.8857 5.28115 15.1667 5.95942 15.1667 6.66667V12C15.1667 12.7072 14.8857 13.3855 14.3856 13.8856C13.8855 14.3857 13.2072 14.6667 12.5 14.6667H7.16667C6.45942 14.6667 5.78115 14.3857 5.28105 13.8856C4.78095 13.3855 4.5 12.7072 4.5 12V6.66667C4.5 5.95942 4.78095 5.28115 5.28105 4.78105C5.78115 4.28095 6.45942 4 7.16667 4H12.5ZM25.8333 4C26.5406 4 27.2189 4.28095 27.719 4.78105C28.219 5.28115 28.5 5.95942 28.5 6.66667V12C28.5 12.7072 28.219 13.3855 27.719 13.8856C27.2189 14.3857 26.5406 14.6667 25.8333 14.6667H20.5C19.7928 14.6667 19.1145 14.3857 18.6144 13.8856C18.1143 13.3855 17.8333 12.7072 17.8333 12V6.66667C17.8333 5.95942 18.1143 5.28115 18.6144 4.78105C19.1145 4.28095 19.7928 4 20.5 4H25.8333Z" fill="#0CB9DE"/>
  </g>
  <defs>
    <clipPath id="clip0_412_136">
      <rect width="32" height="32" fill="white" transform="translate(0.5)"/>
    </clipPath>
  </defs>
</svg>