<svg xmlns="http://www.w3.org/2000/svg" width="33" height="32" viewBox="0 0 33 32" fill="none">
  <path d="M29 16C29 16.3978 28.842 16.7794 28.5607 17.0607C28.2794 17.342 27.8978 17.5 27.5 17.5H5.5C5.10218 17.5 4.72064 17.342 4.43934 17.0607C4.15804 16.7794 4 16.3978 4 16C4 15.6022 4.15804 15.2206 4.43934 14.9393C4.72064 14.658 5.10218 14.5 5.5 14.5H27.5C27.8978 14.5 28.2794 14.658 28.5607 14.9393C28.842 15.2206 29 15.6022 29 16ZM5.5 9.5H27.5C27.8978 9.5 28.2794 9.34196 28.5607 9.06066C28.842 8.77936 29 8.39782 29 8C29 7.60218 28.842 7.22064 28.5607 6.93934C28.2794 6.65804 27.8978 6.5 27.5 6.5H5.5C5.10218 6.5 4.72064 6.65804 4.43934 6.93934C4.15804 7.22064 4 7.60218 4 8C4 8.39782 4.15804 8.77936 4.43934 9.06066C4.72064 9.34196 5.10218 9.5 5.5 9.5ZM27.5 22.5H5.5C5.10218 22.5 4.72064 22.658 4.43934 22.9393C4.15804 23.2206 4 23.6022 4 24C4 24.3978 4.15804 24.7794 4.43934 25.0607C4.72064 25.342 5.10218 25.5 5.5 25.5H27.5C27.8978 25.5 28.2794 25.342 28.5607 25.0607C28.842 24.7794 29 24.3978 29 24C29 23.6022 28.842 23.2206 28.5607 22.9393C28.2794 22.658 27.8978 22.5 27.5 22.5Z" fill="white"/>
</svg>