<svg width="98" height="100" viewBox="0 0 98 100" fill="none" xmlns="http://www.w3.org/2000/svg">
    <path
        d="M81.7267 0.785999C83.7372 1.78774 84.8863 2.8305 85.7929 4.91303C86.4639 7.49093 86.1745 9.48482 84.8893 11.7914C83.7888 12.9785 82.5471 13.907 81.2467 14.858C80.8856 15.1323 80.5245 15.4066 80.1524 15.6892C79.0272 16.5395 77.8935 17.3767 76.7569 18.2112C76.414 18.4652 76.0712 18.7191 75.7179 18.9808C74.054 20.2131 72.3838 21.4357 70.7071 22.6499C69.2295 23.7233 67.7691 24.8169 66.3161 25.9243C65.9329 26.2155 65.5496 26.5066 65.1548 26.8065C64.4202 27.3658 63.6874 27.9275 62.9569 28.4921C61.4285 29.6523 60.0209 30.6654 58.2384 31.3769C57.7894 31.572 57.3404 31.767 56.8777 31.968C56.3245 33.6526 56.5941 33.9656 57.2731 35.5505C59.587 41.7236 58.7016 47.5428 56.4259 53.5203C58.2625 54.4552 60.1101 55.3652 61.9605 56.2716C62.4753 56.5341 62.9902 56.7965 63.5206 57.0669C66.5333 58.5263 68.8336 59.3317 72.1856 58.9853C75.85 59.0832 79.3596 60.8571 82.6727 62.3224C83.2917 62.5927 83.2917 62.5927 83.9231 62.8684C85.2251 63.4376 86.5256 64.0103 87.826 64.583C88.7119 64.9707 89.5978 65.3582 90.4839 65.7455C92.0949 66.4506 93.7056 67.1563 95.3151 67.8648C95.6366 68.0062 95.9581 68.1477 96.2893 68.2935C96.8632 68.5516 97.43 68.8263 97.9915 69.1113C97.7563 72.3386 97.2285 75.389 96.4561 78.526C96.3497 78.9652 96.2432 79.4044 96.1335 79.8569C95.9096 80.7759 95.684 81.6945 95.4568 82.6128C95.1095 84.0219 94.7713 85.4331 94.4336 86.8446C94.2141 87.7403 93.9941 88.636 93.7735 89.5315C93.6733 89.9537 93.573 90.3759 93.4696 90.8109C93.3717 91.2 93.2737 91.5891 93.1728 91.9899C93.0889 92.3325 93.005 92.6751 92.9186 93.028C92.5699 93.8734 92.5699 93.8734 91.2145 94.7906C90.0514 94.5774 88.9926 94.3161 87.8649 93.9773C87.5355 93.8844 87.2061 93.7915 86.8667 93.6958C85.8106 93.3976 84.7569 93.0919 83.7034 92.7844C82.6595 92.4803 81.6153 92.1783 80.5691 91.8827C79.9184 91.6989 79.269 91.5104 78.6213 91.3163C74.2272 90.0745 71.1412 90.6898 67.0185 92.5694C66.1073 92.9665 65.1961 93.3636 64.2848 93.7606C62.8671 94.389 61.4508 95.0204 60.0353 95.6537C58.6576 96.2669 57.2756 96.8689 55.893 97.4703C55.4768 97.6608 55.0606 97.8514 54.6318 98.0478C51.217 99.5273 47.753 100.144 44.1921 98.7635C43.5593 98.4614 42.9312 98.1489 42.3072 97.8285C41.525 97.4502 40.7425 97.0723 39.96 96.6946C39.5073 96.4723 39.0546 96.25 38.5882 96.0209C36.7029 95.1056 34.8066 94.2164 32.9077 93.3307C32.541 93.1596 32.1744 92.9886 31.7967 92.8124C31.0366 92.4579 30.2764 92.1034 29.5163 91.7489C27.5916 90.8503 25.6691 89.9471 23.7464 89.0442C21.0946 87.7993 18.4418 86.5567 15.7869 85.3184C15.2561 85.0707 14.7254 84.8229 14.1785 84.5676C13.2226 84.1215 12.2666 83.676 11.3102 83.2311C9.24502 82.2664 7.18778 81.2868 5.14493 80.2743C4.78759 80.0973 4.43025 79.9202 4.06209 79.7378C2.45072 78.8234 1.7776 78.1032 0.854594 76.4482C0.430312 74.4319 0.384689 72.6883 1.41934 70.8703C2.52914 69.5017 3.24078 68.7625 4.92079 68.1941C5.7026 68.2429 6.48383 68.3013 7.2645 68.3661C9.19335 68.3738 10.2156 68.2097 11.6695 66.9044C12.287 66.27 12.8981 65.6291 13.505 64.9842C14.4165 64.1122 15.3452 63.2598 16.2723 62.4048C16.605 62.092 16.605 62.092 16.9446 61.7729C18.4682 60.342 20.0345 58.9845 21.6374 57.6473C21.43 57.3523 21.2227 57.0574 21.0091 56.7535C17.5572 51.5939 15.9899 46.4822 16.6676 40.2221C17.7795 34.6679 20.305 29.5045 24.8 26.0067C28.194 23.9226 31.6441 22.2544 35.6432 21.8797C35.9699 21.8478 36.2966 21.8159 36.6332 21.783C41.8364 21.5373 46.7433 23.5821 51.0044 26.4653C52.0648 25.7601 52.7363 25.2267 53.3592 24.0926C54.4429 22.3542 55.7994 21.0178 57.236 19.5762C57.5364 19.2715 57.8368 18.9668 58.1463 18.6529C58.7813 18.0098 59.4174 17.3677 60.0546 16.7267C61.0199 15.7553 61.9815 14.7804 62.9426 13.8048C63.5628 13.1776 64.1831 12.5507 64.8037 11.924C65.2288 11.4932 65.2288 11.4932 65.6626 11.0537C67.3892 9.31958 69.1672 7.66914 71.0095 6.06208C72.2701 4.94279 73.4084 3.71306 74.5615 2.48231C76.7021 0.496805 78.9365 0.423616 81.7267 0.785999Z"
        fill="#E7F4F5" />
    <path
        d="M83.9434 65.0566C85.349 65.6772 86.7623 66.276 88.1777 66.8732C89.0739 67.2613 89.9697 67.6507 90.8649 68.0414C91.2876 68.22 91.7104 68.3987 92.1459 68.5827C92.7263 68.844 92.7263 68.844 93.3185 69.1105C93.6599 69.2601 94.0014 69.4097 94.3532 69.5638C95.1376 70.17 95.1376 70.17 95.5018 71.25C95.59 72.4881 95.4864 73.3748 95.1844 74.5728C95.0355 75.1782 95.0355 75.1782 94.8836 75.7957C94.7729 76.225 94.6622 76.6543 94.5481 77.0966C94.3822 77.7631 94.3822 77.7631 94.2129 78.4431C93.8592 79.8591 93.499 81.2733 93.1385 82.6876C92.8973 83.6486 92.6565 84.6096 92.4161 85.5708C91.8266 87.9243 91.2317 90.2763 90.6326 92.6272C86.4485 91.5808 82.2836 90.5122 78.1628 89.2275C77.841 89.1323 77.5193 89.0372 77.1878 88.9392C76.9129 88.8549 76.6379 88.7706 76.3546 88.6837C72.9198 88.0845 70.5719 88.7703 67.4457 90.1584C67.0493 90.3281 66.653 90.4978 66.2447 90.6726C64.9858 91.213 63.7309 91.7622 62.476 92.3121C61.2204 92.855 59.9639 93.3961 58.7074 93.9369C57.9285 94.273 57.1502 94.6106 56.3727 94.95C48.5953 98.3375 48.5953 98.3375 44.6142 96.8482C43.5664 96.3715 42.5484 95.8536 41.5276 95.3198C40.6924 94.8993 39.8565 94.4805 39.0199 94.063C38.561 93.8333 38.1022 93.6037 37.6294 93.367C35.0706 92.1116 32.48 90.9281 29.8904 89.7399C24.5092 87.2702 19.1429 84.7694 13.7934 82.2293C13.511 82.0954 13.2286 81.9615 12.9377 81.8236C3.577 77.3837 3.577 77.3837 2.78417 75.6697C2.55892 74.3234 2.55892 74.3234 2.78417 72.9199C3.81117 71.537 4.56395 70.7876 6.1898 70.2398C8.42391 70.1392 10.1493 70.893 12.2096 71.7168C12.6336 71.8828 13.0576 72.0487 13.4945 72.2197C14.3879 72.5723 15.2799 72.9285 16.1706 73.288C17.5349 73.8352 18.9058 74.3616 20.2782 74.8874C21.1462 75.2328 22.0138 75.5795 22.8809 75.9275C23.4968 76.1605 23.4968 76.1605 24.1252 76.3981C25.21 76.8481 26.1571 77.2695 27.1114 77.9613C27.7613 79.609 27.7613 79.609 28.0124 81.1694C29.2705 82.785 29.9598 83.3498 31.9651 83.6449C33.5167 83.7052 35.0482 83.6835 36.6002 83.6329C37.1626 83.6214 37.7251 83.6099 38.3045 83.5981C39.4454 83.5724 40.5861 83.5416 41.7267 83.5055C43.1347 83.4664 44.538 83.457 45.9464 83.4628C51.3383 83.4284 55.824 82.26 60.8106 80.2013C62.3306 79.5765 63.8677 79.0007 65.4043 78.4196C65.4043 78.1171 65.4043 77.8146 65.4043 77.503C62.6685 77.7756 60.288 78.5986 57.7176 79.5654C52.4625 81.5331 47.5331 81.8736 41.9781 82.0861C41.51 82.1072 41.0419 82.1283 40.5597 82.1501C39.0991 82.2111 37.6392 82.2512 36.1778 82.2866C35.7148 82.3079 35.2517 82.3292 34.7746 82.3511C31.6106 82.3979 31.6106 82.3979 30.3562 81.5181C29.2175 80.2168 28.9163 79.4203 28.8571 77.6748C29.4725 75.7966 29.9934 75.356 31.6165 74.2948C32.8165 74.0071 33.8967 73.8124 35.1114 73.6789C35.4464 73.635 35.7815 73.5911 36.1267 73.5458C37.1942 73.4064 38.2625 73.2767 39.3314 73.149C45.6517 72.3834 50.8647 71.1246 56.5069 67.993C57.0517 67.6962 57.0517 67.6962 57.6076 67.3934C58.7065 66.7943 59.803 66.1909 60.8993 65.5869C61.8793 65.0501 62.8599 64.5142 63.8412 63.9797C64.4182 63.665 64.9946 63.3491 65.5702 63.0317C72.0843 59.4651 77.6859 62.2848 83.9434 65.0566Z"
        fill="#39B6CC" />
    <path
        d="M58.2334 38.3611C58.8308 43.976 58.4168 48.2691 56.4262 53.5C58.2628 54.4353 60.1104 55.3458 61.9607 56.2525C62.4756 56.5151 62.9904 56.7777 63.5209 57.0482C66.5335 58.5082 68.8338 59.314 72.1858 58.9674C75.8503 59.0653 79.3598 60.84 82.6729 62.306C83.0856 62.4862 83.4982 62.6665 83.9234 62.8522C85.2254 63.4216 86.5258 63.9945 87.8263 64.5675C88.7121 64.9554 89.5981 65.3431 90.4841 65.7305C92.0951 66.4359 93.7058 67.1419 95.3154 67.8507C95.6368 67.9922 95.9583 68.1337 96.2895 68.2796C96.8635 68.5378 97.4303 68.8126 97.9918 69.0977C97.7565 72.3265 97.2287 75.3781 96.4564 78.5165C96.3499 78.9559 96.2434 79.3953 96.1338 79.8479C95.9098 80.7674 95.6842 81.6864 95.457 82.605C95.1097 84.0147 94.7716 85.4265 94.4338 86.8386C94.2144 87.7348 93.9944 88.6308 93.7738 89.5267C93.6735 89.9491 93.5732 90.3715 93.4699 90.8067C93.3719 91.1959 93.274 91.5852 93.1731 91.9862C93.0892 92.3289 93.0053 92.6716 92.9188 93.0247C92.5702 93.8705 92.5702 93.8705 91.2148 94.788C90.0516 94.5748 88.9929 94.3134 87.8651 93.9744C87.5357 93.8815 87.2063 93.7886 86.8669 93.6928C85.8108 93.3945 84.7571 93.0886 83.7036 92.781C82.6597 92.4768 81.6155 92.1746 80.5693 91.8789C79.9187 91.6951 79.2693 91.5065 78.6216 91.3122C74.2275 90.07 71.1415 90.6856 67.0188 92.5659C66.1076 92.9632 65.1963 93.3604 64.285 93.7576C62.8674 94.3863 61.4511 95.018 60.0355 95.6515C58.6579 96.265 57.2759 96.8672 55.8932 97.4689C55.477 97.6595 55.0608 97.8502 54.632 98.0466C51.2173 99.5268 47.7532 100.144 44.1923 98.7627C43.5595 98.4604 42.9315 98.1478 42.3075 97.8273C41.5252 97.4488 40.7428 97.0707 39.9602 96.6929C39.5075 96.4705 39.0549 96.2481 38.5885 96.0189C36.7032 95.1032 34.8068 94.2136 32.9079 93.3275C32.5413 93.1564 32.1746 92.9853 31.7969 92.809C31.0368 92.4543 30.2767 92.0997 29.5165 91.7451C27.5919 90.8461 25.6693 89.9425 23.7466 89.0392C21.0948 87.7938 18.442 86.5506 15.7872 85.3118C15.2564 85.0639 14.7256 84.8161 14.1787 84.5606C13.2229 84.1144 12.2668 83.6687 11.3104 83.2236C9.24527 82.2585 7.18802 81.2785 5.14517 80.2655C4.78783 80.0884 4.4305 79.9113 4.06233 79.7288C2.45096 78.814 1.77784 78.0935 0.854838 76.4378C0.430556 74.4206 0.384933 72.6763 1.41959 70.8575C2.52939 69.4883 3.24103 68.7488 4.92104 68.1802C5.70284 68.2289 6.48408 68.2874 7.26475 68.3522C9.19359 68.3599 10.2158 68.1957 11.6698 66.8899C12.2873 66.2552 12.8983 65.614 13.5052 64.9689C14.4167 64.0965 15.3455 63.2437 16.2725 62.3884C16.4944 62.1798 16.7162 61.9711 16.9448 61.7562C18.4684 60.3247 20.0347 58.9666 21.6376 57.6288C21.4693 57.3958 21.301 57.1628 21.1276 56.9228C19.36 54.3113 19.36 54.3113 19.4633 52.3531C19.5845 51.9747 19.7056 51.5962 19.8304 51.2062C21.0181 52.3195 21.9567 53.4818 22.8801 54.8189C25.4957 58.38 29.1519 60.6588 33.3844 61.7576C39.3572 62.5582 44.3247 61.641 49.3668 58.2023C52.4334 55.6828 55.1248 51.3363 55.7767 47.3642C55.842 46.9668 55.9072 46.5694 55.9744 46.1599C56.4217 45.8571 56.869 45.5544 57.3298 45.2424C57.4428 43.5984 57.4428 43.5984 57.3298 42.0311C57.1807 42.0311 57.0316 42.0311 56.878 42.0311C56.878 40.9714 56.878 39.9117 56.878 38.8198C57.7816 38.3611 57.7816 38.3611 58.2334 38.3611ZM62.8727 64.3995C60.9869 65.4472 59.0567 66.4058 57.1321 67.3774C56.7634 67.5662 56.3947 67.7551 56.0149 67.9497C54.9507 68.4929 53.8829 69.0274 52.8118 69.5565C52.4716 69.7253 52.1314 69.8941 51.7809 70.0681C46.8574 72.4123 41.5864 72.7559 36.2346 73.3752C35.3864 73.4843 35.3864 73.4843 34.521 73.5957C34.0098 73.6571 33.4986 73.7185 32.9719 73.7818C31.3462 74.204 30.5065 74.7874 29.3182 75.979C28.7143 77.5186 28.7143 77.5186 28.8664 79.1903C29.5935 80.4934 29.9506 81.1203 31.1254 81.9429C32.8089 82.3035 34.4396 82.2224 36.1517 82.1436C36.6329 82.1313 37.1142 82.1191 37.61 82.1065C39.0637 82.0654 40.5157 82.0048 41.9686 81.9429C42.7739 81.9204 43.5793 81.8988 44.3847 81.8783C50.372 81.6893 55.6656 80.5419 61.2251 78.2644C62.7662 77.6411 63.7741 77.3553 65.4622 77.3553C65.4622 77.6581 65.4622 77.9609 65.4622 78.2728C63.9476 78.8676 62.4319 79.4593 60.916 80.0505C60.4899 80.2178 60.0639 80.3852 59.625 80.5576C55.9303 81.9955 52.6222 83.0001 48.6609 83.1471C48.0598 83.1707 48.0598 83.1707 47.4466 83.1948C46.0725 83.2432 44.6984 83.2814 43.324 83.3191C42.785 83.3372 42.246 83.3552 41.6906 83.3738C39.9855 83.4266 38.2809 83.4612 36.5752 83.4912C36.0321 83.5087 35.4889 83.5262 34.9292 83.5442C30.6394 83.5856 30.6394 83.5856 29.0058 82.3622C27.9628 81.0253 27.9628 81.0253 27.6453 79.4333C27.205 77.7041 27.205 77.7041 25.6597 76.9312C25.0674 76.6949 24.4697 76.472 23.8684 76.2604C23.5494 76.1369 23.2305 76.0134 22.9019 75.8862C21.882 75.4943 20.8568 75.1201 19.8304 74.7461C19.1541 74.4901 18.4781 74.233 17.8026 73.9747C16.5041 73.4794 15.2032 72.9914 13.9 72.5089C12.0772 71.8303 10.2825 71.09 8.49628 70.3176C7.12401 69.8376 6.25842 69.9371 4.92104 70.474C3.43527 71.6218 2.7551 72.2638 2.4079 74.144C2.73092 75.8933 3.25239 76.5297 4.46924 77.8141C5.63045 78.5492 6.85292 79.1057 8.10305 79.667C8.46126 79.8335 8.81947 80 9.18853 80.1715C10.352 80.7104 11.519 81.2407 12.6863 81.7708C13.4889 82.1405 14.2912 82.5107 15.0933 82.8814C19.9716 85.1301 24.8643 87.3503 29.7853 89.5009C32.8506 90.8462 35.8264 92.3409 38.806 93.8705C40.1817 94.5675 41.5645 95.2444 42.9569 95.9062C43.2863 96.0727 43.6156 96.2392 43.9549 96.4107C44.2843 96.5653 44.6136 96.72 44.953 96.8793C45.2379 97.0179 45.5228 97.1566 45.8163 97.2994C49.1929 98.025 52.3174 96.7036 55.3743 95.3632C55.7744 95.193 56.1744 95.0227 56.5866 94.8473C57.853 94.3069 59.1162 93.7591 60.3794 93.211C61.234 92.8447 62.0888 92.4788 62.9438 92.1134C64.5092 91.4439 66.0732 90.7714 67.636 90.0957C67.9705 89.9534 68.3049 89.8111 68.6494 89.6645C69.3377 89.3657 70.0161 89.0436 70.6901 88.713C73.4943 87.8248 76.1485 88.43 78.8856 89.2686C79.356 89.4061 79.356 89.4061 79.836 89.5463C80.8254 89.8363 81.8127 90.1327 82.8 90.4298C83.7973 90.7256 84.795 91.02 85.793 91.3134C86.411 91.4954 87.0285 91.6792 87.6454 91.8647C89.1785 92.3369 89.1785 92.3369 90.763 92.4942C91.4858 89.6633 92.201 86.8304 92.9111 83.9962C93.1535 83.0324 93.3977 82.069 93.6435 81.1061C93.9968 79.7214 94.3439 78.3352 94.6898 76.9485C94.8008 76.5188 94.9118 76.0891 95.0262 75.6464C95.1755 75.0405 95.1755 75.0405 95.3279 74.4223C95.4618 73.8921 95.4618 73.8921 95.5984 73.3511C95.7592 72.1041 95.657 71.213 95.281 70.0152C94.2215 69.369 93.3041 68.9175 92.166 68.4669C91.6899 68.2661 91.6899 68.2661 91.2041 68.0612C90.1849 67.6337 89.1612 67.2187 88.1369 66.8039C87.4662 66.5252 86.7959 66.2456 86.1258 65.9653C84.8189 65.4196 83.5098 64.8802 82.1984 64.3456C80.1612 63.5125 78.1476 62.6253 76.1387 61.7241C71.1285 59.9317 67.1905 61.9531 62.8727 64.3995Z"
        fill="#E7F4F5" />
    <path
        d="M9.57922 70.6157C10.6426 71.0151 11.6978 71.4323 12.7521 71.8562C13.1375 72.0089 13.5229 72.1615 13.9199 72.3188C15.1446 72.8046 16.3678 73.2942 17.591 73.7837C18.4204 74.113 19.2498 74.4421 20.0793 74.771C26.106 77.1655 26.106 77.1655 27.1981 77.7256C27.31 78.223 27.4219 78.7204 27.5372 79.2328C28.0639 80.8537 28.4909 81.811 29.8224 82.8577C32.0951 83.8491 34.7079 83.7168 37.1443 83.7544C37.1443 83.9075 37.1443 84.0605 37.1443 84.2182C35.6523 84.3712 34.1604 84.5242 32.6233 84.6819C34.2784 85.4417 35.9341 86.2002 37.5902 86.9577C38.4249 87.3397 39.2592 87.7227 40.0935 88.1057C46.0716 91.3028 46.0716 91.3028 52.5156 92.102C53.7483 91.6035 54.9317 91.0382 56.1236 90.4444C57.5287 89.7638 58.9455 89.1863 60.3991 88.6238C62.315 87.8804 64.2167 87.115 66.1068 86.3051C66.5474 86.1168 66.988 85.9284 67.442 85.7344C68.3739 85.3278 69.3015 84.9104 70.2252 84.4845C70.6937 84.2722 71.1623 84.06 71.6451 83.8414C72.2718 83.5499 72.2718 83.5499 72.9113 83.2526C75.9973 82.246 78.8195 83.0824 81.8455 83.8993C82.2284 83.9983 82.6113 84.0972 83.0058 84.1991C85.542 84.8665 88.0182 85.6589 90.4919 86.5369C90.9395 86.69 91.3871 86.843 91.8482 87.0007C91.7842 87.6675 91.7178 88.3341 91.6504 89.0006C91.5954 89.5575 91.5954 89.5575 91.5392 90.1256C91.3961 91.1745 91.3961 91.1745 90.944 92.5657C89.9076 92.3065 88.8716 92.0455 87.8358 91.7831C87.5144 91.702 87.193 91.6208 86.8619 91.5372C85.0794 91.0813 83.3088 90.5993 81.5453 90.0712C81.1897 89.9655 80.8342 89.8598 80.4678 89.7509C79.7833 89.5457 79.0999 89.3364 78.4179 89.1226C78.0991 89.0273 77.7802 88.9321 77.4517 88.834C77.1758 88.7486 76.8998 88.6633 76.6155 88.5754C73.1685 87.9691 70.8124 88.663 67.6751 90.0676C67.2773 90.2393 66.8796 90.411 66.4698 90.5879C65.2065 91.1347 63.9472 91.6905 62.6879 92.2469C61.4277 92.7962 60.1669 93.3438 58.9059 93.891C58.1242 94.231 57.3432 94.5727 56.5629 94.9161C48.758 98.3439 48.758 98.3439 44.7628 96.8369C43.7113 96.3545 42.6897 95.8305 41.6653 95.2903C40.8271 94.8649 39.9882 94.4411 39.1487 94.0186C38.458 93.67 38.458 93.67 37.7533 93.3143C35.1854 92.044 32.5856 90.8465 29.9869 89.6442C24.5867 87.1451 19.2014 84.6146 13.8329 82.0443C13.5496 81.9089 13.2662 81.7734 12.9742 81.6338C3.58041 77.1412 3.58041 77.1412 2.78477 75.4069C2.55872 74.0446 2.55872 74.0446 2.78477 72.6243C5.03441 69.8916 6.27487 69.4984 9.57922 70.6157Z"
        fill="#39B6CC" />
    <path
        d="M54.7612 55.2815C57.1777 56.0387 59.4423 57.058 61.7421 58.116C62.1196 58.2884 62.4971 58.4608 62.886 58.6384C63.8106 59.0609 64.7346 59.4845 65.6582 59.9092C65.6582 60.3674 65.6582 60.8255 65.6582 61.2976C63.4372 62.4683 61.2156 63.6376 58.9933 64.8057C58.2379 65.203 57.4826 65.6007 56.7275 65.9988C55.6404 66.5718 54.5526 67.1435 53.4647 67.715C53.1288 67.8924 52.7929 68.0698 52.4468 68.2526C49.5071 69.7938 46.9952 70.7039 43.6797 71.0846C42.9318 71.1783 42.1839 71.2723 41.4361 71.3666C40.2648 71.5108 39.0932 71.6526 37.9211 71.7896C36.7844 71.9238 35.6491 72.0675 34.5137 72.2126C33.9908 72.2698 33.9908 72.2698 33.4573 72.3282C30.4372 72.7249 29.1509 73.98 27.0646 76.1064C21.9703 74.1211 16.8759 72.1358 11.6272 70.0903C12.3764 69.174 13.1255 68.2577 13.8974 67.3137C14.1971 67.3137 14.4967 67.3137 14.8055 67.3137C14.8055 67.0082 14.8055 66.7028 14.8055 66.3881C15.549 65.7152 16.3208 65.0745 17.1041 64.4502C19.2023 62.7427 21.138 60.9745 22.9782 58.9837C24.5795 59.5864 25.9243 60.3148 27.3484 61.2687C32.1611 64.2409 37.1496 64.7629 42.5872 63.4958C47.5752 62.0854 51.6101 59.4968 54.7612 55.2815Z"
        fill="#D8AA7A" />
    <path
        d="M43.9972 29.8759C48.0211 32.2554 50.6578 35.1426 51.9315 39.7759C52.4073 43.8174 52.2192 47.3351 50.1114 50.8593C49.8856 50.686 49.6598 50.5128 49.4271 50.3343C44.4984 46.5659 41.4174 44.8648 35.0961 45.3176C31.6902 46.0647 29.8484 47.6191 27.816 50.3974C27.2172 51.0211 26.6144 51.6411 25.996 52.2447C23.6518 48.8303 22.2148 45.4191 22.8109 41.1613C24.058 36.2492 26.2255 32.9083 30.4341 30.1825C34.616 27.8647 39.7 27.8108 43.9972 29.8759Z"
        fill="#E6F8FC" />
    <path
        d="M45.9677 28.824C49.9313 31.7797 52.4872 34.9694 53.6361 39.8469C54.1238 45.5106 53.476 50.1048 49.9217 54.6285C46.5011 58.2115 42.3117 59.7901 37.4905 60.0538C33.1629 60.0592 29.0069 58.3996 25.7817 55.434C22.2686 51.5859 20.9786 46.996 21.0347 41.8904C21.3649 37.6497 23.197 34.1192 26.12 31.1205C31.6103 26.4871 39.5424 25.0052 45.9677 28.824ZM29.2776 31.1205C28.8423 31.4038 28.8423 31.4038 28.3983 31.6928C25.5132 33.8402 23.6112 37.6768 22.9624 41.2248C22.7466 45.6195 23.6477 48.6352 26.12 52.2477C27.3363 51.0447 28.3718 49.9564 29.3622 48.5447C31.2991 46.1963 33.8995 45.4891 36.8121 45.1826C42.3581 45.0138 44.835 46.3793 48.8152 50.1307C49.0664 50.3746 49.3176 50.6185 49.5764 50.8699C51.3961 49.3539 51.7485 47.4558 52.0151 45.1539C52.1417 40.0919 51.025 36.3439 47.6875 32.527C44.1228 29.3079 40.1816 28.3461 35.5082 28.6016C33.051 28.9194 31.2964 29.6904 29.2776 31.1205Z"
        fill="#158BA0" />
    <path
        d="M67.2694 58.887C68.2292 58.849 69.1894 58.8226 70.1496 58.8007C70.6843 58.7847 71.2189 58.7687 71.7697 58.7522C75.577 58.8739 79.2341 60.6715 82.6729 62.1975C83.0856 62.3783 83.4982 62.5591 83.9234 62.7453C85.2254 63.3164 86.5258 63.891 87.8263 64.4656C88.7121 64.8546 89.5981 65.2434 90.4841 65.632C92.0951 66.3395 93.7058 67.0475 95.3154 67.7584C95.6368 67.9003 95.9583 68.0423 96.2895 68.1885C96.8635 68.4475 97.4303 68.7231 97.9918 69.009C97.7565 72.2472 97.2287 75.3077 96.4564 78.4553C96.3499 78.896 96.2434 79.3366 96.1338 79.7906C95.9098 80.7127 95.6842 81.6344 95.457 82.5557C95.1097 83.9695 94.7716 85.3855 94.4338 86.8017C94.2144 87.7005 93.9944 88.5991 93.7738 89.4975C93.6735 89.9212 93.5732 90.3448 93.4699 90.7813C93.3719 91.1717 93.274 91.562 93.1731 91.9643C93.0892 92.308 93.0053 92.6517 92.9188 93.0058C92.5702 93.8541 92.5702 93.8541 91.2148 94.7742C90.0516 94.5604 88.9929 94.2982 87.8651 93.9583C87.5357 93.8651 87.2063 93.7719 86.8669 93.6758C85.8108 93.3767 84.7571 93.0699 83.7036 92.7613C82.6597 92.4563 81.6155 92.1532 80.5693 91.8567C79.9187 91.6723 79.2693 91.4831 78.6216 91.2883C74.2275 90.0424 71.1415 90.6598 67.0188 92.5457C66.1076 92.9441 65.1963 93.3425 64.285 93.7408C62.8674 94.3713 61.4511 95.0049 60.0355 95.6403C58.6579 96.2555 57.2759 96.8595 55.8932 97.4629C55.477 97.6541 55.0608 97.8453 54.632 98.0423C51.2173 99.5268 47.7532 100.146 44.1923 98.7605C43.5595 98.4574 42.9315 98.1438 42.3075 97.8224C41.5252 97.4428 40.7428 97.0636 39.9602 96.6847C39.5075 96.4616 39.0549 96.2386 38.5885 96.0087C36.7032 95.0903 34.8068 94.1982 32.9079 93.3095C32.5413 93.1379 32.1746 92.9663 31.7969 92.7895C31.0368 92.4337 30.2767 92.0781 29.5165 91.7224C27.5919 90.8208 25.6693 89.9146 23.7466 89.0087C21.0948 87.7596 18.442 86.5128 15.7872 85.2704C15.2564 85.0218 14.7256 84.7732 14.1787 84.5171C13.2229 84.0695 12.2668 83.6225 11.3104 83.1761C9.24527 82.2082 7.18802 81.2253 5.14517 80.2094C4.78783 80.0318 4.4305 79.8542 4.06233 79.6711C2.45096 78.7536 1.77784 78.0311 0.854838 76.3705C0.430556 74.3475 0.384933 72.598 1.41959 70.7739C2.52939 69.4008 3.24103 68.6591 4.92104 68.0888C5.55102 68.0582 6.18232 68.0496 6.81295 68.0601C7.66558 68.0743 7.66558 68.0743 8.53543 68.0888C8.27452 68.2027 8.0136 68.3166 7.74478 68.4339C6.57756 69.0943 5.83464 69.8609 4.92104 70.8494C4.58557 71.1341 4.25011 71.4188 3.90449 71.7121C3.00965 72.6595 3.00965 72.6595 2.8597 74.0413C3.20184 75.9383 3.95492 76.4926 5.37284 77.7508C6.82127 78.5912 6.82127 78.5912 8.4419 79.291C8.73782 79.426 9.03374 79.561 9.33863 79.7001C10.3019 80.1383 11.2682 80.5692 12.2345 81.0002C12.9072 81.3049 13.5797 81.6102 14.2519 81.916C15.2742 82.381 16.2967 82.8455 17.3201 83.3081C20.422 84.7099 23.502 86.1568 26.5792 87.614C30.1662 89.3068 33.759 90.9828 37.3833 92.5913C38.9525 93.2906 40.4962 94.0161 42.0216 94.8102C42.3223 94.9636 42.623 95.117 42.9328 95.2751C43.7406 95.6906 44.5429 96.1171 45.3447 96.5445C48.873 97.7183 52.1046 96.3288 55.3743 94.8911C55.7744 94.7203 56.1744 94.5495 56.5866 94.3736C57.853 93.8316 59.1162 93.2823 60.3794 92.7326C61.234 92.3651 62.0888 91.9982 62.9438 91.6318C64.5092 90.9603 66.0732 90.2858 67.636 89.6082C68.1377 89.3941 68.1377 89.3941 68.6494 89.1757C69.3377 88.8761 70.0161 88.553 70.6901 88.2214C73.487 87.333 76.1511 87.9356 78.8856 88.7625C79.1992 88.8533 79.5129 88.9441 79.836 89.0377C80.8253 89.3255 81.8126 89.62 82.8 89.9145C83.4723 90.1105 84.1447 90.3061 84.8172 90.5013C89.6785 91.9216 89.6785 91.9216 90.763 92.4738C90.8066 92.1633 90.8502 91.8528 90.8951 91.5329C91.5192 87.4011 92.5003 83.4019 93.5302 79.3611C93.8633 78.0534 94.1936 76.7449 94.5221 75.436C94.6678 74.8639 94.8134 74.2919 94.9635 73.7025C95.3455 72.1814 95.3455 72.1814 95.281 70.3893C93.257 69.5139 91.233 68.6387 89.2088 67.7637C88.5227 67.467 87.8366 67.1703 87.1506 66.8736C86.8197 66.7305 86.4888 66.5873 86.1479 66.4399C85.8192 66.2976 85.4904 66.1554 85.1517 66.0088C84.4922 65.7241 83.8324 65.4403 83.1721 65.1574C81.7109 64.5309 80.258 63.8956 78.8137 63.2295C76.1103 62.001 73.9605 61.3129 70.9967 61.5038C70.6764 61.5141 70.3561 61.5245 70.0261 61.5352C69.2573 61.5617 68.4891 61.6029 67.7212 61.6475C67.5721 60.7366 67.423 59.8256 67.2694 58.887Z"
        fill="#E7F4F5" />
    <path
        d="M47.6898 26.8365C52.131 30.1261 55.5225 34.371 56.5857 39.9018C56.9677 46.6091 55.6984 50.6847 52.1395 56.3154C48.0106 60.4724 43.5047 62.5611 37.7179 62.657C32.0294 62.613 27.495 60.6112 23.4424 56.588C19.3494 52.0775 18.458 46.9189 18.5973 40.9958C18.8476 36.0827 21.621 31.8236 25.1115 28.4757C31.4872 23.3891 40.6754 22.4642 47.6898 26.8365ZM29.2246 28.8828C28.8748 29.1113 28.5251 29.3397 28.1647 29.5751C24.4708 32.2184 21.8734 35.8341 21.0163 40.3609C20.4451 45.2678 21.4094 49.4909 24.1692 53.5965C26.9309 56.9735 30.1936 59.1501 34.4973 59.9435C40.1124 60.4857 44.0718 59.353 48.6214 56.05C49.8243 54.9828 50.5807 53.9522 51.427 52.585C51.6921 52.1648 51.9572 51.7446 52.2304 51.3117C54.3746 47.3419 54.3897 42.8326 53.5842 38.4616C52.2302 34.098 49.0829 30.7344 45.2387 28.395C40.4493 26.2598 33.708 25.8735 29.2246 28.8828Z"
        fill="#46A0C0" />
    <path
        d="M81.9993 2.57638C83.3996 3.37662 83.5911 3.90323 84.3665 5.43892C84.6259 7.04224 84.4537 8.21471 83.893 9.73272C83.1505 10.5658 83.1505 10.5658 82.2212 11.3429C81.8793 11.6294 81.5375 11.916 81.1852 12.2112C79.4638 13.5842 77.7108 14.9051 75.9333 16.2032C75.1436 16.7846 74.3539 17.3661 73.5643 17.9476C73.1614 18.2434 72.7585 18.5392 72.3435 18.844C70.3089 20.3412 68.2838 21.8512 66.2574 23.3596C63.786 25.1992 61.3057 27.0233 58.8007 28.8163C58.2538 28.3846 57.7123 27.9459 57.1733 27.5043C56.7201 27.139 56.7201 27.139 56.2578 26.7663C55.3599 25.8202 55.0379 25.3601 55.0132 24.0454C55.7622 23.0241 55.7622 23.0241 56.8182 22.0178C57.163 21.6808 57.5078 21.3437 57.8631 20.9965C58.8007 20.2287 58.564 19.7651 59.5109 19.7651C59.6183 19.4896 60.9314 18.3338 60.0731 19.3938C61.1679 17.9476 61.8269 17.3669 63.0617 16.412C63.8578 15.624 64.6459 14.8277 65.4289 14.0265C66.0493 13.3976 66.0493 13.3976 66.6822 12.756C67.1199 12.3118 67.5577 11.8676 68.0088 11.41C68.7416 10.668 69.4746 9.92624 70.2078 9.18458C70.7137 8.67235 71.2192 8.15969 71.7243 7.64662C72.4573 6.90215 73.1919 6.1592 73.9268 5.41655C74.3629 4.97452 74.7991 4.53249 75.2485 4.07707C77.2404 2.17071 79.3502 2.14959 81.9993 2.57638Z"
        fill="#43A4C4" />
    <path
        d="M9.57947 70.6101C10.6429 71.0057 11.6981 71.4188 12.7525 71.8387C13.1379 71.9899 13.5233 72.1411 13.9203 72.2968C15.145 72.778 16.3683 73.2628 17.5915 73.7476C18.4209 74.0738 19.2504 74.3997 20.0799 74.7254C26.1069 77.0969 26.1069 77.0969 27.199 77.6516C27.5031 78.7225 27.8041 79.7943 28.1032 80.8667C28.9261 82.5386 29.7284 83.5162 31.268 84.541C31.0442 84.9957 31.0442 84.9957 30.8159 85.4596C30.5268 85.5259 30.2378 85.5922 29.9399 85.6605C28.8347 85.8553 28.8347 85.8553 28.1032 87.2968C25.6318 87.691 23.7974 86.7216 21.6253 85.6695C21.2685 85.5016 20.9118 85.3338 20.5442 85.1608C19.407 84.6242 18.2733 84.0803 17.1394 83.5363C16.3844 83.1791 15.6291 82.8224 14.8736 82.4661C13.1013 81.6284 11.334 80.7805 9.56949 79.9261C8.77271 79.542 7.97288 79.1645 7.17259 78.788C6.77133 78.5947 6.37007 78.4015 5.95665 78.2024C5.62926 78.0471 5.30187 77.8918 4.96456 77.7318C3.95623 77.0712 3.41913 76.3851 2.78478 75.3552C2.55872 74.006 2.55872 74.006 2.78478 72.5994C5.03449 69.893 6.275 69.5036 9.57947 70.6101Z"
        fill="#39B6CC" />
    <path
        d="M81.7153 0.785699C83.7202 1.78567 84.866 2.82658 85.7701 4.90543C86.4392 7.47877 86.1506 9.46914 84.8691 11.7716C83.7716 12.9567 82.5334 13.8834 81.2367 14.8328C80.8775 15.106 80.5184 15.3791 80.1484 15.6605C79.0255 16.5102 77.8941 17.3466 76.7595 18.1801C76.4104 18.4385 76.0613 18.6969 75.7016 18.9631C74.3513 19.962 73.0005 20.9594 71.6373 21.9401C69.946 23.1585 68.2993 24.4033 66.6965 25.7401C61.5176 30.0191 61.8836 30.248 59.1888 30.0816C57.8874 29.8084 57.0528 29.2986 56.1618 28.2863C55.5064 27.2062 54.8543 27.2112 54.6835 25.9618C54.2375 26.1884 54.688 25.5018 54.233 25.733C53.8213 24.7958 53.8213 24.5669 53.7825 23.2153C54.6139 21.9526 55.6897 20.9485 56.7655 19.9002C57.0776 19.586 57.3897 19.2717 57.7112 18.9479C58.7138 17.9415 59.7255 16.9452 60.7375 15.9486C61.4042 15.2811 62.0704 14.6129 62.7359 13.9442C65.442 11.2368 68.1545 8.56704 71.0339 6.04892C72.288 4.93175 73.422 3.7059 74.5702 2.47901C76.7048 0.497016 78.933 0.423957 81.7153 0.785699ZM75.5188 4.43874C75.2102 4.7285 74.9015 5.01826 74.5835 5.3168C72.8647 7.00772 71.1722 8.72248 69.4947 10.4556C67.3351 12.6865 65.1929 14.8439 62.7931 16.8069C61.5255 17.9796 61.5255 17.9796 60.5404 19.0956C60.5404 19.3977 60.7375 18.5611 60.7375 18.8724C60.4959 18.9668 60.9865 18.7751 60.7375 18.8724C59.2162 19.7673 57.2494 22.3833 56.0351 23.6731C56.4898 25.2899 57.0565 26.1575 58.3265 27.1867C58.9764 27.7133 58.9764 27.7133 59.6394 28.2506C59.8538 28.09 60.0683 27.9294 60.2893 27.764C60.9423 27.2751 61.5953 26.7863 62.2483 26.2974C63.0148 25.7236 63.7813 25.1497 64.5478 24.5757C66.5259 23.0946 68.5044 21.6139 70.4838 20.1345C72.5772 18.5696 74.6691 17.0026 76.7595 15.4336C77.1935 15.1081 77.1935 15.1081 77.6362 14.7761C78.3962 14.2051 79.155 13.6325 79.9132 13.0591C80.3221 12.7505 80.7309 12.4419 81.1522 12.1239C83.2269 10.4665 83.2269 10.4665 83.968 7.96662C84.0909 6.26908 83.9516 5.78822 83.1514 4.1902C82.0452 3.07879 81.0837 2.8278 79.5472 2.70252C77.7554 2.85242 76.8331 3.19702 75.5188 4.43874Z"
        fill="#158BA0" />
    <path
        d="M43.3904 47.4524C44.3836 48.221 45.329 48.9908 46.2711 49.8173C46.522 50.0332 46.7729 50.2491 47.0314 50.4716C47.6454 51.0006 48.2563 51.5333 48.8666 52.0667C48.2129 53.6909 47.4594 54.4053 46.0144 55.3544C45.6732 55.584 45.332 55.8136 44.9805 56.0502C41.541 57.9641 37.6438 58.1812 33.8072 57.6039C31.8152 56.9254 30.0223 56.1063 28.331 54.8353C27.8747 53.451 27.8747 53.451 28.3489 52.4723C31.8066 47.3657 37.3416 44.2901 43.3904 47.4524Z"
        fill="#C48D5D" />
    <path
        d="M7.17864 70.0632C9.09884 70.5578 10.8958 71.26 12.7353 72.0122C13.1166 72.1657 13.4978 72.3193 13.8906 72.4775C15.102 72.9662 16.312 73.4587 17.5221 73.9511C18.3425 74.2824 19.163 74.6135 19.9836 74.9443C25.9453 77.353 25.9453 77.353 27.0256 77.9164C27.3393 79.0002 27.636 80.0894 27.9201 81.182C28.1994 81.8134 28.4888 82.4413 28.8145 83.048C26.9469 82.761 25.5338 82.0946 23.8671 81.182C21.2131 79.7541 18.5178 78.4522 15.7891 77.1875C6.21177 72.7288 6.21177 72.7288 4.66431 70.9188C6.00599 69.9858 6.00599 69.9858 7.17864 70.0632Z"
        fill="#39B6CC" />
    <path
        d="M22.8506 59.1863C25.0392 59.9736 25.0392 59.9736 25.5443 60.986C23.5979 63.2595 21.5956 65.4781 19.5678 67.6785C19.3309 67.9356 19.0941 68.1926 18.8501 68.4574C17.9515 69.4301 17.0519 70.3968 16.1166 71.3341C14.5067 71.1597 13.1087 70.6207 11.6272 69.9844C12.3527 69.066 13.1022 68.1664 13.8719 67.2849C14.1682 67.2849 14.4645 67.2849 14.7698 67.2849C14.7698 66.9879 14.7698 66.691 14.7698 66.385C15.505 65.7308 16.268 65.1079 17.0425 64.501C19.1171 62.8408 21.0311 61.1218 22.8506 59.1863Z"
        fill="#C18D5C" />
    <path
        d="M43.373 47.7114C44.4192 48.6521 44.4192 48.6521 45.1826 49.4822C44.7068 49.2905 44.7068 49.2905 44.2213 49.0948C43.792 48.9305 43.3628 48.7661 42.9206 48.5968C42.4914 48.4233 42.0621 48.2498 41.6199 48.0711C39.8771 47.6277 38.7738 47.6826 37.0392 48.1541C35.9854 49.1479 35.9854 49.1479 35.2296 50.3676C34.9683 50.6506 34.707 50.9337 34.4378 51.2253C33.6487 52.4995 33.65 53.3336 33.8723 54.7946C34.7501 55.5495 34.7501 55.5495 35.682 56.1227C35.682 56.561 35.682 56.9992 35.682 57.4508C32.5987 57.3196 30.5319 55.9878 27.991 54.3519C28.6825 51.5774 30.0905 49.601 32.5027 48.0071C35.8708 46.3144 39.9372 46.0792 43.373 47.7114Z"
        fill="#B17B4F" />
    <path
        d="M45.1281 49.208C46.3631 50.1207 47.5981 51.0334 48.8705 51.9738C47.9318 53.8238 47.5347 54.2422 45.859 55.3158C45.493 55.5559 45.127 55.796 44.7498 56.0433C43.7247 56.5835 43.7247 56.5835 42.3213 56.5835C42.3213 56.2793 42.3213 55.975 42.3213 55.6616C42.7844 55.3573 43.2475 55.0531 43.7247 54.7396C44.066 53.5582 44.066 53.5582 44.1925 52.4348C43.7294 52.4348 43.2662 52.4348 42.7891 52.4348C42.7891 52.1305 42.7891 51.8263 42.7891 51.5128C43.561 51.2086 44.3328 50.9044 45.1281 50.5909C45.1281 50.1346 45.1281 49.6782 45.1281 49.208Z"
        fill="#BE8D65" />
    <path
        d="M24.3145 76.9744C25.6089 77.2372 25.6089 77.2372 27.016 77.9088C27.5788 79.4857 27.5788 79.4857 27.9165 81.1794C28.1978 81.8118 28.4891 82.4406 28.817 83.0483C26.8354 82.8133 25.7949 82.0729 24.3145 80.7122C24.6116 79.9412 24.9088 79.1703 25.215 78.376C24.9178 78.376 24.6206 78.376 24.3145 78.376C24.3145 77.9135 24.3145 77.4509 24.3145 76.9744Z"
        fill="#39B6CC" />
    <path
        d="M43.3974 47.6281C44.4327 48.4838 44.4327 48.4838 45.1882 49.2388C44.8743 49.1225 44.5603 49.0063 44.2369 48.8865C43.8121 48.737 43.3873 48.5875 42.9497 48.4335C42.5342 48.284 42.1187 48.1345 41.6906 47.9805C39.4402 47.4249 37.1374 47.3573 34.8911 48.0308C34.7434 48.5623 34.5956 49.0938 34.4434 49.6415C33.0499 49.6415 32.1567 49.5715 30.8618 49.2388C34.2913 46.5172 39.1981 45.7721 43.3974 47.6281Z"
        fill="#A08068" />
    <path
        d="M89.9446 86.9526C90.575 86.9526 91.2054 86.9526 91.8548 86.9526C91.7872 87.6285 91.717 88.3041 91.6459 88.9795C91.6071 89.3558 91.5683 89.732 91.5284 90.1197C91.3773 91.1827 91.3773 91.1827 90.8997 92.5927C89.3238 92.1274 87.7479 91.6621 86.1243 91.1827C87.5569 90.2427 87.5569 90.2427 88.9895 90.2427C88.9895 90.708 88.9895 91.1733 88.9895 91.6527C89.4623 91.6527 89.9351 91.6527 90.4222 91.6527C90.4222 90.8772 90.4222 90.1017 90.4222 89.3027C89.9494 89.3027 89.4766 89.3027 88.9895 89.3027C89.4671 87.8926 89.4671 87.8926 89.9446 86.9526Z"
        fill="#39B6CC" />
    <path
        d="M22.8781 59.1863C25.0399 59.9455 25.0399 59.9455 25.5388 60.9217C25.0998 61.566 25.0998 61.566 24.6519 62.2232C23.9202 62.0801 23.1886 61.9369 22.4347 61.7894C22.2884 62.2189 22.142 62.6484 21.9913 63.0909C21.1044 62.6571 21.1044 62.6571 20.2175 61.7894C21.0955 60.9304 21.9735 60.0713 22.8781 59.1863Z"
        fill="#B48B67" />
    <path
        d="M32.9073 51.8108C32.9073 52.9829 32.9073 54.1551 32.9073 55.3627C31.5258 55.8067 31.5258 55.8067 30.5473 55.5014C29.6839 54.9187 29.6839 54.9187 29.3385 53.9752C29.3005 53.7005 29.2625 53.4258 29.2234 53.1428C31.3532 51.8108 31.3532 51.8108 32.9073 51.8108Z"
        fill="#B47B46" />
    <path
        d="M37.4179 73.5309C37.4179 73.6836 37.4179 73.8364 37.4179 73.9938C36.0262 74.1294 36.0262 74.1294 34.6345 74.265C34.3586 74.3283 34.0828 74.3915 33.7986 74.4567C33.6493 74.7622 33.5 75.0677 33.3461 75.3825C31.9606 75.6718 31.9606 75.6718 30.6317 75.8454C30.3331 77.2202 30.0345 78.595 29.7268 80.0114C29.4283 79.7059 29.1297 79.4004 28.822 79.0856C28.8571 77.1475 28.9719 76.1721 30.2924 74.746C32.6174 73.3402 34.7873 73.4853 37.4179 73.5309Z"
        fill="#39B6CC" />
    <path
        d="M30.2423 49.6416C30.5394 50.2525 30.8366 50.8633 31.1428 51.4927C30.9199 51.7695 30.697 52.0463 30.4674 52.3315C29.6647 53.3301 29.6647 53.3301 29.792 54.7321C30.6835 55.0376 31.575 55.343 32.4935 55.6577C32.4935 55.9631 32.4935 56.2685 32.4935 56.5832C30.7321 56.0483 29.3982 55.4932 27.991 54.2694C28.5114 52.4589 29.0515 51.088 30.2423 49.6416Z"
        fill="#A17C60" />
    <path
        d="M16.947 71.3345C19.0588 71.7098 20.8679 72.4522 22.8311 73.3173C24.0048 73.7737 25.128 74.0437 26.3615 74.263C25.6462 74.8349 25.6462 74.8349 24.4786 75.2391C23.1937 74.8556 22.0758 74.4439 20.8599 73.8969C20.5356 73.761 20.2113 73.6251 19.8771 73.4851C17.4856 72.4513 17.4856 72.4513 16.947 71.3345Z"
        fill="#C0A58A" />
    <path
        d="M55.4202 68.2976C55.6904 68.7271 55.9605 69.1566 56.2389 69.5992C55.9687 70.1718 55.6986 70.7445 55.4202 71.3346C53.4759 71.0092 53.4759 71.0092 52.5549 70.033C53.5005 69.4603 54.446 68.8876 55.4202 68.2976Z"
        fill="#39B6CC" />
    <path
        d="M48.46 71.7681C48.3091 72.1976 48.1581 72.6271 48.0026 73.0696C45.5871 73.0696 43.1716 73.0696 40.6829 73.0696C40.6829 72.9265 40.6829 72.7833 40.6829 72.6358C41.8074 72.4905 42.9321 72.346 44.0568 72.2019C44.3764 72.1605 44.696 72.1191 45.0254 72.0765C47.4414 71.7681 47.4414 71.7681 48.46 71.7681Z"
        fill="#39B6CC" />
    <path
        d="M24.3145 76.9744C25.26 77.2607 26.2055 77.547 27.1797 77.8421C27.1797 78.5579 27.1797 79.2738 27.1797 80.0113C26.5494 79.8682 25.919 79.725 25.2695 79.5775C25.2695 79.148 25.2695 78.7185 25.2695 78.2759C24.9544 78.2759 24.6392 78.2759 24.3145 78.2759C24.3145 77.8464 24.3145 77.4169 24.3145 76.9744Z"
        fill="#39B6CC" />
    <path
        d="M88.2114 92.5933C89.4679 92.82 90.6337 93.0743 91.8498 93.461C91.6998 93.8905 91.5497 94.32 91.395 94.7625C90.1944 94.4762 88.9937 94.1898 87.7566 93.8948C87.9067 93.4653 88.0568 93.0358 88.2114 92.5933Z"
        fill="#E7F4F5" />
    <path
        d="M10.8057 80.0115C13.0292 80.3358 14.9369 81.4269 16.9455 82.4906C16.6561 82.8179 16.3666 83.1451 16.0684 83.4823C14.3317 82.5005 12.595 81.5188 10.8057 80.5073C10.8057 80.3437 10.8057 80.1801 10.8057 80.0115Z"
        fill="#39B6CC" />
    <path
        d="M64.0777 76.1067C65.0166 76.2311 65.9529 76.3751 66.8845 76.5405C66.7301 77.3996 66.5757 78.2586 66.4167 79.1437C65.9535 79.2868 65.4904 79.43 65.0133 79.5775C65.1676 78.8616 65.322 78.1458 65.4811 77.4082C64.8636 77.1219 64.2461 76.8356 63.6099 76.5405C63.7642 76.3974 63.9186 76.2542 64.0777 76.1067Z"
        fill="#39B6CC" />
    <path
        d="M65.9619 62.657C66.2658 62.8002 66.5698 62.9433 66.8829 63.0908C66.1352 64.4997 64.6938 64.6968 63.199 65.2601C63.199 64.8306 63.199 64.4011 63.199 63.9585C64.1037 63.4953 65.0265 63.0624 65.9619 62.657Z"
        fill="#39B6CC" />
    <path
        d="M57.9188 88.6885C59.256 88.6885 60.5933 88.6885 61.9711 88.6885C60.6175 89.9927 59.3489 89.8147 57.4685 89.99C57.6171 89.5605 57.7657 89.131 57.9188 88.6885Z"
        fill="#39B6CC" />
    <path
        d="M46.9094 50.9436C47.5578 51.3731 48.2061 51.8026 48.8742 52.2452C48.4751 53.0857 48.4751 53.0857 47.8918 53.9806C47.4055 54.1237 46.9192 54.2669 46.4182 54.4144C46.4182 53.6986 46.4182 52.9827 46.4182 52.2452C46.5803 52.5315 46.7424 52.8178 46.9094 53.1129C47.2336 53.1129 47.5578 53.1129 47.8918 53.1129C47.5676 52.397 47.2434 51.6812 46.9094 50.9436Z"
        fill="#A3856D" />
</svg>
    