<svg width="226" height="227" viewBox="0 0 226 227" fill="none" xmlns="http://www.w3.org/2000/svg">
<path d="M4.75086 156.929C4.31033 157.369 4.00195 158.427 4.00195 159.264C4.00195 160.629 4.97112 161.731 16.2487 172.92C29.2885 185.96 30.6541 187.017 36.4691 188.515C39.685 189.352 44.9714 189.352 48.2313 188.515C53.2093 187.193 55.412 185.74 61.7997 179.572C68.2755 173.317 70.3901 171.951 75.1037 171.07C76.8218 170.762 78.3196 170.762 80.0377 171.07C84.7514 171.951 86.8659 173.317 93.3417 179.572C101.227 187.237 105.192 189.176 112.813 189.176C120.434 189.176 124.399 187.237 132.285 179.572C138.761 173.317 140.875 171.951 145.589 171.07C147.307 170.762 148.805 170.762 150.523 171.07C155.236 171.951 157.351 173.317 163.827 179.572C168.1 183.713 170.611 185.784 172.373 186.665C180.171 190.409 189.422 189.925 196.294 185.387C197.527 184.594 203.695 178.691 210.083 172.347C220.832 161.51 221.625 160.629 221.625 159.176C221.625 157.193 220.523 156.136 218.541 156.136C217.175 156.136 215.986 157.149 205.105 168.03C190.831 182.215 190.655 182.348 183.298 182.348C176.822 182.348 175.325 181.555 167.483 174.021C159.51 166.312 155.765 164.462 148.188 164.418C140.611 164.374 136.602 166.356 128.672 174.021C120.875 181.511 119.289 182.348 112.813 182.348C106.337 182.348 104.84 181.555 96.9982 174.021C88.9364 166.268 85.28 164.462 77.5707 164.418C73.4738 164.418 69.2887 165.475 66.1169 167.281C64.7953 168.03 61.0948 171.158 57.9671 174.198C50.434 181.511 48.804 182.348 42.3282 182.348C35.1035 182.348 34.8392 182.171 20.4778 167.942C9.42049 156.973 8.45132 156.136 7.04162 156.136C6.07245 156.136 5.19139 156.444 4.75086 156.929Z" fill="#4096C1"/>
<path d="M4.88468 188.385C4.35604 188.958 4.00362 189.971 4.00362 190.896C3.95957 192.394 4.70847 193.187 16.0742 204.465C27.4399 215.698 28.4531 216.535 31.8452 218.253C39.8629 222.174 48.6295 221.557 55.722 216.579C56.9115 215.786 60.1273 212.879 62.9027 210.191C69.5107 203.716 71.6252 202.614 77.5724 202.614C83.6517 202.614 85.7663 203.76 93.2113 210.984C97.969 215.61 99.5549 216.844 102.462 218.297C110.348 222.174 119.159 221.557 126.207 216.579C127.396 215.786 130.612 212.879 133.388 210.191C139.996 203.716 142.11 202.614 148.057 202.614C154.137 202.614 156.251 203.76 163.696 210.984C168.454 215.61 170.04 216.844 172.947 218.297C180.701 222.13 189.379 221.557 196.516 216.755C197.617 216.006 203.697 210.28 210.084 203.936C221.053 193.055 221.626 192.394 221.626 190.852C221.626 189.663 221.362 189.002 220.481 188.341C218.058 186.447 217.926 186.535 204.93 199.487C190.525 213.804 190.172 214.068 183.3 214.068C177.309 214.068 175.106 212.879 167.837 205.83C164.798 202.835 161.229 199.751 159.908 199.002C157.044 197.284 151.494 195.786 148.057 195.786C144.621 195.786 139.071 197.284 136.207 199.002C134.93 199.751 131.317 202.835 128.278 205.786C120.965 212.923 118.806 214.068 112.815 214.068C106.78 214.068 104.621 212.879 97.3522 205.83C91.0526 199.619 88.4535 197.945 83.5636 196.667C79.1583 195.566 75.9865 195.566 71.5812 196.667C66.7353 197.901 64.1802 199.619 57.7925 205.786C50.4356 212.923 48.3211 214.068 42.3299 214.024C35.4135 214.024 34.973 213.716 21.1843 200.015C14.7526 193.627 9.06973 188.165 8.54109 187.901C7.08734 187.152 5.8979 187.328 4.88468 188.385Z" fill="#4096C1"/>
<path d="M170.698 110.141C170.434 110.273 167.879 112.696 165.059 115.516L159.949 120.67V122.872V125.031L176.601 141.815C194.751 160.185 195.412 160.714 198.716 159.701C200.831 159.084 207.615 152.829 208.892 150.362C209.905 148.379 209.994 145.956 209.113 144.326C208.143 142.476 176.205 110.846 174.795 110.317C173.518 109.877 171.579 109.789 170.698 110.141Z" fill="#96C1C1"/>
<path d="M26.16 26.3191C20.5212 37.5086 14.8383 49.4911 13.5167 52.8831C8.93519 64.5572 7.08496 73.0595 7.08496 82.1344C7.08496 92.9275 10.0365 100.549 16.9969 107.509C21.3141 111.826 25.0586 114.161 29.8164 115.395C33.4287 116.364 40.0808 116.32 43.4288 115.262L46.072 114.469L45.9398 111.43C45.4553 100.372 49.7284 84.8217 58.2307 66.5837L61.6668 59.1827L60.3452 55.3942C58.0104 48.7862 54.354 40.9007 47.702 27.9491C44.1777 21.0327 40.2129 13.2794 38.8913 10.6362C37.6138 8.03703 36.5125 5.92248 36.4684 5.92248C36.4244 5.92248 31.7988 15.0855 26.16 26.3191ZM26.5124 71.9582C27.5256 72.7952 27.5697 72.9714 27.5697 79.8437V86.8481L29.1115 89.8437C30.7415 93.1037 33.649 95.7909 35.4552 95.7909C38.0543 95.7909 39.3759 99.6235 37.4376 101.562C34.9706 104.029 27.834 100.461 24.3097 94.9539C22.1952 91.694 21.1379 88.1257 20.8736 83.456C20.5212 77.6851 21.226 73.4119 22.7238 72.0903C24.1335 70.9009 25.1468 70.8568 26.5124 71.9582Z" fill="#40C1EC"/>
<path d="M74.1347 34.4598C71.9321 38.9973 68.3197 46.0458 66.2052 50.1868C48.628 84.1077 43.2094 104.372 47.2183 120.804C48.3196 125.297 49.5971 128.249 52.1522 132.214C56.8218 139.394 64.0025 144.769 71.5356 146.663C75.6766 147.676 83.2537 147.412 87.2626 146.046C94.9719 143.447 102.373 136.795 106.426 128.866C108.364 124.945 110.567 117.104 109.862 116.487C109.642 116.311 108.54 115.826 107.307 115.385C103.915 114.196 98.0997 111.024 95.3243 108.866C87.4828 102.786 82.1084 94.9007 79.0246 84.9447C77.9233 81.2883 77.8352 80.4513 77.8352 73.0944C77.7911 66.134 77.9233 64.7243 78.8044 61.4203C80.0379 56.8829 82.9894 50.4951 85.5445 46.8828L87.3947 44.2396L82.8573 35.2087C80.3462 30.2307 78.3198 26.1778 78.2757 26.1778C78.2317 26.1778 76.3814 29.9223 74.1347 34.4598ZM67.747 99.5704C68.6281 100.451 68.8043 100.98 68.584 102.081C68.4519 102.874 68.2316 105.253 68.0554 107.456C67.5708 114.284 69.0246 118.998 72.7691 122.742C74.1347 124.108 75.3682 124.901 76.4255 125.077C80.0379 125.782 81.4476 128.822 79.1127 131.024C78.2317 131.817 77.703 131.993 76.2933 131.773C70.1699 130.98 64.0025 124.284 62.1082 116.487C61.4474 113.711 61.3153 106.927 61.8439 103.183C62.5047 98.6893 65.1919 97.0153 67.747 99.5704Z" fill="#6BC1EC"/>
<path d="M26.6905 97.9762C27.6156 98.9453 28.4967 99.7383 28.6289 99.7383C28.761 99.7383 28.0562 98.9453 27.1311 97.9762C26.2059 97.007 25.3249 96.214 25.1927 96.214C25.0606 96.214 25.7654 97.007 26.6905 97.9762Z" fill="#6BC1EC"/>
<path d="M117.878 38.8248C106.116 40.4548 95.4994 48.8249 90.9178 60.1025C89.3319 64.0232 88.583 68.1202 88.583 72.8779C88.583 98.2525 115.191 114.596 138.143 103.319C146.249 99.3098 152.328 92.2613 155.368 83.2304C157.086 78.1643 157.35 70.2347 156.028 64.9484C151.755 47.6355 135.323 36.4019 117.878 38.8248ZM142.328 60.1025C143.605 61.38 143.473 63.2303 142.019 64.5959C141.315 65.2127 134.354 70.4109 126.557 76.1379C111.447 87.1511 110.786 87.5036 108.98 85.5212C107.482 83.8912 100.037 68.6048 100.037 67.151C100.037 64.7721 102.636 63.3184 104.795 64.4638C105.191 64.684 107.041 67.8559 108.847 71.5123C110.654 75.1687 112.284 78.1643 112.46 78.1643C112.636 78.1643 118.583 73.8911 125.676 68.6929C139.464 58.6047 140.345 58.1201 142.328 60.1025Z" fill="#96C1EC"/>
<path d="M27.0427 81.4714C27.0427 82.4405 27.1308 82.793 27.2189 82.2203C27.307 81.6916 27.307 80.8987 27.2189 80.4581C27.0868 80.0617 26.9987 80.5022 27.0427 81.4714Z" fill="#96C1EC"/>
<path d="M116.117 27.7593C109.113 28.8606 101.051 32.2527 95.412 36.4378C93.1653 38.1558 87.7027 43.4422 87.7027 43.9268C87.7027 44.1471 86.6013 45.9973 85.2357 48.0237C78.055 58.8168 75.9405 72.253 79.3766 84.8522C80.5661 89.1694 84.0463 96.2179 86.7335 99.7421C89.597 103.531 94.575 108.156 98.4076 110.667C101.976 112.958 110.39 116.615 114.091 117.452C118.232 118.377 128.628 118.156 133.21 117.011C141.8 114.896 147.659 111.548 154.267 105.029C160.831 98.5087 164.047 93.3544 166.293 85.557C172.461 64.1913 162.549 41.6801 142.681 31.9884C136.47 28.9487 131.8 27.8915 124.047 27.7152C120.434 27.6271 116.866 27.6712 116.117 27.7593ZM131.492 39.3893C133.254 39.8299 136.205 40.9312 137.967 41.8122C146.602 46.1735 152.417 52.9136 155.589 62.297C156.91 66.1736 157.042 66.9225 157.042 72.4292C157.086 77.3631 156.91 78.9491 156.073 81.8125C152.725 93.3544 144.84 101.592 133.298 105.601C129.597 106.879 128.936 106.967 122.945 107.011C117.439 107.011 116.073 106.879 113.253 105.998C105.941 103.707 99.7292 99.4778 95.456 93.8831C81.4912 75.601 88.5397 49.6097 109.861 40.799C112.637 39.6536 114.091 39.2572 119.421 38.3321C121.535 37.9796 128.232 38.5523 131.492 39.3893Z" fill="#ECECEC"/>
<path d="M138.626 59.7514C138.142 60.0157 132.195 64.2888 125.454 69.2228C118.67 74.2008 112.899 78.3418 112.635 78.4299C112.371 78.518 110.741 75.7426 108.846 71.9541C105.19 64.5972 104.177 63.4959 101.886 64.5972C99.3749 65.8307 99.5511 66.6236 104.441 76.4034C106.908 81.3814 109.199 85.5665 109.463 85.7427C111.137 86.844 112.503 86.0511 126.952 75.4783C134.926 69.6633 141.754 64.5972 142.106 64.2448C142.899 63.4078 142.988 61.4254 142.239 60.4121C141.49 59.443 139.64 59.0906 138.626 59.7514Z" fill="#ECECEC"/>
<path d="M22.9447 72.3364C21.7113 73.3496 21.2267 75.8607 21.1826 81.4554C21.1826 88.3277 22.7685 92.9974 26.5571 97.3146C29.5968 100.751 35.4999 102.953 37.218 101.279C39.1123 99.3851 38.1431 97.0062 35.1034 95.993C34.1342 95.6405 32.8567 95.0238 32.24 94.5392C30.654 93.3938 28.3633 89.9136 27.7025 87.711C27.1298 85.6405 26.9536 78.9884 27.4382 75.8166C27.7465 73.9223 27.6584 73.5699 26.6893 72.6007C25.4117 71.3232 24.2663 71.2351 22.9447 72.3364Z" fill="#ECECEC"/>
<path d="M63.3403 99.6594C61.6222 101.554 61.1817 111.245 62.5914 116.664C63.6927 121.069 65.3227 124.065 68.1861 126.972C73.2522 132.127 79.9043 133.008 79.9043 128.514C79.9043 127.237 78.4064 125.739 77.173 125.739C75.9835 125.739 72.5914 123.404 71.2698 121.642C68.1421 117.545 67.0848 112.479 67.8337 105.607C68.3183 101.554 68.2742 100.849 67.6575 99.9238C66.8205 98.6462 64.3975 98.47 63.3403 99.6594Z" fill="#ECECEC"/>
</svg>
