<svg xmlns="http://www.w3.org/2000/svg" width="28" height="25" viewBox="0 0 28 25" fill="none">
  <path d="M27.3921 12.5785C27.3921 5.93188 21.3082 0.543732 13.8032 0.543732C6.2983 0.543732 0.214355 5.93188 0.214355 12.5785C0.214355 19.2251 6.2983 24.6133 13.8032 24.6133C21.3082 24.6133 27.3921 19.2251 27.3921 12.5785Z" fill="#148A92"/>
  <path d="M13.1079 6.23789C13.3923 5.72865 14.2143 5.72865 14.4988 6.23789L16.358 9.56604C16.4709 9.76827 16.6893 9.90843 16.9419 9.94086L21.0992 10.4746C21.7353 10.5562 21.9893 11.2468 21.529 11.6432L18.5208 14.2338C18.338 14.3912 18.2546 14.618 18.2977 14.8403L19.0079 18.4983C19.1166 19.058 18.4516 19.4848 17.8826 19.2206L14.1642 17.4935C13.9383 17.3886 13.6684 17.3886 13.4424 17.4935L9.724 19.2206C9.15505 19.4848 8.49007 19.058 8.59873 18.4983L9.30889 14.8403C9.35204 14.618 9.26863 14.3912 9.08584 14.2338L6.07758 11.6432C5.61728 11.2468 5.87128 10.5562 6.5074 10.4746L10.6647 9.94086C10.9173 9.90843 11.1357 9.76827 11.2486 9.56604L13.1079 6.23789Z" fill="white"/>
</svg>