<svg xmlns="http://www.w3.org/2000/svg" width="15" height="15" viewBox="0 0 15 15" fill="none">
  <path d="M10.4315 7.01326C10.3208 7.01326 10.2102 6.97248 10.1229 6.88515C9.954 6.71629 9.954 6.43682 10.1229 6.26796L11.9802 4.41059L10.1229 2.55321C9.954 2.38436 9.954 2.10488 10.1229 1.93603C10.2917 1.76717 10.5712 1.76717 10.74 1.93603L12.906 4.10201C12.9875 4.18353 13.0341 4.29414 13.0341 4.41059C13.0341 4.52704 12.9875 4.63768 12.906 4.7192L10.74 6.88515C10.6527 6.96666 10.5421 7.01326 10.4315 7.01326Z" fill="white"/>
  <path d="M12.5976 4.84731H2.11711C1.87838 4.84731 1.68042 4.64935 1.68042 4.41063C1.68042 4.1719 1.87838 3.97394 2.11711 3.97394H12.5976C12.8363 3.97394 13.0343 4.1719 13.0343 4.41063C13.0343 4.64935 12.8363 4.84731 12.5976 4.84731Z" fill="white"/>
  <path d="M4.28306 13.1562C4.17243 13.1562 4.06182 13.1154 3.97448 13.0281L1.8085 10.8621C1.72698 10.7806 1.68042 10.67 1.68042 10.5535C1.68042 10.4371 1.72698 10.3264 1.8085 10.2449L3.97448 8.07897C4.14334 7.91012 4.42281 7.91012 4.59167 8.07897C4.76052 8.24782 4.76052 8.5273 4.59167 8.69615L2.73429 10.5535L4.59167 12.4109C4.76052 12.5797 4.76052 12.8592 4.59167 13.0281C4.51015 13.1154 4.39951 13.1562 4.28306 13.1562Z" fill="white"/>
  <path d="M12.5976 10.984H2.11711C1.87838 10.984 1.68042 10.786 1.68042 10.5473C1.68042 10.3086 1.87838 10.1106 2.11711 10.1106H12.5976C12.8363 10.1106 13.0343 10.3086 13.0343 10.5473C13.0343 10.786 12.8363 10.984 12.5976 10.984Z" fill="white"/>
</svg>