<svg xmlns="http://www.w3.org/2000/svg" width="15" height="14" viewBox="0 0 15 14" fill="none">
  <path d="M7.77355 12.8217C6.95105 12.8217 6.12272 12.5067 5.49855 11.8825L2.85605 9.24002C2.21438 8.59836 1.87605 7.71169 1.91688 6.80752L2.05688 3.88503C2.12105 2.49086 3.22355 1.38836 4.62355 1.31836L7.54022 1.17836C8.45022 1.13753 9.33105 1.47586 9.97272 2.11753L12.6152 4.76003C13.8694 6.01419 13.8694 8.06169 12.6152 9.31586L10.0544 11.8767C9.42438 12.5067 8.60188 12.8217 7.77355 12.8217ZM3.47438 8.61586L6.11688 11.2584C7.03272 12.1742 8.52022 12.1742 9.43605 11.2584L11.9969 8.69752C12.9127 7.78169 12.9127 6.29419 11.9969 5.37836L9.34855 2.74169C8.88188 2.27503 8.24605 2.03003 7.57522 2.05919L4.65855 2.19919C3.71355 2.24003 2.97272 2.98086 2.92605 3.92586L2.78605 6.84836C2.75688 7.50169 3.00772 8.14919 3.47438 8.61586Z" fill="#0A2540"/>
  <path d="M6.27474 7.43754C5.23057 7.43754 4.37891 6.58587 4.37891 5.54171C4.37891 4.49754 5.23057 3.64587 6.27474 3.64587C7.31891 3.64587 8.17057 4.49754 8.17057 5.54171C8.17057 6.58587 7.31891 7.43754 6.27474 7.43754ZM6.27474 4.52087C5.71474 4.52087 5.25391 4.98171 5.25391 5.54171C5.25391 6.10171 5.71474 6.56254 6.27474 6.56254C6.83474 6.56254 7.29557 6.10171 7.29557 5.54171C7.29557 4.98171 6.83474 4.52087 6.27474 4.52087Z" fill="#0A2540"/>
  <path d="M8.31641 10.3542C8.20558 10.3542 8.09475 10.3134 8.00725 10.2259C7.83808 10.0567 7.83808 9.77671 8.00725 9.60755L10.3406 7.27421C10.5097 7.10505 10.7897 7.10505 10.9589 7.27421C11.1281 7.44338 11.1281 7.72338 10.9589 7.89255L8.62558 10.2259C8.53808 10.3134 8.42725 10.3542 8.31641 10.3542Z" fill="#0A2540"/>
</svg>