<svg width="447" height="226" viewBox="0 0 447 226" fill="none" xmlns="http://www.w3.org/2000/svg">
<g clip-path="url(#clip0_581_19824)">
<path d="M332.385 29.6377C332.385 31.0719 332.959 32.1988 333.533 32.1988C334.221 32.1988 334.68 33.8379 334.68 35.7843V39.3698H277.883C228.428 39.3698 220.97 39.1649 220.396 37.8332C219.478 35.8868 216.839 35.8868 215.692 37.8332C215.003 38.8576 212.594 39.3698 208.463 39.4723C200.775 39.6771 196.415 41.5211 194.12 45.5164C191.825 49.4092 187.695 63.9561 187.809 67.7465C187.924 69.2831 187.35 75.2248 186.662 80.8592C184.482 97.1476 188.154 126.651 193.432 135.666C194.579 137.612 197.448 140.276 199.972 141.505L204.447 143.861H187.58H170.598V98.2744V52.5849L167.729 50.1263L164.976 47.5652H133.306H101.637L98.8836 50.0239C95.6708 52.8923 80.869 78.8103 81.9016 79.7323C82.3606 80.0396 82.1311 80.3469 81.4427 80.3469C80.7542 80.3469 77.7709 84.6495 74.7876 89.9766L69.2799 99.6062L59.9858 101.757C31.1853 108.621 4.67967 116.817 2.49956 119.685C0.548928 122.041 0.0899559 131.568 1.92584 131.568C2.49956 131.568 3.53224 132.49 4.2207 133.617C5.13864 135.154 4.90916 136.076 3.07327 137.715C1.23738 139.354 0.778413 141.096 0.778413 145.91V152.057H10.5316H20.2847L16.7277 156.872C13.4001 161.687 9.95785 170.087 9.95785 173.775C9.95785 175.311 10.8758 175.619 15.0065 175.619H19.9405L20.7437 180.536C21.5469 186.17 26.4808 193.751 31.3 196.824C35.4308 199.488 44.4955 202.254 48.8557 202.254C54.2486 202.254 62.3954 199.59 67.2146 196.21C72.4927 192.522 77.6562 183.917 77.6562 178.999V175.619H124.471H171.286L176.335 171.009C180.581 167.218 182.072 166.399 185.744 166.399H189.989L190.334 160.56L190.678 154.618H196.415H202.152L202.496 166.706C202.726 175.721 203.185 178.692 204.218 178.385C205.136 178.077 205.594 174.594 205.594 166.296V154.618H220.511H235.428V166.296C235.428 174.594 235.887 178.077 236.805 178.385C237.837 178.692 238.296 175.721 238.526 166.706L238.87 154.618H244.607H250.344L250.688 160.457L251.033 166.399H258.262H265.49L264.917 174.287C264.458 181.56 264.802 182.79 267.785 187.912C273.522 197.746 285.57 203.381 297.274 201.844C304.847 200.82 313.912 195.39 318.043 189.551C321.141 184.941 321.485 183.712 321.485 175.414V166.399H326.648H331.926L331.467 173.672C330.894 182.79 333.303 188.731 339.958 194.673C354.99 208.196 380.577 202.049 387.462 183.404C388.38 180.843 388.609 177.053 388.265 172.853L387.577 166.399H400.657C413.05 166.399 413.853 166.501 413.853 168.448C413.853 169.78 414.656 170.497 416.148 170.497C417.639 170.497 418.443 169.78 418.443 168.55C418.443 167.526 419.475 166.399 420.737 166.092C422.573 165.682 423.032 164.657 423.032 160.969C423.032 157.282 422.573 156.257 420.737 155.847C419.475 155.54 418.443 154.618 418.443 153.696C418.443 152.774 417.525 152.057 416.148 152.057C414.886 152.057 413.853 152.774 413.853 153.594C413.853 154.72 412.476 155.13 408.116 155.13H402.379V149.598V144.169L407.542 142.427C412.935 140.583 416.607 136.998 417.869 132.285C418.672 129.724 418.902 129.929 422 135.564C425.098 140.993 431.523 146.935 434.277 146.935C434.966 146.935 435.998 145.603 436.572 143.964C437.605 141.3 437.375 140.788 434.277 138.739C428.999 135.256 426.13 128.495 426.704 120.812C427.048 115.382 427.966 113.231 432.556 106.367C440.932 93.8694 446.21 83.7276 446.784 79.0152C447.358 73.5857 444.604 68.4636 439.096 65.1854C435.08 62.7268 434.507 62.7268 423.606 64.161C421.77 64.4683 421.196 63.5463 420.164 59.0388C419.59 55.9656 418.557 53.9167 418.098 54.3265C417.639 54.8387 417.525 54.4289 417.869 53.4045C419.016 50.8434 414.082 42.648 410.296 40.9065C408.575 40.0869 404.329 39.3698 400.887 39.3698C396.297 39.3698 394.461 38.96 393.888 37.8332C393.084 35.7843 390.216 35.8868 389.298 37.8332C388.724 39.1649 387.003 39.3698 380.463 39.1649L372.201 38.8576L371.857 35.477C371.513 33.1208 371.857 32.1988 373.119 32.1988C374.152 32.1988 374.84 31.1744 374.84 29.6377V27.0767H353.613H332.385V29.6377ZM377.709 50.6385V53.1996L304.962 53.5069C228.658 53.7118 228.887 53.7118 231.526 49.4092C232.559 47.6677 236.116 47.5652 305.191 47.7701L377.709 48.0775V50.6385ZM155.911 59.5511C157.747 60.9853 157.976 63.0341 157.976 78.9127C157.976 96.0207 157.861 96.6354 155.452 98.172C153.272 99.6062 148.223 99.8111 123.898 99.8111H94.8676V90.2839C94.8676 81.1665 95.0971 80.5518 100.146 71.1271C103.014 65.8001 106.227 60.5755 107.145 59.5511C108.751 58.0144 111.505 57.8095 131.356 57.8095C150.633 57.8095 154.075 58.0144 155.911 59.5511ZM436.457 72.3564C438.178 73.7906 439.096 75.737 439.096 77.8883C439.096 81.1665 433.703 91.4108 426.934 101.04L423.606 105.855L423.377 89.7717C423.147 74.4053 423.262 73.5857 425.671 71.9466C429.114 69.488 433.244 69.6929 436.457 72.3564ZM273.408 75.3272C284.308 81.986 285.685 94.8938 276.62 103.806C271.457 109.031 267.326 110.363 259.065 109.85C246.672 109.031 238.64 100.426 239.673 88.9521C241.05 74.2004 259.524 66.7221 273.408 75.3272ZM299.684 85.1618C300.257 86.1862 300.602 88.1326 300.487 89.5668C300.487 91.001 300.946 90.1815 301.634 87.7228C302.667 84.2398 303.355 83.4202 305.421 83.4202C307.486 83.4202 308.175 84.2398 308.863 87.2106L309.781 91.1034L310.814 87.5179C312.191 83.1129 312.191 83.1129 315.174 83.9324C316.895 84.4447 317.239 84.9569 316.436 85.7764C315.862 86.4935 314.6 89.5668 313.797 92.6401C311.617 100.118 308.978 100.733 306.912 94.1767L305.306 89.5668L303.929 94.1767C301.979 100.631 299.569 100.221 297.389 92.845C296.356 89.6692 295.323 86.4935 295.094 85.7764C294.061 83.0105 298.422 82.4982 299.684 85.1618ZM326.878 90.2839C328.828 94.8938 329.517 97.5573 328.714 98.2744C327.91 98.9915 326.993 98.4793 325.845 96.9427C323.665 94.0743 319.075 93.9718 318.272 96.7378C317.928 97.8647 316.78 98.7867 315.748 98.7867C313.568 98.7867 313.797 97.5573 317.698 88.7473C320.911 81.3714 323.091 81.6787 326.878 90.2839ZM354.187 85.4691C354.187 86.9033 353.498 87.2106 351.662 86.9033L349.023 86.3911L351.662 88.1326C355.449 90.6937 354.875 92.6401 350.171 92.6401C347.417 92.6401 346.155 93.1523 346.155 94.1767C346.155 95.3036 347.417 95.7134 350.859 95.7134C357.858 95.7134 356.022 98.172 348.679 98.5818L342.942 98.8891L342.139 93.2547C341.565 89.0546 340.876 87.8253 339.729 88.235C338.811 88.5424 338.008 88.1326 337.893 87.4155C337.778 86.596 337.434 88.7473 337.09 92.1279C336.631 96.6354 335.942 98.2744 334.68 98.2744C333.418 98.2744 332.844 96.7378 332.385 92.6401C331.926 88.5424 331.353 87.0057 330.091 87.0057C329.173 87.0057 328.255 86.1862 328.025 85.2642C327.681 83.6251 328.943 83.5227 340.876 83.5227C353.039 83.5227 354.187 83.7276 354.187 85.4691ZM367.956 84.2398C370.021 85.0593 370.595 87.1082 369.677 90.2839C369.333 91.8205 368.529 92.4352 367.726 92.0254C367.038 91.6157 367.267 92.3328 368.3 93.767C372.545 99.094 368.988 100.938 364.628 95.6109C361.76 92.2303 360.842 92.3328 360.612 95.9183C360.497 97.25 359.809 98.2744 358.776 98.2744C357.399 98.2744 356.94 96.6354 356.711 90.7961L356.367 83.4202L361.301 83.5227C364.054 83.5227 367.038 83.83 367.956 84.2398ZM152.239 161.789C152.239 163.121 149.141 163.326 131.585 163.326C114.03 163.326 110.932 163.121 110.932 161.789C110.932 160.457 114.03 160.252 131.585 160.252C149.141 160.252 152.239 160.457 152.239 161.789ZM55.7403 165.887C58.9531 167.321 62.7396 172.853 62.7396 176.131C62.7396 179.307 59.2973 184.429 55.9697 186.17C50.6916 188.936 45.0692 188.424 40.4795 184.839C35.775 181.151 34.5128 177.053 36.3487 171.931C38.7583 165.374 48.282 162.404 55.7403 165.887ZM300.143 165.887C301.979 166.706 304.273 169.062 305.421 171.111C310.928 181.56 297.618 192.112 286.374 186.17C283.161 184.429 279.604 179.307 279.604 176.336C279.604 167.423 290.963 161.584 300.143 165.887ZM367.382 166.604C374.726 171.726 374.84 180.024 367.841 185.351C360.956 190.473 349.826 187.502 347.187 179.819C345.466 174.697 346.499 171.009 350.744 167.321C354.99 163.531 362.563 163.223 367.382 166.604ZM152.239 168.96C152.239 170.292 149.141 170.497 131.585 170.497C114.03 170.497 110.932 170.292 110.932 168.96C110.932 167.628 114.03 167.423 131.585 167.423C149.141 167.423 152.239 167.628 152.239 168.96Z" fill="#0CB9DE"/>
<path d="M252.184 75.9407C243.349 79.8336 239.562 90.6925 244.266 98.7855C251.266 110.874 268.248 111.386 276.968 99.9124C280.181 95.6098 280.64 86.5948 277.771 84.0337C276.853 83.1117 276.394 82.3946 276.853 82.3946C277.312 82.3946 276.509 81.1653 274.903 79.7311C269.28 74.3017 259.642 72.6626 252.184 75.9407ZM262.855 77.8872C263.199 78.7067 264.002 79.1165 264.691 78.8091C265.264 78.5018 265.494 78.8091 265.15 79.6287C264.805 80.4482 265.035 81.4727 265.723 81.8824C267.904 83.0093 271.575 91.4096 271.575 95.2C271.575 103.498 260.675 107.903 253.561 102.473C250.807 100.322 250.348 99.2977 250.463 94.8927C250.463 92.0243 251.151 88.951 251.954 88.1314C252.757 87.3119 253.102 86.0826 252.643 85.4679C252.298 84.9557 252.413 84.4435 252.987 84.4435C253.561 84.4435 255.511 82.5995 257.232 80.3458C260.675 75.8383 261.822 75.4285 262.855 77.8872Z" fill="#0CB9DE"/>
<path d="M361.087 88.0376C361.087 88.8571 362.12 89.5742 363.382 89.5742C364.644 89.5742 365.677 89.1644 365.677 88.5498C365.677 88.0376 364.873 87.9351 363.726 88.2425C362.464 88.6522 362.12 88.5498 362.693 87.7302C363.152 87.0131 362.923 86.5009 362.349 86.5009C361.661 86.5009 361.087 87.218 361.087 88.0376Z" fill="#0CB9DE"/>
<path d="M45.5269 172.948C42.3141 176.533 46.7891 182.475 51.0346 180.119C55.0506 177.865 53.5589 171.514 48.9692 171.514C47.8218 171.514 46.3301 172.231 45.5269 172.948ZM51.264 174.075C53.2147 176.124 51.8378 178.685 48.9692 178.685C47.707 178.685 46.3301 177.968 45.9859 177.148C45.2974 175.611 47.248 172.538 48.9692 172.538C49.4282 172.538 50.4608 173.255 51.264 174.075Z" fill="#0CB9DE"/>
<path d="M289.939 172.948C286.726 176.533 291.201 182.475 295.447 180.119C299.463 177.865 297.971 171.514 293.381 171.514C292.234 171.514 290.742 172.231 289.939 172.948ZM295.676 174.075C297.627 176.124 296.25 178.685 293.381 178.685C292.119 178.685 290.742 177.968 290.398 177.148C289.71 175.611 291.66 172.538 293.381 172.538C293.84 172.538 294.873 173.255 295.676 174.075Z" fill="#0CB9DE"/>
<path d="M356.933 172.339C354.523 173.773 354.293 176.539 356.359 178.896C358.195 180.944 358.883 181.047 361.522 179.92C363.473 179.1 364.506 177.974 364.506 176.335C364.506 172.442 360.375 170.188 356.933 172.339ZM363.129 176.437C362.67 178.691 357.851 179.305 356.933 177.257C356.474 176.335 356.818 174.9 357.621 174.081C359.457 172.134 363.702 173.978 363.129 176.437Z" fill="#0CB9DE"/>
</g>
<defs>
<clipPath id="clip0_581_19824">
<rect width="446.092" height="225.552" fill="white" transform="translate(0.766602 0.125)"/>
</clipPath>
</defs>
</svg>
