<svg xmlns="http://www.w3.org/2000/svg" width="28" height="27" viewBox="0 0 28 27" fill="none">
  <path d="M24.8157 17.6998L24.8158 17.6997C25.4968 17.4768 26.2453 17.7089 26.6773 18.2773C26.6775 18.2775 26.6777 18.2778 26.6778 18.278L24.8157 17.6998ZM24.8157 17.6998L16.8034 20.3508L16.8031 20.3509C16.6763 20.3936 16.5432 20.4153 16.4093 20.4153H16.2322C16.4704 19.6825 16.2577 18.9408 15.7906 18.379C15.3094 17.8003 14.5557 17.4086 13.7359 17.4086H11.472C10.6848 17.4076 9.92126 17.1417 9.30602 16.6544C8.5199 16.0318 7.54453 15.6921 6.53896 15.6905H6.53888H5.71514C5.5164 15.1759 5.01916 14.8337 4.46201 14.8314H4.46181H2.29817C1.55397 14.8314 0.95 15.4304 0.95 16.17V25.1901C0.95 25.9298 1.55397 26.5287 2.29817 26.5287H4.46181H4.46196C4.83565 26.5276 5.19167 26.3717 5.44451 26.0992L24.8157 17.6998ZM26.035 19.4091L26.0351 19.4088C26.0732 19.2158 26.0263 19.0158 25.906 18.8592L25.9059 18.8591C25.8979 18.8487 25.8906 18.8379 25.884 18.827C25.6976 18.6063 25.3945 18.52 25.1182 18.6095C25.1182 18.6096 25.1181 18.6096 25.1181 18.6096L17.1116 21.2591C17.1115 21.2592 17.1115 21.2592 17.1114 21.2592C16.8853 21.3357 16.6481 21.3746 16.4092 21.3743M26.035 19.4091L16.4092 21.3243M26.035 19.4091C25.9981 19.6023 25.8793 19.7704 25.7087 19.8707L25.7082 19.871L17.5994 24.7719C17.5994 24.7719 17.5994 24.7719 17.5994 24.7719C17.2004 25.0129 16.7423 25.1402 16.2752 25.1401H16.2752H5.80998V16.6495H6.53882C7.32598 16.6505 8.08955 16.9164 8.70479 17.4037C9.49091 18.0263 10.4663 18.3661 11.4719 18.3676H11.4719H13.7351C14.2971 18.3676 14.8174 18.6691 15.1137 19.0807C15.4048 19.485 15.4758 19.988 15.1689 20.4153H12.5623H12.5623C11.6981 20.4157 10.8533 20.6696 10.134 21.1452L10.1339 21.1453L9.81799 21.3558L9.81796 21.3558C9.59662 21.5035 9.53762 21.8016 9.68662 22.0216C9.83546 22.2413 10.1353 22.2995 10.3564 22.152L26.035 19.4091ZM16.4092 21.3743L16.4092 21.3243M16.4092 21.3743H16.4092V21.3243M16.4092 21.3743H12.5624M16.4092 21.3243H12.5623M12.5624 21.3743L12.5623 21.3243M12.5624 21.3743C11.8888 21.3749 11.2304 21.5729 10.6696 21.9433M12.5624 21.3743H12.5623V21.3243M12.5623 21.3243L10.6696 21.9433M10.6696 21.9433L10.6696 21.9432L10.6419 21.9016L10.6695 21.9433C10.6695 21.9433 10.6696 21.9433 10.6696 21.9433ZM25.9456 18.8287C26.0747 18.9967 26.1251 19.2113 26.0841 19.4185C26.0445 19.6259 25.917 19.8062 25.7341 19.9138L25.9456 18.8287ZM4.46181 25.5697H2.29817C2.08644 25.5697 1.91546 25.3994 1.91546 25.1901V16.17C1.91546 15.9608 2.08649 15.7905 2.29817 15.7905H4.46181C4.67354 15.7905 4.84451 15.9608 4.84451 16.17V25.1901C4.84451 25.3994 4.67353 25.5697 4.46181 25.5697Z" fill="#121212" stroke="#121212" stroke-width="0.1"/>
  <path d="M21.0771 15.909L21.0775 15.9089L23.0863 15.7542L23.2552 13.5619L18.8383 9.17676L18.8373 9.17572C18.7057 9.03715 18.6654 8.83587 18.7338 8.65774L18.7343 8.65655C19.6668 6.4033 18.8672 3.80981 16.8236 2.46044C14.7799 1.11099 12.0606 1.3814 10.3271 3.10626C8.59377 4.83099 8.32818 7.53033 9.69244 9.55534C11.0568 11.5805 13.6719 12.3682 15.9402 11.4368L15.9415 11.4363L15.9415 11.4363C16.1209 11.3684 16.3235 11.4086 16.463 11.5399L16.4639 11.5408L16.4639 11.5408L17.3265 12.3966L18.1714 12.3999L18.1715 12.3999L18.1713 12.4499C18.5388 12.4508 18.8502 12.7187 18.9034 13.0796L21.0771 15.909ZM21.0771 15.909C20.8538 15.928 20.6552 15.7699 20.625 15.5503L20.625 15.5499L20.4848 14.592L21.0771 15.909ZM16.6968 13.1267L16.6969 13.1268L23.3034 16.6478C23.6704 16.6254 23.9639 16.3363 23.9892 15.9722L24.0391 15.976L24.0391 15.9758C24.0391 15.9757 24.0391 15.9757 24.0391 15.9756L24.2241 13.5689C24.2242 13.5687 24.2242 13.5685 24.2242 13.5683C24.2479 13.3354 24.1645 13.1043 23.9971 12.9394C23.9971 12.9394 23.9971 12.9393 23.997 12.9393L19.7415 8.71557C20.6074 6.30032 19.8375 3.60411 17.8207 1.99946C15.5912 0.217132 12.4149 0.207402 10.1743 1.9761C8.80715 3.04922 7.97224 4.65541 7.88356 6.38349C7.76234 8.41208 8.67673 10.3651 10.3167 11.581C11.9483 12.7907 14.0806 13.1096 15.9978 12.4324L16.6968 13.1267ZM21.0765 16.8698C21.1331 16.8699 21.1896 16.8612 23.3068 16.6977L19.7204 15.6801C19.8142 16.3367 20.3824 16.8236 21.0506 16.8196V16.8696C21.0507 16.8696 21.0508 16.8696 21.0509 16.8696C21.0622 16.8696 21.0694 16.8698 21.0765 16.8698ZM19.6709 15.6871C19.6709 15.6872 19.6709 15.6872 19.6709 15.6872L17.2539 13.306L17.2537 13.356L17.2537 13.356L18.0207 13.3589L18.1443 14.2016L18.1443 14.2017C18.2016 14.5874 18.5341 14.8731 18.9261 14.8749H18.9262L19.5525 14.8773L19.6709 15.6871Z" fill="#121212" stroke="#121212" stroke-width="0.1"/>
  <path d="M21.5968 14.3453L21.5968 14.3453L17.457 10.2364L21.5968 14.3453ZM21.5968 14.3453L21.5974 14.3459C21.7868 14.5275 22.0877 14.5249 22.2738 14.34C22.4602 14.155 22.4628 13.8558 22.2797 13.6676L22.2791 13.667L18.1393 9.55767L18.1392 9.55767C17.9508 9.37066 17.6454 9.37065 17.4569 9.55766L21.5968 14.3453Z" fill="#121212" stroke="#121212" stroke-width="0.1"/>
  <path d="M11.1945 3.94721L11.1945 3.9472L11.1937 3.94799C10.6841 4.4536 10.5316 5.21425 10.8073 5.87517L10.8073 5.87517C11.083 6.53602 11.7324 6.96664 12.4526 6.96664C13.1728 6.96664 13.8222 6.53602 14.0979 5.87517C14.3737 5.21425 14.2211 4.45359 13.7116 3.94799L13.7116 3.94798L13.7107 3.94721C13.0069 3.27938 11.8984 3.27938 11.1945 3.94721ZM13.0297 5.76964C12.7068 6.07549 12.1985 6.07549 11.8756 5.76964C11.6427 5.53823 11.5732 5.19057 11.6992 4.88854C11.8253 4.58628 12.1226 4.3889 12.4527 4.3889C12.7827 4.3889 13.08 4.58628 13.2061 4.88854C13.3321 5.19062 13.2626 5.53828 13.0297 5.76964Z" fill="#121212" stroke="#121212" stroke-width="0.1"/>
</svg>