<svg xmlns="http://www.w3.org/2000/svg" width="50" height="51" viewBox="0 0 50 51" fill="none">
  <path d="M24.8003 3.88023C12.87 3.88023 3.19653 13.5537 3.19653 25.484C3.19653 37.4143 12.87 47.0878 24.8003 47.0878C36.7306 47.0878 46.4041 37.4143 46.4041 25.484C46.4041 13.5537 36.7306 3.88023 24.8003 3.88023ZM35.1826 20.165C35.1971 20.3917 35.1971 20.628 35.1971 20.8594C35.1971 27.9385 29.8058 36.093 19.9539 36.093C16.9159 36.093 14.0997 35.2105 11.7271 33.6915C12.1611 33.7397 12.5758 33.759 13.0195 33.759C15.5271 33.759 17.8321 32.9103 19.6694 31.4733C17.3161 31.425 15.339 29.8819 14.6639 27.7601C15.4885 27.8807 16.2311 27.8807 17.0798 27.6637C15.8681 27.4175 14.779 26.7594 13.9975 25.8012C13.216 24.843 12.7904 23.6439 12.7928 22.4074V22.3399C13.5017 22.7401 14.336 22.9861 15.2088 23.0198C14.4751 22.5308 13.8733 21.8683 13.4569 21.0911C13.0405 20.3138 12.8224 19.4458 12.8218 18.564C12.8218 17.5658 13.0822 16.6544 13.5499 15.8636C14.8949 17.5192 16.5732 18.8734 18.4757 19.8379C20.3783 20.8025 22.4625 21.3559 24.5929 21.4622C23.8358 17.8214 26.5556 14.875 29.8251 14.875C31.3682 14.875 32.757 15.5212 33.736 16.5628C34.9464 16.3362 36.1037 15.8829 37.1357 15.2753C36.7354 16.5146 35.8963 17.561 34.7824 18.2217C35.8626 18.1059 36.9042 17.8069 37.8686 17.3874C37.1405 18.458 36.2291 19.4079 35.1826 20.165Z" fill="#FA8B02"/>
</svg>