<svg xmlns="http://www.w3.org/2000/svg" width="44" height="45" viewBox="0 0 44 45" fill="none">
  <path d="M22.2447 0.627319C10.5026 0.627319 0.980469 10.5291 0.980469 22.7394C0.980469 34.9497 10.5026 44.8515 22.2447 44.8515C33.9869 44.8515 43.509 34.9497 43.509 22.7394C43.509 10.5291 33.9869 0.627319 22.2447 0.627319ZM31.9538 17.868C31.9632 18.0856 31.9677 18.3042 31.9677 18.5239C31.9677 25.2304 27.0585 32.9641 18.0809 32.9644H18.0812H18.0809C15.3245 32.9644 12.7596 32.1243 10.5996 30.6846C10.9815 30.7315 11.3702 30.7547 11.7638 30.7547C14.0506 30.7547 16.1551 29.9436 17.8258 28.5822C15.6892 28.541 13.8878 27.0737 13.2661 25.057C13.5636 25.1164 13.8696 25.1488 14.1834 25.1488C14.6288 25.1488 15.0604 25.0864 15.4705 24.97C13.2372 24.505 11.5548 22.4526 11.5548 19.9949C11.5548 19.972 11.5548 19.9514 11.5555 19.9302C12.2132 20.3104 12.9653 20.5392 13.7661 20.5648C12.4556 19.6555 11.5941 18.1011 11.5941 16.3402C11.5941 15.4103 11.8358 14.5391 12.255 13.7891C14.6619 16.8601 18.259 18.8798 22.3155 19.0921C22.2318 18.7202 22.1886 18.3329 22.1886 17.9348C22.1886 15.133 24.3745 12.8599 27.0699 12.8599C28.4739 12.8599 29.7419 13.477 30.6325 14.4636C31.7445 14.2355 32.7886 13.813 33.7318 13.2317C33.3668 14.4163 32.5933 15.4103 31.5855 16.0389C32.5728 15.9161 33.5138 15.6438 34.3882 15.2396C33.7351 16.2575 32.9067 17.1516 31.9538 17.868Z" fill="#0CB9DE"/>
</svg>