<svg xmlns="http://www.w3.org/2000/svg" width="41" height="41" viewBox="0 0 41 41" fill="none">
  <g clip-path="url(#clip0_627_30052)">
    <path d="M33.6408 14.5139C33.6408 14.7246 33.6408 14.9089 33.6408 15.0669C33.6408 15.2249 33.6408 15.4093 33.6408 15.6199C33.6408 18.148 33.1668 20.7024 32.2188 23.2832C31.2708 25.864 29.8882 28.1945 28.0711 30.275C26.2541 32.3554 23.9893 34.0539 21.2769 35.3706C18.5645 36.6873 15.4439 37.3457 11.9151 37.3457C9.75566 37.3457 7.70159 37.056 5.75285 36.4767C3.80412 35.8973 1.96072 35.0546 0.222656 33.9486C0.485999 33.9486 0.775676 33.9749 1.09169 34.0276C1.4077 34.0803 1.69738 34.1066 1.96072 34.1066C3.80412 34.1066 5.52901 33.8169 7.1354 33.2376C8.74179 32.6582 10.2033 31.8682 11.5201 30.8675C9.83466 30.8675 8.35995 30.354 7.0959 29.3269C5.83186 28.2999 4.93649 27.049 4.4098 25.5743C4.67315 25.6796 4.91016 25.7323 5.12083 25.7323C5.3315 25.7323 5.59485 25.7323 5.91086 25.7323C6.22687 25.7323 6.56921 25.706 6.93789 25.6533C7.30657 25.6006 7.62259 25.5743 7.88593 25.5743C6.20054 25.2583 4.76532 24.4024 3.58028 23.0067C2.39523 21.611 1.80271 19.9651 1.80271 18.069C1.80271 18.069 1.80271 18.0558 1.80271 18.0295C1.80271 18.0032 1.80271 17.9637 1.80271 17.911C2.38207 18.1744 2.94825 18.3982 3.50127 18.5825C4.05429 18.7669 4.62048 18.859 5.19983 18.859C4.19913 18.1217 3.38277 17.2 2.75075 16.0939C2.11872 14.9879 1.80271 13.8029 1.80271 12.5388C1.80271 11.8015 1.90805 11.1168 2.11872 10.4847C2.3294 9.85272 2.59274 9.27337 2.90875 8.74669C4.80482 11.1168 7.0959 12.9997 9.782 14.3954C12.4681 15.7911 15.3912 16.568 18.5513 16.726C18.3406 16.41 18.2221 16.1071 18.1958 15.8174C18.1695 15.5278 18.1563 15.1986 18.1563 14.8299C18.1563 12.7232 18.8937 10.9324 20.3684 9.45771C21.8431 7.98299 23.6338 7.24563 25.7406 7.24563C26.7939 7.24563 27.8078 7.45631 28.7822 7.87765C29.7565 8.299 30.5861 8.85202 31.2708 9.53671C32.1135 9.32604 32.943 9.08903 33.7593 8.82569C34.5757 8.56235 35.3526 8.22 36.0899 7.79865C35.8793 8.74669 35.4711 9.56305 34.8654 10.2477C34.2597 10.9324 33.5355 11.5118 32.6928 11.9858C33.5355 11.9331 34.3255 11.8015 35.0629 11.5908C35.8003 11.3801 36.4586 11.0904 37.038 10.7218C36.7746 11.3538 36.3533 12.0121 35.7739 12.6968C35.1946 13.3815 34.4835 13.9872 33.6408 14.5139Z" fill="#0CB9DE"/>
  </g>
  <defs>
    <clipPath id="clip0_627_30052">
      <rect width="40.4494" height="40.4494" fill="white" transform="matrix(1 0 0 -1 0.222656 40.6641)"/>
    </clipPath>
  </defs>
</svg>