<svg width="43" height="31" viewBox="0 0 43 31" fill="none" xmlns="http://www.w3.org/2000/svg">
    <rect x="0.498016" y="0.666748" width="41.4713" height="29" rx="3.5" fill="white"
        stroke="#B2BCCA" />
    <path fill-rule="evenodd" clip-rule="evenodd"
        d="M13.4268 19.9895H10.8538L8.92443 12.4072C8.83285 12.0584 8.6384 11.75 8.35238 11.6047C7.63858 11.2395 6.85202 10.9488 5.99396 10.8022V10.5103H10.1388C10.7108 10.5103 11.1398 10.9488 11.2113 11.4581L12.2124 16.9275L14.7841 10.5103H17.2855L13.4268 19.9895ZM18.7157 19.9895H16.2858L18.2867 10.5103H20.7166L18.7157 19.9895ZM23.8603 13.1364C23.9318 12.6258 24.3608 12.3339 24.8614 12.3339C25.6479 12.2606 26.5048 12.4072 27.2198 12.7712L27.6488 10.7303C26.9338 10.4383 26.1472 10.2917 25.4334 10.2917C23.075 10.2917 21.3589 11.6048 21.3589 13.427C21.3589 14.8134 22.5745 15.5413 23.4325 15.9798C24.3608 16.417 24.7184 16.7089 24.6469 17.1462C24.6469 17.8021 23.9318 18.094 23.218 18.094C22.36 18.094 21.5019 17.8754 20.7166 17.5101L20.2875 19.5523C21.1456 19.9163 22.0739 20.0629 22.932 20.0629C25.5764 20.1349 27.2198 18.8231 27.2198 16.8543C27.2198 14.3748 23.8603 14.2295 23.8603 13.1364ZM35.7238 19.9895L33.7944 10.5103H31.722C31.293 10.5103 30.864 10.8022 30.7209 11.2395L27.1482 19.9895H29.6496L30.1489 18.6045H33.2224L33.5084 19.9895H35.7238ZM32.0797 13.063L32.7935 16.6355H30.7926L32.0797 13.063Z"
        fill="#28356A" />
</svg>
    