<svg xmlns="http://www.w3.org/2000/svg" width="44" height="45" viewBox="0 0 44 45" fill="none">
  <path d="M21.7731 0.627319C10.0309 0.627319 0.508789 10.5291 0.508789 22.7394C0.508789 34.9497 10.0309 44.8515 21.7731 44.8515C33.5152 44.8515 43.0373 34.9497 43.0373 22.7394C43.0373 10.5291 33.5152 0.627319 21.7731 0.627319ZM22.2237 35.6137C22.2234 35.6137 22.2241 35.6137 22.2237 35.6137H22.2185C20.0884 35.6127 17.9953 35.0573 16.1364 34.0033L9.38977 35.8431L11.1954 28.9871C10.0815 26.9809 9.49555 24.7048 9.49652 22.373C9.49944 15.0783 15.2088 9.14372 22.2237 9.14372C25.628 9.14507 28.8237 10.523 31.2264 13.0235C33.6294 15.5244 34.9519 18.8484 34.9506 22.3834C34.9477 29.6784 29.2377 35.6137 22.2237 35.6137Z" fill="#0CB9DE"/>
  <path d="M22.2283 11.3783C16.3934 11.3783 11.6481 16.3108 11.6455 22.374C11.6449 24.4517 12.2042 26.4751 13.263 28.2259L13.5144 28.6419L12.4456 32.6999L16.4492 31.608L16.8357 31.8462C18.4596 32.8483 20.3214 33.3784 22.2196 33.3791H22.2238C28.0541 33.3791 32.7995 28.4462 32.8021 22.3827C32.803 19.4443 31.7037 16.6816 29.7066 14.6032C27.7095 12.5248 25.0535 11.3793 22.2283 11.3783ZM28.4503 27.1017C28.1852 27.8736 26.9149 28.5785 26.304 28.6736C25.7559 28.7586 25.0629 28.7941 24.301 28.5427C23.839 28.3902 23.2468 28.1868 22.4879 27.8463C19.2981 26.4144 17.2147 23.0754 17.0557 22.8548C16.8967 22.6341 15.7572 21.0621 15.7572 19.4348C15.7572 17.8079 16.5787 17.0079 16.8701 16.6772C17.1618 16.3463 17.5064 16.2636 17.7182 16.2636C17.9301 16.2636 18.1423 16.2656 18.3276 16.2751C18.5229 16.2852 18.7851 16.1978 19.043 16.8426C19.3081 17.5046 19.9441 19.1315 20.0236 19.2968C20.1031 19.4625 20.156 19.6555 20.0502 19.8762C19.9441 20.0968 19.5917 20.5729 19.2552 21.0068C19.1141 21.1887 18.9301 21.3506 19.1157 21.6816C19.301 22.0123 19.9395 23.095 20.8847 23.9716C22.0995 25.0978 23.1242 25.4467 23.4422 25.6124C23.7598 25.7777 23.9454 25.75 24.131 25.5297C24.3163 25.309 24.9259 24.5644 25.1378 24.2334C25.3497 23.9024 25.5619 23.9577 25.8533 24.0681C26.145 24.1781 27.7083 24.978 28.0262 25.1434C28.3442 25.309 28.5561 25.3917 28.6356 25.5297C28.7154 25.6677 28.7154 26.3293 28.4503 27.1017Z" fill="#0CB9DE"/>
</svg>