<svg xmlns="http://www.w3.org/2000/svg" width="42" height="41" viewBox="0 0 42 41" fill="none">
  <g clip-path="url(#clip0_627_30054)">
    <path d="M38.2297 12.2229C38.2297 12.2229 38.1112 11.7357 37.8741 10.7613C37.6371 9.78693 37.2816 9.03641 36.8076 8.50972C36.0702 7.82503 35.3461 7.41685 34.635 7.28518C33.924 7.15351 33.4105 7.035 33.0945 6.92966C30.3557 6.71899 27.4458 6.60049 24.3647 6.57415C21.2836 6.54782 19.743 6.53465 19.743 6.53465C19.743 6.53465 18.2024 6.54782 15.1213 6.57415C12.0402 6.60049 9.13029 6.71899 6.39152 6.92966C6.07551 6.92966 5.562 6.9955 4.85097 7.12717C4.13994 7.25884 3.41575 7.71969 2.67839 8.50972C2.09904 9.08908 1.71719 9.85277 1.53285 10.8008C1.34851 11.7488 1.25634 12.2229 1.25634 12.2229C1.25634 12.2229 1.19051 12.9075 1.05884 14.2769C0.927164 15.6463 0.861328 17.0684 0.861328 18.5431V21.3872C0.861328 23.0726 0.927164 24.5473 1.05884 25.8113C1.19051 27.0754 1.25634 27.7074 1.25634 27.7074C1.25634 27.7074 1.37485 28.2078 1.61185 29.2085C1.84886 30.2092 2.20438 30.9465 2.67839 31.4205C3.41575 32.1579 4.19261 32.5924 5.00898 32.7241C5.82534 32.8558 6.44419 32.9479 6.86554 33.0006C8.34026 33.1059 10.8552 33.2113 14.4103 33.3166C17.9654 33.4219 19.743 33.4746 19.743 33.4746C19.743 33.4746 21.2836 33.4483 24.3647 33.3956C27.4458 33.3429 30.3557 33.2113 33.0945 33.0006C33.4105 33.0006 33.924 32.9348 34.635 32.8031C35.3461 32.6714 36.0702 32.2106 36.8076 31.4205C37.387 30.8412 37.7688 30.0775 37.9531 29.1295C38.1375 28.1814 38.2297 27.7074 38.2297 27.7074C38.2297 27.7074 38.2955 27.0754 38.4272 25.8113C38.5588 24.5473 38.6247 23.0726 38.6247 21.3872V18.5431C38.6247 16.9104 38.5588 15.4488 38.4272 14.1584C38.2955 12.868 38.2297 12.2229 38.2297 12.2229ZM14.1338 27.8654V12.2229L28.9073 19.9651L14.1338 27.8654Z" fill="#0CB9DE"/>
  </g>
  <defs>
    <clipPath id="clip0_627_30054">
      <rect width="40.4494" height="40.4494" fill="white" transform="matrix(1 0 0 -1 0.861328 40.6641)"/>
    </clipPath>
  </defs>
</svg>