<svg width="66" height="49" viewBox="0 0 66 49" fill="none" xmlns="http://www.w3.org/2000/svg">
<g id="Youtube logo">
<path id="Union" d="M65.7275 25.8134C65.7093 27.4518 65.6572 29.0726 65.5712 30.6758C65.4621 32.3705 65.3121 34.1498 65.1211 36.0139C64.9302 37.878 64.6711 39.4597 64.3438 40.7589C63.9619 42.2276 63.2527 43.4985 62.2162 44.5718C61.1797 45.6451 59.9523 46.3794 58.5339 46.7748C57.2792 47.1137 55.2471 47.3821 52.4376 47.5798C49.6281 47.7775 46.7778 47.9328 43.8865 48.0458C40.5042 48.1588 36.8764 48.2152 33.0032 48.2152H29.6482C28.6117 48.2152 27.4251 48.2011 26.0886 48.1729C24.7521 48.1446 23.3473 48.1023 21.8744 48.0458C21.8918 48.0052 21.909 47.9646 21.9261 47.9239C19.1012 47.8116 16.3154 47.6588 13.5687 47.4655C10.7593 47.2678 8.72717 46.9995 7.47246 46.6606C6.05408 46.2651 4.82664 45.5308 3.79014 44.4575C2.75364 43.3843 2.04445 42.1133 1.66258 40.6446C1.33526 39.3454 1.07614 37.7638 0.885204 35.8997C0.694269 34.0356 0.544248 32.2562 0.435143 30.5616C0.353104 29.0325 0.301909 27.4875 0.281557 25.9265C0.278199 25.9279 0.274842 25.9294 0.271484 25.9309V24.4904C0.271484 22.4004 0.32604 20.3386 0.435146 18.305C0.544251 16.6104 0.694273 14.831 0.885208 12.967C1.07614 11.1029 1.33526 9.52121 1.66258 8.22199C2.04445 6.75332 2.75363 5.48234 3.79014 4.40908C4.82664 3.33581 6.05408 2.60147 7.47246 2.20606C8.72717 1.86713 10.7593 1.59882 13.5687 1.40111C16.3782 1.2034 19.2286 1.04806 22.1199 0.935088C25.5022 0.822113 29.1299 0.765625 33.0032 0.765625C36.8764 0.765625 40.5042 0.822113 43.8865 0.935088C46.7778 1.04806 49.6281 1.2034 52.4376 1.40111C55.2471 1.59882 57.2792 1.86713 58.5339 2.20606C59.9523 2.60147 61.1797 3.33581 62.2162 4.40908C63.2527 5.48234 63.9619 6.75332 64.3438 8.22199C64.6711 9.52121 64.9302 11.1029 65.1211 12.967C65.3121 14.831 65.4621 16.6104 65.5712 18.305C65.6803 20.3386 65.7349 22.4004 65.7349 24.4904V25.8166C65.7324 25.8156 65.73 25.8145 65.7275 25.8134Z" fill="#FC0D1C"/>
<path id="Vector" d="M26.457 34.5445L43.4775 24.3768L26.457 14.209V34.5445Z" fill="white"/>
</g>
</svg>
